G04 #@! TF.GenerationSoftware,KiCad,Pcbnew,(5.1.6)-1*
G04 #@! TF.CreationDate,2020-11-12T22:36:03-06:00*
G04 #@! TF.ProjectId,ddr-arrow-controller,6464722d-6172-4726-9f77-2d636f6e7472,rev?*
G04 #@! TF.SameCoordinates,Original*
G04 #@! TF.FileFunction,Soldermask,Top*
G04 #@! TF.FilePolarity,Negative*
%FSLAX46Y46*%
G04 Gerber Fmt 4.6, Leading zero omitted, Abs format (unit mm)*
G04 Created by KiCad (PCBNEW (5.1.6)-1) date 2020-11-12 22:36:03*
%MOMM*%
%LPD*%
G01*
G04 APERTURE LIST*
%ADD10C,3.000000*%
%ADD11O,3.700000X2.700000*%
%ADD12R,3.700000X2.700000*%
%ADD13R,2.100000X4.600000*%
%ADD14R,1.950000X0.600000*%
%ADD15R,2.050000X0.600000*%
%ADD16R,1.625000X0.600000*%
%ADD17O,1.750000X1.200000*%
%ADD18R,1.750000X1.200000*%
%ADD19O,1.200000X1.750000*%
%ADD20R,1.200000X1.750000*%
%ADD21R,1.425000X1.750000*%
%ADD22C,0.100000*%
%ADD23R,1.750000X1.425000*%
%ADD24R,1.400000X1.150000*%
%ADD25R,1.150000X1.400000*%
%ADD26R,1.000000X1.000000*%
%ADD27C,2.600000*%
%ADD28R,2.600000X2.600000*%
%ADD29O,1.700000X1.700000*%
%ADD30R,1.700000X1.700000*%
%ADD31R,1.500000X1.500000*%
%ADD32C,7.500000*%
%ADD33R,1.500000X1.000000*%
%ADD34R,3.200000X0.400000*%
%ADD35R,2.440000X1.120000*%
%ADD36R,0.260000X0.760000*%
%ADD37R,0.760000X0.260000*%
%ADD38R,3.100000X7.700000*%
%ADD39R,1.000000X1.500000*%
%ADD40C,2.000000*%
G04 APERTURE END LIST*
D10*
X165161000Y-16002000D03*
D11*
X152361000Y-16002000D03*
D12*
X157861000Y-16002000D03*
D13*
X161442400Y-22270000D03*
X161442400Y-31070000D03*
D14*
X107631000Y-12725400D03*
X107631000Y-13995400D03*
X107631000Y-15265400D03*
X107631000Y-16535400D03*
X102681000Y-16535400D03*
X102681000Y-15265400D03*
X102681000Y-13995400D03*
X102681000Y-12725400D03*
D15*
X85570800Y-15748000D03*
X85570800Y-14478000D03*
X85570800Y-13208000D03*
X85570800Y-11938000D03*
X85570800Y-10668000D03*
X85570800Y-9398000D03*
X85570800Y-8128000D03*
X85570800Y-6858000D03*
X85570800Y-5588000D03*
X94870800Y-5588000D03*
X94870800Y-6858000D03*
X94870800Y-8128000D03*
X94870800Y-9398000D03*
X94870800Y-10668000D03*
X94870800Y-11938000D03*
X94870800Y-13208000D03*
X94870800Y-14478000D03*
X94870800Y-15748000D03*
D16*
X11315500Y-74549000D03*
X11315500Y-75819000D03*
X4940500Y-75819000D03*
X4940500Y-74549000D03*
X24015500Y-13589000D03*
X24015500Y-14859000D03*
X17640500Y-14859000D03*
X17640500Y-13589000D03*
D17*
X8636000Y-83788000D03*
D18*
X8636000Y-81788000D03*
D19*
X19844000Y-8128000D03*
D20*
X21844000Y-8128000D03*
D17*
X8636000Y-91027000D03*
D18*
X8636000Y-89027000D03*
D19*
X45688000Y-162125660D03*
D20*
X43688000Y-162125660D03*
D17*
X163068000Y-49308000D03*
D18*
X163068000Y-51308000D03*
D19*
X29242000Y-8128000D03*
D20*
X31242000Y-8128000D03*
D21*
X107202300Y-5842000D03*
X104227300Y-5842000D03*
D22*
G36*
X46314769Y-18746066D02*
G01*
X47552206Y-17508629D01*
X48559833Y-18516256D01*
X47322396Y-19753693D01*
X46314769Y-18746066D01*
G37*
G36*
X44211127Y-16642424D02*
G01*
X45448564Y-15404987D01*
X46456191Y-16412614D01*
X45218754Y-17650051D01*
X44211127Y-16642424D01*
G37*
D23*
X147320000Y-14949500D03*
X147320000Y-11974500D03*
D24*
X120015000Y-15122000D03*
X120015000Y-13072000D03*
D25*
X11693000Y-71628000D03*
X9643000Y-71628000D03*
X6613000Y-71628000D03*
X4563000Y-71628000D03*
X69401800Y-4800600D03*
X67351800Y-4800600D03*
X15960200Y-19608800D03*
X13910200Y-19608800D03*
X106231800Y-3302000D03*
X104181800Y-3302000D03*
X19313000Y-17272000D03*
X17263000Y-17272000D03*
X22343000Y-17272000D03*
X24393000Y-17272000D03*
D24*
X164439600Y-38464600D03*
X164439600Y-36414600D03*
D25*
X15960200Y-21691600D03*
X13910200Y-21691600D03*
X15960200Y-23774400D03*
X13910200Y-23774400D03*
X15960200Y-25857200D03*
X13910200Y-25857200D03*
X26933000Y-21336000D03*
X24883000Y-21336000D03*
D24*
X149606000Y-144771000D03*
X149606000Y-146821000D03*
X149606000Y-114799000D03*
X149606000Y-116849000D03*
X149606000Y-84827000D03*
X149606000Y-86877000D03*
X149606000Y-54864000D03*
X149606000Y-56914000D03*
X149733000Y-24883000D03*
X149733000Y-26933000D03*
X119634000Y-144771000D03*
X119634000Y-146821000D03*
X119634000Y-114799000D03*
X119634000Y-116849000D03*
X119634000Y-84827000D03*
X119634000Y-86877000D03*
X119634000Y-54855000D03*
X119634000Y-56905000D03*
X119634000Y-24883000D03*
X119634000Y-26933000D03*
X89662000Y-144771000D03*
X89662000Y-146821000D03*
X89662000Y-114799000D03*
X89662000Y-116849000D03*
X89662000Y-84827000D03*
X89662000Y-86877000D03*
X89662000Y-54855000D03*
X89662000Y-56905000D03*
X89662000Y-24883000D03*
X89662000Y-26933000D03*
X59690000Y-144771000D03*
X59690000Y-146821000D03*
X59690000Y-114799000D03*
X59690000Y-116849000D03*
X59690000Y-84827000D03*
X59690000Y-86877000D03*
X59690000Y-54855000D03*
X59690000Y-56905000D03*
X59690000Y-24883000D03*
X59690000Y-26933000D03*
X29718000Y-144771000D03*
X29718000Y-146821000D03*
X29718000Y-114799000D03*
X29718000Y-116849000D03*
X29718000Y-84827000D03*
X29718000Y-86877000D03*
X29718000Y-54855000D03*
X29718000Y-56905000D03*
X29718000Y-24883000D03*
X29718000Y-26933000D03*
D25*
X106222800Y-8382000D03*
X104172800Y-8382000D03*
X62221000Y-2286000D03*
X64271000Y-2286000D03*
D22*
G36*
X48083223Y-17264752D02*
G01*
X49073172Y-16274803D01*
X49886345Y-17087976D01*
X48896396Y-18077925D01*
X48083223Y-17264752D01*
G37*
G36*
X46633655Y-15815184D02*
G01*
X47623604Y-14825235D01*
X48436777Y-15638408D01*
X47446828Y-16628357D01*
X46633655Y-15815184D01*
G37*
D26*
X72390000Y-4572000D03*
D27*
X113872000Y-5461000D03*
D28*
X118872000Y-5461000D03*
D29*
X116078000Y-13970000D03*
D30*
X113538000Y-13970000D03*
D29*
X68326000Y-10414000D03*
X68326000Y-7874000D03*
X70866000Y-10414000D03*
X70866000Y-7874000D03*
X73406000Y-10414000D03*
D30*
X73406000Y-7874000D03*
D31*
X38518000Y-6858000D03*
X46318000Y-6858000D03*
D32*
X166000000Y-166000000D03*
X6000000Y-166000000D03*
X6000000Y-6000000D03*
X166000000Y-6000000D03*
D33*
X164439600Y-34432000D03*
X164439600Y-33132000D03*
D34*
X99618800Y-8058000D03*
X99618800Y-6858000D03*
X99618800Y-5658000D03*
D22*
G36*
X51627956Y-20263637D02*
G01*
X53890697Y-18000896D01*
X54173540Y-18283739D01*
X51910799Y-20546480D01*
X51627956Y-20263637D01*
G37*
G36*
X50779428Y-19415109D02*
G01*
X53042169Y-17152368D01*
X53325012Y-17435211D01*
X51062271Y-19697952D01*
X50779428Y-19415109D01*
G37*
G36*
X49930900Y-18566581D02*
G01*
X52193641Y-16303840D01*
X52476484Y-16586683D01*
X50213743Y-18849424D01*
X49930900Y-18566581D01*
G37*
D35*
X18224200Y-31496000D03*
X9614200Y-39116000D03*
X18224200Y-34036000D03*
X9614200Y-36576000D03*
X18224200Y-36576000D03*
X9614200Y-34036000D03*
X18224200Y-39116000D03*
X9614200Y-31496000D03*
D25*
X144364600Y-4318000D03*
X146414600Y-4318000D03*
D30*
X145643600Y-8585200D03*
D36*
X144893600Y-7100200D03*
X145393600Y-7100200D03*
X145893600Y-7100200D03*
X146393600Y-7100200D03*
X146393600Y-10070200D03*
X145893600Y-10070200D03*
X145393600Y-10070200D03*
X144893600Y-10070200D03*
D37*
X144158600Y-9335200D03*
X144158600Y-8835200D03*
X144158600Y-8335200D03*
X144158600Y-7835200D03*
X147128600Y-7835200D03*
X147128600Y-8335200D03*
X147128600Y-8835200D03*
X147128600Y-9335200D03*
G36*
G01*
X164895850Y-44401800D02*
X163983350Y-44401800D01*
G75*
G02*
X163739600Y-44158050I0J243750D01*
G01*
X163739600Y-43670550D01*
G75*
G02*
X163983350Y-43426800I243750J0D01*
G01*
X164895850Y-43426800D01*
G75*
G02*
X165139600Y-43670550I0J-243750D01*
G01*
X165139600Y-44158050D01*
G75*
G02*
X164895850Y-44401800I-243750J0D01*
G01*
G37*
G36*
G01*
X164895850Y-42526800D02*
X163983350Y-42526800D01*
G75*
G02*
X163739600Y-42283050I0J243750D01*
G01*
X163739600Y-41795550D01*
G75*
G02*
X163983350Y-41551800I243750J0D01*
G01*
X164895850Y-41551800D01*
G75*
G02*
X165139600Y-41795550I0J-243750D01*
G01*
X165139600Y-42283050D01*
G75*
G02*
X164895850Y-42526800I-243750J0D01*
G01*
G37*
D25*
X135899000Y-16865600D03*
X133849000Y-16865600D03*
X135888840Y-14932660D03*
X133838840Y-14932660D03*
D38*
X133837000Y-7112000D03*
X140737000Y-7112000D03*
D39*
X24308000Y-28358000D03*
X27508000Y-28358000D03*
X24308000Y-23458000D03*
X27508000Y-23458000D03*
X144196000Y-58330000D03*
X147396000Y-58330000D03*
X144196000Y-53430000D03*
X147396000Y-53430000D03*
X27508000Y-83402000D03*
X24308000Y-83402000D03*
X27508000Y-88302000D03*
X24308000Y-88302000D03*
X144196000Y-118210500D03*
X147396000Y-118210500D03*
X144196000Y-113310500D03*
X147396000Y-113310500D03*
X24308000Y-148246000D03*
X27508000Y-148246000D03*
X24308000Y-143346000D03*
X27508000Y-143346000D03*
X54280000Y-28358000D03*
X57480000Y-28358000D03*
X54280000Y-23458000D03*
X57480000Y-23458000D03*
X117424000Y-53430000D03*
X114224000Y-53430000D03*
X117424000Y-58330000D03*
X114224000Y-58330000D03*
X57480000Y-83402000D03*
X54280000Y-83402000D03*
X57480000Y-88302000D03*
X54280000Y-88302000D03*
X117424000Y-113310500D03*
X114224000Y-113310500D03*
X117424000Y-118210500D03*
X114224000Y-118210500D03*
X57480000Y-143346000D03*
X54280000Y-143346000D03*
X57480000Y-148246000D03*
X54280000Y-148246000D03*
X87452000Y-23458000D03*
X84252000Y-23458000D03*
X87452000Y-28358000D03*
X84252000Y-28358000D03*
X87452000Y-53430000D03*
X84252000Y-53430000D03*
X87452000Y-58330000D03*
X84252000Y-58330000D03*
X87452000Y-83402000D03*
X84252000Y-83402000D03*
X87452000Y-88302000D03*
X84252000Y-88302000D03*
X84252000Y-118274000D03*
X87452000Y-118274000D03*
X84252000Y-113374000D03*
X87452000Y-113374000D03*
X84252000Y-148246000D03*
X87452000Y-148246000D03*
X84252000Y-143346000D03*
X87452000Y-143346000D03*
X114224000Y-28358000D03*
X117424000Y-28358000D03*
X114224000Y-23458000D03*
X117424000Y-23458000D03*
X54280000Y-58330000D03*
X57480000Y-58330000D03*
X54280000Y-53430000D03*
X57480000Y-53430000D03*
X114224000Y-88302000D03*
X117424000Y-88302000D03*
X114224000Y-83402000D03*
X117424000Y-83402000D03*
X57480000Y-113310500D03*
X54280000Y-113310500D03*
X57480000Y-118210500D03*
X54280000Y-118210500D03*
X114224000Y-148246000D03*
X117424000Y-148246000D03*
X114224000Y-143346000D03*
X117424000Y-143346000D03*
X147486000Y-23534000D03*
X144286000Y-23534000D03*
X147486000Y-28434000D03*
X144286000Y-28434000D03*
X27508000Y-53366500D03*
X24308000Y-53366500D03*
X27508000Y-58266500D03*
X24308000Y-58266500D03*
X147396000Y-83402000D03*
X144196000Y-83402000D03*
X147396000Y-88302000D03*
X144196000Y-88302000D03*
X24308000Y-118210500D03*
X27508000Y-118210500D03*
X24308000Y-113310500D03*
X27508000Y-113310500D03*
X147396000Y-143346000D03*
X144196000Y-143346000D03*
X147396000Y-148246000D03*
X144196000Y-148246000D03*
D40*
X68427600Y-16586200D03*
X65379600Y-16611600D03*
D22*
G36*
X51031666Y-12453445D02*
G01*
X50642757Y-12064536D01*
X51774128Y-10933165D01*
X52163037Y-11322074D01*
X51031666Y-12453445D01*
G37*
G36*
X51597352Y-13019130D02*
G01*
X51208443Y-12630221D01*
X52339814Y-11498850D01*
X52728723Y-11887759D01*
X51597352Y-13019130D01*
G37*
G36*
X52163037Y-13584816D02*
G01*
X51774128Y-13195907D01*
X52905499Y-12064536D01*
X53294408Y-12453445D01*
X52163037Y-13584816D01*
G37*
G36*
X52728722Y-14150501D02*
G01*
X52339813Y-13761592D01*
X53471184Y-12630221D01*
X53860093Y-13019130D01*
X52728722Y-14150501D01*
G37*
G36*
X53294408Y-14716187D02*
G01*
X52905499Y-14327278D01*
X54036870Y-13195907D01*
X54425779Y-13584816D01*
X53294408Y-14716187D01*
G37*
G36*
X53860093Y-15281872D02*
G01*
X53471184Y-14892963D01*
X54602555Y-13761592D01*
X54991464Y-14150501D01*
X53860093Y-15281872D01*
G37*
G36*
X54425779Y-15847557D02*
G01*
X54036870Y-15458648D01*
X55168241Y-14327277D01*
X55557150Y-14716186D01*
X54425779Y-15847557D01*
G37*
G36*
X54991464Y-16413243D02*
G01*
X54602555Y-16024334D01*
X55733926Y-14892963D01*
X56122835Y-15281872D01*
X54991464Y-16413243D01*
G37*
G36*
X58173445Y-16024334D02*
G01*
X57784536Y-16413243D01*
X56653165Y-15281872D01*
X57042074Y-14892963D01*
X58173445Y-16024334D01*
G37*
G36*
X58739130Y-15458648D02*
G01*
X58350221Y-15847557D01*
X57218850Y-14716186D01*
X57607759Y-14327277D01*
X58739130Y-15458648D01*
G37*
G36*
X59304816Y-14892963D02*
G01*
X58915907Y-15281872D01*
X57784536Y-14150501D01*
X58173445Y-13761592D01*
X59304816Y-14892963D01*
G37*
G36*
X59870501Y-14327278D02*
G01*
X59481592Y-14716187D01*
X58350221Y-13584816D01*
X58739130Y-13195907D01*
X59870501Y-14327278D01*
G37*
G36*
X60436187Y-13761592D02*
G01*
X60047278Y-14150501D01*
X58915907Y-13019130D01*
X59304816Y-12630221D01*
X60436187Y-13761592D01*
G37*
G36*
X61001872Y-13195907D02*
G01*
X60612963Y-13584816D01*
X59481592Y-12453445D01*
X59870501Y-12064536D01*
X61001872Y-13195907D01*
G37*
G36*
X61567557Y-12630221D02*
G01*
X61178648Y-13019130D01*
X60047277Y-11887759D01*
X60436186Y-11498850D01*
X61567557Y-12630221D01*
G37*
G36*
X62133243Y-12064536D02*
G01*
X61744334Y-12453445D01*
X60612963Y-11322074D01*
X61001872Y-10933165D01*
X62133243Y-12064536D01*
G37*
G36*
X61001872Y-10402835D02*
G01*
X60612963Y-10013926D01*
X61744334Y-8882555D01*
X62133243Y-9271464D01*
X61001872Y-10402835D01*
G37*
G36*
X60436186Y-9837150D02*
G01*
X60047277Y-9448241D01*
X61178648Y-8316870D01*
X61567557Y-8705779D01*
X60436186Y-9837150D01*
G37*
G36*
X59870501Y-9271464D02*
G01*
X59481592Y-8882555D01*
X60612963Y-7751184D01*
X61001872Y-8140093D01*
X59870501Y-9271464D01*
G37*
G36*
X59304816Y-8705779D02*
G01*
X58915907Y-8316870D01*
X60047278Y-7185499D01*
X60436187Y-7574408D01*
X59304816Y-8705779D01*
G37*
G36*
X58739130Y-8140093D02*
G01*
X58350221Y-7751184D01*
X59481592Y-6619813D01*
X59870501Y-7008722D01*
X58739130Y-8140093D01*
G37*
G36*
X58173445Y-7574408D02*
G01*
X57784536Y-7185499D01*
X58915907Y-6054128D01*
X59304816Y-6443037D01*
X58173445Y-7574408D01*
G37*
G36*
X57607759Y-7008723D02*
G01*
X57218850Y-6619814D01*
X58350221Y-5488443D01*
X58739130Y-5877352D01*
X57607759Y-7008723D01*
G37*
G36*
X57042074Y-6443037D02*
G01*
X56653165Y-6054128D01*
X57784536Y-4922757D01*
X58173445Y-5311666D01*
X57042074Y-6443037D01*
G37*
G36*
X56122835Y-6054128D02*
G01*
X55733926Y-6443037D01*
X54602555Y-5311666D01*
X54991464Y-4922757D01*
X56122835Y-6054128D01*
G37*
G36*
X55557150Y-6619814D02*
G01*
X55168241Y-7008723D01*
X54036870Y-5877352D01*
X54425779Y-5488443D01*
X55557150Y-6619814D01*
G37*
G36*
X54991464Y-7185499D02*
G01*
X54602555Y-7574408D01*
X53471184Y-6443037D01*
X53860093Y-6054128D01*
X54991464Y-7185499D01*
G37*
G36*
X54425779Y-7751184D02*
G01*
X54036870Y-8140093D01*
X52905499Y-7008722D01*
X53294408Y-6619813D01*
X54425779Y-7751184D01*
G37*
G36*
X53860093Y-8316870D02*
G01*
X53471184Y-8705779D01*
X52339813Y-7574408D01*
X52728722Y-7185499D01*
X53860093Y-8316870D01*
G37*
G36*
X53294408Y-8882555D02*
G01*
X52905499Y-9271464D01*
X51774128Y-8140093D01*
X52163037Y-7751184D01*
X53294408Y-8882555D01*
G37*
G36*
X52728723Y-9448241D02*
G01*
X52339814Y-9837150D01*
X51208443Y-8705779D01*
X51597352Y-8316870D01*
X52728723Y-9448241D01*
G37*
G36*
X52163037Y-10013926D02*
G01*
X51774128Y-10402835D01*
X50642757Y-9271464D01*
X51031666Y-8882555D01*
X52163037Y-10013926D01*
G37*
M02*
