G04 #@! TF.GenerationSoftware,KiCad,Pcbnew,(5.1.6)-1*
G04 #@! TF.CreationDate,2020-11-12T22:36:03-06:00*
G04 #@! TF.ProjectId,ddr-arrow-controller,6464722d-6172-4726-9f77-2d636f6e7472,rev?*
G04 #@! TF.SameCoordinates,Original*
G04 #@! TF.FileFunction,Legend,Top*
G04 #@! TF.FilePolarity,Positive*
%FSLAX46Y46*%
G04 Gerber Fmt 4.6, Leading zero omitted, Abs format (unit mm)*
G04 Created by KiCad (PCBNEW (5.1.6)-1) date 2020-11-12 22:36:03*
%MOMM*%
%LPD*%
G01*
G04 APERTURE LIST*
%ADD10C,0.150000*%
%ADD11C,0.275000*%
%ADD12C,0.300000*%
%ADD13C,0.120000*%
%ADD14C,0.010000*%
%ADD15C,0.127000*%
%ADD16C,0.015000*%
G04 APERTURE END LIST*
D10*
X139733976Y-156361761D02*
X139876833Y-156409380D01*
X140114928Y-156409380D01*
X140210166Y-156361761D01*
X140257785Y-156314142D01*
X140305404Y-156218904D01*
X140305404Y-156123666D01*
X140257785Y-156028428D01*
X140210166Y-155980809D01*
X140114928Y-155933190D01*
X139924452Y-155885571D01*
X139829214Y-155837952D01*
X139781595Y-155790333D01*
X139733976Y-155695095D01*
X139733976Y-155599857D01*
X139781595Y-155504619D01*
X139829214Y-155457000D01*
X139924452Y-155409380D01*
X140162547Y-155409380D01*
X140305404Y-155457000D01*
X141114928Y-156361761D02*
X141019690Y-156409380D01*
X140829214Y-156409380D01*
X140733976Y-156361761D01*
X140686357Y-156266523D01*
X140686357Y-155885571D01*
X140733976Y-155790333D01*
X140829214Y-155742714D01*
X141019690Y-155742714D01*
X141114928Y-155790333D01*
X141162547Y-155885571D01*
X141162547Y-155980809D01*
X140686357Y-156076047D01*
X142019690Y-156409380D02*
X142019690Y-155885571D01*
X141972071Y-155790333D01*
X141876833Y-155742714D01*
X141686357Y-155742714D01*
X141591119Y-155790333D01*
X142019690Y-156361761D02*
X141924452Y-156409380D01*
X141686357Y-156409380D01*
X141591119Y-156361761D01*
X141543500Y-156266523D01*
X141543500Y-156171285D01*
X141591119Y-156076047D01*
X141686357Y-156028428D01*
X141924452Y-156028428D01*
X142019690Y-155980809D01*
X142495880Y-155742714D02*
X142495880Y-156409380D01*
X142495880Y-155837952D02*
X142543500Y-155790333D01*
X142638738Y-155742714D01*
X142781595Y-155742714D01*
X142876833Y-155790333D01*
X142924452Y-155885571D01*
X142924452Y-156409380D01*
X144114928Y-156361761D02*
X144257785Y-156409380D01*
X144495880Y-156409380D01*
X144591119Y-156361761D01*
X144638738Y-156314142D01*
X144686357Y-156218904D01*
X144686357Y-156123666D01*
X144638738Y-156028428D01*
X144591119Y-155980809D01*
X144495880Y-155933190D01*
X144305404Y-155885571D01*
X144210166Y-155837952D01*
X144162547Y-155790333D01*
X144114928Y-155695095D01*
X144114928Y-155599857D01*
X144162547Y-155504619D01*
X144210166Y-155457000D01*
X144305404Y-155409380D01*
X144543500Y-155409380D01*
X144686357Y-155457000D01*
X144972071Y-155742714D02*
X145353023Y-155742714D01*
X145114928Y-155409380D02*
X145114928Y-156266523D01*
X145162547Y-156361761D01*
X145257785Y-156409380D01*
X145353023Y-156409380D01*
X146114928Y-156409380D02*
X146114928Y-155885571D01*
X146067309Y-155790333D01*
X145972071Y-155742714D01*
X145781595Y-155742714D01*
X145686357Y-155790333D01*
X146114928Y-156361761D02*
X146019690Y-156409380D01*
X145781595Y-156409380D01*
X145686357Y-156361761D01*
X145638738Y-156266523D01*
X145638738Y-156171285D01*
X145686357Y-156076047D01*
X145781595Y-156028428D01*
X146019690Y-156028428D01*
X146114928Y-155980809D01*
X146591119Y-156409380D02*
X146591119Y-155742714D01*
X146591119Y-155933190D02*
X146638738Y-155837952D01*
X146686357Y-155790333D01*
X146781595Y-155742714D01*
X146876833Y-155742714D01*
X147210166Y-155742714D02*
X147210166Y-156409380D01*
X147210166Y-155837952D02*
X147257785Y-155790333D01*
X147353023Y-155742714D01*
X147495880Y-155742714D01*
X147591119Y-155790333D01*
X147638738Y-155885571D01*
X147638738Y-156409380D01*
X148495880Y-156361761D02*
X148400642Y-156409380D01*
X148210166Y-156409380D01*
X148114928Y-156361761D01*
X148067309Y-156266523D01*
X148067309Y-155885571D01*
X148114928Y-155790333D01*
X148210166Y-155742714D01*
X148400642Y-155742714D01*
X148495880Y-155790333D01*
X148543500Y-155885571D01*
X148543500Y-155980809D01*
X148067309Y-156076047D01*
X148924452Y-156361761D02*
X149019690Y-156409380D01*
X149210166Y-156409380D01*
X149305404Y-156361761D01*
X149353023Y-156266523D01*
X149353023Y-156218904D01*
X149305404Y-156123666D01*
X149210166Y-156076047D01*
X149067309Y-156076047D01*
X148972071Y-156028428D01*
X148924452Y-155933190D01*
X148924452Y-155885571D01*
X148972071Y-155790333D01*
X149067309Y-155742714D01*
X149210166Y-155742714D01*
X149305404Y-155790333D01*
X155829214Y-155504619D02*
X155876833Y-155457000D01*
X155972071Y-155409380D01*
X156210166Y-155409380D01*
X156305404Y-155457000D01*
X156353023Y-155504619D01*
X156400642Y-155599857D01*
X156400642Y-155695095D01*
X156353023Y-155837952D01*
X155781595Y-156409380D01*
X156400642Y-156409380D01*
X157019690Y-155409380D02*
X157114928Y-155409380D01*
X157210166Y-155457000D01*
X157257785Y-155504619D01*
X157305404Y-155599857D01*
X157353023Y-155790333D01*
X157353023Y-156028428D01*
X157305404Y-156218904D01*
X157257785Y-156314142D01*
X157210166Y-156361761D01*
X157114928Y-156409380D01*
X157019690Y-156409380D01*
X156924452Y-156361761D01*
X156876833Y-156314142D01*
X156829214Y-156218904D01*
X156781595Y-156028428D01*
X156781595Y-155790333D01*
X156829214Y-155599857D01*
X156876833Y-155504619D01*
X156924452Y-155457000D01*
X157019690Y-155409380D01*
X157733976Y-155504619D02*
X157781595Y-155457000D01*
X157876833Y-155409380D01*
X158114928Y-155409380D01*
X158210166Y-155457000D01*
X158257785Y-155504619D01*
X158305404Y-155599857D01*
X158305404Y-155695095D01*
X158257785Y-155837952D01*
X157686357Y-156409380D01*
X158305404Y-156409380D01*
X158924452Y-155409380D02*
X159019690Y-155409380D01*
X159114928Y-155457000D01*
X159162547Y-155504619D01*
X159210166Y-155599857D01*
X159257785Y-155790333D01*
X159257785Y-156028428D01*
X159210166Y-156218904D01*
X159162547Y-156314142D01*
X159114928Y-156361761D01*
X159019690Y-156409380D01*
X158924452Y-156409380D01*
X158829214Y-156361761D01*
X158781595Y-156314142D01*
X158733976Y-156218904D01*
X158686357Y-156028428D01*
X158686357Y-155790333D01*
X158733976Y-155599857D01*
X158781595Y-155504619D01*
X158829214Y-155457000D01*
X158924452Y-155409380D01*
X139733976Y-157773666D02*
X140210166Y-157773666D01*
X139638738Y-158059380D02*
X139972071Y-157059380D01*
X140305404Y-158059380D01*
X140638738Y-158059380D02*
X140638738Y-157392714D01*
X140638738Y-157583190D02*
X140686357Y-157487952D01*
X140733976Y-157440333D01*
X140829214Y-157392714D01*
X140924452Y-157392714D01*
X141257785Y-158059380D02*
X141257785Y-157392714D01*
X141257785Y-157583190D02*
X141305404Y-157487952D01*
X141353023Y-157440333D01*
X141448261Y-157392714D01*
X141543500Y-157392714D01*
X142019690Y-158059380D02*
X141924452Y-158011761D01*
X141876833Y-157964142D01*
X141829214Y-157868904D01*
X141829214Y-157583190D01*
X141876833Y-157487952D01*
X141924452Y-157440333D01*
X142019690Y-157392714D01*
X142162547Y-157392714D01*
X142257785Y-157440333D01*
X142305404Y-157487952D01*
X142353023Y-157583190D01*
X142353023Y-157868904D01*
X142305404Y-157964142D01*
X142257785Y-158011761D01*
X142162547Y-158059380D01*
X142019690Y-158059380D01*
X142686357Y-157392714D02*
X142876833Y-158059380D01*
X143067309Y-157583190D01*
X143257785Y-158059380D01*
X143448261Y-157392714D01*
X145162547Y-157964142D02*
X145114928Y-158011761D01*
X144972071Y-158059380D01*
X144876833Y-158059380D01*
X144733976Y-158011761D01*
X144638738Y-157916523D01*
X144591119Y-157821285D01*
X144543500Y-157630809D01*
X144543500Y-157487952D01*
X144591119Y-157297476D01*
X144638738Y-157202238D01*
X144733976Y-157107000D01*
X144876833Y-157059380D01*
X144972071Y-157059380D01*
X145114928Y-157107000D01*
X145162547Y-157154619D01*
X145733976Y-158059380D02*
X145638738Y-158011761D01*
X145591119Y-157964142D01*
X145543500Y-157868904D01*
X145543500Y-157583190D01*
X145591119Y-157487952D01*
X145638738Y-157440333D01*
X145733976Y-157392714D01*
X145876833Y-157392714D01*
X145972071Y-157440333D01*
X146019690Y-157487952D01*
X146067309Y-157583190D01*
X146067309Y-157868904D01*
X146019690Y-157964142D01*
X145972071Y-158011761D01*
X145876833Y-158059380D01*
X145733976Y-158059380D01*
X146495880Y-157392714D02*
X146495880Y-158059380D01*
X146495880Y-157487952D02*
X146543500Y-157440333D01*
X146638738Y-157392714D01*
X146781595Y-157392714D01*
X146876833Y-157440333D01*
X146924452Y-157535571D01*
X146924452Y-158059380D01*
X147257785Y-157392714D02*
X147638738Y-157392714D01*
X147400642Y-157059380D02*
X147400642Y-157916523D01*
X147448261Y-158011761D01*
X147543500Y-158059380D01*
X147638738Y-158059380D01*
X147972071Y-158059380D02*
X147972071Y-157392714D01*
X147972071Y-157583190D02*
X148019690Y-157487952D01*
X148067309Y-157440333D01*
X148162547Y-157392714D01*
X148257785Y-157392714D01*
X148733976Y-158059380D02*
X148638738Y-158011761D01*
X148591119Y-157964142D01*
X148543500Y-157868904D01*
X148543500Y-157583190D01*
X148591119Y-157487952D01*
X148638738Y-157440333D01*
X148733976Y-157392714D01*
X148876833Y-157392714D01*
X148972071Y-157440333D01*
X149019690Y-157487952D01*
X149067309Y-157583190D01*
X149067309Y-157868904D01*
X149019690Y-157964142D01*
X148972071Y-158011761D01*
X148876833Y-158059380D01*
X148733976Y-158059380D01*
X149638738Y-158059380D02*
X149543500Y-158011761D01*
X149495880Y-157916523D01*
X149495880Y-157059380D01*
X150162547Y-158059380D02*
X150067309Y-158011761D01*
X150019690Y-157916523D01*
X150019690Y-157059380D01*
X150924452Y-158011761D02*
X150829214Y-158059380D01*
X150638738Y-158059380D01*
X150543500Y-158011761D01*
X150495880Y-157916523D01*
X150495880Y-157535571D01*
X150543500Y-157440333D01*
X150638738Y-157392714D01*
X150829214Y-157392714D01*
X150924452Y-157440333D01*
X150972071Y-157535571D01*
X150972071Y-157630809D01*
X150495880Y-157726047D01*
X151400642Y-158059380D02*
X151400642Y-157392714D01*
X151400642Y-157583190D02*
X151448261Y-157487952D01*
X151495880Y-157440333D01*
X151591119Y-157392714D01*
X151686357Y-157392714D01*
X139781595Y-159709380D02*
X139781595Y-158709380D01*
X140210166Y-159709380D02*
X140210166Y-159185571D01*
X140162547Y-159090333D01*
X140067309Y-159042714D01*
X139924452Y-159042714D01*
X139829214Y-159090333D01*
X139781595Y-159137952D01*
X140543500Y-159042714D02*
X140924452Y-159042714D01*
X140686357Y-158709380D02*
X140686357Y-159566523D01*
X140733976Y-159661761D01*
X140829214Y-159709380D01*
X140924452Y-159709380D01*
X141114928Y-159042714D02*
X141495880Y-159042714D01*
X141257785Y-158709380D02*
X141257785Y-159566523D01*
X141305404Y-159661761D01*
X141400642Y-159709380D01*
X141495880Y-159709380D01*
X141829214Y-159042714D02*
X141829214Y-160042714D01*
X141829214Y-159090333D02*
X141924452Y-159042714D01*
X142114928Y-159042714D01*
X142210166Y-159090333D01*
X142257785Y-159137952D01*
X142305404Y-159233190D01*
X142305404Y-159518904D01*
X142257785Y-159614142D01*
X142210166Y-159661761D01*
X142114928Y-159709380D01*
X141924452Y-159709380D01*
X141829214Y-159661761D01*
X142733976Y-159614142D02*
X142781595Y-159661761D01*
X142733976Y-159709380D01*
X142686357Y-159661761D01*
X142733976Y-159614142D01*
X142733976Y-159709380D01*
X142733976Y-159090333D02*
X142781595Y-159137952D01*
X142733976Y-159185571D01*
X142686357Y-159137952D01*
X142733976Y-159090333D01*
X142733976Y-159185571D01*
X143924452Y-158661761D02*
X143067309Y-159947476D01*
X144972071Y-158661761D02*
X144114928Y-159947476D01*
X145257785Y-159661761D02*
X145353023Y-159709380D01*
X145543500Y-159709380D01*
X145638738Y-159661761D01*
X145686357Y-159566523D01*
X145686357Y-159518904D01*
X145638738Y-159423666D01*
X145543500Y-159376047D01*
X145400642Y-159376047D01*
X145305404Y-159328428D01*
X145257785Y-159233190D01*
X145257785Y-159185571D01*
X145305404Y-159090333D01*
X145400642Y-159042714D01*
X145543500Y-159042714D01*
X145638738Y-159090333D01*
X145972071Y-159042714D02*
X146353023Y-159042714D01*
X146114928Y-158709380D02*
X146114928Y-159566523D01*
X146162547Y-159661761D01*
X146257785Y-159709380D01*
X146353023Y-159709380D01*
X147114928Y-159709380D02*
X147114928Y-159185571D01*
X147067309Y-159090333D01*
X146972071Y-159042714D01*
X146781595Y-159042714D01*
X146686357Y-159090333D01*
X147114928Y-159661761D02*
X147019690Y-159709380D01*
X146781595Y-159709380D01*
X146686357Y-159661761D01*
X146638738Y-159566523D01*
X146638738Y-159471285D01*
X146686357Y-159376047D01*
X146781595Y-159328428D01*
X147019690Y-159328428D01*
X147114928Y-159280809D01*
X147591119Y-159709380D02*
X147591119Y-159042714D01*
X147591119Y-159233190D02*
X147638738Y-159137952D01*
X147686357Y-159090333D01*
X147781595Y-159042714D01*
X147876833Y-159042714D01*
X148210166Y-159042714D02*
X148210166Y-159709380D01*
X148210166Y-159137952D02*
X148257785Y-159090333D01*
X148353023Y-159042714D01*
X148495880Y-159042714D01*
X148591119Y-159090333D01*
X148638738Y-159185571D01*
X148638738Y-159709380D01*
X149114928Y-159614142D02*
X149162547Y-159661761D01*
X149114928Y-159709380D01*
X149067309Y-159661761D01*
X149114928Y-159614142D01*
X149114928Y-159709380D01*
X149972071Y-159661761D02*
X149876833Y-159709380D01*
X149686357Y-159709380D01*
X149591119Y-159661761D01*
X149543500Y-159566523D01*
X149543500Y-159185571D01*
X149591119Y-159090333D01*
X149686357Y-159042714D01*
X149876833Y-159042714D01*
X149972071Y-159090333D01*
X150019690Y-159185571D01*
X150019690Y-159280809D01*
X149543500Y-159376047D01*
X150400642Y-159661761D02*
X150495880Y-159709380D01*
X150686357Y-159709380D01*
X150781595Y-159661761D01*
X150829214Y-159566523D01*
X150829214Y-159518904D01*
X150781595Y-159423666D01*
X150686357Y-159376047D01*
X150543500Y-159376047D01*
X150448261Y-159328428D01*
X150400642Y-159233190D01*
X150400642Y-159185571D01*
X150448261Y-159090333D01*
X150543500Y-159042714D01*
X150686357Y-159042714D01*
X150781595Y-159090333D01*
X71056500Y-17167860D02*
X71056500Y-13329920D01*
X82260440Y-17167860D02*
X71056500Y-17167860D01*
X82260440Y-13329920D02*
X82260440Y-17167860D01*
X71056500Y-13329920D02*
X82260440Y-13329920D01*
X78771311Y-15052800D02*
X78771311Y-14052800D01*
X79104644Y-14767086D01*
X79437978Y-14052800D01*
X79437978Y-15052800D01*
X79914168Y-15052800D02*
X79914168Y-14052800D01*
X80342740Y-15005181D02*
X80485597Y-15052800D01*
X80723692Y-15052800D01*
X80818930Y-15005181D01*
X80866549Y-14957562D01*
X80914168Y-14862324D01*
X80914168Y-14767086D01*
X80866549Y-14671848D01*
X80818930Y-14624229D01*
X80723692Y-14576610D01*
X80533216Y-14528991D01*
X80437978Y-14481372D01*
X80390359Y-14433753D01*
X80342740Y-14338515D01*
X80342740Y-14243277D01*
X80390359Y-14148039D01*
X80437978Y-14100420D01*
X80533216Y-14052800D01*
X80771311Y-14052800D01*
X80914168Y-14100420D01*
X81533216Y-14052800D02*
X81723692Y-14052800D01*
X81818930Y-14100420D01*
X81914168Y-14195658D01*
X81961787Y-14386134D01*
X81961787Y-14719467D01*
X81914168Y-14909943D01*
X81818930Y-15005181D01*
X81723692Y-15052800D01*
X81533216Y-15052800D01*
X81437978Y-15005181D01*
X81342740Y-14909943D01*
X81295120Y-14719467D01*
X81295120Y-14386134D01*
X81342740Y-14195658D01*
X81437978Y-14100420D01*
X81533216Y-14052800D01*
X79009406Y-15702800D02*
X79342740Y-16702800D01*
X79676073Y-15702800D01*
X80580835Y-16607562D02*
X80533216Y-16655181D01*
X80390359Y-16702800D01*
X80295120Y-16702800D01*
X80152263Y-16655181D01*
X80057025Y-16559943D01*
X80009406Y-16464705D01*
X79961787Y-16274229D01*
X79961787Y-16131372D01*
X80009406Y-15940896D01*
X80057025Y-15845658D01*
X80152263Y-15750420D01*
X80295120Y-15702800D01*
X80390359Y-15702800D01*
X80533216Y-15750420D01*
X80580835Y-15798039D01*
X81580835Y-16607562D02*
X81533216Y-16655181D01*
X81390359Y-16702800D01*
X81295120Y-16702800D01*
X81152263Y-16655181D01*
X81057025Y-16559943D01*
X81009406Y-16464705D01*
X80961787Y-16274229D01*
X80961787Y-16131372D01*
X81009406Y-15940896D01*
X81057025Y-15845658D01*
X81152263Y-15750420D01*
X81295120Y-15702800D01*
X81390359Y-15702800D01*
X81533216Y-15750420D01*
X81580835Y-15798039D01*
X75241945Y-15048361D02*
X75384802Y-15095980D01*
X75622898Y-15095980D01*
X75718136Y-15048361D01*
X75765755Y-15000742D01*
X75813374Y-14905504D01*
X75813374Y-14810266D01*
X75765755Y-14715028D01*
X75718136Y-14667409D01*
X75622898Y-14619790D01*
X75432421Y-14572171D01*
X75337183Y-14524552D01*
X75289564Y-14476933D01*
X75241945Y-14381695D01*
X75241945Y-14286457D01*
X75289564Y-14191219D01*
X75337183Y-14143600D01*
X75432421Y-14095980D01*
X75670517Y-14095980D01*
X75813374Y-14143600D01*
X76813374Y-15000742D02*
X76765755Y-15048361D01*
X76622898Y-15095980D01*
X76527660Y-15095980D01*
X76384802Y-15048361D01*
X76289564Y-14953123D01*
X76241945Y-14857885D01*
X76194326Y-14667409D01*
X76194326Y-14524552D01*
X76241945Y-14334076D01*
X76289564Y-14238838D01*
X76384802Y-14143600D01*
X76527660Y-14095980D01*
X76622898Y-14095980D01*
X76765755Y-14143600D01*
X76813374Y-14191219D01*
X77241945Y-15095980D02*
X77241945Y-14095980D01*
X77813374Y-15095980D02*
X77384802Y-14524552D01*
X77813374Y-14095980D02*
X77241945Y-14667409D01*
X74956231Y-16745980D02*
X74956231Y-15745980D01*
X75289564Y-16460266D01*
X75622898Y-15745980D01*
X75622898Y-16745980D01*
X76289564Y-15745980D02*
X76480040Y-15745980D01*
X76575279Y-15793600D01*
X76670517Y-15888838D01*
X76718136Y-16079314D01*
X76718136Y-16412647D01*
X76670517Y-16603123D01*
X76575279Y-16698361D01*
X76480040Y-16745980D01*
X76289564Y-16745980D01*
X76194326Y-16698361D01*
X76099088Y-16603123D01*
X76051469Y-16412647D01*
X76051469Y-16079314D01*
X76099088Y-15888838D01*
X76194326Y-15793600D01*
X76289564Y-15745980D01*
X77099088Y-16698361D02*
X77241945Y-16745980D01*
X77480040Y-16745980D01*
X77575279Y-16698361D01*
X77622898Y-16650742D01*
X77670517Y-16555504D01*
X77670517Y-16460266D01*
X77622898Y-16365028D01*
X77575279Y-16317409D01*
X77480040Y-16269790D01*
X77289564Y-16222171D01*
X77194326Y-16174552D01*
X77146707Y-16126933D01*
X77099088Y-16031695D01*
X77099088Y-15936457D01*
X77146707Y-15841219D01*
X77194326Y-15793600D01*
X77289564Y-15745980D01*
X77527660Y-15745980D01*
X77670517Y-15793600D01*
X78099088Y-16745980D02*
X78099088Y-15745980D01*
X71457820Y-13698220D02*
X73761600Y-13698220D01*
X72100683Y-15126460D02*
X71767350Y-14650270D01*
X71529255Y-15126460D02*
X71529255Y-14126460D01*
X71910207Y-14126460D01*
X72005445Y-14174080D01*
X72053064Y-14221699D01*
X72100683Y-14316937D01*
X72100683Y-14459794D01*
X72053064Y-14555032D01*
X72005445Y-14602651D01*
X71910207Y-14650270D01*
X71529255Y-14650270D01*
X72481636Y-15078841D02*
X72624493Y-15126460D01*
X72862588Y-15126460D01*
X72957826Y-15078841D01*
X73005445Y-15031222D01*
X73053064Y-14935984D01*
X73053064Y-14840746D01*
X73005445Y-14745508D01*
X72957826Y-14697889D01*
X72862588Y-14650270D01*
X72672112Y-14602651D01*
X72576874Y-14555032D01*
X72529255Y-14507413D01*
X72481636Y-14412175D01*
X72481636Y-14316937D01*
X72529255Y-14221699D01*
X72576874Y-14174080D01*
X72672112Y-14126460D01*
X72910207Y-14126460D01*
X73053064Y-14174080D01*
X73338779Y-14126460D02*
X73910207Y-14126460D01*
X73624493Y-15126460D02*
X73624493Y-14126460D01*
X72053064Y-15824080D02*
X71957826Y-15776460D01*
X71814969Y-15776460D01*
X71672112Y-15824080D01*
X71576874Y-15919318D01*
X71529255Y-16014556D01*
X71481636Y-16205032D01*
X71481636Y-16347889D01*
X71529255Y-16538365D01*
X71576874Y-16633603D01*
X71672112Y-16728841D01*
X71814969Y-16776460D01*
X71910207Y-16776460D01*
X72053064Y-16728841D01*
X72100683Y-16681222D01*
X72100683Y-16347889D01*
X71910207Y-16347889D01*
X72529255Y-16776460D02*
X72529255Y-15776460D01*
X73100683Y-16776460D01*
X73100683Y-15776460D01*
X73576874Y-16776460D02*
X73576874Y-15776460D01*
X73814969Y-15776460D01*
X73957826Y-15824080D01*
X74053064Y-15919318D01*
X74100683Y-16014556D01*
X74148302Y-16205032D01*
X74148302Y-16347889D01*
X74100683Y-16538365D01*
X74053064Y-16633603D01*
X73957826Y-16728841D01*
X73814969Y-16776460D01*
X73576874Y-16776460D01*
X21322357Y-32346380D02*
X21989023Y-33346380D01*
X21989023Y-32346380D02*
X21322357Y-33346380D01*
X22560452Y-32346380D02*
X22655690Y-32346380D01*
X22750928Y-32394000D01*
X22798547Y-32441619D01*
X22846166Y-32536857D01*
X22893785Y-32727333D01*
X22893785Y-32965428D01*
X22846166Y-33155904D01*
X22798547Y-33251142D01*
X22750928Y-33298761D01*
X22655690Y-33346380D01*
X22560452Y-33346380D01*
X22465214Y-33298761D01*
X22417595Y-33251142D01*
X22369976Y-33155904D01*
X22322357Y-32965428D01*
X22322357Y-32727333D01*
X22369976Y-32536857D01*
X22417595Y-32441619D01*
X22465214Y-32394000D01*
X22560452Y-32346380D01*
X23227119Y-32346380D02*
X23893785Y-33346380D01*
X23893785Y-32346380D02*
X23227119Y-33346380D01*
X24179500Y-32346380D02*
X24846166Y-33346380D01*
X24846166Y-32346380D02*
X24179500Y-33346380D01*
X25227119Y-33251142D02*
X25274738Y-33298761D01*
X25227119Y-33346380D01*
X25179500Y-33298761D01*
X25227119Y-33251142D01*
X25227119Y-33346380D01*
X25227119Y-32727333D02*
X25274738Y-32774952D01*
X25227119Y-32822571D01*
X25179500Y-32774952D01*
X25227119Y-32727333D01*
X25227119Y-32822571D01*
X26465214Y-33346380D02*
X26465214Y-32346380D01*
X26846166Y-32346380D01*
X26941404Y-32394000D01*
X26989023Y-32441619D01*
X27036642Y-32536857D01*
X27036642Y-32679714D01*
X26989023Y-32774952D01*
X26941404Y-32822571D01*
X26846166Y-32870190D01*
X26465214Y-32870190D01*
X27608071Y-33346380D02*
X27512833Y-33298761D01*
X27465214Y-33203523D01*
X27465214Y-32346380D01*
X28417595Y-33346380D02*
X28417595Y-32822571D01*
X28369976Y-32727333D01*
X28274738Y-32679714D01*
X28084261Y-32679714D01*
X27989023Y-32727333D01*
X28417595Y-33298761D02*
X28322357Y-33346380D01*
X28084261Y-33346380D01*
X27989023Y-33298761D01*
X27941404Y-33203523D01*
X27941404Y-33108285D01*
X27989023Y-33013047D01*
X28084261Y-32965428D01*
X28322357Y-32965428D01*
X28417595Y-32917809D01*
X28798547Y-32679714D02*
X29036642Y-33346380D01*
X29274738Y-32679714D02*
X29036642Y-33346380D01*
X28941404Y-33584476D01*
X28893785Y-33632095D01*
X28798547Y-33679714D01*
X30036642Y-33298761D02*
X29941404Y-33346380D01*
X29750928Y-33346380D01*
X29655690Y-33298761D01*
X29608071Y-33203523D01*
X29608071Y-32822571D01*
X29655690Y-32727333D01*
X29750928Y-32679714D01*
X29941404Y-32679714D01*
X30036642Y-32727333D01*
X30084261Y-32822571D01*
X30084261Y-32917809D01*
X29608071Y-33013047D01*
X30512833Y-33346380D02*
X30512833Y-32679714D01*
X30512833Y-32870190D02*
X30560452Y-32774952D01*
X30608071Y-32727333D01*
X30703309Y-32679714D01*
X30798547Y-32679714D01*
X21322357Y-33996380D02*
X21989023Y-34996380D01*
X21989023Y-33996380D02*
X21322357Y-34996380D01*
X22274738Y-33996380D02*
X22941404Y-34996380D01*
X22941404Y-33996380D02*
X22274738Y-34996380D01*
X23512833Y-33996380D02*
X23608071Y-33996380D01*
X23703309Y-34044000D01*
X23750928Y-34091619D01*
X23798547Y-34186857D01*
X23846166Y-34377333D01*
X23846166Y-34615428D01*
X23798547Y-34805904D01*
X23750928Y-34901142D01*
X23703309Y-34948761D01*
X23608071Y-34996380D01*
X23512833Y-34996380D01*
X23417595Y-34948761D01*
X23369976Y-34901142D01*
X23322357Y-34805904D01*
X23274738Y-34615428D01*
X23274738Y-34377333D01*
X23322357Y-34186857D01*
X23369976Y-34091619D01*
X23417595Y-34044000D01*
X23512833Y-33996380D01*
X24465214Y-33996380D02*
X24560452Y-33996380D01*
X24655690Y-34044000D01*
X24703309Y-34091619D01*
X24750928Y-34186857D01*
X24798547Y-34377333D01*
X24798547Y-34615428D01*
X24750928Y-34805904D01*
X24703309Y-34901142D01*
X24655690Y-34948761D01*
X24560452Y-34996380D01*
X24465214Y-34996380D01*
X24369976Y-34948761D01*
X24322357Y-34901142D01*
X24274738Y-34805904D01*
X24227119Y-34615428D01*
X24227119Y-34377333D01*
X24274738Y-34186857D01*
X24322357Y-34091619D01*
X24369976Y-34044000D01*
X24465214Y-33996380D01*
X25227119Y-34901142D02*
X25274738Y-34948761D01*
X25227119Y-34996380D01*
X25179500Y-34948761D01*
X25227119Y-34901142D01*
X25227119Y-34996380D01*
X25227119Y-34377333D02*
X25274738Y-34424952D01*
X25227119Y-34472571D01*
X25179500Y-34424952D01*
X25227119Y-34377333D01*
X25227119Y-34472571D01*
X26417595Y-34710666D02*
X26893785Y-34710666D01*
X26322357Y-34996380D02*
X26655690Y-33996380D01*
X26989023Y-34996380D01*
X27322357Y-34996380D02*
X27322357Y-34329714D01*
X27322357Y-34520190D02*
X27369976Y-34424952D01*
X27417595Y-34377333D01*
X27512833Y-34329714D01*
X27608071Y-34329714D01*
X27941404Y-34996380D02*
X27941404Y-34329714D01*
X27941404Y-34520190D02*
X27989023Y-34424952D01*
X28036642Y-34377333D01*
X28131880Y-34329714D01*
X28227119Y-34329714D01*
X28703309Y-34996380D02*
X28608071Y-34948761D01*
X28560452Y-34901142D01*
X28512833Y-34805904D01*
X28512833Y-34520190D01*
X28560452Y-34424952D01*
X28608071Y-34377333D01*
X28703309Y-34329714D01*
X28846166Y-34329714D01*
X28941404Y-34377333D01*
X28989023Y-34424952D01*
X29036642Y-34520190D01*
X29036642Y-34805904D01*
X28989023Y-34901142D01*
X28941404Y-34948761D01*
X28846166Y-34996380D01*
X28703309Y-34996380D01*
X29369976Y-34329714D02*
X29560452Y-34996380D01*
X29750928Y-34520190D01*
X29941404Y-34996380D01*
X30131880Y-34329714D01*
X21608071Y-35646380D02*
X21703309Y-35646380D01*
X21798547Y-35694000D01*
X21846166Y-35741619D01*
X21893785Y-35836857D01*
X21941404Y-36027333D01*
X21941404Y-36265428D01*
X21893785Y-36455904D01*
X21846166Y-36551142D01*
X21798547Y-36598761D01*
X21703309Y-36646380D01*
X21608071Y-36646380D01*
X21512833Y-36598761D01*
X21465214Y-36551142D01*
X21417595Y-36455904D01*
X21369976Y-36265428D01*
X21369976Y-36027333D01*
X21417595Y-35836857D01*
X21465214Y-35741619D01*
X21512833Y-35694000D01*
X21608071Y-35646380D01*
X22274738Y-35646380D02*
X22941404Y-36646380D01*
X22941404Y-35646380D02*
X22274738Y-36646380D01*
X23227119Y-35646380D02*
X23893785Y-36646380D01*
X23893785Y-35646380D02*
X23227119Y-36646380D01*
X24179500Y-35646380D02*
X24846166Y-36646380D01*
X24846166Y-35646380D02*
X24179500Y-36646380D01*
X25227119Y-36551142D02*
X25274738Y-36598761D01*
X25227119Y-36646380D01*
X25179500Y-36598761D01*
X25227119Y-36551142D01*
X25227119Y-36646380D01*
X25227119Y-36027333D02*
X25274738Y-36074952D01*
X25227119Y-36122571D01*
X25179500Y-36074952D01*
X25227119Y-36027333D01*
X25227119Y-36122571D01*
X26465214Y-36646380D02*
X26465214Y-35646380D01*
X26798547Y-36360666D01*
X27131880Y-35646380D01*
X27131880Y-36646380D01*
X27750928Y-36646380D02*
X27655690Y-36598761D01*
X27608071Y-36551142D01*
X27560452Y-36455904D01*
X27560452Y-36170190D01*
X27608071Y-36074952D01*
X27655690Y-36027333D01*
X27750928Y-35979714D01*
X27893785Y-35979714D01*
X27989023Y-36027333D01*
X28036642Y-36074952D01*
X28084261Y-36170190D01*
X28084261Y-36455904D01*
X28036642Y-36551142D01*
X27989023Y-36598761D01*
X27893785Y-36646380D01*
X27750928Y-36646380D01*
X28941404Y-36646380D02*
X28941404Y-35646380D01*
X28941404Y-36598761D02*
X28846166Y-36646380D01*
X28655690Y-36646380D01*
X28560452Y-36598761D01*
X28512833Y-36551142D01*
X28465214Y-36455904D01*
X28465214Y-36170190D01*
X28512833Y-36074952D01*
X28560452Y-36027333D01*
X28655690Y-35979714D01*
X28846166Y-35979714D01*
X28941404Y-36027333D01*
X29798547Y-36598761D02*
X29703309Y-36646380D01*
X29512833Y-36646380D01*
X29417595Y-36598761D01*
X29369976Y-36503523D01*
X29369976Y-36122571D01*
X29417595Y-36027333D01*
X29512833Y-35979714D01*
X29703309Y-35979714D01*
X29798547Y-36027333D01*
X29846166Y-36122571D01*
X29846166Y-36217809D01*
X29369976Y-36313047D01*
X18449255Y-3447040D02*
X17973064Y-3447040D01*
X17973064Y-2447040D01*
X18782588Y-3447040D02*
X18782588Y-2780374D01*
X18782588Y-2447040D02*
X18734969Y-2494660D01*
X18782588Y-2542279D01*
X18830207Y-2494660D01*
X18782588Y-2447040D01*
X18782588Y-2542279D01*
X19687350Y-2780374D02*
X19687350Y-3589898D01*
X19639731Y-3685136D01*
X19592112Y-3732755D01*
X19496874Y-3780374D01*
X19354017Y-3780374D01*
X19258779Y-3732755D01*
X19687350Y-3399421D02*
X19592112Y-3447040D01*
X19401636Y-3447040D01*
X19306398Y-3399421D01*
X19258779Y-3351802D01*
X19211160Y-3256564D01*
X19211160Y-2970850D01*
X19258779Y-2875612D01*
X19306398Y-2827993D01*
X19401636Y-2780374D01*
X19592112Y-2780374D01*
X19687350Y-2827993D01*
X20163540Y-3447040D02*
X20163540Y-2447040D01*
X20592112Y-3447040D02*
X20592112Y-2923231D01*
X20544493Y-2827993D01*
X20449255Y-2780374D01*
X20306398Y-2780374D01*
X20211160Y-2827993D01*
X20163540Y-2875612D01*
X20925445Y-2780374D02*
X21306398Y-2780374D01*
X21068302Y-2447040D02*
X21068302Y-3304183D01*
X21115921Y-3399421D01*
X21211160Y-3447040D01*
X21306398Y-3447040D01*
X22401636Y-3447040D02*
X22401636Y-2447040D01*
X22877826Y-3447040D02*
X22877826Y-2447040D01*
X23449255Y-3447040D01*
X23449255Y-2447040D01*
X29443466Y-2925771D02*
X29110133Y-2925771D01*
X29110133Y-3449580D02*
X29110133Y-2449580D01*
X29586323Y-2449580D01*
X29919657Y-3401961D02*
X30062514Y-3449580D01*
X30300609Y-3449580D01*
X30395847Y-3401961D01*
X30443466Y-3354342D01*
X30491085Y-3259104D01*
X30491085Y-3163866D01*
X30443466Y-3068628D01*
X30395847Y-3021009D01*
X30300609Y-2973390D01*
X30110133Y-2925771D01*
X30014895Y-2878152D01*
X29967276Y-2830533D01*
X29919657Y-2735295D01*
X29919657Y-2640057D01*
X29967276Y-2544819D01*
X30014895Y-2497200D01*
X30110133Y-2449580D01*
X30348228Y-2449580D01*
X30491085Y-2497200D01*
X31491085Y-3449580D02*
X31157752Y-2973390D01*
X30919657Y-3449580D02*
X30919657Y-2449580D01*
X31300609Y-2449580D01*
X31395847Y-2497200D01*
X31443466Y-2544819D01*
X31491085Y-2640057D01*
X31491085Y-2782914D01*
X31443466Y-2878152D01*
X31395847Y-2925771D01*
X31300609Y-2973390D01*
X30919657Y-2973390D01*
X40956384Y-4369060D02*
X40623051Y-3892870D01*
X40384956Y-4369060D02*
X40384956Y-3369060D01*
X40765908Y-3369060D01*
X40861146Y-3416680D01*
X40908765Y-3464299D01*
X40956384Y-3559537D01*
X40956384Y-3702394D01*
X40908765Y-3797632D01*
X40861146Y-3845251D01*
X40765908Y-3892870D01*
X40384956Y-3892870D01*
X41765908Y-4321441D02*
X41670670Y-4369060D01*
X41480194Y-4369060D01*
X41384956Y-4321441D01*
X41337337Y-4226203D01*
X41337337Y-3845251D01*
X41384956Y-3750013D01*
X41480194Y-3702394D01*
X41670670Y-3702394D01*
X41765908Y-3750013D01*
X41813527Y-3845251D01*
X41813527Y-3940489D01*
X41337337Y-4035727D01*
X42194480Y-4321441D02*
X42289718Y-4369060D01*
X42480194Y-4369060D01*
X42575432Y-4321441D01*
X42623051Y-4226203D01*
X42623051Y-4178584D01*
X42575432Y-4083346D01*
X42480194Y-4035727D01*
X42337337Y-4035727D01*
X42242099Y-3988108D01*
X42194480Y-3892870D01*
X42194480Y-3845251D01*
X42242099Y-3750013D01*
X42337337Y-3702394D01*
X42480194Y-3702394D01*
X42575432Y-3750013D01*
X43432575Y-4321441D02*
X43337337Y-4369060D01*
X43146860Y-4369060D01*
X43051622Y-4321441D01*
X43004003Y-4226203D01*
X43004003Y-3845251D01*
X43051622Y-3750013D01*
X43146860Y-3702394D01*
X43337337Y-3702394D01*
X43432575Y-3750013D01*
X43480194Y-3845251D01*
X43480194Y-3940489D01*
X43004003Y-4035727D01*
X43765908Y-3702394D02*
X44146860Y-3702394D01*
X43908765Y-3369060D02*
X43908765Y-4226203D01*
X43956384Y-4321441D01*
X44051622Y-4369060D01*
X44146860Y-4369060D01*
X168493131Y-51158353D02*
X168493131Y-51491686D01*
X169016940Y-51491686D02*
X168016940Y-51491686D01*
X168016940Y-51015496D01*
X168969321Y-50682162D02*
X169016940Y-50539305D01*
X169016940Y-50301210D01*
X168969321Y-50205972D01*
X168921702Y-50158353D01*
X168826464Y-50110734D01*
X168731226Y-50110734D01*
X168635988Y-50158353D01*
X168588369Y-50205972D01*
X168540750Y-50301210D01*
X168493131Y-50491686D01*
X168445512Y-50586924D01*
X168397893Y-50634543D01*
X168302655Y-50682162D01*
X168207417Y-50682162D01*
X168112179Y-50634543D01*
X168064560Y-50586924D01*
X168016940Y-50491686D01*
X168016940Y-50253591D01*
X168064560Y-50110734D01*
X169016940Y-49110734D02*
X168540750Y-49444067D01*
X169016940Y-49682162D02*
X168016940Y-49682162D01*
X168016940Y-49301210D01*
X168064560Y-49205972D01*
X168112179Y-49158353D01*
X168207417Y-49110734D01*
X168350274Y-49110734D01*
X168445512Y-49158353D01*
X168493131Y-49205972D01*
X168540750Y-49301210D01*
X168540750Y-49682162D01*
X43913846Y-167558411D02*
X43580513Y-167558411D01*
X43580513Y-168082220D02*
X43580513Y-167082220D01*
X44056703Y-167082220D01*
X44390037Y-168034601D02*
X44532894Y-168082220D01*
X44770989Y-168082220D01*
X44866227Y-168034601D01*
X44913846Y-167986982D01*
X44961465Y-167891744D01*
X44961465Y-167796506D01*
X44913846Y-167701268D01*
X44866227Y-167653649D01*
X44770989Y-167606030D01*
X44580513Y-167558411D01*
X44485275Y-167510792D01*
X44437656Y-167463173D01*
X44390037Y-167367935D01*
X44390037Y-167272697D01*
X44437656Y-167177459D01*
X44485275Y-167129840D01*
X44580513Y-167082220D01*
X44818608Y-167082220D01*
X44961465Y-167129840D01*
X45961465Y-168082220D02*
X45628132Y-167606030D01*
X45390037Y-168082220D02*
X45390037Y-167082220D01*
X45770989Y-167082220D01*
X45866227Y-167129840D01*
X45913846Y-167177459D01*
X45961465Y-167272697D01*
X45961465Y-167415554D01*
X45913846Y-167510792D01*
X45866227Y-167558411D01*
X45770989Y-167606030D01*
X45390037Y-167606030D01*
X2720031Y-90970313D02*
X2720031Y-91303646D01*
X3243840Y-91303646D02*
X2243840Y-91303646D01*
X2243840Y-90827456D01*
X3196221Y-90494122D02*
X3243840Y-90351265D01*
X3243840Y-90113170D01*
X3196221Y-90017932D01*
X3148602Y-89970313D01*
X3053364Y-89922694D01*
X2958126Y-89922694D01*
X2862888Y-89970313D01*
X2815269Y-90017932D01*
X2767650Y-90113170D01*
X2720031Y-90303646D01*
X2672412Y-90398884D01*
X2624793Y-90446503D01*
X2529555Y-90494122D01*
X2434317Y-90494122D01*
X2339079Y-90446503D01*
X2291460Y-90398884D01*
X2243840Y-90303646D01*
X2243840Y-90065551D01*
X2291460Y-89922694D01*
X3243840Y-88922694D02*
X2767650Y-89256027D01*
X3243840Y-89494122D02*
X2243840Y-89494122D01*
X2243840Y-89113170D01*
X2291460Y-89017932D01*
X2339079Y-88970313D01*
X2434317Y-88922694D01*
X2577174Y-88922694D01*
X2672412Y-88970313D01*
X2720031Y-89017932D01*
X2767650Y-89113170D01*
X2767650Y-89494122D01*
X111027200Y-17044942D02*
X110979580Y-17092561D01*
X110836723Y-17140180D01*
X110741485Y-17140180D01*
X110598628Y-17092561D01*
X110503390Y-16997323D01*
X110455771Y-16902085D01*
X110408152Y-16711609D01*
X110408152Y-16568752D01*
X110455771Y-16378276D01*
X110503390Y-16283038D01*
X110598628Y-16187800D01*
X110741485Y-16140180D01*
X110836723Y-16140180D01*
X110979580Y-16187800D01*
X111027200Y-16235419D01*
X111408152Y-16854466D02*
X111884342Y-16854466D01*
X111312914Y-17140180D02*
X111646247Y-16140180D01*
X111979580Y-17140180D01*
X112312914Y-17140180D02*
X112312914Y-16140180D01*
X112884342Y-17140180D01*
X112884342Y-16140180D01*
X113979580Y-16140180D02*
X114551009Y-16140180D01*
X114265295Y-17140180D02*
X114265295Y-16140180D01*
X115265295Y-17092561D02*
X115170057Y-17140180D01*
X114979580Y-17140180D01*
X114884342Y-17092561D01*
X114836723Y-16997323D01*
X114836723Y-16616371D01*
X114884342Y-16521133D01*
X114979580Y-16473514D01*
X115170057Y-16473514D01*
X115265295Y-16521133D01*
X115312914Y-16616371D01*
X115312914Y-16711609D01*
X114836723Y-16806847D01*
X115741485Y-17140180D02*
X115741485Y-16473514D01*
X115741485Y-16663990D02*
X115789104Y-16568752D01*
X115836723Y-16521133D01*
X115931961Y-16473514D01*
X116027200Y-16473514D01*
X116360533Y-17140180D02*
X116360533Y-16473514D01*
X116360533Y-16568752D02*
X116408152Y-16521133D01*
X116503390Y-16473514D01*
X116646247Y-16473514D01*
X116741485Y-16521133D01*
X116789104Y-16616371D01*
X116789104Y-17140180D01*
X116789104Y-16616371D02*
X116836723Y-16521133D01*
X116931961Y-16473514D01*
X117074819Y-16473514D01*
X117170057Y-16521133D01*
X117217676Y-16616371D01*
X117217676Y-17140180D01*
X117693866Y-17140180D02*
X117693866Y-16473514D01*
X117693866Y-16140180D02*
X117646247Y-16187800D01*
X117693866Y-16235419D01*
X117741485Y-16187800D01*
X117693866Y-16140180D01*
X117693866Y-16235419D01*
X118170057Y-16473514D02*
X118170057Y-17140180D01*
X118170057Y-16568752D02*
X118217676Y-16521133D01*
X118312914Y-16473514D01*
X118455771Y-16473514D01*
X118551009Y-16521133D01*
X118598628Y-16616371D01*
X118598628Y-17140180D01*
X119503390Y-17140180D02*
X119503390Y-16616371D01*
X119455771Y-16521133D01*
X119360533Y-16473514D01*
X119170057Y-16473514D01*
X119074819Y-16521133D01*
X119503390Y-17092561D02*
X119408152Y-17140180D01*
X119170057Y-17140180D01*
X119074819Y-17092561D01*
X119027200Y-16997323D01*
X119027200Y-16902085D01*
X119074819Y-16806847D01*
X119170057Y-16759228D01*
X119408152Y-16759228D01*
X119503390Y-16711609D01*
X119836723Y-16473514D02*
X120217676Y-16473514D01*
X119979580Y-16140180D02*
X119979580Y-16997323D01*
X120027200Y-17092561D01*
X120122438Y-17140180D01*
X120217676Y-17140180D01*
X120693866Y-17140180D02*
X120598628Y-17092561D01*
X120551009Y-17044942D01*
X120503390Y-16949704D01*
X120503390Y-16663990D01*
X120551009Y-16568752D01*
X120598628Y-16521133D01*
X120693866Y-16473514D01*
X120836723Y-16473514D01*
X120931961Y-16521133D01*
X120979580Y-16568752D01*
X121027200Y-16663990D01*
X121027200Y-16949704D01*
X120979580Y-17044942D01*
X120931961Y-17092561D01*
X120836723Y-17140180D01*
X120693866Y-17140180D01*
X121455771Y-17140180D02*
X121455771Y-16473514D01*
X121455771Y-16663990D02*
X121503390Y-16568752D01*
X121551009Y-16521133D01*
X121646247Y-16473514D01*
X121741485Y-16473514D01*
X122767933Y-6110242D02*
X122720314Y-6157861D01*
X122577457Y-6205480D01*
X122482219Y-6205480D01*
X122339361Y-6157861D01*
X122244123Y-6062623D01*
X122196504Y-5967385D01*
X122148885Y-5776909D01*
X122148885Y-5634052D01*
X122196504Y-5443576D01*
X122244123Y-5348338D01*
X122339361Y-5253100D01*
X122482219Y-5205480D01*
X122577457Y-5205480D01*
X122720314Y-5253100D01*
X122767933Y-5300719D01*
X123148885Y-5919766D02*
X123625076Y-5919766D01*
X123053647Y-6205480D02*
X123386980Y-5205480D01*
X123720314Y-6205480D01*
X124053647Y-6205480D02*
X124053647Y-5205480D01*
X124625076Y-6205480D01*
X124625076Y-5205480D01*
X125101266Y-5824528D02*
X125863171Y-5824528D01*
X126815552Y-6205480D02*
X126339361Y-6205480D01*
X126339361Y-5205480D01*
D11*
X2985238Y-86392095D02*
X3037619Y-86234952D01*
X3037619Y-85973047D01*
X2985238Y-85868285D01*
X2932857Y-85815904D01*
X2828095Y-85763523D01*
X2723333Y-85763523D01*
X2618571Y-85815904D01*
X2566190Y-85868285D01*
X2513809Y-85973047D01*
X2461428Y-86182571D01*
X2409047Y-86287333D01*
X2356666Y-86339714D01*
X2251904Y-86392095D01*
X2147142Y-86392095D01*
X2042380Y-86339714D01*
X1990000Y-86287333D01*
X1937619Y-86182571D01*
X1937619Y-85920666D01*
X1990000Y-85763523D01*
X2304285Y-85449238D02*
X2304285Y-85030190D01*
X1937619Y-85292095D02*
X2880476Y-85292095D01*
X2985238Y-85239714D01*
X3037619Y-85134952D01*
X3037619Y-85030190D01*
X2985238Y-84244476D02*
X3037619Y-84349238D01*
X3037619Y-84558761D01*
X2985238Y-84663523D01*
X2880476Y-84715904D01*
X2461428Y-84715904D01*
X2356666Y-84663523D01*
X2304285Y-84558761D01*
X2304285Y-84349238D01*
X2356666Y-84244476D01*
X2461428Y-84192095D01*
X2566190Y-84192095D01*
X2670952Y-84715904D01*
X2304285Y-83720666D02*
X3404285Y-83720666D01*
X2356666Y-83720666D02*
X2304285Y-83615904D01*
X2304285Y-83406380D01*
X2356666Y-83301619D01*
X2409047Y-83249238D01*
X2513809Y-83196857D01*
X2828095Y-83196857D01*
X2932857Y-83249238D01*
X2985238Y-83301619D01*
X3037619Y-83406380D01*
X3037619Y-83615904D01*
X2985238Y-83720666D01*
X1937619Y-81677809D02*
X1937619Y-81468285D01*
X1989999Y-81363523D01*
X2094761Y-81258761D01*
X2304285Y-81206380D01*
X2670952Y-81206380D01*
X2880476Y-81258761D01*
X2985238Y-81363523D01*
X3037619Y-81468285D01*
X3037619Y-81677809D01*
X2985238Y-81782571D01*
X2880476Y-81887333D01*
X2670952Y-81939714D01*
X2304285Y-81939714D01*
X2094761Y-81887333D01*
X1989999Y-81782571D01*
X1937619Y-81677809D01*
X1937619Y-80734952D02*
X2828095Y-80734952D01*
X2932857Y-80682571D01*
X2985238Y-80630190D01*
X3037619Y-80525428D01*
X3037619Y-80315904D01*
X2985238Y-80211142D01*
X2932857Y-80158761D01*
X2828095Y-80106380D01*
X1937619Y-80106380D01*
X1937619Y-79739714D02*
X1937619Y-79111142D01*
X3037619Y-79425428D02*
X1937619Y-79425428D01*
D12*
X4464857Y-83248571D02*
X4464857Y-84391428D01*
X4464857Y-80708571D02*
X4464857Y-81851428D01*
X3893428Y-81280000D02*
X5036285Y-81280000D01*
D13*
X158161000Y-13402000D02*
X157861000Y-14002000D01*
X157561000Y-13402000D02*
X158161000Y-13402000D01*
X157861000Y-14002000D02*
X157561000Y-13402000D01*
X155751000Y-16302000D02*
X154471000Y-16302000D01*
X155751000Y-15702000D02*
X154471000Y-15702000D01*
X171871000Y-18812000D02*
X171871000Y-16002000D01*
X158851000Y-18812000D02*
X171871000Y-18812000D01*
X158851000Y-18002000D02*
X158851000Y-18812000D01*
X171871000Y-13192000D02*
X171871000Y-16002000D01*
X158851000Y-13192000D02*
X171871000Y-13192000D01*
X158851000Y-14002000D02*
X158851000Y-13192000D01*
X165637963Y-31930000D02*
X166702400Y-30865563D01*
X157246837Y-31930000D02*
X156182400Y-30865563D01*
X157246837Y-31930000D02*
X160132400Y-31930000D01*
X165637963Y-31930000D02*
X162752400Y-31930000D01*
X166702400Y-30865563D02*
X166702400Y-21410000D01*
X156182400Y-30865563D02*
X156182400Y-21410000D01*
X156182400Y-21410000D02*
X160132400Y-21410000D01*
X166702400Y-21410000D02*
X162752400Y-21410000D01*
X105156000Y-12070400D02*
X101706000Y-12070400D01*
X105156000Y-12070400D02*
X107106000Y-12070400D01*
X105156000Y-17190400D02*
X103206000Y-17190400D01*
X105156000Y-17190400D02*
X107106000Y-17190400D01*
X94080800Y-16308000D02*
X95895800Y-16308000D01*
X94080800Y-16553000D02*
X94080800Y-16308000D01*
X90220800Y-16553000D02*
X94080800Y-16553000D01*
X86360800Y-16553000D02*
X86360800Y-16308000D01*
X90220800Y-16553000D02*
X86360800Y-16553000D01*
X94080800Y-4783000D02*
X94080800Y-5028000D01*
X90220800Y-4783000D02*
X94080800Y-4783000D01*
X86360800Y-4783000D02*
X86360800Y-5028000D01*
X90220800Y-4783000D02*
X86360800Y-4783000D01*
X5818000Y-73989000D02*
X4128000Y-73989000D01*
X5818000Y-73774000D02*
X5818000Y-73989000D01*
X8128000Y-73774000D02*
X5818000Y-73774000D01*
X10438000Y-73774000D02*
X10438000Y-73989000D01*
X8128000Y-73774000D02*
X10438000Y-73774000D01*
X5818000Y-76594000D02*
X5818000Y-76379000D01*
X8128000Y-76594000D02*
X5818000Y-76594000D01*
X10438000Y-76594000D02*
X10438000Y-76379000D01*
X8128000Y-76594000D02*
X10438000Y-76594000D01*
X18518000Y-13029000D02*
X16828000Y-13029000D01*
X18518000Y-12814000D02*
X18518000Y-13029000D01*
X20828000Y-12814000D02*
X18518000Y-12814000D01*
X23138000Y-12814000D02*
X23138000Y-13029000D01*
X20828000Y-12814000D02*
X23138000Y-12814000D01*
X18518000Y-15634000D02*
X18518000Y-15419000D01*
X20828000Y-15634000D02*
X18518000Y-15634000D01*
X23138000Y-15634000D02*
X23138000Y-15419000D01*
X20828000Y-15634000D02*
X23138000Y-15634000D01*
X10746000Y-79428000D02*
X9496000Y-79428000D01*
X10746000Y-80678000D02*
X10746000Y-79428000D01*
X6336000Y-82788000D02*
X6836000Y-82788000D01*
X6836000Y-82888000D02*
X6336000Y-82888000D01*
X6836000Y-82688000D02*
X6836000Y-82888000D01*
X6336000Y-82688000D02*
X6836000Y-82688000D01*
X7836000Y-85848000D02*
X7836000Y-85238000D01*
X9136000Y-85848000D02*
X9136000Y-85238000D01*
X7836000Y-79728000D02*
X7836000Y-80338000D01*
X9136000Y-79728000D02*
X9136000Y-80338000D01*
X9836000Y-83288000D02*
X10446000Y-83288000D01*
X9836000Y-85238000D02*
X9836000Y-83288000D01*
X6336000Y-85238000D02*
X9836000Y-85238000D01*
X6336000Y-80338000D02*
X6336000Y-85238000D01*
X9836000Y-80338000D02*
X6336000Y-80338000D01*
X9836000Y-82288000D02*
X9836000Y-80338000D01*
X10446000Y-82288000D02*
X9836000Y-82288000D01*
X10546000Y-81488000D02*
X10546000Y-81188000D01*
X10646000Y-81188000D02*
X10446000Y-81188000D01*
X10646000Y-81488000D02*
X10646000Y-81188000D01*
X10446000Y-81488000D02*
X10646000Y-81488000D01*
X10446000Y-85848000D02*
X10446000Y-79728000D01*
X5726000Y-85848000D02*
X10446000Y-85848000D01*
X5726000Y-79728000D02*
X5726000Y-85848000D01*
X10446000Y-79728000D02*
X5726000Y-79728000D01*
X24204000Y-10238000D02*
X24204000Y-8988000D01*
X22954000Y-10238000D02*
X24204000Y-10238000D01*
X20844000Y-5828000D02*
X20844000Y-6328000D01*
X20744000Y-6328000D02*
X20744000Y-5828000D01*
X20944000Y-6328000D02*
X20744000Y-6328000D01*
X20944000Y-5828000D02*
X20944000Y-6328000D01*
X17784000Y-7328000D02*
X18394000Y-7328000D01*
X17784000Y-8628000D02*
X18394000Y-8628000D01*
X23904000Y-7328000D02*
X23294000Y-7328000D01*
X23904000Y-8628000D02*
X23294000Y-8628000D01*
X20344000Y-9328000D02*
X20344000Y-9938000D01*
X18394000Y-9328000D02*
X20344000Y-9328000D01*
X18394000Y-5828000D02*
X18394000Y-9328000D01*
X23294000Y-5828000D02*
X18394000Y-5828000D01*
X23294000Y-9328000D02*
X23294000Y-5828000D01*
X21344000Y-9328000D02*
X23294000Y-9328000D01*
X21344000Y-9938000D02*
X21344000Y-9328000D01*
X22144000Y-10038000D02*
X22444000Y-10038000D01*
X22444000Y-10138000D02*
X22444000Y-9938000D01*
X22144000Y-10138000D02*
X22444000Y-10138000D01*
X22144000Y-9938000D02*
X22144000Y-10138000D01*
X17784000Y-9938000D02*
X23904000Y-9938000D01*
X17784000Y-5218000D02*
X17784000Y-9938000D01*
X23904000Y-5218000D02*
X17784000Y-5218000D01*
X23904000Y-9938000D02*
X23904000Y-5218000D01*
X10746000Y-86667000D02*
X9496000Y-86667000D01*
X10746000Y-87917000D02*
X10746000Y-86667000D01*
X6336000Y-90027000D02*
X6836000Y-90027000D01*
X6836000Y-90127000D02*
X6336000Y-90127000D01*
X6836000Y-89927000D02*
X6836000Y-90127000D01*
X6336000Y-89927000D02*
X6836000Y-89927000D01*
X7836000Y-93087000D02*
X7836000Y-92477000D01*
X9136000Y-93087000D02*
X9136000Y-92477000D01*
X7836000Y-86967000D02*
X7836000Y-87577000D01*
X9136000Y-86967000D02*
X9136000Y-87577000D01*
X9836000Y-90527000D02*
X10446000Y-90527000D01*
X9836000Y-92477000D02*
X9836000Y-90527000D01*
X6336000Y-92477000D02*
X9836000Y-92477000D01*
X6336000Y-87577000D02*
X6336000Y-92477000D01*
X9836000Y-87577000D02*
X6336000Y-87577000D01*
X9836000Y-89527000D02*
X9836000Y-87577000D01*
X10446000Y-89527000D02*
X9836000Y-89527000D01*
X10546000Y-88727000D02*
X10546000Y-88427000D01*
X10646000Y-88427000D02*
X10446000Y-88427000D01*
X10646000Y-88727000D02*
X10646000Y-88427000D01*
X10446000Y-88727000D02*
X10646000Y-88727000D01*
X10446000Y-93087000D02*
X10446000Y-86967000D01*
X5726000Y-93087000D02*
X10446000Y-93087000D01*
X5726000Y-86967000D02*
X5726000Y-93087000D01*
X10446000Y-86967000D02*
X5726000Y-86967000D01*
X41328000Y-160015660D02*
X41328000Y-161265660D01*
X42578000Y-160015660D02*
X41328000Y-160015660D01*
X44688000Y-164425660D02*
X44688000Y-163925660D01*
X44788000Y-163925660D02*
X44788000Y-164425660D01*
X44588000Y-163925660D02*
X44788000Y-163925660D01*
X44588000Y-164425660D02*
X44588000Y-163925660D01*
X47748000Y-162925660D02*
X47138000Y-162925660D01*
X47748000Y-161625660D02*
X47138000Y-161625660D01*
X41628000Y-162925660D02*
X42238000Y-162925660D01*
X41628000Y-161625660D02*
X42238000Y-161625660D01*
X45188000Y-160925660D02*
X45188000Y-160315660D01*
X47138000Y-160925660D02*
X45188000Y-160925660D01*
X47138000Y-164425660D02*
X47138000Y-160925660D01*
X42238000Y-164425660D02*
X47138000Y-164425660D01*
X42238000Y-160925660D02*
X42238000Y-164425660D01*
X44188000Y-160925660D02*
X42238000Y-160925660D01*
X44188000Y-160315660D02*
X44188000Y-160925660D01*
X43388000Y-160215660D02*
X43088000Y-160215660D01*
X43088000Y-160115660D02*
X43088000Y-160315660D01*
X43388000Y-160115660D02*
X43088000Y-160115660D01*
X43388000Y-160315660D02*
X43388000Y-160115660D01*
X47748000Y-160315660D02*
X41628000Y-160315660D01*
X47748000Y-165035660D02*
X47748000Y-160315660D01*
X41628000Y-165035660D02*
X47748000Y-165035660D01*
X41628000Y-160315660D02*
X41628000Y-165035660D01*
X160958000Y-53668000D02*
X162208000Y-53668000D01*
X160958000Y-52418000D02*
X160958000Y-53668000D01*
X165368000Y-50308000D02*
X164868000Y-50308000D01*
X164868000Y-50208000D02*
X165368000Y-50208000D01*
X164868000Y-50408000D02*
X164868000Y-50208000D01*
X165368000Y-50408000D02*
X164868000Y-50408000D01*
X163868000Y-47248000D02*
X163868000Y-47858000D01*
X162568000Y-47248000D02*
X162568000Y-47858000D01*
X163868000Y-53368000D02*
X163868000Y-52758000D01*
X162568000Y-53368000D02*
X162568000Y-52758000D01*
X161868000Y-49808000D02*
X161258000Y-49808000D01*
X161868000Y-47858000D02*
X161868000Y-49808000D01*
X165368000Y-47858000D02*
X161868000Y-47858000D01*
X165368000Y-52758000D02*
X165368000Y-47858000D01*
X161868000Y-52758000D02*
X165368000Y-52758000D01*
X161868000Y-50808000D02*
X161868000Y-52758000D01*
X161258000Y-50808000D02*
X161868000Y-50808000D01*
X161158000Y-51608000D02*
X161158000Y-51908000D01*
X161058000Y-51908000D02*
X161258000Y-51908000D01*
X161058000Y-51608000D02*
X161058000Y-51908000D01*
X161258000Y-51608000D02*
X161058000Y-51608000D01*
X161258000Y-47248000D02*
X161258000Y-53368000D01*
X165978000Y-47248000D02*
X161258000Y-47248000D01*
X165978000Y-53368000D02*
X165978000Y-47248000D01*
X161258000Y-53368000D02*
X165978000Y-53368000D01*
X33602000Y-10238000D02*
X33602000Y-8988000D01*
X32352000Y-10238000D02*
X33602000Y-10238000D01*
X30242000Y-5828000D02*
X30242000Y-6328000D01*
X30142000Y-6328000D02*
X30142000Y-5828000D01*
X30342000Y-6328000D02*
X30142000Y-6328000D01*
X30342000Y-5828000D02*
X30342000Y-6328000D01*
X27182000Y-7328000D02*
X27792000Y-7328000D01*
X27182000Y-8628000D02*
X27792000Y-8628000D01*
X33302000Y-7328000D02*
X32692000Y-7328000D01*
X33302000Y-8628000D02*
X32692000Y-8628000D01*
X29742000Y-9328000D02*
X29742000Y-9938000D01*
X27792000Y-9328000D02*
X29742000Y-9328000D01*
X27792000Y-5828000D02*
X27792000Y-9328000D01*
X32692000Y-5828000D02*
X27792000Y-5828000D01*
X32692000Y-9328000D02*
X32692000Y-5828000D01*
X30742000Y-9328000D02*
X32692000Y-9328000D01*
X30742000Y-9938000D02*
X30742000Y-9328000D01*
X31542000Y-10038000D02*
X31842000Y-10038000D01*
X31842000Y-10138000D02*
X31842000Y-9938000D01*
X31542000Y-10138000D02*
X31842000Y-10138000D01*
X31542000Y-9938000D02*
X31542000Y-10138000D01*
X27182000Y-9938000D02*
X33302000Y-9938000D01*
X27182000Y-5218000D02*
X27182000Y-9938000D01*
X33302000Y-5218000D02*
X27182000Y-5218000D01*
X33302000Y-9938000D02*
X33302000Y-5218000D01*
X105112736Y-6752000D02*
X106316864Y-6752000D01*
X105112736Y-4932000D02*
X106316864Y-4932000D01*
X45316289Y-17797084D02*
X46167736Y-18648531D01*
X46603224Y-16510149D02*
X47454671Y-17361596D01*
X146410000Y-12859936D02*
X146410000Y-14064064D01*
X148230000Y-12859936D02*
X148230000Y-14064064D01*
X119305000Y-13835748D02*
X119305000Y-14358252D01*
X120725000Y-13835748D02*
X120725000Y-14358252D01*
X10406748Y-72338000D02*
X10929252Y-72338000D01*
X10406748Y-70918000D02*
X10929252Y-70918000D01*
X5326748Y-72338000D02*
X5849252Y-72338000D01*
X5326748Y-70918000D02*
X5849252Y-70918000D01*
X68115548Y-5510600D02*
X68638052Y-5510600D01*
X68115548Y-4090600D02*
X68638052Y-4090600D01*
X14673948Y-20318800D02*
X15196452Y-20318800D01*
X14673948Y-18898800D02*
X15196452Y-18898800D01*
X104945548Y-4012000D02*
X105468052Y-4012000D01*
X104945548Y-2592000D02*
X105468052Y-2592000D01*
X18026748Y-17982000D02*
X18549252Y-17982000D01*
X18026748Y-16562000D02*
X18549252Y-16562000D01*
X23629252Y-16562000D02*
X23106748Y-16562000D01*
X23629252Y-17982000D02*
X23106748Y-17982000D01*
X163729600Y-37178348D02*
X163729600Y-37700852D01*
X165149600Y-37178348D02*
X165149600Y-37700852D01*
X14673948Y-22401600D02*
X15196452Y-22401600D01*
X14673948Y-20981600D02*
X15196452Y-20981600D01*
X14673948Y-24484400D02*
X15196452Y-24484400D01*
X14673948Y-23064400D02*
X15196452Y-23064400D01*
X14673948Y-26567200D02*
X15196452Y-26567200D01*
X14673948Y-25147200D02*
X15196452Y-25147200D01*
X25646748Y-22046000D02*
X26169252Y-22046000D01*
X25646748Y-20626000D02*
X26169252Y-20626000D01*
X150316000Y-146057252D02*
X150316000Y-145534748D01*
X148896000Y-146057252D02*
X148896000Y-145534748D01*
X150316000Y-116085252D02*
X150316000Y-115562748D01*
X148896000Y-116085252D02*
X148896000Y-115562748D01*
X150316000Y-86113252D02*
X150316000Y-85590748D01*
X148896000Y-86113252D02*
X148896000Y-85590748D01*
X150316000Y-56150252D02*
X150316000Y-55627748D01*
X148896000Y-56150252D02*
X148896000Y-55627748D01*
X150443000Y-26169252D02*
X150443000Y-25646748D01*
X149023000Y-26169252D02*
X149023000Y-25646748D01*
X120344000Y-146057252D02*
X120344000Y-145534748D01*
X118924000Y-146057252D02*
X118924000Y-145534748D01*
X120344000Y-116085252D02*
X120344000Y-115562748D01*
X118924000Y-116085252D02*
X118924000Y-115562748D01*
X120344000Y-86113252D02*
X120344000Y-85590748D01*
X118924000Y-86113252D02*
X118924000Y-85590748D01*
X120344000Y-56141252D02*
X120344000Y-55618748D01*
X118924000Y-56141252D02*
X118924000Y-55618748D01*
X120344000Y-26169252D02*
X120344000Y-25646748D01*
X118924000Y-26169252D02*
X118924000Y-25646748D01*
X90372000Y-146057252D02*
X90372000Y-145534748D01*
X88952000Y-146057252D02*
X88952000Y-145534748D01*
X90372000Y-116085252D02*
X90372000Y-115562748D01*
X88952000Y-116085252D02*
X88952000Y-115562748D01*
X90372000Y-86113252D02*
X90372000Y-85590748D01*
X88952000Y-86113252D02*
X88952000Y-85590748D01*
X90372000Y-56141252D02*
X90372000Y-55618748D01*
X88952000Y-56141252D02*
X88952000Y-55618748D01*
X90372000Y-26169252D02*
X90372000Y-25646748D01*
X88952000Y-26169252D02*
X88952000Y-25646748D01*
X60400000Y-146057252D02*
X60400000Y-145534748D01*
X58980000Y-146057252D02*
X58980000Y-145534748D01*
X60400000Y-116085252D02*
X60400000Y-115562748D01*
X58980000Y-116085252D02*
X58980000Y-115562748D01*
X60400000Y-86113252D02*
X60400000Y-85590748D01*
X58980000Y-86113252D02*
X58980000Y-85590748D01*
X60400000Y-56141252D02*
X60400000Y-55618748D01*
X58980000Y-56141252D02*
X58980000Y-55618748D01*
X60400000Y-26169252D02*
X60400000Y-25646748D01*
X58980000Y-26169252D02*
X58980000Y-25646748D01*
X30428000Y-146057252D02*
X30428000Y-145534748D01*
X29008000Y-146057252D02*
X29008000Y-145534748D01*
X30428000Y-116085252D02*
X30428000Y-115562748D01*
X29008000Y-116085252D02*
X29008000Y-115562748D01*
X30428000Y-86113252D02*
X30428000Y-85590748D01*
X29008000Y-86113252D02*
X29008000Y-85590748D01*
X30428000Y-56141252D02*
X30428000Y-55618748D01*
X29008000Y-56141252D02*
X29008000Y-55618748D01*
X30428000Y-26169252D02*
X30428000Y-25646748D01*
X29008000Y-26169252D02*
X29008000Y-25646748D01*
X104936548Y-9092000D02*
X105459052Y-9092000D01*
X104936548Y-7672000D02*
X105459052Y-7672000D01*
X63507252Y-1576000D02*
X62984748Y-1576000D01*
X63507252Y-2996000D02*
X62984748Y-2996000D01*
X47573221Y-16768893D02*
X47942687Y-17138359D01*
X48577313Y-15764801D02*
X48946779Y-16134267D01*
D14*
G36*
X81150900Y-167183903D02*
G01*
X81262450Y-167239522D01*
X81360908Y-167341931D01*
X81388023Y-167379864D01*
X81417562Y-167429500D01*
X81436728Y-167483412D01*
X81447693Y-167555364D01*
X81452629Y-167659122D01*
X81453713Y-167796101D01*
X81448818Y-167983815D01*
X81431804Y-168124758D01*
X81399177Y-168229908D01*
X81347442Y-168310243D01*
X81273104Y-168376741D01*
X81267642Y-168380678D01*
X81194380Y-168420953D01*
X81106160Y-168440880D01*
X80993962Y-168445793D01*
X80811567Y-168445793D01*
X80811491Y-168622857D01*
X80809793Y-168721470D01*
X80799450Y-168779314D01*
X80772422Y-168814006D01*
X80720668Y-168843164D01*
X80708239Y-168849121D01*
X80650077Y-168877039D01*
X80605044Y-168894672D01*
X80571559Y-168896194D01*
X80548038Y-168875781D01*
X80532900Y-168827607D01*
X80524563Y-168745846D01*
X80521444Y-168624672D01*
X80521960Y-168458260D01*
X80524529Y-168240785D01*
X80525332Y-168175736D01*
X80528222Y-167951502D01*
X80530812Y-167804821D01*
X80811414Y-167804821D01*
X80812991Y-167929326D01*
X80820000Y-168010787D01*
X80835858Y-168064515D01*
X80863981Y-168105823D01*
X80883075Y-168125971D01*
X80961135Y-168184921D01*
X81030247Y-168189720D01*
X81101560Y-168141038D01*
X81103368Y-168139241D01*
X81132383Y-168101618D01*
X81150033Y-168050484D01*
X81158936Y-167971738D01*
X81161709Y-167851276D01*
X81161759Y-167824588D01*
X81155058Y-167658583D01*
X81133248Y-167543505D01*
X81093765Y-167473254D01*
X81034044Y-167441729D01*
X80999528Y-167438552D01*
X80917611Y-167453460D01*
X80861421Y-167502548D01*
X80827598Y-167592362D01*
X80812780Y-167729445D01*
X80811414Y-167804821D01*
X80530812Y-167804821D01*
X80531287Y-167777952D01*
X80535247Y-167647382D01*
X80540826Y-167552087D01*
X80548746Y-167484364D01*
X80559731Y-167436507D01*
X80574501Y-167400813D01*
X80593782Y-167369578D01*
X80602049Y-167357824D01*
X80711712Y-167246797D01*
X80850365Y-167183847D01*
X81010754Y-167166297D01*
X81150900Y-167183903D01*
G37*
X81150900Y-167183903D02*
X81262450Y-167239522D01*
X81360908Y-167341931D01*
X81388023Y-167379864D01*
X81417562Y-167429500D01*
X81436728Y-167483412D01*
X81447693Y-167555364D01*
X81452629Y-167659122D01*
X81453713Y-167796101D01*
X81448818Y-167983815D01*
X81431804Y-168124758D01*
X81399177Y-168229908D01*
X81347442Y-168310243D01*
X81273104Y-168376741D01*
X81267642Y-168380678D01*
X81194380Y-168420953D01*
X81106160Y-168440880D01*
X80993962Y-168445793D01*
X80811567Y-168445793D01*
X80811491Y-168622857D01*
X80809793Y-168721470D01*
X80799450Y-168779314D01*
X80772422Y-168814006D01*
X80720668Y-168843164D01*
X80708239Y-168849121D01*
X80650077Y-168877039D01*
X80605044Y-168894672D01*
X80571559Y-168896194D01*
X80548038Y-168875781D01*
X80532900Y-168827607D01*
X80524563Y-168745846D01*
X80521444Y-168624672D01*
X80521960Y-168458260D01*
X80524529Y-168240785D01*
X80525332Y-168175736D01*
X80528222Y-167951502D01*
X80530812Y-167804821D01*
X80811414Y-167804821D01*
X80812991Y-167929326D01*
X80820000Y-168010787D01*
X80835858Y-168064515D01*
X80863981Y-168105823D01*
X80883075Y-168125971D01*
X80961135Y-168184921D01*
X81030247Y-168189720D01*
X81101560Y-168141038D01*
X81103368Y-168139241D01*
X81132383Y-168101618D01*
X81150033Y-168050484D01*
X81158936Y-167971738D01*
X81161709Y-167851276D01*
X81161759Y-167824588D01*
X81155058Y-167658583D01*
X81133248Y-167543505D01*
X81093765Y-167473254D01*
X81034044Y-167441729D01*
X80999528Y-167438552D01*
X80917611Y-167453460D01*
X80861421Y-167502548D01*
X80827598Y-167592362D01*
X80812780Y-167729445D01*
X80811414Y-167804821D01*
X80530812Y-167804821D01*
X80531287Y-167777952D01*
X80535247Y-167647382D01*
X80540826Y-167552087D01*
X80548746Y-167484364D01*
X80559731Y-167436507D01*
X80574501Y-167400813D01*
X80593782Y-167369578D01*
X80602049Y-167357824D01*
X80711712Y-167246797D01*
X80850365Y-167183847D01*
X81010754Y-167166297D01*
X81150900Y-167183903D01*
G36*
X83396429Y-167199719D02*
G01*
X83490123Y-167253914D01*
X83555264Y-167307707D01*
X83602907Y-167364066D01*
X83635728Y-167432987D01*
X83656406Y-167524468D01*
X83667620Y-167648506D01*
X83672049Y-167815098D01*
X83672563Y-167934851D01*
X83672563Y-168375659D01*
X83548483Y-168431283D01*
X83424402Y-168486907D01*
X83409805Y-168004095D01*
X83403773Y-167823779D01*
X83397445Y-167692901D01*
X83389606Y-167602511D01*
X83379037Y-167543664D01*
X83364523Y-167507413D01*
X83344848Y-167484810D01*
X83338535Y-167479917D01*
X83242888Y-167441706D01*
X83146207Y-167456827D01*
X83088655Y-167496943D01*
X83065245Y-167525370D01*
X83049039Y-167562672D01*
X83038741Y-167619223D01*
X83033049Y-167705394D01*
X83030664Y-167831558D01*
X83030264Y-167963042D01*
X83030186Y-168127999D01*
X83027361Y-168244761D01*
X83017907Y-168323510D01*
X82997940Y-168374431D01*
X82963576Y-168407706D01*
X82910932Y-168433520D01*
X82840617Y-168460344D01*
X82763820Y-168489542D01*
X82772962Y-167971346D01*
X82776643Y-167784539D01*
X82780950Y-167646490D01*
X82787123Y-167547568D01*
X82796402Y-167478145D01*
X82810027Y-167428590D01*
X82829239Y-167389273D01*
X82852402Y-167354584D01*
X82964152Y-167243770D01*
X83100513Y-167179689D01*
X83248825Y-167164339D01*
X83396429Y-167199719D01*
G37*
X83396429Y-167199719D02*
X83490123Y-167253914D01*
X83555264Y-167307707D01*
X83602907Y-167364066D01*
X83635728Y-167432987D01*
X83656406Y-167524468D01*
X83667620Y-167648506D01*
X83672049Y-167815098D01*
X83672563Y-167934851D01*
X83672563Y-168375659D01*
X83548483Y-168431283D01*
X83424402Y-168486907D01*
X83409805Y-168004095D01*
X83403773Y-167823779D01*
X83397445Y-167692901D01*
X83389606Y-167602511D01*
X83379037Y-167543664D01*
X83364523Y-167507413D01*
X83344848Y-167484810D01*
X83338535Y-167479917D01*
X83242888Y-167441706D01*
X83146207Y-167456827D01*
X83088655Y-167496943D01*
X83065245Y-167525370D01*
X83049039Y-167562672D01*
X83038741Y-167619223D01*
X83033049Y-167705394D01*
X83030664Y-167831558D01*
X83030264Y-167963042D01*
X83030186Y-168127999D01*
X83027361Y-168244761D01*
X83017907Y-168323510D01*
X82997940Y-168374431D01*
X82963576Y-168407706D01*
X82910932Y-168433520D01*
X82840617Y-168460344D01*
X82763820Y-168489542D01*
X82772962Y-167971346D01*
X82776643Y-167784539D01*
X82780950Y-167646490D01*
X82787123Y-167547568D01*
X82796402Y-167478145D01*
X82810027Y-167428590D01*
X82829239Y-167389273D01*
X82852402Y-167354584D01*
X82964152Y-167243770D01*
X83100513Y-167179689D01*
X83248825Y-167164339D01*
X83396429Y-167199719D01*
G36*
X80027221Y-167188015D02*
G01*
X80164061Y-167259968D01*
X80265051Y-167375766D01*
X80300925Y-167450213D01*
X80328839Y-167561992D01*
X80343129Y-167703227D01*
X80344484Y-167857371D01*
X80333595Y-168007879D01*
X80311153Y-168138205D01*
X80277850Y-168231803D01*
X80267615Y-168247922D01*
X80146382Y-168368249D01*
X80002387Y-168440317D01*
X79846139Y-168461408D01*
X79688148Y-168428802D01*
X79644180Y-168409253D01*
X79558556Y-168349012D01*
X79483408Y-168269135D01*
X79476306Y-168259004D01*
X79447439Y-168210181D01*
X79428357Y-168157990D01*
X79417084Y-168089285D01*
X79411645Y-167990918D01*
X79410062Y-167849744D01*
X79410035Y-167818092D01*
X79410107Y-167808019D01*
X79701989Y-167808019D01*
X79703687Y-167941256D01*
X79710372Y-168029674D01*
X79724425Y-168086785D01*
X79748229Y-168126102D01*
X79760379Y-168139241D01*
X79830236Y-168189172D01*
X79898059Y-168186895D01*
X79966635Y-168143584D01*
X80007535Y-168097346D01*
X80031758Y-168029857D01*
X80045361Y-167923433D01*
X80046294Y-167911020D01*
X80048616Y-167718147D01*
X80024350Y-167574900D01*
X79973824Y-167482160D01*
X79897368Y-167440807D01*
X79870076Y-167438552D01*
X79798411Y-167449893D01*
X79749390Y-167489184D01*
X79719418Y-167564326D01*
X79704899Y-167683222D01*
X79701989Y-167808019D01*
X79410107Y-167808019D01*
X79411122Y-167667659D01*
X79415688Y-167562549D01*
X79425688Y-167489714D01*
X79443079Y-167436108D01*
X79469816Y-167388681D01*
X79475724Y-167379864D01*
X79575032Y-167261007D01*
X79683242Y-167192008D01*
X79814981Y-167164619D01*
X79859717Y-167163281D01*
X80027221Y-167188015D01*
G37*
X80027221Y-167188015D02*
X80164061Y-167259968D01*
X80265051Y-167375766D01*
X80300925Y-167450213D01*
X80328839Y-167561992D01*
X80343129Y-167703227D01*
X80344484Y-167857371D01*
X80333595Y-168007879D01*
X80311153Y-168138205D01*
X80277850Y-168231803D01*
X80267615Y-168247922D01*
X80146382Y-168368249D01*
X80002387Y-168440317D01*
X79846139Y-168461408D01*
X79688148Y-168428802D01*
X79644180Y-168409253D01*
X79558556Y-168349012D01*
X79483408Y-168269135D01*
X79476306Y-168259004D01*
X79447439Y-168210181D01*
X79428357Y-168157990D01*
X79417084Y-168089285D01*
X79411645Y-167990918D01*
X79410062Y-167849744D01*
X79410035Y-167818092D01*
X79410107Y-167808019D01*
X79701989Y-167808019D01*
X79703687Y-167941256D01*
X79710372Y-168029674D01*
X79724425Y-168086785D01*
X79748229Y-168126102D01*
X79760379Y-168139241D01*
X79830236Y-168189172D01*
X79898059Y-168186895D01*
X79966635Y-168143584D01*
X80007535Y-168097346D01*
X80031758Y-168029857D01*
X80045361Y-167923433D01*
X80046294Y-167911020D01*
X80048616Y-167718147D01*
X80024350Y-167574900D01*
X79973824Y-167482160D01*
X79897368Y-167440807D01*
X79870076Y-167438552D01*
X79798411Y-167449893D01*
X79749390Y-167489184D01*
X79719418Y-167564326D01*
X79704899Y-167683222D01*
X79701989Y-167808019D01*
X79410107Y-167808019D01*
X79411122Y-167667659D01*
X79415688Y-167562549D01*
X79425688Y-167489714D01*
X79443079Y-167436108D01*
X79469816Y-167388681D01*
X79475724Y-167379864D01*
X79575032Y-167261007D01*
X79683242Y-167192008D01*
X79814981Y-167164619D01*
X79859717Y-167163281D01*
X80027221Y-167188015D01*
G36*
X82294552Y-167206676D02*
G01*
X82409658Y-167284111D01*
X82498611Y-167395949D01*
X82551749Y-167538265D01*
X82562497Y-167643015D01*
X82561276Y-167686726D01*
X82551056Y-167720194D01*
X82522961Y-167750179D01*
X82468116Y-167783440D01*
X82377645Y-167826738D01*
X82242672Y-167886833D01*
X82241989Y-167887134D01*
X82117751Y-167944037D01*
X82015873Y-167994565D01*
X81946767Y-168033280D01*
X81920846Y-168054740D01*
X81920839Y-168054913D01*
X81943685Y-168101644D01*
X81997109Y-168153154D01*
X82058442Y-168190261D01*
X82089515Y-168197632D01*
X82174289Y-168172138D01*
X82247293Y-168108291D01*
X82282913Y-168038094D01*
X82317180Y-167986343D01*
X82384303Y-167927409D01*
X82463208Y-167876496D01*
X82532821Y-167848809D01*
X82547377Y-167847287D01*
X82563763Y-167872321D01*
X82564750Y-167936311D01*
X82552708Y-168022593D01*
X82530007Y-168114501D01*
X82499014Y-168195369D01*
X82497448Y-168198509D01*
X82404181Y-168328734D01*
X82283304Y-168417311D01*
X82146027Y-168460786D01*
X82003560Y-168455706D01*
X81867112Y-168398616D01*
X81861045Y-168394602D01*
X81753710Y-168297326D01*
X81683132Y-168170409D01*
X81644074Y-168003526D01*
X81638832Y-167956639D01*
X81629548Y-167735329D01*
X81640678Y-167632124D01*
X81920839Y-167632124D01*
X81924479Y-167696503D01*
X81944389Y-167715291D01*
X81994026Y-167701235D01*
X82072267Y-167668009D01*
X82159726Y-167626359D01*
X82161899Y-167625256D01*
X82236030Y-167586265D01*
X82265781Y-167560244D01*
X82258445Y-167532965D01*
X82227553Y-167497121D01*
X82148960Y-167445251D01*
X82064323Y-167441439D01*
X81988403Y-167479189D01*
X81935965Y-167552001D01*
X81920839Y-167632124D01*
X81640678Y-167632124D01*
X81648644Y-167558261D01*
X81697634Y-167417829D01*
X81765836Y-167319447D01*
X81888935Y-167220030D01*
X82024528Y-167170711D01*
X82162955Y-167167568D01*
X82294552Y-167206676D01*
G37*
X82294552Y-167206676D02*
X82409658Y-167284111D01*
X82498611Y-167395949D01*
X82551749Y-167538265D01*
X82562497Y-167643015D01*
X82561276Y-167686726D01*
X82551056Y-167720194D01*
X82522961Y-167750179D01*
X82468116Y-167783440D01*
X82377645Y-167826738D01*
X82242672Y-167886833D01*
X82241989Y-167887134D01*
X82117751Y-167944037D01*
X82015873Y-167994565D01*
X81946767Y-168033280D01*
X81920846Y-168054740D01*
X81920839Y-168054913D01*
X81943685Y-168101644D01*
X81997109Y-168153154D01*
X82058442Y-168190261D01*
X82089515Y-168197632D01*
X82174289Y-168172138D01*
X82247293Y-168108291D01*
X82282913Y-168038094D01*
X82317180Y-167986343D01*
X82384303Y-167927409D01*
X82463208Y-167876496D01*
X82532821Y-167848809D01*
X82547377Y-167847287D01*
X82563763Y-167872321D01*
X82564750Y-167936311D01*
X82552708Y-168022593D01*
X82530007Y-168114501D01*
X82499014Y-168195369D01*
X82497448Y-168198509D01*
X82404181Y-168328734D01*
X82283304Y-168417311D01*
X82146027Y-168460786D01*
X82003560Y-168455706D01*
X81867112Y-168398616D01*
X81861045Y-168394602D01*
X81753710Y-168297326D01*
X81683132Y-168170409D01*
X81644074Y-168003526D01*
X81638832Y-167956639D01*
X81629548Y-167735329D01*
X81640678Y-167632124D01*
X81920839Y-167632124D01*
X81924479Y-167696503D01*
X81944389Y-167715291D01*
X81994026Y-167701235D01*
X82072267Y-167668009D01*
X82159726Y-167626359D01*
X82161899Y-167625256D01*
X82236030Y-167586265D01*
X82265781Y-167560244D01*
X82258445Y-167532965D01*
X82227553Y-167497121D01*
X82148960Y-167445251D01*
X82064323Y-167441439D01*
X81988403Y-167479189D01*
X81935965Y-167552001D01*
X81920839Y-167632124D01*
X81640678Y-167632124D01*
X81648644Y-167558261D01*
X81697634Y-167417829D01*
X81765836Y-167319447D01*
X81888935Y-167220030D01*
X82024528Y-167170711D01*
X82162955Y-167167568D01*
X82294552Y-167206676D01*
G36*
X84723598Y-167045857D02*
G01*
X84732154Y-167165188D01*
X84741981Y-167235506D01*
X84755599Y-167266179D01*
X84775527Y-167266571D01*
X84781989Y-167262910D01*
X84867940Y-167236398D01*
X84979745Y-167237946D01*
X85093414Y-167265199D01*
X85164510Y-167300455D01*
X85237405Y-167356778D01*
X85290693Y-167420519D01*
X85327275Y-167501510D01*
X85350050Y-167609586D01*
X85361919Y-167754580D01*
X85365782Y-167946326D01*
X85365851Y-167983109D01*
X85365897Y-168396288D01*
X85273954Y-168428339D01*
X85208652Y-168450144D01*
X85172824Y-168460297D01*
X85171770Y-168460391D01*
X85168242Y-168432860D01*
X85165239Y-168356923D01*
X85162990Y-168242565D01*
X85161724Y-168099769D01*
X85161529Y-168012951D01*
X85161123Y-167841773D01*
X85159032Y-167719088D01*
X85153947Y-167635000D01*
X85144560Y-167579614D01*
X85129561Y-167543032D01*
X85107642Y-167515359D01*
X85093957Y-167502032D01*
X84999949Y-167448328D01*
X84897364Y-167444307D01*
X84804290Y-167489725D01*
X84787078Y-167506123D01*
X84761832Y-167536957D01*
X84744320Y-167573531D01*
X84733142Y-167626415D01*
X84726896Y-167706177D01*
X84724182Y-167823385D01*
X84723598Y-167984991D01*
X84723598Y-168396288D01*
X84631655Y-168428339D01*
X84566353Y-168450144D01*
X84530525Y-168460297D01*
X84529471Y-168460391D01*
X84526775Y-168432448D01*
X84524345Y-168353630D01*
X84522278Y-168231453D01*
X84520671Y-168073432D01*
X84519623Y-167887083D01*
X84519231Y-167679920D01*
X84519230Y-167670706D01*
X84519230Y-166881020D01*
X84614115Y-166840997D01*
X84709000Y-166800973D01*
X84723598Y-167045857D01*
G37*
X84723598Y-167045857D02*
X84732154Y-167165188D01*
X84741981Y-167235506D01*
X84755599Y-167266179D01*
X84775527Y-167266571D01*
X84781989Y-167262910D01*
X84867940Y-167236398D01*
X84979745Y-167237946D01*
X85093414Y-167265199D01*
X85164510Y-167300455D01*
X85237405Y-167356778D01*
X85290693Y-167420519D01*
X85327275Y-167501510D01*
X85350050Y-167609586D01*
X85361919Y-167754580D01*
X85365782Y-167946326D01*
X85365851Y-167983109D01*
X85365897Y-168396288D01*
X85273954Y-168428339D01*
X85208652Y-168450144D01*
X85172824Y-168460297D01*
X85171770Y-168460391D01*
X85168242Y-168432860D01*
X85165239Y-168356923D01*
X85162990Y-168242565D01*
X85161724Y-168099769D01*
X85161529Y-168012951D01*
X85161123Y-167841773D01*
X85159032Y-167719088D01*
X85153947Y-167635000D01*
X85144560Y-167579614D01*
X85129561Y-167543032D01*
X85107642Y-167515359D01*
X85093957Y-167502032D01*
X84999949Y-167448328D01*
X84897364Y-167444307D01*
X84804290Y-167489725D01*
X84787078Y-167506123D01*
X84761832Y-167536957D01*
X84744320Y-167573531D01*
X84733142Y-167626415D01*
X84726896Y-167706177D01*
X84724182Y-167823385D01*
X84723598Y-167984991D01*
X84723598Y-168396288D01*
X84631655Y-168428339D01*
X84566353Y-168450144D01*
X84530525Y-168460297D01*
X84529471Y-168460391D01*
X84526775Y-168432448D01*
X84524345Y-168353630D01*
X84522278Y-168231453D01*
X84520671Y-168073432D01*
X84519623Y-167887083D01*
X84519231Y-167679920D01*
X84519230Y-167670706D01*
X84519230Y-166881020D01*
X84614115Y-166840997D01*
X84709000Y-166800973D01*
X84723598Y-167045857D01*
G36*
X86058944Y-167246360D02*
G01*
X86173343Y-167288842D01*
X86174652Y-167289658D01*
X86245403Y-167341730D01*
X86297636Y-167402584D01*
X86334371Y-167481887D01*
X86358634Y-167589309D01*
X86373445Y-167734517D01*
X86381829Y-167927179D01*
X86382564Y-167954628D01*
X86393120Y-168368521D01*
X86304291Y-168414456D01*
X86240018Y-168445498D01*
X86201210Y-168460206D01*
X86199415Y-168460391D01*
X86192700Y-168433250D01*
X86187365Y-168360041D01*
X86184083Y-168253081D01*
X86183368Y-168166469D01*
X86183351Y-168026162D01*
X86176937Y-167938051D01*
X86154580Y-167896025D01*
X86106732Y-167893975D01*
X86023849Y-167925790D01*
X85898713Y-167984272D01*
X85806697Y-168032845D01*
X85759371Y-168074986D01*
X85745458Y-168120916D01*
X85745437Y-168123189D01*
X85768395Y-168202311D01*
X85836370Y-168245055D01*
X85940398Y-168251246D01*
X86015330Y-168250172D01*
X86054839Y-168271753D01*
X86079478Y-168323591D01*
X86093659Y-168389632D01*
X86073223Y-168427104D01*
X86065528Y-168432467D01*
X85993083Y-168454006D01*
X85891633Y-168457055D01*
X85787157Y-168442778D01*
X85713125Y-168416688D01*
X85610772Y-168329785D01*
X85552591Y-168208816D01*
X85541069Y-168114308D01*
X85549862Y-168029062D01*
X85581680Y-167959476D01*
X85644684Y-167897672D01*
X85747031Y-167835772D01*
X85896882Y-167765897D01*
X85906012Y-167761948D01*
X86040997Y-167699588D01*
X86124294Y-167648446D01*
X86159997Y-167602488D01*
X86152203Y-167555683D01*
X86105007Y-167501998D01*
X86090894Y-167489644D01*
X85996359Y-167441741D01*
X85898406Y-167443758D01*
X85813097Y-167490724D01*
X85756496Y-167577669D01*
X85751237Y-167594734D01*
X85700023Y-167677504D01*
X85635037Y-167717372D01*
X85541069Y-167756882D01*
X85541069Y-167654658D01*
X85569653Y-167506072D01*
X85654495Y-167369784D01*
X85698645Y-167324191D01*
X85799005Y-167265674D01*
X85926635Y-167239184D01*
X86058944Y-167246360D01*
G37*
X86058944Y-167246360D02*
X86173343Y-167288842D01*
X86174652Y-167289658D01*
X86245403Y-167341730D01*
X86297636Y-167402584D01*
X86334371Y-167481887D01*
X86358634Y-167589309D01*
X86373445Y-167734517D01*
X86381829Y-167927179D01*
X86382564Y-167954628D01*
X86393120Y-168368521D01*
X86304291Y-168414456D01*
X86240018Y-168445498D01*
X86201210Y-168460206D01*
X86199415Y-168460391D01*
X86192700Y-168433250D01*
X86187365Y-168360041D01*
X86184083Y-168253081D01*
X86183368Y-168166469D01*
X86183351Y-168026162D01*
X86176937Y-167938051D01*
X86154580Y-167896025D01*
X86106732Y-167893975D01*
X86023849Y-167925790D01*
X85898713Y-167984272D01*
X85806697Y-168032845D01*
X85759371Y-168074986D01*
X85745458Y-168120916D01*
X85745437Y-168123189D01*
X85768395Y-168202311D01*
X85836370Y-168245055D01*
X85940398Y-168251246D01*
X86015330Y-168250172D01*
X86054839Y-168271753D01*
X86079478Y-168323591D01*
X86093659Y-168389632D01*
X86073223Y-168427104D01*
X86065528Y-168432467D01*
X85993083Y-168454006D01*
X85891633Y-168457055D01*
X85787157Y-168442778D01*
X85713125Y-168416688D01*
X85610772Y-168329785D01*
X85552591Y-168208816D01*
X85541069Y-168114308D01*
X85549862Y-168029062D01*
X85581680Y-167959476D01*
X85644684Y-167897672D01*
X85747031Y-167835772D01*
X85896882Y-167765897D01*
X85906012Y-167761948D01*
X86040997Y-167699588D01*
X86124294Y-167648446D01*
X86159997Y-167602488D01*
X86152203Y-167555683D01*
X86105007Y-167501998D01*
X86090894Y-167489644D01*
X85996359Y-167441741D01*
X85898406Y-167443758D01*
X85813097Y-167490724D01*
X85756496Y-167577669D01*
X85751237Y-167594734D01*
X85700023Y-167677504D01*
X85635037Y-167717372D01*
X85541069Y-167756882D01*
X85541069Y-167654658D01*
X85569653Y-167506072D01*
X85654495Y-167369784D01*
X85698645Y-167324191D01*
X85799005Y-167265674D01*
X85926635Y-167239184D01*
X86058944Y-167246360D01*
G36*
X87044943Y-167243920D02*
G01*
X87177565Y-167292859D01*
X87285010Y-167379419D01*
X87327032Y-167440352D01*
X87372843Y-167552161D01*
X87371891Y-167633006D01*
X87323808Y-167687378D01*
X87306017Y-167696624D01*
X87229204Y-167725450D01*
X87189976Y-167718065D01*
X87176689Y-167669658D01*
X87176012Y-167642920D01*
X87151686Y-167544548D01*
X87088281Y-167475734D01*
X87000154Y-167442498D01*
X86901663Y-167450861D01*
X86821602Y-167494296D01*
X86794561Y-167519072D01*
X86775394Y-167549129D01*
X86762446Y-167594565D01*
X86754064Y-167665476D01*
X86748593Y-167771960D01*
X86744378Y-167924112D01*
X86743287Y-167972287D01*
X86739307Y-168137095D01*
X86734781Y-168253088D01*
X86727995Y-168329833D01*
X86717231Y-168376893D01*
X86700773Y-168403835D01*
X86676906Y-168420223D01*
X86661626Y-168427463D01*
X86596733Y-168452220D01*
X86558534Y-168460391D01*
X86545912Y-168433103D01*
X86538208Y-168350603D01*
X86535380Y-168211941D01*
X86537386Y-168016162D01*
X86538011Y-167985965D01*
X86542421Y-167807349D01*
X86547635Y-167676923D01*
X86555055Y-167584492D01*
X86566082Y-167519858D01*
X86582117Y-167472825D01*
X86604561Y-167433196D01*
X86616302Y-167416215D01*
X86683619Y-167341080D01*
X86758910Y-167282638D01*
X86768128Y-167277536D01*
X86903133Y-167237260D01*
X87044943Y-167243920D01*
G37*
X87044943Y-167243920D02*
X87177565Y-167292859D01*
X87285010Y-167379419D01*
X87327032Y-167440352D01*
X87372843Y-167552161D01*
X87371891Y-167633006D01*
X87323808Y-167687378D01*
X87306017Y-167696624D01*
X87229204Y-167725450D01*
X87189976Y-167718065D01*
X87176689Y-167669658D01*
X87176012Y-167642920D01*
X87151686Y-167544548D01*
X87088281Y-167475734D01*
X87000154Y-167442498D01*
X86901663Y-167450861D01*
X86821602Y-167494296D01*
X86794561Y-167519072D01*
X86775394Y-167549129D01*
X86762446Y-167594565D01*
X86754064Y-167665476D01*
X86748593Y-167771960D01*
X86744378Y-167924112D01*
X86743287Y-167972287D01*
X86739307Y-168137095D01*
X86734781Y-168253088D01*
X86727995Y-168329833D01*
X86717231Y-168376893D01*
X86700773Y-168403835D01*
X86676906Y-168420223D01*
X86661626Y-168427463D01*
X86596733Y-168452220D01*
X86558534Y-168460391D01*
X86545912Y-168433103D01*
X86538208Y-168350603D01*
X86535380Y-168211941D01*
X86537386Y-168016162D01*
X86538011Y-167985965D01*
X86542421Y-167807349D01*
X86547635Y-167676923D01*
X86555055Y-167584492D01*
X86566082Y-167519858D01*
X86582117Y-167472825D01*
X86604561Y-167433196D01*
X86616302Y-167416215D01*
X86683619Y-167341080D01*
X86758910Y-167282638D01*
X86768128Y-167277536D01*
X86903133Y-167237260D01*
X87044943Y-167243920D01*
G36*
X88372914Y-167476455D02*
G01*
X88372543Y-167694661D01*
X88371108Y-167862519D01*
X88368002Y-167988070D01*
X88362622Y-168079355D01*
X88354362Y-168144415D01*
X88342616Y-168191291D01*
X88326781Y-168228024D01*
X88314790Y-168248991D01*
X88215490Y-168362694D01*
X88089588Y-168433965D01*
X87950291Y-168459538D01*
X87810805Y-168436150D01*
X87727743Y-168394119D01*
X87640545Y-168321411D01*
X87581117Y-168232612D01*
X87545261Y-168116320D01*
X87528781Y-167961135D01*
X87526447Y-167847287D01*
X87526761Y-167839106D01*
X87730724Y-167839106D01*
X87731970Y-167969657D01*
X87737678Y-168056080D01*
X87750804Y-168112618D01*
X87774306Y-168153514D01*
X87802386Y-168184362D01*
X87896688Y-168243905D01*
X87997940Y-168248992D01*
X88093636Y-168199279D01*
X88101084Y-168192543D01*
X88132874Y-168157502D01*
X88152808Y-168115811D01*
X88163600Y-168053762D01*
X88167965Y-167957644D01*
X88168655Y-167851379D01*
X88167159Y-167717880D01*
X88160964Y-167628822D01*
X88147514Y-167570293D01*
X88124251Y-167528382D01*
X88105175Y-167506123D01*
X88016563Y-167449985D01*
X87914508Y-167443235D01*
X87817095Y-167486114D01*
X87798296Y-167502032D01*
X87766293Y-167537382D01*
X87746318Y-167579502D01*
X87735593Y-167642251D01*
X87731339Y-167739487D01*
X87730724Y-167839106D01*
X87526761Y-167839106D01*
X87533504Y-167663947D01*
X87557472Y-167526195D01*
X87602548Y-167422632D01*
X87672928Y-167341856D01*
X87727743Y-167300455D01*
X87827376Y-167255728D01*
X87942855Y-167234967D01*
X88050199Y-167240525D01*
X88110264Y-167262943D01*
X88133835Y-167269323D01*
X88149477Y-167245535D01*
X88160395Y-167181788D01*
X88168655Y-167084687D01*
X88177699Y-166976541D01*
X88190261Y-166911475D01*
X88213119Y-166874268D01*
X88253051Y-166849699D01*
X88278138Y-166838819D01*
X88373023Y-166799072D01*
X88372914Y-167476455D01*
G37*
X88372914Y-167476455D02*
X88372543Y-167694661D01*
X88371108Y-167862519D01*
X88368002Y-167988070D01*
X88362622Y-168079355D01*
X88354362Y-168144415D01*
X88342616Y-168191291D01*
X88326781Y-168228024D01*
X88314790Y-168248991D01*
X88215490Y-168362694D01*
X88089588Y-168433965D01*
X87950291Y-168459538D01*
X87810805Y-168436150D01*
X87727743Y-168394119D01*
X87640545Y-168321411D01*
X87581117Y-168232612D01*
X87545261Y-168116320D01*
X87528781Y-167961135D01*
X87526447Y-167847287D01*
X87526761Y-167839106D01*
X87730724Y-167839106D01*
X87731970Y-167969657D01*
X87737678Y-168056080D01*
X87750804Y-168112618D01*
X87774306Y-168153514D01*
X87802386Y-168184362D01*
X87896688Y-168243905D01*
X87997940Y-168248992D01*
X88093636Y-168199279D01*
X88101084Y-168192543D01*
X88132874Y-168157502D01*
X88152808Y-168115811D01*
X88163600Y-168053762D01*
X88167965Y-167957644D01*
X88168655Y-167851379D01*
X88167159Y-167717880D01*
X88160964Y-167628822D01*
X88147514Y-167570293D01*
X88124251Y-167528382D01*
X88105175Y-167506123D01*
X88016563Y-167449985D01*
X87914508Y-167443235D01*
X87817095Y-167486114D01*
X87798296Y-167502032D01*
X87766293Y-167537382D01*
X87746318Y-167579502D01*
X87735593Y-167642251D01*
X87731339Y-167739487D01*
X87730724Y-167839106D01*
X87526761Y-167839106D01*
X87533504Y-167663947D01*
X87557472Y-167526195D01*
X87602548Y-167422632D01*
X87672928Y-167341856D01*
X87727743Y-167300455D01*
X87827376Y-167255728D01*
X87942855Y-167234967D01*
X88050199Y-167240525D01*
X88110264Y-167262943D01*
X88133835Y-167269323D01*
X88149477Y-167245535D01*
X88160395Y-167181788D01*
X88168655Y-167084687D01*
X88177699Y-166976541D01*
X88190261Y-166911475D01*
X88213119Y-166874268D01*
X88253051Y-166849699D01*
X88278138Y-166838819D01*
X88373023Y-166799072D01*
X88372914Y-167476455D01*
G36*
X89559124Y-167261840D02*
G01*
X89563579Y-167338653D01*
X89567071Y-167455391D01*
X89569315Y-167602821D01*
X89570035Y-167757455D01*
X89570035Y-168280727D01*
X89477645Y-168373117D01*
X89413978Y-168430047D01*
X89358089Y-168453107D01*
X89281702Y-168451647D01*
X89251380Y-168447934D01*
X89156610Y-168437126D01*
X89078222Y-168430933D01*
X89059115Y-168430361D01*
X88994699Y-168434102D01*
X88902571Y-168443494D01*
X88866850Y-168447934D01*
X88779114Y-168454801D01*
X88720153Y-168439885D01*
X88661690Y-168393835D01*
X88640585Y-168373117D01*
X88548195Y-168280727D01*
X88548195Y-167301947D01*
X88622558Y-167268066D01*
X88686590Y-167242970D01*
X88724052Y-167234184D01*
X88733657Y-167261950D01*
X88742635Y-167339530D01*
X88750386Y-167458348D01*
X88756314Y-167609828D01*
X88759173Y-167737805D01*
X88767161Y-168241425D01*
X88836848Y-168251278D01*
X88900229Y-168244389D01*
X88931286Y-168222083D01*
X88939967Y-168180379D01*
X88947378Y-168091544D01*
X88952931Y-167966834D01*
X88956036Y-167817507D01*
X88956484Y-167740661D01*
X88956931Y-167298287D01*
X89048874Y-167266235D01*
X89113949Y-167244443D01*
X89149347Y-167234281D01*
X89150368Y-167234184D01*
X89153920Y-167261809D01*
X89157823Y-167338411D01*
X89161751Y-167454579D01*
X89165376Y-167600904D01*
X89167908Y-167737805D01*
X89175897Y-168241425D01*
X89351069Y-168241425D01*
X89359107Y-167781965D01*
X89367146Y-167322505D01*
X89452543Y-167278344D01*
X89515593Y-167248019D01*
X89552910Y-167234258D01*
X89553987Y-167234184D01*
X89559124Y-167261840D01*
G37*
X89559124Y-167261840D02*
X89563579Y-167338653D01*
X89567071Y-167455391D01*
X89569315Y-167602821D01*
X89570035Y-167757455D01*
X89570035Y-168280727D01*
X89477645Y-168373117D01*
X89413978Y-168430047D01*
X89358089Y-168453107D01*
X89281702Y-168451647D01*
X89251380Y-168447934D01*
X89156610Y-168437126D01*
X89078222Y-168430933D01*
X89059115Y-168430361D01*
X88994699Y-168434102D01*
X88902571Y-168443494D01*
X88866850Y-168447934D01*
X88779114Y-168454801D01*
X88720153Y-168439885D01*
X88661690Y-168393835D01*
X88640585Y-168373117D01*
X88548195Y-168280727D01*
X88548195Y-167301947D01*
X88622558Y-167268066D01*
X88686590Y-167242970D01*
X88724052Y-167234184D01*
X88733657Y-167261950D01*
X88742635Y-167339530D01*
X88750386Y-167458348D01*
X88756314Y-167609828D01*
X88759173Y-167737805D01*
X88767161Y-168241425D01*
X88836848Y-168251278D01*
X88900229Y-168244389D01*
X88931286Y-168222083D01*
X88939967Y-168180379D01*
X88947378Y-168091544D01*
X88952931Y-167966834D01*
X88956036Y-167817507D01*
X88956484Y-167740661D01*
X88956931Y-167298287D01*
X89048874Y-167266235D01*
X89113949Y-167244443D01*
X89149347Y-167234281D01*
X89150368Y-167234184D01*
X89153920Y-167261809D01*
X89157823Y-167338411D01*
X89161751Y-167454579D01*
X89165376Y-167600904D01*
X89167908Y-167737805D01*
X89175897Y-168241425D01*
X89351069Y-168241425D01*
X89359107Y-167781965D01*
X89367146Y-167322505D01*
X89452543Y-167278344D01*
X89515593Y-167248019D01*
X89552910Y-167234258D01*
X89553987Y-167234184D01*
X89559124Y-167261840D01*
G36*
X90293406Y-167257156D02*
G01*
X90377469Y-167295393D01*
X90443450Y-167341726D01*
X90491794Y-167393532D01*
X90525172Y-167460363D01*
X90546253Y-167551769D01*
X90557707Y-167677301D01*
X90562203Y-167846508D01*
X90562678Y-167957933D01*
X90562678Y-168392627D01*
X90488316Y-168426509D01*
X90429746Y-168451272D01*
X90400730Y-168460391D01*
X90395179Y-168433257D01*
X90390775Y-168360094D01*
X90388078Y-168253263D01*
X90387506Y-168168437D01*
X90385046Y-168045887D01*
X90378412Y-167948668D01*
X90368726Y-167889134D01*
X90361032Y-167876483D01*
X90309311Y-167889402D01*
X90228117Y-167922539D01*
X90134102Y-167967461D01*
X90043917Y-168015735D01*
X89974215Y-168058928D01*
X89941648Y-168088608D01*
X89941519Y-168088929D01*
X89944320Y-168143857D01*
X89969439Y-168196292D01*
X90013541Y-168238881D01*
X90077909Y-168253126D01*
X90132921Y-168251466D01*
X90210835Y-168250245D01*
X90251732Y-168268498D01*
X90276295Y-168316726D01*
X90279392Y-168325820D01*
X90290040Y-168394598D01*
X90261565Y-168436360D01*
X90187344Y-168456263D01*
X90107168Y-168459944D01*
X89962890Y-168432658D01*
X89888203Y-168393690D01*
X89795963Y-168302148D01*
X89747043Y-168189782D01*
X89742654Y-168071051D01*
X89784001Y-167960411D01*
X89846197Y-167891080D01*
X89908294Y-167852265D01*
X90005895Y-167803125D01*
X90119632Y-167753292D01*
X90138590Y-167745677D01*
X90263521Y-167690545D01*
X90335539Y-167641954D01*
X90358700Y-167593647D01*
X90337064Y-167539370D01*
X90299920Y-167496943D01*
X90212127Y-167444702D01*
X90115530Y-167440784D01*
X90026944Y-167481041D01*
X89963186Y-167561326D01*
X89954817Y-167582040D01*
X89906096Y-167658225D01*
X89834965Y-167714785D01*
X89745207Y-167761201D01*
X89745207Y-167629584D01*
X89750490Y-167549168D01*
X89773142Y-167485786D01*
X89823367Y-167418163D01*
X89871582Y-167366076D01*
X89946554Y-167292322D01*
X90004806Y-167252702D01*
X90067372Y-167236810D01*
X90138193Y-167234184D01*
X90293406Y-167257156D01*
G37*
X90293406Y-167257156D02*
X90377469Y-167295393D01*
X90443450Y-167341726D01*
X90491794Y-167393532D01*
X90525172Y-167460363D01*
X90546253Y-167551769D01*
X90557707Y-167677301D01*
X90562203Y-167846508D01*
X90562678Y-167957933D01*
X90562678Y-168392627D01*
X90488316Y-168426509D01*
X90429746Y-168451272D01*
X90400730Y-168460391D01*
X90395179Y-168433257D01*
X90390775Y-168360094D01*
X90388078Y-168253263D01*
X90387506Y-168168437D01*
X90385046Y-168045887D01*
X90378412Y-167948668D01*
X90368726Y-167889134D01*
X90361032Y-167876483D01*
X90309311Y-167889402D01*
X90228117Y-167922539D01*
X90134102Y-167967461D01*
X90043917Y-168015735D01*
X89974215Y-168058928D01*
X89941648Y-168088608D01*
X89941519Y-168088929D01*
X89944320Y-168143857D01*
X89969439Y-168196292D01*
X90013541Y-168238881D01*
X90077909Y-168253126D01*
X90132921Y-168251466D01*
X90210835Y-168250245D01*
X90251732Y-168268498D01*
X90276295Y-168316726D01*
X90279392Y-168325820D01*
X90290040Y-168394598D01*
X90261565Y-168436360D01*
X90187344Y-168456263D01*
X90107168Y-168459944D01*
X89962890Y-168432658D01*
X89888203Y-168393690D01*
X89795963Y-168302148D01*
X89747043Y-168189782D01*
X89742654Y-168071051D01*
X89784001Y-167960411D01*
X89846197Y-167891080D01*
X89908294Y-167852265D01*
X90005895Y-167803125D01*
X90119632Y-167753292D01*
X90138590Y-167745677D01*
X90263521Y-167690545D01*
X90335539Y-167641954D01*
X90358700Y-167593647D01*
X90337064Y-167539370D01*
X90299920Y-167496943D01*
X90212127Y-167444702D01*
X90115530Y-167440784D01*
X90026944Y-167481041D01*
X89963186Y-167561326D01*
X89954817Y-167582040D01*
X89906096Y-167658225D01*
X89834965Y-167714785D01*
X89745207Y-167761201D01*
X89745207Y-167629584D01*
X89750490Y-167549168D01*
X89773142Y-167485786D01*
X89823367Y-167418163D01*
X89871582Y-167366076D01*
X89946554Y-167292322D01*
X90004806Y-167252702D01*
X90067372Y-167236810D01*
X90138193Y-167234184D01*
X90293406Y-167257156D01*
G36*
X91314690Y-167262018D02*
G01*
X91349585Y-167277269D01*
X91432877Y-167343235D01*
X91504103Y-167438618D01*
X91548153Y-167540406D01*
X91555322Y-167590587D01*
X91531285Y-167660647D01*
X91478561Y-167697717D01*
X91422031Y-167720164D01*
X91396146Y-167724300D01*
X91383542Y-167694283D01*
X91358654Y-167628961D01*
X91347735Y-167599445D01*
X91286508Y-167497348D01*
X91197861Y-167446423D01*
X91084193Y-167447989D01*
X91075774Y-167449994D01*
X91015088Y-167478767D01*
X90970474Y-167534859D01*
X90940002Y-167625163D01*
X90921744Y-167756571D01*
X90913771Y-167935974D01*
X90913023Y-168031433D01*
X90912652Y-168181913D01*
X90910223Y-168284495D01*
X90903760Y-168349672D01*
X90891288Y-168387938D01*
X90870833Y-168409785D01*
X90840419Y-168425707D01*
X90838661Y-168426509D01*
X90780091Y-168451272D01*
X90751075Y-168460391D01*
X90746616Y-168432822D01*
X90742799Y-168356620D01*
X90739899Y-168241541D01*
X90738191Y-168097341D01*
X90737851Y-167991814D01*
X90739588Y-167787613D01*
X90746382Y-167632697D01*
X90760607Y-167518024D01*
X90784638Y-167434551D01*
X90820848Y-167373236D01*
X90871612Y-167325034D01*
X90921739Y-167291393D01*
X91042275Y-167246619D01*
X91182557Y-167236521D01*
X91314690Y-167262018D01*
G37*
X91314690Y-167262018D02*
X91349585Y-167277269D01*
X91432877Y-167343235D01*
X91504103Y-167438618D01*
X91548153Y-167540406D01*
X91555322Y-167590587D01*
X91531285Y-167660647D01*
X91478561Y-167697717D01*
X91422031Y-167720164D01*
X91396146Y-167724300D01*
X91383542Y-167694283D01*
X91358654Y-167628961D01*
X91347735Y-167599445D01*
X91286508Y-167497348D01*
X91197861Y-167446423D01*
X91084193Y-167447989D01*
X91075774Y-167449994D01*
X91015088Y-167478767D01*
X90970474Y-167534859D01*
X90940002Y-167625163D01*
X90921744Y-167756571D01*
X90913771Y-167935974D01*
X90913023Y-168031433D01*
X90912652Y-168181913D01*
X90910223Y-168284495D01*
X90903760Y-168349672D01*
X90891288Y-168387938D01*
X90870833Y-168409785D01*
X90840419Y-168425707D01*
X90838661Y-168426509D01*
X90780091Y-168451272D01*
X90751075Y-168460391D01*
X90746616Y-168432822D01*
X90742799Y-168356620D01*
X90739899Y-168241541D01*
X90738191Y-168097341D01*
X90737851Y-167991814D01*
X90739588Y-167787613D01*
X90746382Y-167632697D01*
X90760607Y-167518024D01*
X90784638Y-167434551D01*
X90820848Y-167373236D01*
X90871612Y-167325034D01*
X90921739Y-167291393D01*
X91042275Y-167246619D01*
X91182557Y-167236521D01*
X91314690Y-167262018D01*
G36*
X92322439Y-167278540D02*
G01*
X92437950Y-167354034D01*
X92493664Y-167421617D01*
X92537804Y-167544255D01*
X92541309Y-167641298D01*
X92533368Y-167771056D01*
X92234115Y-167902039D01*
X92088611Y-167968958D01*
X91993537Y-168022790D01*
X91944101Y-168069416D01*
X91935511Y-168114720D01*
X91962972Y-168164582D01*
X91993253Y-168197632D01*
X92081363Y-168250633D01*
X92177196Y-168254347D01*
X92265212Y-168213041D01*
X92329869Y-168130983D01*
X92341433Y-168102008D01*
X92396825Y-168011509D01*
X92460553Y-167972940D01*
X92547966Y-167939946D01*
X92547966Y-168065034D01*
X92540238Y-168150156D01*
X92509966Y-168221938D01*
X92446518Y-168304356D01*
X92437088Y-168315066D01*
X92366513Y-168388391D01*
X92305847Y-168427742D01*
X92229950Y-168445845D01*
X92167030Y-168451774D01*
X92054487Y-168453251D01*
X91974370Y-168434535D01*
X91924390Y-168406747D01*
X91845838Y-168345641D01*
X91791463Y-168279554D01*
X91757052Y-168196441D01*
X91738388Y-168084254D01*
X91731256Y-167930946D01*
X91730687Y-167853136D01*
X91732622Y-167759853D01*
X91908899Y-167759853D01*
X91910944Y-167809896D01*
X91916039Y-167818092D01*
X91949666Y-167806958D01*
X92022030Y-167777493D01*
X92118747Y-167735601D01*
X92138973Y-167726597D01*
X92261203Y-167664442D01*
X92328547Y-167609815D01*
X92343348Y-167558649D01*
X92307947Y-167506876D01*
X92278711Y-167484000D01*
X92173216Y-167438250D01*
X92074476Y-167445808D01*
X91991812Y-167501651D01*
X91934548Y-167600753D01*
X91916188Y-167679414D01*
X91908899Y-167759853D01*
X91732622Y-167759853D01*
X91734459Y-167671351D01*
X91748359Y-167536853D01*
X91775894Y-167438916D01*
X91820572Y-167366811D01*
X91885901Y-167309813D01*
X91914383Y-167291393D01*
X92043763Y-167243422D01*
X92185412Y-167240403D01*
X92322439Y-167278540D01*
G37*
X92322439Y-167278540D02*
X92437950Y-167354034D01*
X92493664Y-167421617D01*
X92537804Y-167544255D01*
X92541309Y-167641298D01*
X92533368Y-167771056D01*
X92234115Y-167902039D01*
X92088611Y-167968958D01*
X91993537Y-168022790D01*
X91944101Y-168069416D01*
X91935511Y-168114720D01*
X91962972Y-168164582D01*
X91993253Y-168197632D01*
X92081363Y-168250633D01*
X92177196Y-168254347D01*
X92265212Y-168213041D01*
X92329869Y-168130983D01*
X92341433Y-168102008D01*
X92396825Y-168011509D01*
X92460553Y-167972940D01*
X92547966Y-167939946D01*
X92547966Y-168065034D01*
X92540238Y-168150156D01*
X92509966Y-168221938D01*
X92446518Y-168304356D01*
X92437088Y-168315066D01*
X92366513Y-168388391D01*
X92305847Y-168427742D01*
X92229950Y-168445845D01*
X92167030Y-168451774D01*
X92054487Y-168453251D01*
X91974370Y-168434535D01*
X91924390Y-168406747D01*
X91845838Y-168345641D01*
X91791463Y-168279554D01*
X91757052Y-168196441D01*
X91738388Y-168084254D01*
X91731256Y-167930946D01*
X91730687Y-167853136D01*
X91732622Y-167759853D01*
X91908899Y-167759853D01*
X91910944Y-167809896D01*
X91916039Y-167818092D01*
X91949666Y-167806958D01*
X92022030Y-167777493D01*
X92118747Y-167735601D01*
X92138973Y-167726597D01*
X92261203Y-167664442D01*
X92328547Y-167609815D01*
X92343348Y-167558649D01*
X92307947Y-167506876D01*
X92278711Y-167484000D01*
X92173216Y-167438250D01*
X92074476Y-167445808D01*
X91991812Y-167501651D01*
X91934548Y-167600753D01*
X91916188Y-167679414D01*
X91908899Y-167759853D01*
X91732622Y-167759853D01*
X91734459Y-167671351D01*
X91748359Y-167536853D01*
X91775894Y-167438916D01*
X91820572Y-167366811D01*
X91885901Y-167309813D01*
X91914383Y-167291393D01*
X92043763Y-167243422D01*
X92185412Y-167240403D01*
X92322439Y-167278540D01*
G36*
X86188014Y-157774998D02*
G01*
X86346006Y-157775863D01*
X86460347Y-157778205D01*
X86538407Y-157782762D01*
X86587554Y-157790270D01*
X86615159Y-157801466D01*
X86628592Y-157817088D01*
X86635221Y-157837873D01*
X86635865Y-157840563D01*
X86645935Y-157889113D01*
X86664575Y-157984905D01*
X86689845Y-158117743D01*
X86719807Y-158277431D01*
X86752522Y-158453774D01*
X86753664Y-158459967D01*
X86786433Y-158632782D01*
X86817093Y-158785469D01*
X86843664Y-158908871D01*
X86864167Y-158993831D01*
X86876626Y-159031190D01*
X86877220Y-159031852D01*
X86913919Y-159050095D01*
X86989586Y-159080497D01*
X87087878Y-159116493D01*
X87088425Y-159116685D01*
X87212233Y-159163222D01*
X87358196Y-159222504D01*
X87495781Y-159282109D01*
X87502293Y-159285056D01*
X87726390Y-159386765D01*
X88222619Y-159047897D01*
X88374846Y-158944592D01*
X88512741Y-158852237D01*
X88628315Y-158776084D01*
X88713579Y-158721385D01*
X88760544Y-158693393D01*
X88765004Y-158691317D01*
X88799134Y-158700560D01*
X88862881Y-158745156D01*
X88958731Y-158827209D01*
X89089169Y-158948821D01*
X89222328Y-159078205D01*
X89350694Y-159205702D01*
X89465581Y-159322046D01*
X89560073Y-159420052D01*
X89627253Y-159492536D01*
X89660206Y-159532313D01*
X89661432Y-159534361D01*
X89665074Y-159561656D01*
X89651350Y-159606234D01*
X89616869Y-159674112D01*
X89558239Y-159771311D01*
X89472070Y-159903851D01*
X89357200Y-160074476D01*
X89255254Y-160224655D01*
X89164123Y-160359350D01*
X89089073Y-160470740D01*
X89035369Y-160551005D01*
X89008280Y-160592325D01*
X89006574Y-160595130D01*
X89009882Y-160634721D01*
X89034953Y-160711669D01*
X89076798Y-160811432D01*
X89091712Y-160843291D01*
X89156786Y-160985226D01*
X89226212Y-161146273D01*
X89282609Y-161285621D01*
X89323247Y-161389044D01*
X89355526Y-161467642D01*
X89374178Y-161508720D01*
X89376497Y-161511885D01*
X89410803Y-161517128D01*
X89491669Y-161531494D01*
X89608343Y-161552937D01*
X89750075Y-161579413D01*
X89906110Y-161608877D01*
X90065698Y-161639283D01*
X90218085Y-161668588D01*
X90352521Y-161694745D01*
X90458252Y-161715710D01*
X90524526Y-161729439D01*
X90540782Y-161733320D01*
X90557573Y-161742900D01*
X90570249Y-161764536D01*
X90579378Y-161805531D01*
X90585531Y-161873189D01*
X90589280Y-161974812D01*
X90591192Y-162117703D01*
X90591840Y-162309165D01*
X90591874Y-162387645D01*
X90591874Y-163025906D01*
X90438598Y-163056160D01*
X90353322Y-163072564D01*
X90226070Y-163096509D01*
X90072315Y-163125107D01*
X89907534Y-163155467D01*
X89861989Y-163163806D01*
X89709932Y-163193370D01*
X89577468Y-163222442D01*
X89475714Y-163248329D01*
X89415788Y-163268337D01*
X89405805Y-163274301D01*
X89381293Y-163316534D01*
X89346148Y-163398370D01*
X89307173Y-163503683D01*
X89299442Y-163526368D01*
X89248360Y-163667018D01*
X89184954Y-163825714D01*
X89122904Y-163968225D01*
X89122598Y-163968886D01*
X89019267Y-164192440D01*
X89698961Y-165192232D01*
X89262621Y-165629300D01*
X89130649Y-165759381D01*
X89010279Y-165874048D01*
X88908273Y-165967181D01*
X88831391Y-166032658D01*
X88786393Y-166064357D01*
X88779938Y-166066368D01*
X88742040Y-166050529D01*
X88664708Y-166006496D01*
X88556389Y-165939490D01*
X88425532Y-165854734D01*
X88284052Y-165759816D01*
X88140461Y-165662998D01*
X88012435Y-165578751D01*
X87908105Y-165512258D01*
X87835600Y-165468702D01*
X87803158Y-165453264D01*
X87763576Y-165466328D01*
X87688519Y-165500750D01*
X87593468Y-165549380D01*
X87583392Y-165554785D01*
X87455391Y-165618980D01*
X87367618Y-165650463D01*
X87313028Y-165650798D01*
X87284575Y-165621548D01*
X87284410Y-165621138D01*
X87270188Y-165586498D01*
X87236269Y-165504269D01*
X87185284Y-165380814D01*
X87119862Y-165222498D01*
X87042634Y-165035686D01*
X86956229Y-164826742D01*
X86872551Y-164624446D01*
X86780588Y-164401200D01*
X86696150Y-164194392D01*
X86621769Y-164010362D01*
X86559974Y-163855451D01*
X86513297Y-163735996D01*
X86484268Y-163658339D01*
X86475322Y-163629356D01*
X86497756Y-163596110D01*
X86556439Y-163543123D01*
X86634689Y-163484704D01*
X86857534Y-163299952D01*
X87031718Y-163088182D01*
X87155154Y-162853856D01*
X87225754Y-162601434D01*
X87241431Y-162335377D01*
X87230036Y-162212575D01*
X87167950Y-161957793D01*
X87061023Y-161732801D01*
X86915889Y-161539817D01*
X86739178Y-161381061D01*
X86537522Y-161258750D01*
X86317554Y-161175105D01*
X86085906Y-161132344D01*
X85849209Y-161132687D01*
X85614095Y-161178352D01*
X85387196Y-161271559D01*
X85175144Y-161414527D01*
X85086636Y-161495383D01*
X84916889Y-161703007D01*
X84798699Y-161929895D01*
X84731278Y-162169433D01*
X84713840Y-162415007D01*
X84745598Y-162660003D01*
X84825765Y-162897808D01*
X84953555Y-163121807D01*
X85128180Y-163325387D01*
X85323312Y-163484704D01*
X85404591Y-163545602D01*
X85462009Y-163598015D01*
X85482678Y-163629406D01*
X85471856Y-163663639D01*
X85441077Y-163745419D01*
X85392874Y-163868407D01*
X85329778Y-164026263D01*
X85254322Y-164212649D01*
X85169038Y-164421226D01*
X85085219Y-164624496D01*
X84992745Y-164847933D01*
X84907089Y-165054984D01*
X84830882Y-165239286D01*
X84766753Y-165394475D01*
X84717332Y-165514188D01*
X84685248Y-165592061D01*
X84673359Y-165621138D01*
X84645274Y-165650677D01*
X84590949Y-165650591D01*
X84503395Y-165619326D01*
X84375619Y-165555329D01*
X84374608Y-165554785D01*
X84278402Y-165505121D01*
X84200631Y-165468945D01*
X84156777Y-165453408D01*
X84154842Y-165453264D01*
X84121829Y-165469024D01*
X84048946Y-165512850D01*
X83944322Y-165579557D01*
X83816090Y-165663964D01*
X83673948Y-165759816D01*
X83529233Y-165856867D01*
X83398804Y-165941270D01*
X83291110Y-166007801D01*
X83214598Y-166051238D01*
X83178062Y-166066368D01*
X83144418Y-166046482D01*
X83076776Y-165990903D01*
X82981893Y-165905754D01*
X82866530Y-165797153D01*
X82737445Y-165671221D01*
X82695229Y-165629149D01*
X82258739Y-165191931D01*
X82590977Y-164704340D01*
X82691946Y-164554605D01*
X82780562Y-164420220D01*
X82851854Y-164308969D01*
X82900850Y-164228639D01*
X82922578Y-164187014D01*
X82923215Y-164184053D01*
X82911760Y-164144818D01*
X82880949Y-164065895D01*
X82836116Y-163960509D01*
X82804647Y-163889954D01*
X82745808Y-163754876D01*
X82690396Y-163618409D01*
X82647436Y-163503103D01*
X82635766Y-163467977D01*
X82602611Y-163374174D01*
X82570201Y-163301694D01*
X82552399Y-163274301D01*
X82513114Y-163257536D01*
X82427374Y-163233770D01*
X82306303Y-163205697D01*
X82161027Y-163176009D01*
X82096012Y-163163806D01*
X81930913Y-163133468D01*
X81772552Y-163104093D01*
X81636404Y-163078569D01*
X81537943Y-163059785D01*
X81519402Y-163056160D01*
X81366127Y-163025906D01*
X81366127Y-162387645D01*
X81366471Y-162177770D01*
X81367884Y-162018980D01*
X81370936Y-161903973D01*
X81376197Y-161825446D01*
X81384237Y-161776096D01*
X81395627Y-161748619D01*
X81410937Y-161735713D01*
X81417218Y-161733320D01*
X81455104Y-161724833D01*
X81538805Y-161707900D01*
X81657567Y-161684566D01*
X81800639Y-161656875D01*
X81957268Y-161626873D01*
X82116703Y-161596604D01*
X82268191Y-161568115D01*
X82400981Y-161543449D01*
X82504319Y-161524651D01*
X82567455Y-161513767D01*
X82581503Y-161511885D01*
X82594230Y-161486704D01*
X82622400Y-161419622D01*
X82660748Y-161323333D01*
X82675391Y-161285621D01*
X82734452Y-161139921D01*
X82804000Y-160978951D01*
X82866288Y-160843291D01*
X82912121Y-160739561D01*
X82942613Y-160654326D01*
X82952792Y-160602126D01*
X82951169Y-160595130D01*
X82929657Y-160562102D01*
X82880535Y-160488643D01*
X82809077Y-160382577D01*
X82720555Y-160251726D01*
X82620241Y-160103912D01*
X82600406Y-160074734D01*
X82484012Y-159901863D01*
X82398452Y-159770226D01*
X82340316Y-159673761D01*
X82306192Y-159606408D01*
X82292669Y-159562106D01*
X82296336Y-159534794D01*
X82296430Y-159534620D01*
X82325293Y-159498746D01*
X82389133Y-159429391D01*
X82481031Y-159333745D01*
X82594067Y-159218999D01*
X82721321Y-159092341D01*
X82735672Y-159078205D01*
X82896043Y-158922903D01*
X83019805Y-158808870D01*
X83109445Y-158734002D01*
X83167448Y-158696196D01*
X83192996Y-158691317D01*
X83230282Y-158712603D01*
X83307657Y-158761773D01*
X83417133Y-158833575D01*
X83550720Y-158922755D01*
X83700430Y-159024063D01*
X83735382Y-159047897D01*
X84231610Y-159386765D01*
X84455707Y-159285056D01*
X84591989Y-159225783D01*
X84738276Y-159166170D01*
X84864035Y-159118640D01*
X84869575Y-159116685D01*
X84967943Y-159080677D01*
X85043771Y-159050229D01*
X85080718Y-159031905D01*
X85080780Y-159031852D01*
X85092504Y-158998729D01*
X85112432Y-158917267D01*
X85138587Y-158796625D01*
X85168990Y-158645959D01*
X85201663Y-158474428D01*
X85204336Y-158459967D01*
X85237110Y-158283235D01*
X85267198Y-158122810D01*
X85292661Y-157988888D01*
X85311559Y-157891663D01*
X85321953Y-157841332D01*
X85322135Y-157840563D01*
X85328461Y-157819153D01*
X85340761Y-157802988D01*
X85366406Y-157791331D01*
X85412765Y-157783445D01*
X85487208Y-157778593D01*
X85597105Y-157776039D01*
X85749825Y-157775045D01*
X85952738Y-157774874D01*
X85979000Y-157774874D01*
X86188014Y-157774998D01*
G37*
X86188014Y-157774998D02*
X86346006Y-157775863D01*
X86460347Y-157778205D01*
X86538407Y-157782762D01*
X86587554Y-157790270D01*
X86615159Y-157801466D01*
X86628592Y-157817088D01*
X86635221Y-157837873D01*
X86635865Y-157840563D01*
X86645935Y-157889113D01*
X86664575Y-157984905D01*
X86689845Y-158117743D01*
X86719807Y-158277431D01*
X86752522Y-158453774D01*
X86753664Y-158459967D01*
X86786433Y-158632782D01*
X86817093Y-158785469D01*
X86843664Y-158908871D01*
X86864167Y-158993831D01*
X86876626Y-159031190D01*
X86877220Y-159031852D01*
X86913919Y-159050095D01*
X86989586Y-159080497D01*
X87087878Y-159116493D01*
X87088425Y-159116685D01*
X87212233Y-159163222D01*
X87358196Y-159222504D01*
X87495781Y-159282109D01*
X87502293Y-159285056D01*
X87726390Y-159386765D01*
X88222619Y-159047897D01*
X88374846Y-158944592D01*
X88512741Y-158852237D01*
X88628315Y-158776084D01*
X88713579Y-158721385D01*
X88760544Y-158693393D01*
X88765004Y-158691317D01*
X88799134Y-158700560D01*
X88862881Y-158745156D01*
X88958731Y-158827209D01*
X89089169Y-158948821D01*
X89222328Y-159078205D01*
X89350694Y-159205702D01*
X89465581Y-159322046D01*
X89560073Y-159420052D01*
X89627253Y-159492536D01*
X89660206Y-159532313D01*
X89661432Y-159534361D01*
X89665074Y-159561656D01*
X89651350Y-159606234D01*
X89616869Y-159674112D01*
X89558239Y-159771311D01*
X89472070Y-159903851D01*
X89357200Y-160074476D01*
X89255254Y-160224655D01*
X89164123Y-160359350D01*
X89089073Y-160470740D01*
X89035369Y-160551005D01*
X89008280Y-160592325D01*
X89006574Y-160595130D01*
X89009882Y-160634721D01*
X89034953Y-160711669D01*
X89076798Y-160811432D01*
X89091712Y-160843291D01*
X89156786Y-160985226D01*
X89226212Y-161146273D01*
X89282609Y-161285621D01*
X89323247Y-161389044D01*
X89355526Y-161467642D01*
X89374178Y-161508720D01*
X89376497Y-161511885D01*
X89410803Y-161517128D01*
X89491669Y-161531494D01*
X89608343Y-161552937D01*
X89750075Y-161579413D01*
X89906110Y-161608877D01*
X90065698Y-161639283D01*
X90218085Y-161668588D01*
X90352521Y-161694745D01*
X90458252Y-161715710D01*
X90524526Y-161729439D01*
X90540782Y-161733320D01*
X90557573Y-161742900D01*
X90570249Y-161764536D01*
X90579378Y-161805531D01*
X90585531Y-161873189D01*
X90589280Y-161974812D01*
X90591192Y-162117703D01*
X90591840Y-162309165D01*
X90591874Y-162387645D01*
X90591874Y-163025906D01*
X90438598Y-163056160D01*
X90353322Y-163072564D01*
X90226070Y-163096509D01*
X90072315Y-163125107D01*
X89907534Y-163155467D01*
X89861989Y-163163806D01*
X89709932Y-163193370D01*
X89577468Y-163222442D01*
X89475714Y-163248329D01*
X89415788Y-163268337D01*
X89405805Y-163274301D01*
X89381293Y-163316534D01*
X89346148Y-163398370D01*
X89307173Y-163503683D01*
X89299442Y-163526368D01*
X89248360Y-163667018D01*
X89184954Y-163825714D01*
X89122904Y-163968225D01*
X89122598Y-163968886D01*
X89019267Y-164192440D01*
X89698961Y-165192232D01*
X89262621Y-165629300D01*
X89130649Y-165759381D01*
X89010279Y-165874048D01*
X88908273Y-165967181D01*
X88831391Y-166032658D01*
X88786393Y-166064357D01*
X88779938Y-166066368D01*
X88742040Y-166050529D01*
X88664708Y-166006496D01*
X88556389Y-165939490D01*
X88425532Y-165854734D01*
X88284052Y-165759816D01*
X88140461Y-165662998D01*
X88012435Y-165578751D01*
X87908105Y-165512258D01*
X87835600Y-165468702D01*
X87803158Y-165453264D01*
X87763576Y-165466328D01*
X87688519Y-165500750D01*
X87593468Y-165549380D01*
X87583392Y-165554785D01*
X87455391Y-165618980D01*
X87367618Y-165650463D01*
X87313028Y-165650798D01*
X87284575Y-165621548D01*
X87284410Y-165621138D01*
X87270188Y-165586498D01*
X87236269Y-165504269D01*
X87185284Y-165380814D01*
X87119862Y-165222498D01*
X87042634Y-165035686D01*
X86956229Y-164826742D01*
X86872551Y-164624446D01*
X86780588Y-164401200D01*
X86696150Y-164194392D01*
X86621769Y-164010362D01*
X86559974Y-163855451D01*
X86513297Y-163735996D01*
X86484268Y-163658339D01*
X86475322Y-163629356D01*
X86497756Y-163596110D01*
X86556439Y-163543123D01*
X86634689Y-163484704D01*
X86857534Y-163299952D01*
X87031718Y-163088182D01*
X87155154Y-162853856D01*
X87225754Y-162601434D01*
X87241431Y-162335377D01*
X87230036Y-162212575D01*
X87167950Y-161957793D01*
X87061023Y-161732801D01*
X86915889Y-161539817D01*
X86739178Y-161381061D01*
X86537522Y-161258750D01*
X86317554Y-161175105D01*
X86085906Y-161132344D01*
X85849209Y-161132687D01*
X85614095Y-161178352D01*
X85387196Y-161271559D01*
X85175144Y-161414527D01*
X85086636Y-161495383D01*
X84916889Y-161703007D01*
X84798699Y-161929895D01*
X84731278Y-162169433D01*
X84713840Y-162415007D01*
X84745598Y-162660003D01*
X84825765Y-162897808D01*
X84953555Y-163121807D01*
X85128180Y-163325387D01*
X85323312Y-163484704D01*
X85404591Y-163545602D01*
X85462009Y-163598015D01*
X85482678Y-163629406D01*
X85471856Y-163663639D01*
X85441077Y-163745419D01*
X85392874Y-163868407D01*
X85329778Y-164026263D01*
X85254322Y-164212649D01*
X85169038Y-164421226D01*
X85085219Y-164624496D01*
X84992745Y-164847933D01*
X84907089Y-165054984D01*
X84830882Y-165239286D01*
X84766753Y-165394475D01*
X84717332Y-165514188D01*
X84685248Y-165592061D01*
X84673359Y-165621138D01*
X84645274Y-165650677D01*
X84590949Y-165650591D01*
X84503395Y-165619326D01*
X84375619Y-165555329D01*
X84374608Y-165554785D01*
X84278402Y-165505121D01*
X84200631Y-165468945D01*
X84156777Y-165453408D01*
X84154842Y-165453264D01*
X84121829Y-165469024D01*
X84048946Y-165512850D01*
X83944322Y-165579557D01*
X83816090Y-165663964D01*
X83673948Y-165759816D01*
X83529233Y-165856867D01*
X83398804Y-165941270D01*
X83291110Y-166007801D01*
X83214598Y-166051238D01*
X83178062Y-166066368D01*
X83144418Y-166046482D01*
X83076776Y-165990903D01*
X82981893Y-165905754D01*
X82866530Y-165797153D01*
X82737445Y-165671221D01*
X82695229Y-165629149D01*
X82258739Y-165191931D01*
X82590977Y-164704340D01*
X82691946Y-164554605D01*
X82780562Y-164420220D01*
X82851854Y-164308969D01*
X82900850Y-164228639D01*
X82922578Y-164187014D01*
X82923215Y-164184053D01*
X82911760Y-164144818D01*
X82880949Y-164065895D01*
X82836116Y-163960509D01*
X82804647Y-163889954D01*
X82745808Y-163754876D01*
X82690396Y-163618409D01*
X82647436Y-163503103D01*
X82635766Y-163467977D01*
X82602611Y-163374174D01*
X82570201Y-163301694D01*
X82552399Y-163274301D01*
X82513114Y-163257536D01*
X82427374Y-163233770D01*
X82306303Y-163205697D01*
X82161027Y-163176009D01*
X82096012Y-163163806D01*
X81930913Y-163133468D01*
X81772552Y-163104093D01*
X81636404Y-163078569D01*
X81537943Y-163059785D01*
X81519402Y-163056160D01*
X81366127Y-163025906D01*
X81366127Y-162387645D01*
X81366471Y-162177770D01*
X81367884Y-162018980D01*
X81370936Y-161903973D01*
X81376197Y-161825446D01*
X81384237Y-161776096D01*
X81395627Y-161748619D01*
X81410937Y-161735713D01*
X81417218Y-161733320D01*
X81455104Y-161724833D01*
X81538805Y-161707900D01*
X81657567Y-161684566D01*
X81800639Y-161656875D01*
X81957268Y-161626873D01*
X82116703Y-161596604D01*
X82268191Y-161568115D01*
X82400981Y-161543449D01*
X82504319Y-161524651D01*
X82567455Y-161513767D01*
X82581503Y-161511885D01*
X82594230Y-161486704D01*
X82622400Y-161419622D01*
X82660748Y-161323333D01*
X82675391Y-161285621D01*
X82734452Y-161139921D01*
X82804000Y-160978951D01*
X82866288Y-160843291D01*
X82912121Y-160739561D01*
X82942613Y-160654326D01*
X82952792Y-160602126D01*
X82951169Y-160595130D01*
X82929657Y-160562102D01*
X82880535Y-160488643D01*
X82809077Y-160382577D01*
X82720555Y-160251726D01*
X82620241Y-160103912D01*
X82600406Y-160074734D01*
X82484012Y-159901863D01*
X82398452Y-159770226D01*
X82340316Y-159673761D01*
X82306192Y-159606408D01*
X82292669Y-159562106D01*
X82296336Y-159534794D01*
X82296430Y-159534620D01*
X82325293Y-159498746D01*
X82389133Y-159429391D01*
X82481031Y-159333745D01*
X82594067Y-159218999D01*
X82721321Y-159092341D01*
X82735672Y-159078205D01*
X82896043Y-158922903D01*
X83019805Y-158808870D01*
X83109445Y-158734002D01*
X83167448Y-158696196D01*
X83192996Y-158691317D01*
X83230282Y-158712603D01*
X83307657Y-158761773D01*
X83417133Y-158833575D01*
X83550720Y-158922755D01*
X83700430Y-159024063D01*
X83735382Y-159047897D01*
X84231610Y-159386765D01*
X84455707Y-159285056D01*
X84591989Y-159225783D01*
X84738276Y-159166170D01*
X84864035Y-159118640D01*
X84869575Y-159116685D01*
X84967943Y-159080677D01*
X85043771Y-159050229D01*
X85080718Y-159031905D01*
X85080780Y-159031852D01*
X85092504Y-158998729D01*
X85112432Y-158917267D01*
X85138587Y-158796625D01*
X85168990Y-158645959D01*
X85201663Y-158474428D01*
X85204336Y-158459967D01*
X85237110Y-158283235D01*
X85267198Y-158122810D01*
X85292661Y-157988888D01*
X85311559Y-157891663D01*
X85321953Y-157841332D01*
X85322135Y-157840563D01*
X85328461Y-157819153D01*
X85340761Y-157802988D01*
X85366406Y-157791331D01*
X85412765Y-157783445D01*
X85487208Y-157778593D01*
X85597105Y-157776039D01*
X85749825Y-157775045D01*
X85952738Y-157774874D01*
X85979000Y-157774874D01*
X86188014Y-157774998D01*
D13*
X71690000Y-3872000D02*
X73090000Y-3872000D01*
X73090000Y-3872000D02*
X73090000Y-5272000D01*
X73090000Y-5272000D02*
X71690000Y-5272000D01*
X71690000Y-5272000D02*
X71690000Y-3872000D01*
X115552000Y-5461000D02*
G75*
G03*
X115552000Y-5461000I-1680000J0D01*
G01*
X121432000Y-1361000D02*
X111312000Y-1361000D01*
X121432000Y-2861000D02*
X111312000Y-2861000D01*
X121432000Y-7762000D02*
X111312000Y-7762000D01*
X121432000Y-10722000D02*
X111312000Y-10722000D01*
X121432000Y-801000D02*
X111312000Y-801000D01*
X121432000Y-10722000D02*
X121432000Y-801000D01*
X111312000Y-10722000D02*
X111312000Y-801000D01*
X112597000Y-6530000D02*
X112644000Y-6484000D01*
X114906000Y-4222000D02*
X114941000Y-4187000D01*
X112802000Y-6736000D02*
X112837000Y-6700000D01*
X115099000Y-4438000D02*
X115146000Y-4392000D01*
X121672000Y-1301000D02*
X121672000Y-561000D01*
X121672000Y-561000D02*
X121172000Y-561000D01*
X118843195Y-3780747D02*
G75*
G02*
X119556000Y-3926000I28805J-1680253D01*
G01*
X120407426Y-4777958D02*
G75*
G02*
X120407000Y-6145000I-1535426J-683042D01*
G01*
X119555042Y-6996426D02*
G75*
G02*
X118188000Y-6996000I-683042J1535426D01*
G01*
X117336574Y-6144042D02*
G75*
G02*
X117337000Y-4777000I1535426J683042D01*
G01*
X118188682Y-3926244D02*
G75*
G02*
X118872000Y-3781000I683318J-1534756D01*
G01*
X114808000Y-15300000D02*
X114808000Y-12640000D01*
X114808000Y-15300000D02*
X117408000Y-15300000D01*
X117408000Y-15300000D02*
X117408000Y-12640000D01*
X114808000Y-12640000D02*
X117408000Y-12640000D01*
X112208000Y-12640000D02*
X113538000Y-12640000D01*
X112208000Y-13970000D02*
X112208000Y-12640000D01*
X66996000Y-6544000D02*
X66996000Y-11744000D01*
X72136000Y-6544000D02*
X66996000Y-6544000D01*
X74736000Y-11744000D02*
X66996000Y-11744000D01*
X72136000Y-6544000D02*
X72136000Y-9144000D01*
X72136000Y-9144000D02*
X74736000Y-9144000D01*
X74736000Y-9144000D02*
X74736000Y-11744000D01*
X73406000Y-6544000D02*
X74736000Y-6544000D01*
X74736000Y-6544000D02*
X74736000Y-7874000D01*
X45478000Y-8708000D02*
X39358000Y-8708000D01*
X39358000Y-8708000D02*
X39358000Y-5008000D01*
X39358000Y-5008000D02*
X45478000Y-5008000D01*
X45478000Y-5008000D02*
X45478000Y-8708000D01*
X163439600Y-32382000D02*
X165439600Y-32382000D01*
X163439600Y-35182000D02*
X163439600Y-32382000D01*
X165439600Y-35182000D02*
X163439600Y-35182000D01*
X165439600Y-32382000D02*
X165439600Y-35182000D01*
X100818800Y-8658000D02*
X98818800Y-8658000D01*
X98818800Y-5058000D02*
X100818800Y-5058000D01*
X98418800Y-6108000D02*
X98018800Y-6108000D01*
X100818800Y-4858000D02*
X98818800Y-4858000D01*
X98818800Y-8658000D02*
X98418800Y-8658000D01*
X98818800Y-5058000D02*
X98418800Y-5058000D01*
X98818800Y-4858000D02*
X98418800Y-4858000D01*
X100818800Y-5058000D02*
X100818800Y-5208000D01*
X98418800Y-5058000D02*
X98418800Y-5208000D01*
X98418800Y-6108000D02*
X98418800Y-6058000D01*
X98418800Y-8658000D02*
X98418800Y-8508000D01*
X100818800Y-8658000D02*
X100818800Y-8508000D01*
X54173540Y-18849424D02*
X52759327Y-20263638D01*
X50213742Y-17718053D02*
X51627956Y-16303840D01*
X50673362Y-18743358D02*
X50390519Y-19026201D01*
X51486535Y-16162418D02*
X50072321Y-17576632D01*
X52759327Y-20263638D02*
X52476484Y-20546480D01*
X50213742Y-17718053D02*
X49930900Y-18000896D01*
X50072321Y-17576632D02*
X49789478Y-17859475D01*
X51627956Y-16303840D02*
X51734022Y-16409906D01*
X49930900Y-18000896D02*
X50036966Y-18106962D01*
X50673362Y-18743358D02*
X50638006Y-18708003D01*
X52476484Y-20546480D02*
X52370418Y-20440414D01*
X54173540Y-18849424D02*
X54067474Y-18743358D01*
X13242533Y-38481000D02*
X13242533Y-39751000D01*
X11889200Y-39681000D02*
X13242533Y-39681000D01*
X11889200Y-39561000D02*
X13242533Y-39561000D01*
X11889200Y-39441000D02*
X13242533Y-39441000D01*
X11889200Y-39321000D02*
X13242533Y-39321000D01*
X11889200Y-39201000D02*
X13242533Y-39201000D01*
X11889200Y-39081000D02*
X13242533Y-39081000D01*
X11889200Y-38961000D02*
X13242533Y-38961000D01*
X11889200Y-38841000D02*
X13242533Y-38841000D01*
X11889200Y-38721000D02*
X13242533Y-38721000D01*
X11889200Y-38601000D02*
X13242533Y-38601000D01*
X15949200Y-38481000D02*
X11889200Y-38481000D01*
X15949200Y-39751000D02*
X15949200Y-38481000D01*
X11889200Y-39751000D02*
X15949200Y-39751000D01*
X11889200Y-38481000D02*
X11889200Y-39751000D01*
X13242533Y-35941000D02*
X13242533Y-37211000D01*
X11889200Y-37141000D02*
X13242533Y-37141000D01*
X11889200Y-37021000D02*
X13242533Y-37021000D01*
X11889200Y-36901000D02*
X13242533Y-36901000D01*
X11889200Y-36781000D02*
X13242533Y-36781000D01*
X11889200Y-36661000D02*
X13242533Y-36661000D01*
X11889200Y-36541000D02*
X13242533Y-36541000D01*
X11889200Y-36421000D02*
X13242533Y-36421000D01*
X11889200Y-36301000D02*
X13242533Y-36301000D01*
X11889200Y-36181000D02*
X13242533Y-36181000D01*
X11889200Y-36061000D02*
X13242533Y-36061000D01*
X15949200Y-35941000D02*
X11889200Y-35941000D01*
X15949200Y-37211000D02*
X15949200Y-35941000D01*
X11889200Y-37211000D02*
X15949200Y-37211000D01*
X11889200Y-35941000D02*
X11889200Y-37211000D01*
X13242533Y-33401000D02*
X13242533Y-34671000D01*
X11889200Y-34601000D02*
X13242533Y-34601000D01*
X11889200Y-34481000D02*
X13242533Y-34481000D01*
X11889200Y-34361000D02*
X13242533Y-34361000D01*
X11889200Y-34241000D02*
X13242533Y-34241000D01*
X11889200Y-34121000D02*
X13242533Y-34121000D01*
X11889200Y-34001000D02*
X13242533Y-34001000D01*
X11889200Y-33881000D02*
X13242533Y-33881000D01*
X11889200Y-33761000D02*
X13242533Y-33761000D01*
X11889200Y-33641000D02*
X13242533Y-33641000D01*
X11889200Y-33521000D02*
X13242533Y-33521000D01*
X15949200Y-33401000D02*
X11889200Y-33401000D01*
X15949200Y-34671000D02*
X15949200Y-33401000D01*
X11889200Y-34671000D02*
X15949200Y-34671000D01*
X11889200Y-33401000D02*
X11889200Y-34671000D01*
X13242533Y-30861000D02*
X13242533Y-32131000D01*
X11889200Y-32061000D02*
X13242533Y-32061000D01*
X11889200Y-31941000D02*
X13242533Y-31941000D01*
X11889200Y-31821000D02*
X13242533Y-31821000D01*
X11889200Y-31701000D02*
X13242533Y-31701000D01*
X11889200Y-31581000D02*
X13242533Y-31581000D01*
X11889200Y-31461000D02*
X13242533Y-31461000D01*
X11889200Y-31341000D02*
X13242533Y-31341000D01*
X11889200Y-31221000D02*
X13242533Y-31221000D01*
X11889200Y-31101000D02*
X13242533Y-31101000D01*
X11889200Y-30981000D02*
X13242533Y-30981000D01*
X15949200Y-30861000D02*
X11889200Y-30861000D01*
X15949200Y-32131000D02*
X15949200Y-30861000D01*
X11889200Y-32131000D02*
X15949200Y-32131000D01*
X11889200Y-30861000D02*
X11889200Y-32131000D01*
X8729200Y-28836000D02*
X8729200Y-30219000D01*
X8729200Y-28836000D02*
X10113200Y-28836000D01*
X18869200Y-32296000D02*
X18869200Y-33236000D01*
X18869200Y-29076000D02*
X18869200Y-30696000D01*
X18869200Y-34836000D02*
X18869200Y-35776000D01*
X18869200Y-37376000D02*
X18869200Y-38316000D01*
X18869200Y-39916000D02*
X18869200Y-41536000D01*
X8969200Y-39916000D02*
X8969200Y-41536000D01*
X8969200Y-37376000D02*
X8969200Y-38316000D01*
X8969200Y-34836000D02*
X8969200Y-35776000D01*
X8969200Y-32296000D02*
X8969200Y-33236000D01*
X8969200Y-29076000D02*
X8969200Y-30696000D01*
X8969200Y-41536000D02*
X18869200Y-41536000D01*
X8969200Y-29076000D02*
X18869200Y-29076000D01*
X145650852Y-5028000D02*
X145128348Y-5028000D01*
X145650852Y-3608000D02*
X145128348Y-3608000D01*
D12*
X144683600Y-10830200D02*
G75*
G03*
X144683600Y-10830200I-50000J0D01*
G01*
D15*
X147193600Y-7035200D02*
X147193600Y-7525200D01*
X144093600Y-7035200D02*
X144093600Y-7525200D01*
X147193600Y-10135200D02*
X147193600Y-9645200D01*
X144093600Y-10135200D02*
X144093600Y-9645200D01*
X147193600Y-7035200D02*
X146703600Y-7035200D01*
X144093600Y-7035200D02*
X144583600Y-7035200D01*
X147193600Y-10135200D02*
X146703600Y-10135200D01*
X144093600Y-10135200D02*
X144583600Y-10135200D01*
D13*
X165399600Y-44661800D02*
X165399600Y-41976800D01*
X163479600Y-44661800D02*
X165399600Y-44661800D01*
X163479600Y-41976800D02*
X163479600Y-44661800D01*
X134612748Y-16155600D02*
X135135252Y-16155600D01*
X134612748Y-17575600D02*
X135135252Y-17575600D01*
X134602588Y-14222660D02*
X135125092Y-14222660D01*
X134602588Y-15642660D02*
X135125092Y-15642660D01*
X142287000Y-11212000D02*
X132287000Y-11212000D01*
X142287000Y-3012000D02*
X132287000Y-3012000D01*
X23158000Y-29558000D02*
X23158000Y-22258000D01*
X28658000Y-29558000D02*
X28658000Y-22258000D01*
X28658000Y-22258000D02*
X27508000Y-22258000D01*
X143046000Y-59530000D02*
X143046000Y-52230000D01*
X148546000Y-59530000D02*
X148546000Y-52230000D01*
X148546000Y-52230000D02*
X147396000Y-52230000D01*
X28658000Y-82202000D02*
X27508000Y-82202000D01*
X28658000Y-89502000D02*
X28658000Y-82202000D01*
X23158000Y-89502000D02*
X23158000Y-82202000D01*
X143046000Y-119410500D02*
X143046000Y-112110500D01*
X148546000Y-119410500D02*
X148546000Y-112110500D01*
X148546000Y-112110500D02*
X147396000Y-112110500D01*
X23158000Y-149446000D02*
X23158000Y-142146000D01*
X28658000Y-149446000D02*
X28658000Y-142146000D01*
X28658000Y-142146000D02*
X27508000Y-142146000D01*
X53130000Y-29558000D02*
X53130000Y-22258000D01*
X58630000Y-29558000D02*
X58630000Y-22258000D01*
X58630000Y-22258000D02*
X57480000Y-22258000D01*
X118574000Y-52230000D02*
X117424000Y-52230000D01*
X118574000Y-59530000D02*
X118574000Y-52230000D01*
X113074000Y-59530000D02*
X113074000Y-52230000D01*
X58630000Y-82202000D02*
X57480000Y-82202000D01*
X58630000Y-89502000D02*
X58630000Y-82202000D01*
X53130000Y-89502000D02*
X53130000Y-82202000D01*
X118574000Y-112110500D02*
X117424000Y-112110500D01*
X118574000Y-119410500D02*
X118574000Y-112110500D01*
X113074000Y-119410500D02*
X113074000Y-112110500D01*
X58630000Y-142146000D02*
X57480000Y-142146000D01*
X58630000Y-149446000D02*
X58630000Y-142146000D01*
X53130000Y-149446000D02*
X53130000Y-142146000D01*
X88602000Y-22258000D02*
X87452000Y-22258000D01*
X88602000Y-29558000D02*
X88602000Y-22258000D01*
X83102000Y-29558000D02*
X83102000Y-22258000D01*
X88602000Y-52230000D02*
X87452000Y-52230000D01*
X88602000Y-59530000D02*
X88602000Y-52230000D01*
X83102000Y-59530000D02*
X83102000Y-52230000D01*
X88602000Y-82202000D02*
X87452000Y-82202000D01*
X88602000Y-89502000D02*
X88602000Y-82202000D01*
X83102000Y-89502000D02*
X83102000Y-82202000D01*
X83102000Y-119474000D02*
X83102000Y-112174000D01*
X88602000Y-119474000D02*
X88602000Y-112174000D01*
X88602000Y-112174000D02*
X87452000Y-112174000D01*
X83102000Y-149446000D02*
X83102000Y-142146000D01*
X88602000Y-149446000D02*
X88602000Y-142146000D01*
X88602000Y-142146000D02*
X87452000Y-142146000D01*
X113074000Y-29558000D02*
X113074000Y-22258000D01*
X118574000Y-29558000D02*
X118574000Y-22258000D01*
X118574000Y-22258000D02*
X117424000Y-22258000D01*
X53130000Y-59530000D02*
X53130000Y-52230000D01*
X58630000Y-59530000D02*
X58630000Y-52230000D01*
X58630000Y-52230000D02*
X57480000Y-52230000D01*
X113074000Y-89502000D02*
X113074000Y-82202000D01*
X118574000Y-89502000D02*
X118574000Y-82202000D01*
X118574000Y-82202000D02*
X117424000Y-82202000D01*
X58630000Y-112110500D02*
X57480000Y-112110500D01*
X58630000Y-119410500D02*
X58630000Y-112110500D01*
X53130000Y-119410500D02*
X53130000Y-112110500D01*
X113074000Y-149446000D02*
X113074000Y-142146000D01*
X118574000Y-149446000D02*
X118574000Y-142146000D01*
X118574000Y-142146000D02*
X117424000Y-142146000D01*
X148636000Y-22334000D02*
X147486000Y-22334000D01*
X148636000Y-29634000D02*
X148636000Y-22334000D01*
X143136000Y-29634000D02*
X143136000Y-22334000D01*
X28658000Y-52166500D02*
X27508000Y-52166500D01*
X28658000Y-59466500D02*
X28658000Y-52166500D01*
X23158000Y-59466500D02*
X23158000Y-52166500D01*
X148546000Y-82202000D02*
X147396000Y-82202000D01*
X148546000Y-89502000D02*
X148546000Y-82202000D01*
X143046000Y-89502000D02*
X143046000Y-82202000D01*
X23158000Y-119410500D02*
X23158000Y-112110500D01*
X28658000Y-119410500D02*
X28658000Y-112110500D01*
X28658000Y-112110500D02*
X27508000Y-112110500D01*
X148546000Y-142146000D02*
X147396000Y-142146000D01*
X148546000Y-149446000D02*
X148546000Y-142146000D01*
X143046000Y-149446000D02*
X143046000Y-142146000D01*
X69627600Y-16586200D02*
G75*
G03*
X69627600Y-16586200I-1200000J0D01*
G01*
X66579600Y-16611600D02*
G75*
G03*
X66579600Y-16611600I-1200000J0D01*
G01*
D10*
X51420575Y-10827099D02*
X50412948Y-11834726D01*
X56388000Y-5541476D02*
X56158190Y-5771286D01*
X61514524Y-10668000D02*
X61284714Y-10897810D01*
X56388000Y-15794524D02*
X56617810Y-15564714D01*
X51261476Y-10668000D02*
X51491286Y-10438190D01*
X56388000Y-15794524D02*
X56158190Y-15564714D01*
X61514524Y-10668000D02*
X61284714Y-10438190D01*
X56388000Y-5541476D02*
X56617810Y-5771286D01*
X51261476Y-10668000D02*
X51420575Y-10827099D01*
X172413380Y-16811523D02*
X173127666Y-16811523D01*
X173270523Y-16859142D01*
X173365761Y-16954380D01*
X173413380Y-17097238D01*
X173413380Y-17192476D01*
X173413380Y-15811523D02*
X173413380Y-16382952D01*
X173413380Y-16097238D02*
X172413380Y-16097238D01*
X172556238Y-16192476D01*
X172651476Y-16287714D01*
X172699095Y-16382952D01*
X173413380Y-14859142D02*
X173413380Y-15430571D01*
X173413380Y-15144857D02*
X172413380Y-15144857D01*
X172556238Y-15240095D01*
X172651476Y-15335333D01*
X172699095Y-15430571D01*
X155599542Y-27312857D02*
X155647161Y-27360476D01*
X155694780Y-27503333D01*
X155694780Y-27598571D01*
X155647161Y-27741428D01*
X155551923Y-27836666D01*
X155456685Y-27884285D01*
X155266209Y-27931904D01*
X155123352Y-27931904D01*
X154932876Y-27884285D01*
X154837638Y-27836666D01*
X154742400Y-27741428D01*
X154694780Y-27598571D01*
X154694780Y-27503333D01*
X154742400Y-27360476D01*
X154790019Y-27312857D01*
X154694780Y-26979523D02*
X154694780Y-26360476D01*
X155075733Y-26693809D01*
X155075733Y-26550952D01*
X155123352Y-26455714D01*
X155170971Y-26408095D01*
X155266209Y-26360476D01*
X155504304Y-26360476D01*
X155599542Y-26408095D01*
X155647161Y-26455714D01*
X155694780Y-26550952D01*
X155694780Y-26836666D01*
X155647161Y-26931904D01*
X155599542Y-26979523D01*
X154694780Y-25455714D02*
X154694780Y-25931904D01*
X155170971Y-25979523D01*
X155123352Y-25931904D01*
X155075733Y-25836666D01*
X155075733Y-25598571D01*
X155123352Y-25503333D01*
X155170971Y-25455714D01*
X155266209Y-25408095D01*
X155504304Y-25408095D01*
X155599542Y-25455714D01*
X155647161Y-25503333D01*
X155694780Y-25598571D01*
X155694780Y-25836666D01*
X155647161Y-25931904D01*
X155599542Y-25979523D01*
X104394095Y-10682780D02*
X104394095Y-11492304D01*
X104441714Y-11587542D01*
X104489333Y-11635161D01*
X104584571Y-11682780D01*
X104775047Y-11682780D01*
X104870285Y-11635161D01*
X104917904Y-11587542D01*
X104965523Y-11492304D01*
X104965523Y-10682780D01*
X105965523Y-11682780D02*
X105394095Y-11682780D01*
X105679809Y-11682780D02*
X105679809Y-10682780D01*
X105584571Y-10825638D01*
X105489333Y-10920876D01*
X105394095Y-10968495D01*
X89458895Y-16840380D02*
X89458895Y-17649904D01*
X89506514Y-17745142D01*
X89554133Y-17792761D01*
X89649371Y-17840380D01*
X89839847Y-17840380D01*
X89935085Y-17792761D01*
X89982704Y-17745142D01*
X90030323Y-17649904D01*
X90030323Y-16840380D01*
X90458895Y-16935619D02*
X90506514Y-16888000D01*
X90601752Y-16840380D01*
X90839847Y-16840380D01*
X90935085Y-16888000D01*
X90982704Y-16935619D01*
X91030323Y-17030857D01*
X91030323Y-17126095D01*
X90982704Y-17268952D01*
X90411276Y-17840380D01*
X91030323Y-17840380D01*
X7366095Y-72386380D02*
X7366095Y-73195904D01*
X7413714Y-73291142D01*
X7461333Y-73338761D01*
X7556571Y-73386380D01*
X7747047Y-73386380D01*
X7842285Y-73338761D01*
X7889904Y-73291142D01*
X7937523Y-73195904D01*
X7937523Y-72386380D01*
X8889904Y-72386380D02*
X8413714Y-72386380D01*
X8366095Y-72862571D01*
X8413714Y-72814952D01*
X8508952Y-72767333D01*
X8747047Y-72767333D01*
X8842285Y-72814952D01*
X8889904Y-72862571D01*
X8937523Y-72957809D01*
X8937523Y-73195904D01*
X8889904Y-73291142D01*
X8842285Y-73338761D01*
X8747047Y-73386380D01*
X8508952Y-73386380D01*
X8413714Y-73338761D01*
X8366095Y-73291142D01*
X14097095Y-13803380D02*
X14097095Y-14612904D01*
X14144714Y-14708142D01*
X14192333Y-14755761D01*
X14287571Y-14803380D01*
X14478047Y-14803380D01*
X14573285Y-14755761D01*
X14620904Y-14708142D01*
X14668523Y-14612904D01*
X14668523Y-13803380D01*
X15573285Y-14136714D02*
X15573285Y-14803380D01*
X15335190Y-13755761D02*
X15097095Y-14470047D01*
X15716142Y-14470047D01*
X12152380Y-83105523D02*
X12866666Y-83105523D01*
X13009523Y-83153142D01*
X13104761Y-83248380D01*
X13152380Y-83391238D01*
X13152380Y-83486476D01*
X13152380Y-82105523D02*
X13152380Y-82676952D01*
X13152380Y-82391238D02*
X12152380Y-82391238D01*
X12295238Y-82486476D01*
X12390476Y-82581714D01*
X12438095Y-82676952D01*
X12152380Y-81772190D02*
X12152380Y-81153142D01*
X12533333Y-81486476D01*
X12533333Y-81343619D01*
X12580952Y-81248380D01*
X12628571Y-81200761D01*
X12723809Y-81153142D01*
X12961904Y-81153142D01*
X13057142Y-81200761D01*
X13104761Y-81248380D01*
X13152380Y-81343619D01*
X13152380Y-81629333D01*
X13104761Y-81724571D01*
X13057142Y-81772190D01*
X20034476Y-10480380D02*
X20034476Y-11194666D01*
X19986857Y-11337523D01*
X19891619Y-11432761D01*
X19748761Y-11480380D01*
X19653523Y-11480380D01*
X21034476Y-11480380D02*
X20463047Y-11480380D01*
X20748761Y-11480380D02*
X20748761Y-10480380D01*
X20653523Y-10623238D01*
X20558285Y-10718476D01*
X20463047Y-10766095D01*
X21653523Y-10480380D02*
X21748761Y-10480380D01*
X21844000Y-10528000D01*
X21891619Y-10575619D01*
X21939238Y-10670857D01*
X21986857Y-10861333D01*
X21986857Y-11099428D01*
X21939238Y-11289904D01*
X21891619Y-11385142D01*
X21844000Y-11432761D01*
X21748761Y-11480380D01*
X21653523Y-11480380D01*
X21558285Y-11432761D01*
X21510666Y-11385142D01*
X21463047Y-11289904D01*
X21415428Y-11099428D01*
X21415428Y-10861333D01*
X21463047Y-10670857D01*
X21510666Y-10575619D01*
X21558285Y-10528000D01*
X21653523Y-10480380D01*
X10988380Y-90360333D02*
X11702666Y-90360333D01*
X11845523Y-90407952D01*
X11940761Y-90503190D01*
X11988380Y-90646047D01*
X11988380Y-90741285D01*
X11083619Y-89931761D02*
X11036000Y-89884142D01*
X10988380Y-89788904D01*
X10988380Y-89550809D01*
X11036000Y-89455571D01*
X11083619Y-89407952D01*
X11178857Y-89360333D01*
X11274095Y-89360333D01*
X11416952Y-89407952D01*
X11988380Y-89979380D01*
X11988380Y-89360333D01*
X44354666Y-158678040D02*
X44354666Y-159392326D01*
X44307047Y-159535183D01*
X44211809Y-159630421D01*
X44068952Y-159678040D01*
X43973714Y-159678040D01*
X44735619Y-158678040D02*
X45354666Y-158678040D01*
X45021333Y-159058993D01*
X45164190Y-159058993D01*
X45259428Y-159106612D01*
X45307047Y-159154231D01*
X45354666Y-159249469D01*
X45354666Y-159487564D01*
X45307047Y-159582802D01*
X45259428Y-159630421D01*
X45164190Y-159678040D01*
X44878476Y-159678040D01*
X44783238Y-159630421D01*
X44735619Y-159582802D01*
X159620380Y-50641333D02*
X160334666Y-50641333D01*
X160477523Y-50688952D01*
X160572761Y-50784190D01*
X160620380Y-50927047D01*
X160620380Y-51022285D01*
X159953714Y-49736571D02*
X160620380Y-49736571D01*
X159572761Y-49974666D02*
X160287047Y-50212761D01*
X160287047Y-49593714D01*
X29908666Y-10480380D02*
X29908666Y-11194666D01*
X29861047Y-11337523D01*
X29765809Y-11432761D01*
X29622952Y-11480380D01*
X29527714Y-11480380D01*
X30861047Y-10480380D02*
X30384857Y-10480380D01*
X30337238Y-10956571D01*
X30384857Y-10908952D01*
X30480095Y-10861333D01*
X30718190Y-10861333D01*
X30813428Y-10908952D01*
X30861047Y-10956571D01*
X30908666Y-11051809D01*
X30908666Y-11289904D01*
X30861047Y-11385142D01*
X30813428Y-11432761D01*
X30718190Y-11480380D01*
X30480095Y-11480380D01*
X30384857Y-11432761D01*
X30337238Y-11385142D01*
X109135942Y-6199142D02*
X109088323Y-6246761D01*
X108945466Y-6294380D01*
X108850228Y-6294380D01*
X108707371Y-6246761D01*
X108612133Y-6151523D01*
X108564514Y-6056285D01*
X108516895Y-5865809D01*
X108516895Y-5722952D01*
X108564514Y-5532476D01*
X108612133Y-5437238D01*
X108707371Y-5342000D01*
X108850228Y-5294380D01*
X108945466Y-5294380D01*
X109088323Y-5342000D01*
X109135942Y-5389619D01*
X109516895Y-5389619D02*
X109564514Y-5342000D01*
X109659752Y-5294380D01*
X109897847Y-5294380D01*
X109993085Y-5342000D01*
X110040704Y-5389619D01*
X110088323Y-5484857D01*
X110088323Y-5580095D01*
X110040704Y-5722952D01*
X109469276Y-6294380D01*
X110088323Y-6294380D01*
X110564514Y-6294380D02*
X110754990Y-6294380D01*
X110850228Y-6246761D01*
X110897847Y-6199142D01*
X110993085Y-6056285D01*
X111040704Y-5865809D01*
X111040704Y-5484857D01*
X110993085Y-5389619D01*
X110945466Y-5342000D01*
X110850228Y-5294380D01*
X110659752Y-5294380D01*
X110564514Y-5342000D01*
X110516895Y-5389619D01*
X110469276Y-5484857D01*
X110469276Y-5722952D01*
X110516895Y-5818190D01*
X110564514Y-5865809D01*
X110659752Y-5913428D01*
X110850228Y-5913428D01*
X110945466Y-5865809D01*
X110993085Y-5818190D01*
X111040704Y-5722952D01*
X49249308Y-20971543D02*
X49249308Y-21038887D01*
X49181964Y-21173574D01*
X49114621Y-21240917D01*
X48979934Y-21308261D01*
X48845247Y-21308261D01*
X48744232Y-21274589D01*
X48575873Y-21173574D01*
X48474858Y-21072559D01*
X48373842Y-20904200D01*
X48340171Y-20803185D01*
X48340171Y-20668498D01*
X48407514Y-20533811D01*
X48474858Y-20466467D01*
X48609545Y-20399124D01*
X48676888Y-20399124D01*
X48845247Y-20096078D02*
X49282980Y-19658345D01*
X49316651Y-20163421D01*
X49417667Y-20062406D01*
X49518682Y-20028734D01*
X49586026Y-20028734D01*
X49687041Y-20062406D01*
X49855400Y-20230765D01*
X49889071Y-20331780D01*
X49889071Y-20399124D01*
X49855400Y-20500139D01*
X49653369Y-20702169D01*
X49552354Y-20735841D01*
X49485010Y-20735841D01*
X50124774Y-19287956D02*
X50596178Y-19759360D01*
X49687041Y-19186940D02*
X50023758Y-19860375D01*
X50461491Y-19422643D01*
X144471093Y-11482342D02*
X144423474Y-11529961D01*
X144280617Y-11577580D01*
X144185379Y-11577580D01*
X144042521Y-11529961D01*
X143947283Y-11434723D01*
X143899664Y-11339485D01*
X143852045Y-11149009D01*
X143852045Y-11006152D01*
X143899664Y-10815676D01*
X143947283Y-10720438D01*
X144042521Y-10625200D01*
X144185379Y-10577580D01*
X144280617Y-10577580D01*
X144423474Y-10625200D01*
X144471093Y-10672819D01*
X145375855Y-10577580D02*
X144899664Y-10577580D01*
X144852045Y-11053771D01*
X144899664Y-11006152D01*
X144994902Y-10958533D01*
X145232998Y-10958533D01*
X145328236Y-11006152D01*
X145375855Y-11053771D01*
X145423474Y-11149009D01*
X145423474Y-11387104D01*
X145375855Y-11482342D01*
X145328236Y-11529961D01*
X145232998Y-11577580D01*
X144994902Y-11577580D01*
X144899664Y-11529961D01*
X144852045Y-11482342D01*
X122323622Y-13589260D02*
X121990289Y-13113070D01*
X121752194Y-13589260D02*
X121752194Y-12589260D01*
X122133146Y-12589260D01*
X122228384Y-12636880D01*
X122276003Y-12684499D01*
X122323622Y-12779737D01*
X122323622Y-12922594D01*
X122276003Y-13017832D01*
X122228384Y-13065451D01*
X122133146Y-13113070D01*
X121752194Y-13113070D01*
X123276003Y-13589260D02*
X122704575Y-13589260D01*
X122990289Y-13589260D02*
X122990289Y-12589260D01*
X122895051Y-12732118D01*
X122799813Y-12827356D01*
X122704575Y-12874975D01*
X123609337Y-12589260D02*
X124228384Y-12589260D01*
X123895051Y-12970213D01*
X124037908Y-12970213D01*
X124133146Y-13017832D01*
X124180765Y-13065451D01*
X124228384Y-13160689D01*
X124228384Y-13398784D01*
X124180765Y-13494022D01*
X124133146Y-13541641D01*
X124037908Y-13589260D01*
X123752194Y-13589260D01*
X123656956Y-13541641D01*
X123609337Y-13494022D01*
X10025142Y-70430380D02*
X9691809Y-69954190D01*
X9453714Y-70430380D02*
X9453714Y-69430380D01*
X9834666Y-69430380D01*
X9929904Y-69478000D01*
X9977523Y-69525619D01*
X10025142Y-69620857D01*
X10025142Y-69763714D01*
X9977523Y-69858952D01*
X9929904Y-69906571D01*
X9834666Y-69954190D01*
X9453714Y-69954190D01*
X10977523Y-70430380D02*
X10406095Y-70430380D01*
X10691809Y-70430380D02*
X10691809Y-69430380D01*
X10596571Y-69573238D01*
X10501333Y-69668476D01*
X10406095Y-69716095D01*
X11358476Y-69525619D02*
X11406095Y-69478000D01*
X11501333Y-69430380D01*
X11739428Y-69430380D01*
X11834666Y-69478000D01*
X11882285Y-69525619D01*
X11929904Y-69620857D01*
X11929904Y-69716095D01*
X11882285Y-69858952D01*
X11310857Y-70430380D01*
X11929904Y-70430380D01*
X4945142Y-70430380D02*
X4611809Y-69954190D01*
X4373714Y-70430380D02*
X4373714Y-69430380D01*
X4754666Y-69430380D01*
X4849904Y-69478000D01*
X4897523Y-69525619D01*
X4945142Y-69620857D01*
X4945142Y-69763714D01*
X4897523Y-69858952D01*
X4849904Y-69906571D01*
X4754666Y-69954190D01*
X4373714Y-69954190D01*
X5897523Y-70430380D02*
X5326095Y-70430380D01*
X5611809Y-70430380D02*
X5611809Y-69430380D01*
X5516571Y-69573238D01*
X5421333Y-69668476D01*
X5326095Y-69716095D01*
X6849904Y-70430380D02*
X6278476Y-70430380D01*
X6564190Y-70430380D02*
X6564190Y-69430380D01*
X6468952Y-69573238D01*
X6373714Y-69668476D01*
X6278476Y-69716095D01*
X68210133Y-3602980D02*
X67876800Y-3126790D01*
X67638704Y-3602980D02*
X67638704Y-2602980D01*
X68019657Y-2602980D01*
X68114895Y-2650600D01*
X68162514Y-2698219D01*
X68210133Y-2793457D01*
X68210133Y-2936314D01*
X68162514Y-3031552D01*
X68114895Y-3079171D01*
X68019657Y-3126790D01*
X67638704Y-3126790D01*
X69162514Y-3602980D02*
X68591085Y-3602980D01*
X68876800Y-3602980D02*
X68876800Y-2602980D01*
X68781561Y-2745838D01*
X68686323Y-2841076D01*
X68591085Y-2888695D01*
X12644380Y-18803857D02*
X12168190Y-19137190D01*
X12644380Y-19375285D02*
X11644380Y-19375285D01*
X11644380Y-18994333D01*
X11692000Y-18899095D01*
X11739619Y-18851476D01*
X11834857Y-18803857D01*
X11977714Y-18803857D01*
X12072952Y-18851476D01*
X12120571Y-18899095D01*
X12168190Y-18994333D01*
X12168190Y-19375285D01*
X12644380Y-17851476D02*
X12644380Y-18422904D01*
X12644380Y-18137190D02*
X11644380Y-18137190D01*
X11787238Y-18232428D01*
X11882476Y-18327666D01*
X11930095Y-18422904D01*
X11644380Y-17232428D02*
X11644380Y-17137190D01*
X11692000Y-17041952D01*
X11739619Y-16994333D01*
X11834857Y-16946714D01*
X12025333Y-16899095D01*
X12263428Y-16899095D01*
X12453904Y-16946714D01*
X12549142Y-16994333D01*
X12596761Y-17041952D01*
X12644380Y-17137190D01*
X12644380Y-17232428D01*
X12596761Y-17327666D01*
X12549142Y-17375285D01*
X12453904Y-17422904D01*
X12263428Y-17470523D01*
X12025333Y-17470523D01*
X11834857Y-17422904D01*
X11739619Y-17375285D01*
X11692000Y-17327666D01*
X11644380Y-17232428D01*
X108443733Y-3792480D02*
X108110400Y-3316290D01*
X107872304Y-3792480D02*
X107872304Y-2792480D01*
X108253257Y-2792480D01*
X108348495Y-2840100D01*
X108396114Y-2887719D01*
X108443733Y-2982957D01*
X108443733Y-3125814D01*
X108396114Y-3221052D01*
X108348495Y-3268671D01*
X108253257Y-3316290D01*
X107872304Y-3316290D01*
X108824685Y-2887719D02*
X108872304Y-2840100D01*
X108967542Y-2792480D01*
X109205638Y-2792480D01*
X109300876Y-2840100D01*
X109348495Y-2887719D01*
X109396114Y-2982957D01*
X109396114Y-3078195D01*
X109348495Y-3221052D01*
X108777066Y-3792480D01*
X109396114Y-3792480D01*
X18502333Y-19502380D02*
X18169000Y-19026190D01*
X17930904Y-19502380D02*
X17930904Y-18502380D01*
X18311857Y-18502380D01*
X18407095Y-18550000D01*
X18454714Y-18597619D01*
X18502333Y-18692857D01*
X18502333Y-18835714D01*
X18454714Y-18930952D01*
X18407095Y-18978571D01*
X18311857Y-19026190D01*
X17930904Y-19026190D01*
X18835666Y-18502380D02*
X19454714Y-18502380D01*
X19121380Y-18883333D01*
X19264238Y-18883333D01*
X19359476Y-18930952D01*
X19407095Y-18978571D01*
X19454714Y-19073809D01*
X19454714Y-19311904D01*
X19407095Y-19407142D01*
X19359476Y-19454761D01*
X19264238Y-19502380D01*
X18978523Y-19502380D01*
X18883285Y-19454761D01*
X18835666Y-19407142D01*
X23455333Y-19502380D02*
X23122000Y-19026190D01*
X22883904Y-19502380D02*
X22883904Y-18502380D01*
X23264857Y-18502380D01*
X23360095Y-18550000D01*
X23407714Y-18597619D01*
X23455333Y-18692857D01*
X23455333Y-18835714D01*
X23407714Y-18930952D01*
X23360095Y-18978571D01*
X23264857Y-19026190D01*
X22883904Y-19026190D01*
X24312476Y-18835714D02*
X24312476Y-19502380D01*
X24074380Y-18454761D02*
X23836285Y-19169047D01*
X24455333Y-19169047D01*
X166558933Y-37891980D02*
X166225600Y-37415790D01*
X165987504Y-37891980D02*
X165987504Y-36891980D01*
X166368457Y-36891980D01*
X166463695Y-36939600D01*
X166511314Y-36987219D01*
X166558933Y-37082457D01*
X166558933Y-37225314D01*
X166511314Y-37320552D01*
X166463695Y-37368171D01*
X166368457Y-37415790D01*
X165987504Y-37415790D01*
X167463695Y-36891980D02*
X166987504Y-36891980D01*
X166939885Y-37368171D01*
X166987504Y-37320552D01*
X167082742Y-37272933D01*
X167320838Y-37272933D01*
X167416076Y-37320552D01*
X167463695Y-37368171D01*
X167511314Y-37463409D01*
X167511314Y-37701504D01*
X167463695Y-37796742D01*
X167416076Y-37844361D01*
X167320838Y-37891980D01*
X167082742Y-37891980D01*
X166987504Y-37844361D01*
X166939885Y-37796742D01*
X12517380Y-21502666D02*
X12041190Y-21836000D01*
X12517380Y-22074095D02*
X11517380Y-22074095D01*
X11517380Y-21693142D01*
X11565000Y-21597904D01*
X11612619Y-21550285D01*
X11707857Y-21502666D01*
X11850714Y-21502666D01*
X11945952Y-21550285D01*
X11993571Y-21597904D01*
X12041190Y-21693142D01*
X12041190Y-22074095D01*
X11517380Y-20645523D02*
X11517380Y-20836000D01*
X11565000Y-20931238D01*
X11612619Y-20978857D01*
X11755476Y-21074095D01*
X11945952Y-21121714D01*
X12326904Y-21121714D01*
X12422142Y-21074095D01*
X12469761Y-21026476D01*
X12517380Y-20931238D01*
X12517380Y-20740761D01*
X12469761Y-20645523D01*
X12422142Y-20597904D01*
X12326904Y-20550285D01*
X12088809Y-20550285D01*
X11993571Y-20597904D01*
X11945952Y-20645523D01*
X11898333Y-20740761D01*
X11898333Y-20931238D01*
X11945952Y-21026476D01*
X11993571Y-21074095D01*
X12088809Y-21121714D01*
X12644380Y-23661666D02*
X12168190Y-23995000D01*
X12644380Y-24233095D02*
X11644380Y-24233095D01*
X11644380Y-23852142D01*
X11692000Y-23756904D01*
X11739619Y-23709285D01*
X11834857Y-23661666D01*
X11977714Y-23661666D01*
X12072952Y-23709285D01*
X12120571Y-23756904D01*
X12168190Y-23852142D01*
X12168190Y-24233095D01*
X11644380Y-23328333D02*
X11644380Y-22661666D01*
X12644380Y-23090238D01*
X12644380Y-25947666D02*
X12168190Y-26281000D01*
X12644380Y-26519095D02*
X11644380Y-26519095D01*
X11644380Y-26138142D01*
X11692000Y-26042904D01*
X11739619Y-25995285D01*
X11834857Y-25947666D01*
X11977714Y-25947666D01*
X12072952Y-25995285D01*
X12120571Y-26042904D01*
X12168190Y-26138142D01*
X12168190Y-26519095D01*
X12072952Y-25376238D02*
X12025333Y-25471476D01*
X11977714Y-25519095D01*
X11882476Y-25566714D01*
X11834857Y-25566714D01*
X11739619Y-25519095D01*
X11692000Y-25471476D01*
X11644380Y-25376238D01*
X11644380Y-25185761D01*
X11692000Y-25090523D01*
X11739619Y-25042904D01*
X11834857Y-24995285D01*
X11882476Y-24995285D01*
X11977714Y-25042904D01*
X12025333Y-25090523D01*
X12072952Y-25185761D01*
X12072952Y-25376238D01*
X12120571Y-25471476D01*
X12168190Y-25519095D01*
X12263428Y-25566714D01*
X12453904Y-25566714D01*
X12549142Y-25519095D01*
X12596761Y-25471476D01*
X12644380Y-25376238D01*
X12644380Y-25185761D01*
X12596761Y-25090523D01*
X12549142Y-25042904D01*
X12453904Y-24995285D01*
X12263428Y-24995285D01*
X12168190Y-25042904D01*
X12120571Y-25090523D01*
X12072952Y-25185761D01*
X26376333Y-20264380D02*
X26043000Y-19788190D01*
X25804904Y-20264380D02*
X25804904Y-19264380D01*
X26185857Y-19264380D01*
X26281095Y-19312000D01*
X26328714Y-19359619D01*
X26376333Y-19454857D01*
X26376333Y-19597714D01*
X26328714Y-19692952D01*
X26281095Y-19740571D01*
X26185857Y-19788190D01*
X25804904Y-19788190D01*
X26852523Y-20264380D02*
X27043000Y-20264380D01*
X27138238Y-20216761D01*
X27185857Y-20169142D01*
X27281095Y-20026285D01*
X27328714Y-19835809D01*
X27328714Y-19454857D01*
X27281095Y-19359619D01*
X27233476Y-19312000D01*
X27138238Y-19264380D01*
X26947761Y-19264380D01*
X26852523Y-19312000D01*
X26804904Y-19359619D01*
X26757285Y-19454857D01*
X26757285Y-19692952D01*
X26804904Y-19788190D01*
X26852523Y-19835809D01*
X26947761Y-19883428D01*
X27138238Y-19883428D01*
X27233476Y-19835809D01*
X27281095Y-19788190D01*
X27328714Y-19692952D01*
X148313142Y-146438857D02*
X148360761Y-146486476D01*
X148408380Y-146629333D01*
X148408380Y-146724571D01*
X148360761Y-146867428D01*
X148265523Y-146962666D01*
X148170285Y-147010285D01*
X147979809Y-147057904D01*
X147836952Y-147057904D01*
X147646476Y-147010285D01*
X147551238Y-146962666D01*
X147456000Y-146867428D01*
X147408380Y-146724571D01*
X147408380Y-146629333D01*
X147456000Y-146486476D01*
X147503619Y-146438857D01*
X147408380Y-146105523D02*
X147408380Y-145486476D01*
X147789333Y-145819809D01*
X147789333Y-145676952D01*
X147836952Y-145581714D01*
X147884571Y-145534095D01*
X147979809Y-145486476D01*
X148217904Y-145486476D01*
X148313142Y-145534095D01*
X148360761Y-145581714D01*
X148408380Y-145676952D01*
X148408380Y-145962666D01*
X148360761Y-146057904D01*
X148313142Y-146105523D01*
X147503619Y-145105523D02*
X147456000Y-145057904D01*
X147408380Y-144962666D01*
X147408380Y-144724571D01*
X147456000Y-144629333D01*
X147503619Y-144581714D01*
X147598857Y-144534095D01*
X147694095Y-144534095D01*
X147836952Y-144581714D01*
X148408380Y-145153142D01*
X148408380Y-144534095D01*
X149471142Y-119102142D02*
X149423523Y-119149761D01*
X149280666Y-119197380D01*
X149185428Y-119197380D01*
X149042571Y-119149761D01*
X148947333Y-119054523D01*
X148899714Y-118959285D01*
X148852095Y-118768809D01*
X148852095Y-118625952D01*
X148899714Y-118435476D01*
X148947333Y-118340238D01*
X149042571Y-118245000D01*
X149185428Y-118197380D01*
X149280666Y-118197380D01*
X149423523Y-118245000D01*
X149471142Y-118292619D01*
X149804476Y-118197380D02*
X150423523Y-118197380D01*
X150090190Y-118578333D01*
X150233047Y-118578333D01*
X150328285Y-118625952D01*
X150375904Y-118673571D01*
X150423523Y-118768809D01*
X150423523Y-119006904D01*
X150375904Y-119102142D01*
X150328285Y-119149761D01*
X150233047Y-119197380D01*
X149947333Y-119197380D01*
X149852095Y-119149761D01*
X149804476Y-119102142D01*
X151375904Y-119197380D02*
X150804476Y-119197380D01*
X151090190Y-119197380D02*
X151090190Y-118197380D01*
X150994952Y-118340238D01*
X150899714Y-118435476D01*
X150804476Y-118483095D01*
X149598142Y-89130142D02*
X149550523Y-89177761D01*
X149407666Y-89225380D01*
X149312428Y-89225380D01*
X149169571Y-89177761D01*
X149074333Y-89082523D01*
X149026714Y-88987285D01*
X148979095Y-88796809D01*
X148979095Y-88653952D01*
X149026714Y-88463476D01*
X149074333Y-88368238D01*
X149169571Y-88273000D01*
X149312428Y-88225380D01*
X149407666Y-88225380D01*
X149550523Y-88273000D01*
X149598142Y-88320619D01*
X149979095Y-88320619D02*
X150026714Y-88273000D01*
X150121952Y-88225380D01*
X150360047Y-88225380D01*
X150455285Y-88273000D01*
X150502904Y-88320619D01*
X150550523Y-88415857D01*
X150550523Y-88511095D01*
X150502904Y-88653952D01*
X149931476Y-89225380D01*
X150550523Y-89225380D01*
X151455285Y-88225380D02*
X150979095Y-88225380D01*
X150931476Y-88701571D01*
X150979095Y-88653952D01*
X151074333Y-88606333D01*
X151312428Y-88606333D01*
X151407666Y-88653952D01*
X151455285Y-88701571D01*
X151502904Y-88796809D01*
X151502904Y-89034904D01*
X151455285Y-89130142D01*
X151407666Y-89177761D01*
X151312428Y-89225380D01*
X151074333Y-89225380D01*
X150979095Y-89177761D01*
X150931476Y-89130142D01*
X149471142Y-59031142D02*
X149423523Y-59078761D01*
X149280666Y-59126380D01*
X149185428Y-59126380D01*
X149042571Y-59078761D01*
X148947333Y-58983523D01*
X148899714Y-58888285D01*
X148852095Y-58697809D01*
X148852095Y-58554952D01*
X148899714Y-58364476D01*
X148947333Y-58269238D01*
X149042571Y-58174000D01*
X149185428Y-58126380D01*
X149280666Y-58126380D01*
X149423523Y-58174000D01*
X149471142Y-58221619D01*
X149852095Y-58221619D02*
X149899714Y-58174000D01*
X149994952Y-58126380D01*
X150233047Y-58126380D01*
X150328285Y-58174000D01*
X150375904Y-58221619D01*
X150423523Y-58316857D01*
X150423523Y-58412095D01*
X150375904Y-58554952D01*
X149804476Y-59126380D01*
X150423523Y-59126380D01*
X151280666Y-58459714D02*
X151280666Y-59126380D01*
X151042571Y-58078761D02*
X150804476Y-58793047D01*
X151423523Y-58793047D01*
X149598142Y-29059142D02*
X149550523Y-29106761D01*
X149407666Y-29154380D01*
X149312428Y-29154380D01*
X149169571Y-29106761D01*
X149074333Y-29011523D01*
X149026714Y-28916285D01*
X148979095Y-28725809D01*
X148979095Y-28582952D01*
X149026714Y-28392476D01*
X149074333Y-28297238D01*
X149169571Y-28202000D01*
X149312428Y-28154380D01*
X149407666Y-28154380D01*
X149550523Y-28202000D01*
X149598142Y-28249619D01*
X149979095Y-28249619D02*
X150026714Y-28202000D01*
X150121952Y-28154380D01*
X150360047Y-28154380D01*
X150455285Y-28202000D01*
X150502904Y-28249619D01*
X150550523Y-28344857D01*
X150550523Y-28440095D01*
X150502904Y-28582952D01*
X149931476Y-29154380D01*
X150550523Y-29154380D01*
X150883857Y-28154380D02*
X151502904Y-28154380D01*
X151169571Y-28535333D01*
X151312428Y-28535333D01*
X151407666Y-28582952D01*
X151455285Y-28630571D01*
X151502904Y-28725809D01*
X151502904Y-28963904D01*
X151455285Y-29059142D01*
X151407666Y-29106761D01*
X151312428Y-29154380D01*
X151026714Y-29154380D01*
X150931476Y-29106761D01*
X150883857Y-29059142D01*
X119499142Y-148947142D02*
X119451523Y-148994761D01*
X119308666Y-149042380D01*
X119213428Y-149042380D01*
X119070571Y-148994761D01*
X118975333Y-148899523D01*
X118927714Y-148804285D01*
X118880095Y-148613809D01*
X118880095Y-148470952D01*
X118927714Y-148280476D01*
X118975333Y-148185238D01*
X119070571Y-148090000D01*
X119213428Y-148042380D01*
X119308666Y-148042380D01*
X119451523Y-148090000D01*
X119499142Y-148137619D01*
X119880095Y-148137619D02*
X119927714Y-148090000D01*
X120022952Y-148042380D01*
X120261047Y-148042380D01*
X120356285Y-148090000D01*
X120403904Y-148137619D01*
X120451523Y-148232857D01*
X120451523Y-148328095D01*
X120403904Y-148470952D01*
X119832476Y-149042380D01*
X120451523Y-149042380D01*
X120832476Y-148137619D02*
X120880095Y-148090000D01*
X120975333Y-148042380D01*
X121213428Y-148042380D01*
X121308666Y-148090000D01*
X121356285Y-148137619D01*
X121403904Y-148232857D01*
X121403904Y-148328095D01*
X121356285Y-148470952D01*
X120784857Y-149042380D01*
X121403904Y-149042380D01*
X119626142Y-118848142D02*
X119578523Y-118895761D01*
X119435666Y-118943380D01*
X119340428Y-118943380D01*
X119197571Y-118895761D01*
X119102333Y-118800523D01*
X119054714Y-118705285D01*
X119007095Y-118514809D01*
X119007095Y-118371952D01*
X119054714Y-118181476D01*
X119102333Y-118086238D01*
X119197571Y-117991000D01*
X119340428Y-117943380D01*
X119435666Y-117943380D01*
X119578523Y-117991000D01*
X119626142Y-118038619D01*
X120007095Y-118038619D02*
X120054714Y-117991000D01*
X120149952Y-117943380D01*
X120388047Y-117943380D01*
X120483285Y-117991000D01*
X120530904Y-118038619D01*
X120578523Y-118133857D01*
X120578523Y-118229095D01*
X120530904Y-118371952D01*
X119959476Y-118943380D01*
X120578523Y-118943380D01*
X121530904Y-118943380D02*
X120959476Y-118943380D01*
X121245190Y-118943380D02*
X121245190Y-117943380D01*
X121149952Y-118086238D01*
X121054714Y-118181476D01*
X120959476Y-118229095D01*
X119626142Y-89003142D02*
X119578523Y-89050761D01*
X119435666Y-89098380D01*
X119340428Y-89098380D01*
X119197571Y-89050761D01*
X119102333Y-88955523D01*
X119054714Y-88860285D01*
X119007095Y-88669809D01*
X119007095Y-88526952D01*
X119054714Y-88336476D01*
X119102333Y-88241238D01*
X119197571Y-88146000D01*
X119340428Y-88098380D01*
X119435666Y-88098380D01*
X119578523Y-88146000D01*
X119626142Y-88193619D01*
X120007095Y-88193619D02*
X120054714Y-88146000D01*
X120149952Y-88098380D01*
X120388047Y-88098380D01*
X120483285Y-88146000D01*
X120530904Y-88193619D01*
X120578523Y-88288857D01*
X120578523Y-88384095D01*
X120530904Y-88526952D01*
X119959476Y-89098380D01*
X120578523Y-89098380D01*
X121197571Y-88098380D02*
X121292809Y-88098380D01*
X121388047Y-88146000D01*
X121435666Y-88193619D01*
X121483285Y-88288857D01*
X121530904Y-88479333D01*
X121530904Y-88717428D01*
X121483285Y-88907904D01*
X121435666Y-89003142D01*
X121388047Y-89050761D01*
X121292809Y-89098380D01*
X121197571Y-89098380D01*
X121102333Y-89050761D01*
X121054714Y-89003142D01*
X121007095Y-88907904D01*
X120959476Y-88717428D01*
X120959476Y-88479333D01*
X121007095Y-88288857D01*
X121054714Y-88193619D01*
X121102333Y-88146000D01*
X121197571Y-88098380D01*
X119499142Y-58904142D02*
X119451523Y-58951761D01*
X119308666Y-58999380D01*
X119213428Y-58999380D01*
X119070571Y-58951761D01*
X118975333Y-58856523D01*
X118927714Y-58761285D01*
X118880095Y-58570809D01*
X118880095Y-58427952D01*
X118927714Y-58237476D01*
X118975333Y-58142238D01*
X119070571Y-58047000D01*
X119213428Y-57999380D01*
X119308666Y-57999380D01*
X119451523Y-58047000D01*
X119499142Y-58094619D01*
X120451523Y-58999380D02*
X119880095Y-58999380D01*
X120165809Y-58999380D02*
X120165809Y-57999380D01*
X120070571Y-58142238D01*
X119975333Y-58237476D01*
X119880095Y-58285095D01*
X120927714Y-58999380D02*
X121118190Y-58999380D01*
X121213428Y-58951761D01*
X121261047Y-58904142D01*
X121356285Y-58761285D01*
X121403904Y-58570809D01*
X121403904Y-58189857D01*
X121356285Y-58094619D01*
X121308666Y-58047000D01*
X121213428Y-57999380D01*
X121022952Y-57999380D01*
X120927714Y-58047000D01*
X120880095Y-58094619D01*
X120832476Y-58189857D01*
X120832476Y-58427952D01*
X120880095Y-58523190D01*
X120927714Y-58570809D01*
X121022952Y-58618428D01*
X121213428Y-58618428D01*
X121308666Y-58570809D01*
X121356285Y-58523190D01*
X121403904Y-58427952D01*
X119372142Y-28932142D02*
X119324523Y-28979761D01*
X119181666Y-29027380D01*
X119086428Y-29027380D01*
X118943571Y-28979761D01*
X118848333Y-28884523D01*
X118800714Y-28789285D01*
X118753095Y-28598809D01*
X118753095Y-28455952D01*
X118800714Y-28265476D01*
X118848333Y-28170238D01*
X118943571Y-28075000D01*
X119086428Y-28027380D01*
X119181666Y-28027380D01*
X119324523Y-28075000D01*
X119372142Y-28122619D01*
X120324523Y-29027380D02*
X119753095Y-29027380D01*
X120038809Y-29027380D02*
X120038809Y-28027380D01*
X119943571Y-28170238D01*
X119848333Y-28265476D01*
X119753095Y-28313095D01*
X120895952Y-28455952D02*
X120800714Y-28408333D01*
X120753095Y-28360714D01*
X120705476Y-28265476D01*
X120705476Y-28217857D01*
X120753095Y-28122619D01*
X120800714Y-28075000D01*
X120895952Y-28027380D01*
X121086428Y-28027380D01*
X121181666Y-28075000D01*
X121229285Y-28122619D01*
X121276904Y-28217857D01*
X121276904Y-28265476D01*
X121229285Y-28360714D01*
X121181666Y-28408333D01*
X121086428Y-28455952D01*
X120895952Y-28455952D01*
X120800714Y-28503571D01*
X120753095Y-28551190D01*
X120705476Y-28646428D01*
X120705476Y-28836904D01*
X120753095Y-28932142D01*
X120800714Y-28979761D01*
X120895952Y-29027380D01*
X121086428Y-29027380D01*
X121181666Y-28979761D01*
X121229285Y-28932142D01*
X121276904Y-28836904D01*
X121276904Y-28646428D01*
X121229285Y-28551190D01*
X121181666Y-28503571D01*
X121086428Y-28455952D01*
X89527142Y-148820142D02*
X89479523Y-148867761D01*
X89336666Y-148915380D01*
X89241428Y-148915380D01*
X89098571Y-148867761D01*
X89003333Y-148772523D01*
X88955714Y-148677285D01*
X88908095Y-148486809D01*
X88908095Y-148343952D01*
X88955714Y-148153476D01*
X89003333Y-148058238D01*
X89098571Y-147963000D01*
X89241428Y-147915380D01*
X89336666Y-147915380D01*
X89479523Y-147963000D01*
X89527142Y-148010619D01*
X90479523Y-148915380D02*
X89908095Y-148915380D01*
X90193809Y-148915380D02*
X90193809Y-147915380D01*
X90098571Y-148058238D01*
X90003333Y-148153476D01*
X89908095Y-148201095D01*
X90812857Y-147915380D02*
X91479523Y-147915380D01*
X91050952Y-148915380D01*
X88369142Y-116466857D02*
X88416761Y-116514476D01*
X88464380Y-116657333D01*
X88464380Y-116752571D01*
X88416761Y-116895428D01*
X88321523Y-116990666D01*
X88226285Y-117038285D01*
X88035809Y-117085904D01*
X87892952Y-117085904D01*
X87702476Y-117038285D01*
X87607238Y-116990666D01*
X87512000Y-116895428D01*
X87464380Y-116752571D01*
X87464380Y-116657333D01*
X87512000Y-116514476D01*
X87559619Y-116466857D01*
X88464380Y-115514476D02*
X88464380Y-116085904D01*
X88464380Y-115800190D02*
X87464380Y-115800190D01*
X87607238Y-115895428D01*
X87702476Y-115990666D01*
X87750095Y-116085904D01*
X87464380Y-114657333D02*
X87464380Y-114847809D01*
X87512000Y-114943047D01*
X87559619Y-114990666D01*
X87702476Y-115085904D01*
X87892952Y-115133523D01*
X88273904Y-115133523D01*
X88369142Y-115085904D01*
X88416761Y-115038285D01*
X88464380Y-114943047D01*
X88464380Y-114752571D01*
X88416761Y-114657333D01*
X88369142Y-114609714D01*
X88273904Y-114562095D01*
X88035809Y-114562095D01*
X87940571Y-114609714D01*
X87892952Y-114657333D01*
X87845333Y-114752571D01*
X87845333Y-114943047D01*
X87892952Y-115038285D01*
X87940571Y-115085904D01*
X88035809Y-115133523D01*
X89527142Y-88876142D02*
X89479523Y-88923761D01*
X89336666Y-88971380D01*
X89241428Y-88971380D01*
X89098571Y-88923761D01*
X89003333Y-88828523D01*
X88955714Y-88733285D01*
X88908095Y-88542809D01*
X88908095Y-88399952D01*
X88955714Y-88209476D01*
X89003333Y-88114238D01*
X89098571Y-88019000D01*
X89241428Y-87971380D01*
X89336666Y-87971380D01*
X89479523Y-88019000D01*
X89527142Y-88066619D01*
X90479523Y-88971380D02*
X89908095Y-88971380D01*
X90193809Y-88971380D02*
X90193809Y-87971380D01*
X90098571Y-88114238D01*
X90003333Y-88209476D01*
X89908095Y-88257095D01*
X91384285Y-87971380D02*
X90908095Y-87971380D01*
X90860476Y-88447571D01*
X90908095Y-88399952D01*
X91003333Y-88352333D01*
X91241428Y-88352333D01*
X91336666Y-88399952D01*
X91384285Y-88447571D01*
X91431904Y-88542809D01*
X91431904Y-88780904D01*
X91384285Y-88876142D01*
X91336666Y-88923761D01*
X91241428Y-88971380D01*
X91003333Y-88971380D01*
X90908095Y-88923761D01*
X90860476Y-88876142D01*
X89527142Y-58904142D02*
X89479523Y-58951761D01*
X89336666Y-58999380D01*
X89241428Y-58999380D01*
X89098571Y-58951761D01*
X89003333Y-58856523D01*
X88955714Y-58761285D01*
X88908095Y-58570809D01*
X88908095Y-58427952D01*
X88955714Y-58237476D01*
X89003333Y-58142238D01*
X89098571Y-58047000D01*
X89241428Y-57999380D01*
X89336666Y-57999380D01*
X89479523Y-58047000D01*
X89527142Y-58094619D01*
X90479523Y-58999380D02*
X89908095Y-58999380D01*
X90193809Y-58999380D02*
X90193809Y-57999380D01*
X90098571Y-58142238D01*
X90003333Y-58237476D01*
X89908095Y-58285095D01*
X91336666Y-58332714D02*
X91336666Y-58999380D01*
X91098571Y-57951761D02*
X90860476Y-58666047D01*
X91479523Y-58666047D01*
X89400142Y-28932142D02*
X89352523Y-28979761D01*
X89209666Y-29027380D01*
X89114428Y-29027380D01*
X88971571Y-28979761D01*
X88876333Y-28884523D01*
X88828714Y-28789285D01*
X88781095Y-28598809D01*
X88781095Y-28455952D01*
X88828714Y-28265476D01*
X88876333Y-28170238D01*
X88971571Y-28075000D01*
X89114428Y-28027380D01*
X89209666Y-28027380D01*
X89352523Y-28075000D01*
X89400142Y-28122619D01*
X90352523Y-29027380D02*
X89781095Y-29027380D01*
X90066809Y-29027380D02*
X90066809Y-28027380D01*
X89971571Y-28170238D01*
X89876333Y-28265476D01*
X89781095Y-28313095D01*
X90685857Y-28027380D02*
X91304904Y-28027380D01*
X90971571Y-28408333D01*
X91114428Y-28408333D01*
X91209666Y-28455952D01*
X91257285Y-28503571D01*
X91304904Y-28598809D01*
X91304904Y-28836904D01*
X91257285Y-28932142D01*
X91209666Y-28979761D01*
X91114428Y-29027380D01*
X90828714Y-29027380D01*
X90733476Y-28979761D01*
X90685857Y-28932142D01*
X59682142Y-149328142D02*
X59634523Y-149375761D01*
X59491666Y-149423380D01*
X59396428Y-149423380D01*
X59253571Y-149375761D01*
X59158333Y-149280523D01*
X59110714Y-149185285D01*
X59063095Y-148994809D01*
X59063095Y-148851952D01*
X59110714Y-148661476D01*
X59158333Y-148566238D01*
X59253571Y-148471000D01*
X59396428Y-148423380D01*
X59491666Y-148423380D01*
X59634523Y-148471000D01*
X59682142Y-148518619D01*
X60634523Y-149423380D02*
X60063095Y-149423380D01*
X60348809Y-149423380D02*
X60348809Y-148423380D01*
X60253571Y-148566238D01*
X60158333Y-148661476D01*
X60063095Y-148709095D01*
X61015476Y-148518619D02*
X61063095Y-148471000D01*
X61158333Y-148423380D01*
X61396428Y-148423380D01*
X61491666Y-148471000D01*
X61539285Y-148518619D01*
X61586904Y-148613857D01*
X61586904Y-148709095D01*
X61539285Y-148851952D01*
X60967857Y-149423380D01*
X61586904Y-149423380D01*
X58397142Y-116466857D02*
X58444761Y-116514476D01*
X58492380Y-116657333D01*
X58492380Y-116752571D01*
X58444761Y-116895428D01*
X58349523Y-116990666D01*
X58254285Y-117038285D01*
X58063809Y-117085904D01*
X57920952Y-117085904D01*
X57730476Y-117038285D01*
X57635238Y-116990666D01*
X57540000Y-116895428D01*
X57492380Y-116752571D01*
X57492380Y-116657333D01*
X57540000Y-116514476D01*
X57587619Y-116466857D01*
X58492380Y-115514476D02*
X58492380Y-116085904D01*
X58492380Y-115800190D02*
X57492380Y-115800190D01*
X57635238Y-115895428D01*
X57730476Y-115990666D01*
X57778095Y-116085904D01*
X58492380Y-114562095D02*
X58492380Y-115133523D01*
X58492380Y-114847809D02*
X57492380Y-114847809D01*
X57635238Y-114943047D01*
X57730476Y-115038285D01*
X57778095Y-115133523D01*
X59555142Y-88876142D02*
X59507523Y-88923761D01*
X59364666Y-88971380D01*
X59269428Y-88971380D01*
X59126571Y-88923761D01*
X59031333Y-88828523D01*
X58983714Y-88733285D01*
X58936095Y-88542809D01*
X58936095Y-88399952D01*
X58983714Y-88209476D01*
X59031333Y-88114238D01*
X59126571Y-88019000D01*
X59269428Y-87971380D01*
X59364666Y-87971380D01*
X59507523Y-88019000D01*
X59555142Y-88066619D01*
X60507523Y-88971380D02*
X59936095Y-88971380D01*
X60221809Y-88971380D02*
X60221809Y-87971380D01*
X60126571Y-88114238D01*
X60031333Y-88209476D01*
X59936095Y-88257095D01*
X61126571Y-87971380D02*
X61221809Y-87971380D01*
X61317047Y-88019000D01*
X61364666Y-88066619D01*
X61412285Y-88161857D01*
X61459904Y-88352333D01*
X61459904Y-88590428D01*
X61412285Y-88780904D01*
X61364666Y-88876142D01*
X61317047Y-88923761D01*
X61221809Y-88971380D01*
X61126571Y-88971380D01*
X61031333Y-88923761D01*
X60983714Y-88876142D01*
X60936095Y-88780904D01*
X60888476Y-88590428D01*
X60888476Y-88352333D01*
X60936095Y-88161857D01*
X60983714Y-88066619D01*
X61031333Y-88019000D01*
X61126571Y-87971380D01*
X59523333Y-58904142D02*
X59475714Y-58951761D01*
X59332857Y-58999380D01*
X59237619Y-58999380D01*
X59094761Y-58951761D01*
X58999523Y-58856523D01*
X58951904Y-58761285D01*
X58904285Y-58570809D01*
X58904285Y-58427952D01*
X58951904Y-58237476D01*
X58999523Y-58142238D01*
X59094761Y-58047000D01*
X59237619Y-57999380D01*
X59332857Y-57999380D01*
X59475714Y-58047000D01*
X59523333Y-58094619D01*
X59999523Y-58999380D02*
X60190000Y-58999380D01*
X60285238Y-58951761D01*
X60332857Y-58904142D01*
X60428095Y-58761285D01*
X60475714Y-58570809D01*
X60475714Y-58189857D01*
X60428095Y-58094619D01*
X60380476Y-58047000D01*
X60285238Y-57999380D01*
X60094761Y-57999380D01*
X59999523Y-58047000D01*
X59951904Y-58094619D01*
X59904285Y-58189857D01*
X59904285Y-58427952D01*
X59951904Y-58523190D01*
X59999523Y-58570809D01*
X60094761Y-58618428D01*
X60285238Y-58618428D01*
X60380476Y-58570809D01*
X60428095Y-58523190D01*
X60475714Y-58427952D01*
X59650333Y-28863142D02*
X59602714Y-28910761D01*
X59459857Y-28958380D01*
X59364619Y-28958380D01*
X59221761Y-28910761D01*
X59126523Y-28815523D01*
X59078904Y-28720285D01*
X59031285Y-28529809D01*
X59031285Y-28386952D01*
X59078904Y-28196476D01*
X59126523Y-28101238D01*
X59221761Y-28006000D01*
X59364619Y-27958380D01*
X59459857Y-27958380D01*
X59602714Y-28006000D01*
X59650333Y-28053619D01*
X60221761Y-28386952D02*
X60126523Y-28339333D01*
X60078904Y-28291714D01*
X60031285Y-28196476D01*
X60031285Y-28148857D01*
X60078904Y-28053619D01*
X60126523Y-28006000D01*
X60221761Y-27958380D01*
X60412238Y-27958380D01*
X60507476Y-28006000D01*
X60555095Y-28053619D01*
X60602714Y-28148857D01*
X60602714Y-28196476D01*
X60555095Y-28291714D01*
X60507476Y-28339333D01*
X60412238Y-28386952D01*
X60221761Y-28386952D01*
X60126523Y-28434571D01*
X60078904Y-28482190D01*
X60031285Y-28577428D01*
X60031285Y-28767904D01*
X60078904Y-28863142D01*
X60126523Y-28910761D01*
X60221761Y-28958380D01*
X60412238Y-28958380D01*
X60507476Y-28910761D01*
X60555095Y-28863142D01*
X60602714Y-28767904D01*
X60602714Y-28577428D01*
X60555095Y-28482190D01*
X60507476Y-28434571D01*
X60412238Y-28386952D01*
X29805333Y-148947142D02*
X29757714Y-148994761D01*
X29614857Y-149042380D01*
X29519619Y-149042380D01*
X29376761Y-148994761D01*
X29281523Y-148899523D01*
X29233904Y-148804285D01*
X29186285Y-148613809D01*
X29186285Y-148470952D01*
X29233904Y-148280476D01*
X29281523Y-148185238D01*
X29376761Y-148090000D01*
X29519619Y-148042380D01*
X29614857Y-148042380D01*
X29757714Y-148090000D01*
X29805333Y-148137619D01*
X30138666Y-148042380D02*
X30805333Y-148042380D01*
X30376761Y-149042380D01*
X28425142Y-115990666D02*
X28472761Y-116038285D01*
X28520380Y-116181142D01*
X28520380Y-116276380D01*
X28472761Y-116419238D01*
X28377523Y-116514476D01*
X28282285Y-116562095D01*
X28091809Y-116609714D01*
X27948952Y-116609714D01*
X27758476Y-116562095D01*
X27663238Y-116514476D01*
X27568000Y-116419238D01*
X27520380Y-116276380D01*
X27520380Y-116181142D01*
X27568000Y-116038285D01*
X27615619Y-115990666D01*
X27520380Y-115133523D02*
X27520380Y-115324000D01*
X27568000Y-115419238D01*
X27615619Y-115466857D01*
X27758476Y-115562095D01*
X27948952Y-115609714D01*
X28329904Y-115609714D01*
X28425142Y-115562095D01*
X28472761Y-115514476D01*
X28520380Y-115419238D01*
X28520380Y-115228761D01*
X28472761Y-115133523D01*
X28425142Y-115085904D01*
X28329904Y-115038285D01*
X28091809Y-115038285D01*
X27996571Y-115085904D01*
X27948952Y-115133523D01*
X27901333Y-115228761D01*
X27901333Y-115419238D01*
X27948952Y-115514476D01*
X27996571Y-115562095D01*
X28091809Y-115609714D01*
X29678333Y-88876142D02*
X29630714Y-88923761D01*
X29487857Y-88971380D01*
X29392619Y-88971380D01*
X29249761Y-88923761D01*
X29154523Y-88828523D01*
X29106904Y-88733285D01*
X29059285Y-88542809D01*
X29059285Y-88399952D01*
X29106904Y-88209476D01*
X29154523Y-88114238D01*
X29249761Y-88019000D01*
X29392619Y-87971380D01*
X29487857Y-87971380D01*
X29630714Y-88019000D01*
X29678333Y-88066619D01*
X30535476Y-88304714D02*
X30535476Y-88971380D01*
X30297380Y-87923761D02*
X30059285Y-88638047D01*
X30678333Y-88638047D01*
X29551333Y-58904142D02*
X29503714Y-58951761D01*
X29360857Y-58999380D01*
X29265619Y-58999380D01*
X29122761Y-58951761D01*
X29027523Y-58856523D01*
X28979904Y-58761285D01*
X28932285Y-58570809D01*
X28932285Y-58427952D01*
X28979904Y-58237476D01*
X29027523Y-58142238D01*
X29122761Y-58047000D01*
X29265619Y-57999380D01*
X29360857Y-57999380D01*
X29503714Y-58047000D01*
X29551333Y-58094619D01*
X29884666Y-57999380D02*
X30503714Y-57999380D01*
X30170380Y-58380333D01*
X30313238Y-58380333D01*
X30408476Y-58427952D01*
X30456095Y-58475571D01*
X30503714Y-58570809D01*
X30503714Y-58808904D01*
X30456095Y-58904142D01*
X30408476Y-58951761D01*
X30313238Y-58999380D01*
X30027523Y-58999380D01*
X29932285Y-58951761D01*
X29884666Y-58904142D01*
X29678333Y-28805142D02*
X29630714Y-28852761D01*
X29487857Y-28900380D01*
X29392619Y-28900380D01*
X29249761Y-28852761D01*
X29154523Y-28757523D01*
X29106904Y-28662285D01*
X29059285Y-28471809D01*
X29059285Y-28328952D01*
X29106904Y-28138476D01*
X29154523Y-28043238D01*
X29249761Y-27948000D01*
X29392619Y-27900380D01*
X29487857Y-27900380D01*
X29630714Y-27948000D01*
X29678333Y-27995619D01*
X30630714Y-28900380D02*
X30059285Y-28900380D01*
X30345000Y-28900380D02*
X30345000Y-27900380D01*
X30249761Y-28043238D01*
X30154523Y-28138476D01*
X30059285Y-28186095D01*
X108158042Y-8972822D02*
X108110423Y-9020441D01*
X107967566Y-9068060D01*
X107872328Y-9068060D01*
X107729471Y-9020441D01*
X107634233Y-8925203D01*
X107586614Y-8829965D01*
X107538995Y-8639489D01*
X107538995Y-8496632D01*
X107586614Y-8306156D01*
X107634233Y-8210918D01*
X107729471Y-8115680D01*
X107872328Y-8068060D01*
X107967566Y-8068060D01*
X108110423Y-8115680D01*
X108158042Y-8163299D01*
X108538995Y-8163299D02*
X108586614Y-8115680D01*
X108681852Y-8068060D01*
X108919947Y-8068060D01*
X109015185Y-8115680D01*
X109062804Y-8163299D01*
X109110423Y-8258537D01*
X109110423Y-8353775D01*
X109062804Y-8496632D01*
X108491376Y-9068060D01*
X109110423Y-9068060D01*
X109681852Y-8496632D02*
X109586614Y-8449013D01*
X109538995Y-8401394D01*
X109491376Y-8306156D01*
X109491376Y-8258537D01*
X109538995Y-8163299D01*
X109586614Y-8115680D01*
X109681852Y-8068060D01*
X109872328Y-8068060D01*
X109967566Y-8115680D01*
X110015185Y-8163299D01*
X110062804Y-8258537D01*
X110062804Y-8306156D01*
X110015185Y-8401394D01*
X109967566Y-8449013D01*
X109872328Y-8496632D01*
X109681852Y-8496632D01*
X109586614Y-8544251D01*
X109538995Y-8591870D01*
X109491376Y-8687108D01*
X109491376Y-8877584D01*
X109538995Y-8972822D01*
X109586614Y-9020441D01*
X109681852Y-9068060D01*
X109872328Y-9068060D01*
X109967566Y-9020441D01*
X110015185Y-8972822D01*
X110062804Y-8877584D01*
X110062804Y-8687108D01*
X110015185Y-8591870D01*
X109967566Y-8544251D01*
X109872328Y-8496632D01*
X63079333Y-4293142D02*
X63031714Y-4340761D01*
X62888857Y-4388380D01*
X62793619Y-4388380D01*
X62650761Y-4340761D01*
X62555523Y-4245523D01*
X62507904Y-4150285D01*
X62460285Y-3959809D01*
X62460285Y-3816952D01*
X62507904Y-3626476D01*
X62555523Y-3531238D01*
X62650761Y-3436000D01*
X62793619Y-3388380D01*
X62888857Y-3388380D01*
X63031714Y-3436000D01*
X63079333Y-3483619D01*
X63460285Y-3483619D02*
X63507904Y-3436000D01*
X63603142Y-3388380D01*
X63841238Y-3388380D01*
X63936476Y-3436000D01*
X63984095Y-3483619D01*
X64031714Y-3578857D01*
X64031714Y-3674095D01*
X63984095Y-3816952D01*
X63412666Y-4388380D01*
X64031714Y-4388380D01*
X50829276Y-19459428D02*
X50829276Y-19526772D01*
X50761932Y-19661459D01*
X50694589Y-19728802D01*
X50559902Y-19796146D01*
X50425215Y-19796146D01*
X50324200Y-19762474D01*
X50155841Y-19661459D01*
X50054826Y-19560444D01*
X49953810Y-19392085D01*
X49920139Y-19291070D01*
X49920139Y-19156383D01*
X49987482Y-19021696D01*
X50054826Y-18954352D01*
X50189513Y-18887009D01*
X50256856Y-18887009D01*
X51031307Y-18449276D02*
X51502711Y-18920680D01*
X50593574Y-18348260D02*
X50930291Y-19021696D01*
X51368024Y-18583963D01*
X51704742Y-17775841D02*
X52176146Y-18247245D01*
X51267009Y-17674825D02*
X51603726Y-18348260D01*
X52041459Y-17910528D01*
X71128095Y-2576380D02*
X71699523Y-2576380D01*
X71413809Y-3576380D02*
X71413809Y-2576380D01*
X72032857Y-3576380D02*
X72032857Y-2576380D01*
X72413809Y-2576380D01*
X72509047Y-2624000D01*
X72556666Y-2671619D01*
X72604285Y-2766857D01*
X72604285Y-2909714D01*
X72556666Y-3004952D01*
X72509047Y-3052571D01*
X72413809Y-3100190D01*
X72032857Y-3100190D01*
X72937619Y-2576380D02*
X73556666Y-2576380D01*
X73223333Y-2957333D01*
X73366190Y-2957333D01*
X73461428Y-3004952D01*
X73509047Y-3052571D01*
X73556666Y-3147809D01*
X73556666Y-3385904D01*
X73509047Y-3481142D01*
X73461428Y-3528761D01*
X73366190Y-3576380D01*
X73080476Y-3576380D01*
X72985238Y-3528761D01*
X72937619Y-3481142D01*
X122647176Y-531880D02*
X122647176Y-1246166D01*
X122599557Y-1389023D01*
X122504319Y-1484261D01*
X122361461Y-1531880D01*
X122266223Y-1531880D01*
X123647176Y-1531880D02*
X123075747Y-1531880D01*
X123361461Y-1531880D02*
X123361461Y-531880D01*
X123266223Y-674738D01*
X123170985Y-769976D01*
X123075747Y-817595D01*
X124028128Y-627119D02*
X124075747Y-579500D01*
X124170985Y-531880D01*
X124409080Y-531880D01*
X124504319Y-579500D01*
X124551938Y-627119D01*
X124599557Y-722357D01*
X124599557Y-817595D01*
X124551938Y-960452D01*
X123980509Y-1531880D01*
X124599557Y-1531880D01*
X110220380Y-14803333D02*
X110934666Y-14803333D01*
X111077523Y-14850952D01*
X111172761Y-14946190D01*
X111220380Y-15089047D01*
X111220380Y-15184285D01*
X111220380Y-14327142D02*
X110220380Y-14327142D01*
X110220380Y-13946190D01*
X110268000Y-13850952D01*
X110315619Y-13803333D01*
X110410857Y-13755714D01*
X110553714Y-13755714D01*
X110648952Y-13803333D01*
X110696571Y-13850952D01*
X110744190Y-13946190D01*
X110744190Y-14327142D01*
X110315619Y-13374761D02*
X110268000Y-13327142D01*
X110220380Y-13231904D01*
X110220380Y-12993809D01*
X110268000Y-12898571D01*
X110315619Y-12850952D01*
X110410857Y-12803333D01*
X110506095Y-12803333D01*
X110648952Y-12850952D01*
X111220380Y-13422380D01*
X111220380Y-12803333D01*
X75188380Y-9477333D02*
X75902666Y-9477333D01*
X76045523Y-9524952D01*
X76140761Y-9620190D01*
X76188380Y-9763047D01*
X76188380Y-9858285D01*
X75188380Y-8572571D02*
X75188380Y-8763047D01*
X75236000Y-8858285D01*
X75283619Y-8905904D01*
X75426476Y-9001142D01*
X75616952Y-9048761D01*
X75997904Y-9048761D01*
X76093142Y-9001142D01*
X76140761Y-8953523D01*
X76188380Y-8858285D01*
X76188380Y-8667809D01*
X76140761Y-8572571D01*
X76093142Y-8524952D01*
X75997904Y-8477333D01*
X75759809Y-8477333D01*
X75664571Y-8524952D01*
X75616952Y-8572571D01*
X75569333Y-8667809D01*
X75569333Y-8858285D01*
X75616952Y-8953523D01*
X75664571Y-9001142D01*
X75759809Y-9048761D01*
X41102446Y-9904361D02*
X41245303Y-9951980D01*
X41483399Y-9951980D01*
X41578637Y-9904361D01*
X41626256Y-9856742D01*
X41673875Y-9761504D01*
X41673875Y-9666266D01*
X41626256Y-9571028D01*
X41578637Y-9523409D01*
X41483399Y-9475790D01*
X41292922Y-9428171D01*
X41197684Y-9380552D01*
X41150065Y-9332933D01*
X41102446Y-9237695D01*
X41102446Y-9142457D01*
X41150065Y-9047219D01*
X41197684Y-8999600D01*
X41292922Y-8951980D01*
X41531018Y-8951980D01*
X41673875Y-8999600D01*
X42007208Y-8951980D02*
X42245303Y-9951980D01*
X42435780Y-9237695D01*
X42626256Y-9951980D01*
X42864351Y-8951980D01*
X43769113Y-9951980D02*
X43197684Y-9951980D01*
X43483399Y-9951980D02*
X43483399Y-8951980D01*
X43388160Y-9094838D01*
X43292922Y-9190076D01*
X43197684Y-9237695D01*
X166247866Y-34199580D02*
X166247866Y-34913866D01*
X166200247Y-35056723D01*
X166105009Y-35151961D01*
X165962152Y-35199580D01*
X165866914Y-35199580D01*
X166724057Y-35199580D02*
X166724057Y-34199580D01*
X167105009Y-34199580D01*
X167200247Y-34247200D01*
X167247866Y-34294819D01*
X167295485Y-34390057D01*
X167295485Y-34532914D01*
X167247866Y-34628152D01*
X167200247Y-34675771D01*
X167105009Y-34723390D01*
X166724057Y-34723390D01*
X168247866Y-35199580D02*
X167676438Y-35199580D01*
X167962152Y-35199580D02*
X167962152Y-34199580D01*
X167866914Y-34342438D01*
X167771676Y-34437676D01*
X167676438Y-34485295D01*
X102044990Y-7334190D02*
X102521180Y-7334190D01*
X101521180Y-7667523D02*
X102044990Y-7334190D01*
X101521180Y-7000857D01*
X101616419Y-6715142D02*
X101568800Y-6667523D01*
X101521180Y-6572285D01*
X101521180Y-6334190D01*
X101568800Y-6238952D01*
X101616419Y-6191333D01*
X101711657Y-6143714D01*
X101806895Y-6143714D01*
X101949752Y-6191333D01*
X102521180Y-6762761D01*
X102521180Y-6143714D01*
X53464750Y-16339194D02*
X53128032Y-16675912D01*
X53599437Y-15733103D02*
X53464750Y-16339194D01*
X54070841Y-16204507D01*
X53969826Y-17517705D02*
X53565765Y-17113644D01*
X53767796Y-17315675D02*
X54474902Y-16608568D01*
X54306544Y-16642240D01*
X54171857Y-16642240D01*
X54070841Y-16608568D01*
X7389761Y-36893333D02*
X7437380Y-36750476D01*
X7437380Y-36512380D01*
X7389761Y-36417142D01*
X7342142Y-36369523D01*
X7246904Y-36321904D01*
X7151666Y-36321904D01*
X7056428Y-36369523D01*
X7008809Y-36417142D01*
X6961190Y-36512380D01*
X6913571Y-36702857D01*
X6865952Y-36798095D01*
X6818333Y-36845714D01*
X6723095Y-36893333D01*
X6627857Y-36893333D01*
X6532619Y-36845714D01*
X6485000Y-36798095D01*
X6437380Y-36702857D01*
X6437380Y-36464761D01*
X6485000Y-36321904D01*
X6437380Y-35988571D02*
X7437380Y-35750476D01*
X6723095Y-35560000D01*
X7437380Y-35369523D01*
X6437380Y-35131428D01*
X6532619Y-34798095D02*
X6485000Y-34750476D01*
X6437380Y-34655238D01*
X6437380Y-34417142D01*
X6485000Y-34321904D01*
X6532619Y-34274285D01*
X6627857Y-34226666D01*
X6723095Y-34226666D01*
X6865952Y-34274285D01*
X7437380Y-34845714D01*
X7437380Y-34226666D01*
X144772142Y-2643142D02*
X144724523Y-2690761D01*
X144581666Y-2738380D01*
X144486428Y-2738380D01*
X144343571Y-2690761D01*
X144248333Y-2595523D01*
X144200714Y-2500285D01*
X144153095Y-2309809D01*
X144153095Y-2166952D01*
X144200714Y-1976476D01*
X144248333Y-1881238D01*
X144343571Y-1786000D01*
X144486428Y-1738380D01*
X144581666Y-1738380D01*
X144724523Y-1786000D01*
X144772142Y-1833619D01*
X145153095Y-1833619D02*
X145200714Y-1786000D01*
X145295952Y-1738380D01*
X145534047Y-1738380D01*
X145629285Y-1786000D01*
X145676904Y-1833619D01*
X145724523Y-1928857D01*
X145724523Y-2024095D01*
X145676904Y-2166952D01*
X145105476Y-2738380D01*
X145724523Y-2738380D01*
X146057857Y-1738380D02*
X146724523Y-1738380D01*
X146295952Y-2738380D01*
D16*
X142338050Y-8696652D02*
X141335641Y-8696652D01*
X142242583Y-7646509D02*
X142290316Y-7694243D01*
X142338050Y-7837444D01*
X142338050Y-7932911D01*
X142290316Y-8076113D01*
X142194849Y-8171580D01*
X142099381Y-8219314D01*
X141908446Y-8267048D01*
X141765245Y-8267048D01*
X141574310Y-8219314D01*
X141478843Y-8171580D01*
X141383375Y-8076113D01*
X141335641Y-7932911D01*
X141335641Y-7837444D01*
X141383375Y-7694243D01*
X141431109Y-7646509D01*
X142338050Y-6691834D02*
X142338050Y-7264639D01*
X142338050Y-6978236D02*
X141335641Y-6978236D01*
X141478843Y-7073704D01*
X141574310Y-7169171D01*
X141622044Y-7264639D01*
D10*
X163164780Y-45715085D02*
X162164780Y-45715085D01*
X162164780Y-45476990D01*
X162212400Y-45334133D01*
X162307638Y-45238895D01*
X162402876Y-45191276D01*
X162593352Y-45143657D01*
X162736209Y-45143657D01*
X162926685Y-45191276D01*
X163021923Y-45238895D01*
X163117161Y-45334133D01*
X163164780Y-45476990D01*
X163164780Y-45715085D01*
X162260019Y-44762704D02*
X162212400Y-44715085D01*
X162164780Y-44619847D01*
X162164780Y-44381752D01*
X162212400Y-44286514D01*
X162260019Y-44238895D01*
X162355257Y-44191276D01*
X162450495Y-44191276D01*
X162593352Y-44238895D01*
X163164780Y-44810323D01*
X163164780Y-44191276D01*
X162164780Y-43334133D02*
X162164780Y-43524609D01*
X162212400Y-43619847D01*
X162260019Y-43667466D01*
X162402876Y-43762704D01*
X162593352Y-43810323D01*
X162974304Y-43810323D01*
X163069542Y-43762704D01*
X163117161Y-43715085D01*
X163164780Y-43619847D01*
X163164780Y-43429371D01*
X163117161Y-43334133D01*
X163069542Y-43286514D01*
X162974304Y-43238895D01*
X162736209Y-43238895D01*
X162640971Y-43286514D01*
X162593352Y-43334133D01*
X162545733Y-43429371D01*
X162545733Y-43619847D01*
X162593352Y-43715085D01*
X162640971Y-43762704D01*
X162736209Y-43810323D01*
X138738882Y-18478737D02*
X138786501Y-18526356D01*
X138834120Y-18669213D01*
X138834120Y-18764451D01*
X138786501Y-18907308D01*
X138691263Y-19002546D01*
X138596025Y-19050165D01*
X138405549Y-19097784D01*
X138262692Y-19097784D01*
X138072216Y-19050165D01*
X137976978Y-19002546D01*
X137881740Y-18907308D01*
X137834120Y-18764451D01*
X137834120Y-18669213D01*
X137881740Y-18526356D01*
X137929359Y-18478737D01*
X137834120Y-18145403D02*
X137834120Y-17526356D01*
X138215073Y-17859689D01*
X138215073Y-17716832D01*
X138262692Y-17621594D01*
X138310311Y-17573975D01*
X138405549Y-17526356D01*
X138643644Y-17526356D01*
X138738882Y-17573975D01*
X138786501Y-17621594D01*
X138834120Y-17716832D01*
X138834120Y-18002546D01*
X138786501Y-18097784D01*
X138738882Y-18145403D01*
X137834120Y-17193022D02*
X137834120Y-16573975D01*
X138215073Y-16907308D01*
X138215073Y-16764451D01*
X138262692Y-16669213D01*
X138310311Y-16621594D01*
X138405549Y-16573975D01*
X138643644Y-16573975D01*
X138738882Y-16621594D01*
X138786501Y-16669213D01*
X138834120Y-16764451D01*
X138834120Y-17050165D01*
X138786501Y-17145403D01*
X138738882Y-17193022D01*
X138779522Y-15920957D02*
X138827141Y-15968576D01*
X138874760Y-16111433D01*
X138874760Y-16206671D01*
X138827141Y-16349528D01*
X138731903Y-16444766D01*
X138636665Y-16492385D01*
X138446189Y-16540004D01*
X138303332Y-16540004D01*
X138112856Y-16492385D01*
X138017618Y-16444766D01*
X137922380Y-16349528D01*
X137874760Y-16206671D01*
X137874760Y-16111433D01*
X137922380Y-15968576D01*
X137969999Y-15920957D01*
X137874760Y-15587623D02*
X137874760Y-14968576D01*
X138255713Y-15301909D01*
X138255713Y-15159052D01*
X138303332Y-15063814D01*
X138350951Y-15016195D01*
X138446189Y-14968576D01*
X138684284Y-14968576D01*
X138779522Y-15016195D01*
X138827141Y-15063814D01*
X138874760Y-15159052D01*
X138874760Y-15444766D01*
X138827141Y-15540004D01*
X138779522Y-15587623D01*
X137874760Y-14349528D02*
X137874760Y-14254290D01*
X137922380Y-14159052D01*
X137969999Y-14111433D01*
X138065237Y-14063814D01*
X138255713Y-14016195D01*
X138493808Y-14016195D01*
X138684284Y-14063814D01*
X138779522Y-14111433D01*
X138827141Y-14159052D01*
X138874760Y-14254290D01*
X138874760Y-14349528D01*
X138827141Y-14444766D01*
X138779522Y-14492385D01*
X138684284Y-14540004D01*
X138493808Y-14587623D01*
X138255713Y-14587623D01*
X138065237Y-14540004D01*
X137969999Y-14492385D01*
X137922380Y-14444766D01*
X137874760Y-14349528D01*
X137120333Y-7564380D02*
X136644142Y-7564380D01*
X136644142Y-6564380D01*
X137977476Y-7564380D02*
X137406047Y-7564380D01*
X137691761Y-7564380D02*
X137691761Y-6564380D01*
X137596523Y-6707238D01*
X137501285Y-6802476D01*
X137406047Y-6850095D01*
X25169904Y-26360380D02*
X25169904Y-25360380D01*
X25408000Y-25360380D01*
X25550857Y-25408000D01*
X25646095Y-25503238D01*
X25693714Y-25598476D01*
X25741333Y-25788952D01*
X25741333Y-25931809D01*
X25693714Y-26122285D01*
X25646095Y-26217523D01*
X25550857Y-26312761D01*
X25408000Y-26360380D01*
X25169904Y-26360380D01*
X26693714Y-26360380D02*
X26122285Y-26360380D01*
X26408000Y-26360380D02*
X26408000Y-25360380D01*
X26312761Y-25503238D01*
X26217523Y-25598476D01*
X26122285Y-25646095D01*
X144581714Y-56332380D02*
X144581714Y-55332380D01*
X144819809Y-55332380D01*
X144962666Y-55380000D01*
X145057904Y-55475238D01*
X145105523Y-55570476D01*
X145153142Y-55760952D01*
X145153142Y-55903809D01*
X145105523Y-56094285D01*
X145057904Y-56189523D01*
X144962666Y-56284761D01*
X144819809Y-56332380D01*
X144581714Y-56332380D01*
X146105523Y-56332380D02*
X145534095Y-56332380D01*
X145819809Y-56332380D02*
X145819809Y-55332380D01*
X145724571Y-55475238D01*
X145629333Y-55570476D01*
X145534095Y-55618095D01*
X146724571Y-55332380D02*
X146819809Y-55332380D01*
X146915047Y-55380000D01*
X146962666Y-55427619D01*
X147010285Y-55522857D01*
X147057904Y-55713333D01*
X147057904Y-55951428D01*
X147010285Y-56141904D01*
X146962666Y-56237142D01*
X146915047Y-56284761D01*
X146819809Y-56332380D01*
X146724571Y-56332380D01*
X146629333Y-56284761D01*
X146581714Y-56237142D01*
X146534095Y-56141904D01*
X146486476Y-55951428D01*
X146486476Y-55713333D01*
X146534095Y-55522857D01*
X146581714Y-55427619D01*
X146629333Y-55380000D01*
X146724571Y-55332380D01*
X24693714Y-86304380D02*
X24693714Y-85304380D01*
X24931809Y-85304380D01*
X25074666Y-85352000D01*
X25169904Y-85447238D01*
X25217523Y-85542476D01*
X25265142Y-85732952D01*
X25265142Y-85875809D01*
X25217523Y-86066285D01*
X25169904Y-86161523D01*
X25074666Y-86256761D01*
X24931809Y-86304380D01*
X24693714Y-86304380D01*
X26217523Y-86304380D02*
X25646095Y-86304380D01*
X25931809Y-86304380D02*
X25931809Y-85304380D01*
X25836571Y-85447238D01*
X25741333Y-85542476D01*
X25646095Y-85590095D01*
X27169904Y-86304380D02*
X26598476Y-86304380D01*
X26884190Y-86304380D02*
X26884190Y-85304380D01*
X26788952Y-85447238D01*
X26693714Y-85542476D01*
X26598476Y-85590095D01*
X144657914Y-116162080D02*
X144657914Y-115162080D01*
X144896009Y-115162080D01*
X145038866Y-115209700D01*
X145134104Y-115304938D01*
X145181723Y-115400176D01*
X145229342Y-115590652D01*
X145229342Y-115733509D01*
X145181723Y-115923985D01*
X145134104Y-116019223D01*
X145038866Y-116114461D01*
X144896009Y-116162080D01*
X144657914Y-116162080D01*
X145610295Y-115257319D02*
X145657914Y-115209700D01*
X145753152Y-115162080D01*
X145991247Y-115162080D01*
X146086485Y-115209700D01*
X146134104Y-115257319D01*
X146181723Y-115352557D01*
X146181723Y-115447795D01*
X146134104Y-115590652D01*
X145562676Y-116162080D01*
X146181723Y-116162080D01*
X146800771Y-115162080D02*
X146896009Y-115162080D01*
X146991247Y-115209700D01*
X147038866Y-115257319D01*
X147086485Y-115352557D01*
X147134104Y-115543033D01*
X147134104Y-115781128D01*
X147086485Y-115971604D01*
X147038866Y-116066842D01*
X146991247Y-116114461D01*
X146896009Y-116162080D01*
X146800771Y-116162080D01*
X146705533Y-116114461D01*
X146657914Y-116066842D01*
X146610295Y-115971604D01*
X146562676Y-115781128D01*
X146562676Y-115543033D01*
X146610295Y-115352557D01*
X146657914Y-115257319D01*
X146705533Y-115209700D01*
X146800771Y-115162080D01*
X24820714Y-146248380D02*
X24820714Y-145248380D01*
X25058809Y-145248380D01*
X25201666Y-145296000D01*
X25296904Y-145391238D01*
X25344523Y-145486476D01*
X25392142Y-145676952D01*
X25392142Y-145819809D01*
X25344523Y-146010285D01*
X25296904Y-146105523D01*
X25201666Y-146200761D01*
X25058809Y-146248380D01*
X24820714Y-146248380D01*
X25773095Y-145343619D02*
X25820714Y-145296000D01*
X25915952Y-145248380D01*
X26154047Y-145248380D01*
X26249285Y-145296000D01*
X26296904Y-145343619D01*
X26344523Y-145438857D01*
X26344523Y-145534095D01*
X26296904Y-145676952D01*
X25725476Y-146248380D01*
X26344523Y-146248380D01*
X27296904Y-146248380D02*
X26725476Y-146248380D01*
X27011190Y-146248380D02*
X27011190Y-145248380D01*
X26915952Y-145391238D01*
X26820714Y-145486476D01*
X26725476Y-145534095D01*
X55141904Y-26360380D02*
X55141904Y-25360380D01*
X55380000Y-25360380D01*
X55522857Y-25408000D01*
X55618095Y-25503238D01*
X55665714Y-25598476D01*
X55713333Y-25788952D01*
X55713333Y-25931809D01*
X55665714Y-26122285D01*
X55618095Y-26217523D01*
X55522857Y-26312761D01*
X55380000Y-26360380D01*
X55141904Y-26360380D01*
X56094285Y-25455619D02*
X56141904Y-25408000D01*
X56237142Y-25360380D01*
X56475238Y-25360380D01*
X56570476Y-25408000D01*
X56618095Y-25455619D01*
X56665714Y-25550857D01*
X56665714Y-25646095D01*
X56618095Y-25788952D01*
X56046666Y-26360380D01*
X56665714Y-26360380D01*
X115085904Y-56332380D02*
X115085904Y-55332380D01*
X115324000Y-55332380D01*
X115466857Y-55380000D01*
X115562095Y-55475238D01*
X115609714Y-55570476D01*
X115657333Y-55760952D01*
X115657333Y-55903809D01*
X115609714Y-56094285D01*
X115562095Y-56189523D01*
X115466857Y-56284761D01*
X115324000Y-56332380D01*
X115085904Y-56332380D01*
X116133523Y-56332380D02*
X116324000Y-56332380D01*
X116419238Y-56284761D01*
X116466857Y-56237142D01*
X116562095Y-56094285D01*
X116609714Y-55903809D01*
X116609714Y-55522857D01*
X116562095Y-55427619D01*
X116514476Y-55380000D01*
X116419238Y-55332380D01*
X116228761Y-55332380D01*
X116133523Y-55380000D01*
X116085904Y-55427619D01*
X116038285Y-55522857D01*
X116038285Y-55760952D01*
X116085904Y-55856190D01*
X116133523Y-55903809D01*
X116228761Y-55951428D01*
X116419238Y-55951428D01*
X116514476Y-55903809D01*
X116562095Y-55856190D01*
X116609714Y-55760952D01*
X54665714Y-86304380D02*
X54665714Y-85304380D01*
X54903809Y-85304380D01*
X55046666Y-85352000D01*
X55141904Y-85447238D01*
X55189523Y-85542476D01*
X55237142Y-85732952D01*
X55237142Y-85875809D01*
X55189523Y-86066285D01*
X55141904Y-86161523D01*
X55046666Y-86256761D01*
X54903809Y-86304380D01*
X54665714Y-86304380D01*
X56189523Y-86304380D02*
X55618095Y-86304380D01*
X55903809Y-86304380D02*
X55903809Y-85304380D01*
X55808571Y-85447238D01*
X55713333Y-85542476D01*
X55618095Y-85590095D01*
X56570476Y-85399619D02*
X56618095Y-85352000D01*
X56713333Y-85304380D01*
X56951428Y-85304380D01*
X57046666Y-85352000D01*
X57094285Y-85399619D01*
X57141904Y-85494857D01*
X57141904Y-85590095D01*
X57094285Y-85732952D01*
X56522857Y-86304380D01*
X57141904Y-86304380D01*
X114584314Y-116136680D02*
X114584314Y-115136680D01*
X114822409Y-115136680D01*
X114965266Y-115184300D01*
X115060504Y-115279538D01*
X115108123Y-115374776D01*
X115155742Y-115565252D01*
X115155742Y-115708109D01*
X115108123Y-115898585D01*
X115060504Y-115993823D01*
X114965266Y-116089061D01*
X114822409Y-116136680D01*
X114584314Y-116136680D01*
X116108123Y-116136680D02*
X115536695Y-116136680D01*
X115822409Y-116136680D02*
X115822409Y-115136680D01*
X115727171Y-115279538D01*
X115631933Y-115374776D01*
X115536695Y-115422395D01*
X116584314Y-116136680D02*
X116774790Y-116136680D01*
X116870028Y-116089061D01*
X116917647Y-116041442D01*
X117012885Y-115898585D01*
X117060504Y-115708109D01*
X117060504Y-115327157D01*
X117012885Y-115231919D01*
X116965266Y-115184300D01*
X116870028Y-115136680D01*
X116679552Y-115136680D01*
X116584314Y-115184300D01*
X116536695Y-115231919D01*
X116489076Y-115327157D01*
X116489076Y-115565252D01*
X116536695Y-115660490D01*
X116584314Y-115708109D01*
X116679552Y-115755728D01*
X116870028Y-115755728D01*
X116965266Y-115708109D01*
X117012885Y-115660490D01*
X117060504Y-115565252D01*
X54670794Y-146248380D02*
X54670794Y-145248380D01*
X54908889Y-145248380D01*
X55051746Y-145296000D01*
X55146984Y-145391238D01*
X55194603Y-145486476D01*
X55242222Y-145676952D01*
X55242222Y-145819809D01*
X55194603Y-146010285D01*
X55146984Y-146105523D01*
X55051746Y-146200761D01*
X54908889Y-146248380D01*
X54670794Y-146248380D01*
X55623175Y-145343619D02*
X55670794Y-145296000D01*
X55766032Y-145248380D01*
X56004127Y-145248380D01*
X56099365Y-145296000D01*
X56146984Y-145343619D01*
X56194603Y-145438857D01*
X56194603Y-145534095D01*
X56146984Y-145676952D01*
X55575556Y-146248380D01*
X56194603Y-146248380D01*
X56575556Y-145343619D02*
X56623175Y-145296000D01*
X56718413Y-145248380D01*
X56956508Y-145248380D01*
X57051746Y-145296000D01*
X57099365Y-145343619D01*
X57146984Y-145438857D01*
X57146984Y-145534095D01*
X57099365Y-145676952D01*
X56527937Y-146248380D01*
X57146984Y-146248380D01*
X85113904Y-26360380D02*
X85113904Y-25360380D01*
X85352000Y-25360380D01*
X85494857Y-25408000D01*
X85590095Y-25503238D01*
X85637714Y-25598476D01*
X85685333Y-25788952D01*
X85685333Y-25931809D01*
X85637714Y-26122285D01*
X85590095Y-26217523D01*
X85494857Y-26312761D01*
X85352000Y-26360380D01*
X85113904Y-26360380D01*
X86018666Y-25360380D02*
X86637714Y-25360380D01*
X86304380Y-25741333D01*
X86447238Y-25741333D01*
X86542476Y-25788952D01*
X86590095Y-25836571D01*
X86637714Y-25931809D01*
X86637714Y-26169904D01*
X86590095Y-26265142D01*
X86542476Y-26312761D01*
X86447238Y-26360380D01*
X86161523Y-26360380D01*
X86066285Y-26312761D01*
X86018666Y-26265142D01*
X84986904Y-56332380D02*
X84986904Y-55332380D01*
X85225000Y-55332380D01*
X85367857Y-55380000D01*
X85463095Y-55475238D01*
X85510714Y-55570476D01*
X85558333Y-55760952D01*
X85558333Y-55903809D01*
X85510714Y-56094285D01*
X85463095Y-56189523D01*
X85367857Y-56284761D01*
X85225000Y-56332380D01*
X84986904Y-56332380D01*
X86129761Y-55760952D02*
X86034523Y-55713333D01*
X85986904Y-55665714D01*
X85939285Y-55570476D01*
X85939285Y-55522857D01*
X85986904Y-55427619D01*
X86034523Y-55380000D01*
X86129761Y-55332380D01*
X86320238Y-55332380D01*
X86415476Y-55380000D01*
X86463095Y-55427619D01*
X86510714Y-55522857D01*
X86510714Y-55570476D01*
X86463095Y-55665714D01*
X86415476Y-55713333D01*
X86320238Y-55760952D01*
X86129761Y-55760952D01*
X86034523Y-55808571D01*
X85986904Y-55856190D01*
X85939285Y-55951428D01*
X85939285Y-56141904D01*
X85986904Y-56237142D01*
X86034523Y-56284761D01*
X86129761Y-56332380D01*
X86320238Y-56332380D01*
X86415476Y-56284761D01*
X86463095Y-56237142D01*
X86510714Y-56141904D01*
X86510714Y-55951428D01*
X86463095Y-55856190D01*
X86415476Y-55808571D01*
X86320238Y-55760952D01*
X84637714Y-86304380D02*
X84637714Y-85304380D01*
X84875809Y-85304380D01*
X85018666Y-85352000D01*
X85113904Y-85447238D01*
X85161523Y-85542476D01*
X85209142Y-85732952D01*
X85209142Y-85875809D01*
X85161523Y-86066285D01*
X85113904Y-86161523D01*
X85018666Y-86256761D01*
X84875809Y-86304380D01*
X84637714Y-86304380D01*
X86161523Y-86304380D02*
X85590095Y-86304380D01*
X85875809Y-86304380D02*
X85875809Y-85304380D01*
X85780571Y-85447238D01*
X85685333Y-85542476D01*
X85590095Y-85590095D01*
X86494857Y-85304380D02*
X87113904Y-85304380D01*
X86780571Y-85685333D01*
X86923428Y-85685333D01*
X87018666Y-85732952D01*
X87066285Y-85780571D01*
X87113904Y-85875809D01*
X87113904Y-86113904D01*
X87066285Y-86209142D01*
X87018666Y-86256761D01*
X86923428Y-86304380D01*
X86637714Y-86304380D01*
X86542476Y-86256761D01*
X86494857Y-86209142D01*
X84612314Y-116200180D02*
X84612314Y-115200180D01*
X84850409Y-115200180D01*
X84993266Y-115247800D01*
X85088504Y-115343038D01*
X85136123Y-115438276D01*
X85183742Y-115628752D01*
X85183742Y-115771609D01*
X85136123Y-115962085D01*
X85088504Y-116057323D01*
X84993266Y-116152561D01*
X84850409Y-116200180D01*
X84612314Y-116200180D01*
X86136123Y-116200180D02*
X85564695Y-116200180D01*
X85850409Y-116200180D02*
X85850409Y-115200180D01*
X85755171Y-115343038D01*
X85659933Y-115438276D01*
X85564695Y-115485895D01*
X86707552Y-115628752D02*
X86612314Y-115581133D01*
X86564695Y-115533514D01*
X86517076Y-115438276D01*
X86517076Y-115390657D01*
X86564695Y-115295419D01*
X86612314Y-115247800D01*
X86707552Y-115200180D01*
X86898028Y-115200180D01*
X86993266Y-115247800D01*
X87040885Y-115295419D01*
X87088504Y-115390657D01*
X87088504Y-115438276D01*
X87040885Y-115533514D01*
X86993266Y-115581133D01*
X86898028Y-115628752D01*
X86707552Y-115628752D01*
X86612314Y-115676371D01*
X86564695Y-115723990D01*
X86517076Y-115819228D01*
X86517076Y-116009704D01*
X86564695Y-116104942D01*
X86612314Y-116152561D01*
X86707552Y-116200180D01*
X86898028Y-116200180D01*
X86993266Y-116152561D01*
X87040885Y-116104942D01*
X87088504Y-116009704D01*
X87088504Y-115819228D01*
X87040885Y-115723990D01*
X86993266Y-115676371D01*
X86898028Y-115628752D01*
X84637714Y-146248380D02*
X84637714Y-145248380D01*
X84875809Y-145248380D01*
X85018666Y-145296000D01*
X85113904Y-145391238D01*
X85161523Y-145486476D01*
X85209142Y-145676952D01*
X85209142Y-145819809D01*
X85161523Y-146010285D01*
X85113904Y-146105523D01*
X85018666Y-146200761D01*
X84875809Y-146248380D01*
X84637714Y-146248380D01*
X85590095Y-145343619D02*
X85637714Y-145296000D01*
X85732952Y-145248380D01*
X85971047Y-145248380D01*
X86066285Y-145296000D01*
X86113904Y-145343619D01*
X86161523Y-145438857D01*
X86161523Y-145534095D01*
X86113904Y-145676952D01*
X85542476Y-146248380D01*
X86161523Y-146248380D01*
X86494857Y-145248380D02*
X87113904Y-145248380D01*
X86780571Y-145629333D01*
X86923428Y-145629333D01*
X87018666Y-145676952D01*
X87066285Y-145724571D01*
X87113904Y-145819809D01*
X87113904Y-146057904D01*
X87066285Y-146153142D01*
X87018666Y-146200761D01*
X86923428Y-146248380D01*
X86637714Y-146248380D01*
X86542476Y-146200761D01*
X86494857Y-146153142D01*
X115085904Y-26360380D02*
X115085904Y-25360380D01*
X115324000Y-25360380D01*
X115466857Y-25408000D01*
X115562095Y-25503238D01*
X115609714Y-25598476D01*
X115657333Y-25788952D01*
X115657333Y-25931809D01*
X115609714Y-26122285D01*
X115562095Y-26217523D01*
X115466857Y-26312761D01*
X115324000Y-26360380D01*
X115085904Y-26360380D01*
X116514476Y-25693714D02*
X116514476Y-26360380D01*
X116276380Y-25312761D02*
X116038285Y-26027047D01*
X116657333Y-26027047D01*
X55178904Y-56408380D02*
X55178904Y-55408380D01*
X55417000Y-55408380D01*
X55559857Y-55456000D01*
X55655095Y-55551238D01*
X55702714Y-55646476D01*
X55750333Y-55836952D01*
X55750333Y-55979809D01*
X55702714Y-56170285D01*
X55655095Y-56265523D01*
X55559857Y-56360761D01*
X55417000Y-56408380D01*
X55178904Y-56408380D01*
X56083666Y-55408380D02*
X56750333Y-55408380D01*
X56321761Y-56408380D01*
X114673214Y-86304380D02*
X114673214Y-85304380D01*
X114911309Y-85304380D01*
X115054166Y-85352000D01*
X115149404Y-85447238D01*
X115197023Y-85542476D01*
X115244642Y-85732952D01*
X115244642Y-85875809D01*
X115197023Y-86066285D01*
X115149404Y-86161523D01*
X115054166Y-86256761D01*
X114911309Y-86304380D01*
X114673214Y-86304380D01*
X116197023Y-86304380D02*
X115625595Y-86304380D01*
X115911309Y-86304380D02*
X115911309Y-85304380D01*
X115816071Y-85447238D01*
X115720833Y-85542476D01*
X115625595Y-85590095D01*
X117054166Y-85637714D02*
X117054166Y-86304380D01*
X116816071Y-85256761D02*
X116577976Y-85971047D01*
X117197023Y-85971047D01*
X54741914Y-116162080D02*
X54741914Y-115162080D01*
X54980009Y-115162080D01*
X55122866Y-115209700D01*
X55218104Y-115304938D01*
X55265723Y-115400176D01*
X55313342Y-115590652D01*
X55313342Y-115733509D01*
X55265723Y-115923985D01*
X55218104Y-116019223D01*
X55122866Y-116114461D01*
X54980009Y-116162080D01*
X54741914Y-116162080D01*
X56265723Y-116162080D02*
X55694295Y-116162080D01*
X55980009Y-116162080D02*
X55980009Y-115162080D01*
X55884771Y-115304938D01*
X55789533Y-115400176D01*
X55694295Y-115447795D01*
X56599057Y-115162080D02*
X57265723Y-115162080D01*
X56837152Y-116162080D01*
X114617334Y-146248380D02*
X114617334Y-145248380D01*
X114855429Y-145248380D01*
X114998286Y-145296000D01*
X115093524Y-145391238D01*
X115141143Y-145486476D01*
X115188762Y-145676952D01*
X115188762Y-145819809D01*
X115141143Y-146010285D01*
X115093524Y-146105523D01*
X114998286Y-146200761D01*
X114855429Y-146248380D01*
X114617334Y-146248380D01*
X115569715Y-145343619D02*
X115617334Y-145296000D01*
X115712572Y-145248380D01*
X115950667Y-145248380D01*
X116045905Y-145296000D01*
X116093524Y-145343619D01*
X116141143Y-145438857D01*
X116141143Y-145534095D01*
X116093524Y-145676952D01*
X115522096Y-146248380D01*
X116141143Y-146248380D01*
X116998286Y-145581714D02*
X116998286Y-146248380D01*
X116760191Y-145200761D02*
X116522096Y-145915047D01*
X117141143Y-145915047D01*
X145240784Y-26360380D02*
X145240784Y-25360380D01*
X145478880Y-25360380D01*
X145621737Y-25408000D01*
X145716975Y-25503238D01*
X145764594Y-25598476D01*
X145812213Y-25788952D01*
X145812213Y-25931809D01*
X145764594Y-26122285D01*
X145716975Y-26217523D01*
X145621737Y-26312761D01*
X145478880Y-26360380D01*
X145240784Y-26360380D01*
X146716975Y-25360380D02*
X146240784Y-25360380D01*
X146193165Y-25836571D01*
X146240784Y-25788952D01*
X146336022Y-25741333D01*
X146574118Y-25741333D01*
X146669356Y-25788952D01*
X146716975Y-25836571D01*
X146764594Y-25931809D01*
X146764594Y-26169904D01*
X146716975Y-26265142D01*
X146669356Y-26312761D01*
X146574118Y-26360380D01*
X146336022Y-26360380D01*
X146240784Y-26312761D01*
X146193165Y-26265142D01*
X25169904Y-56268880D02*
X25169904Y-55268880D01*
X25408000Y-55268880D01*
X25550857Y-55316500D01*
X25646095Y-55411738D01*
X25693714Y-55506976D01*
X25741333Y-55697452D01*
X25741333Y-55840309D01*
X25693714Y-56030785D01*
X25646095Y-56126023D01*
X25550857Y-56221261D01*
X25408000Y-56268880D01*
X25169904Y-56268880D01*
X26598476Y-55268880D02*
X26408000Y-55268880D01*
X26312761Y-55316500D01*
X26265142Y-55364119D01*
X26169904Y-55506976D01*
X26122285Y-55697452D01*
X26122285Y-56078404D01*
X26169904Y-56173642D01*
X26217523Y-56221261D01*
X26312761Y-56268880D01*
X26503238Y-56268880D01*
X26598476Y-56221261D01*
X26646095Y-56173642D01*
X26693714Y-56078404D01*
X26693714Y-55840309D01*
X26646095Y-55745071D01*
X26598476Y-55697452D01*
X26503238Y-55649833D01*
X26312761Y-55649833D01*
X26217523Y-55697452D01*
X26169904Y-55745071D01*
X26122285Y-55840309D01*
X144581714Y-86177380D02*
X144581714Y-85177380D01*
X144819809Y-85177380D01*
X144962666Y-85225000D01*
X145057904Y-85320238D01*
X145105523Y-85415476D01*
X145153142Y-85605952D01*
X145153142Y-85748809D01*
X145105523Y-85939285D01*
X145057904Y-86034523D01*
X144962666Y-86129761D01*
X144819809Y-86177380D01*
X144581714Y-86177380D01*
X146105523Y-86177380D02*
X145534095Y-86177380D01*
X145819809Y-86177380D02*
X145819809Y-85177380D01*
X145724571Y-85320238D01*
X145629333Y-85415476D01*
X145534095Y-85463095D01*
X147010285Y-85177380D02*
X146534095Y-85177380D01*
X146486476Y-85653571D01*
X146534095Y-85605952D01*
X146629333Y-85558333D01*
X146867428Y-85558333D01*
X146962666Y-85605952D01*
X147010285Y-85653571D01*
X147057904Y-85748809D01*
X147057904Y-85986904D01*
X147010285Y-86082142D01*
X146962666Y-86129761D01*
X146867428Y-86177380D01*
X146629333Y-86177380D01*
X146534095Y-86129761D01*
X146486476Y-86082142D01*
X24769914Y-116162080D02*
X24769914Y-115162080D01*
X25008009Y-115162080D01*
X25150866Y-115209700D01*
X25246104Y-115304938D01*
X25293723Y-115400176D01*
X25341342Y-115590652D01*
X25341342Y-115733509D01*
X25293723Y-115923985D01*
X25246104Y-116019223D01*
X25150866Y-116114461D01*
X25008009Y-116162080D01*
X24769914Y-116162080D01*
X26293723Y-116162080D02*
X25722295Y-116162080D01*
X26008009Y-116162080D02*
X26008009Y-115162080D01*
X25912771Y-115304938D01*
X25817533Y-115400176D01*
X25722295Y-115447795D01*
X27150866Y-115162080D02*
X26960390Y-115162080D01*
X26865152Y-115209700D01*
X26817533Y-115257319D01*
X26722295Y-115400176D01*
X26674676Y-115590652D01*
X26674676Y-115971604D01*
X26722295Y-116066842D01*
X26769914Y-116114461D01*
X26865152Y-116162080D01*
X27055628Y-116162080D01*
X27150866Y-116114461D01*
X27198485Y-116066842D01*
X27246104Y-115971604D01*
X27246104Y-115733509D01*
X27198485Y-115638271D01*
X27150866Y-115590652D01*
X27055628Y-115543033D01*
X26865152Y-115543033D01*
X26769914Y-115590652D01*
X26722295Y-115638271D01*
X26674676Y-115733509D01*
X144581714Y-146248380D02*
X144581714Y-145248380D01*
X144819809Y-145248380D01*
X144962666Y-145296000D01*
X145057904Y-145391238D01*
X145105523Y-145486476D01*
X145153142Y-145676952D01*
X145153142Y-145819809D01*
X145105523Y-146010285D01*
X145057904Y-146105523D01*
X144962666Y-146200761D01*
X144819809Y-146248380D01*
X144581714Y-146248380D01*
X145534095Y-145343619D02*
X145581714Y-145296000D01*
X145676952Y-145248380D01*
X145915047Y-145248380D01*
X146010285Y-145296000D01*
X146057904Y-145343619D01*
X146105523Y-145438857D01*
X146105523Y-145534095D01*
X146057904Y-145676952D01*
X145486476Y-146248380D01*
X146105523Y-146248380D01*
X147010285Y-145248380D02*
X146534095Y-145248380D01*
X146486476Y-145724571D01*
X146534095Y-145676952D01*
X146629333Y-145629333D01*
X146867428Y-145629333D01*
X146962666Y-145676952D01*
X147010285Y-145724571D01*
X147057904Y-145819809D01*
X147057904Y-146057904D01*
X147010285Y-146153142D01*
X146962666Y-146200761D01*
X146867428Y-146248380D01*
X146629333Y-146248380D01*
X146534095Y-146200761D01*
X146486476Y-146153142D01*
X67165695Y-14040580D02*
X67737123Y-14040580D01*
X67451409Y-15040580D02*
X67451409Y-14040580D01*
X68070457Y-15040580D02*
X68070457Y-14040580D01*
X68451409Y-14040580D01*
X68546647Y-14088200D01*
X68594266Y-14135819D01*
X68641885Y-14231057D01*
X68641885Y-14373914D01*
X68594266Y-14469152D01*
X68546647Y-14516771D01*
X68451409Y-14564390D01*
X68070457Y-14564390D01*
X69546647Y-14040580D02*
X69070457Y-14040580D01*
X69022838Y-14516771D01*
X69070457Y-14469152D01*
X69165695Y-14421533D01*
X69403790Y-14421533D01*
X69499028Y-14469152D01*
X69546647Y-14516771D01*
X69594266Y-14612009D01*
X69594266Y-14850104D01*
X69546647Y-14945342D01*
X69499028Y-14992961D01*
X69403790Y-15040580D01*
X69165695Y-15040580D01*
X69070457Y-14992961D01*
X69022838Y-14945342D01*
X64117695Y-14065980D02*
X64689123Y-14065980D01*
X64403409Y-15065980D02*
X64403409Y-14065980D01*
X65022457Y-15065980D02*
X65022457Y-14065980D01*
X65403409Y-14065980D01*
X65498647Y-14113600D01*
X65546266Y-14161219D01*
X65593885Y-14256457D01*
X65593885Y-14399314D01*
X65546266Y-14494552D01*
X65498647Y-14542171D01*
X65403409Y-14589790D01*
X65022457Y-14589790D01*
X66451028Y-14065980D02*
X66260552Y-14065980D01*
X66165314Y-14113600D01*
X66117695Y-14161219D01*
X66022457Y-14304076D01*
X65974838Y-14494552D01*
X65974838Y-14875504D01*
X66022457Y-14970742D01*
X66070076Y-15018361D01*
X66165314Y-15065980D01*
X66355790Y-15065980D01*
X66451028Y-15018361D01*
X66498647Y-14970742D01*
X66546266Y-14875504D01*
X66546266Y-14637409D01*
X66498647Y-14542171D01*
X66451028Y-14494552D01*
X66355790Y-14446933D01*
X66165314Y-14446933D01*
X66070076Y-14494552D01*
X66022457Y-14542171D01*
X65974838Y-14637409D01*
X51184030Y-6541526D02*
X51756450Y-7113946D01*
X51857465Y-7147618D01*
X51924809Y-7147618D01*
X52025824Y-7113946D01*
X52160511Y-6979259D01*
X52194183Y-6878244D01*
X52194183Y-6810900D01*
X52160511Y-6709885D01*
X51588091Y-6137465D01*
X51857465Y-5868091D02*
X52295198Y-5430359D01*
X52328870Y-5935435D01*
X52429885Y-5834420D01*
X52530900Y-5800748D01*
X52598244Y-5800748D01*
X52699259Y-5834420D01*
X52867618Y-6002778D01*
X52901290Y-6103794D01*
X52901290Y-6171137D01*
X52867618Y-6272152D01*
X52665587Y-6474183D01*
X52564572Y-6507855D01*
X52497229Y-6507855D01*
M02*
