G04 #@! TF.GenerationSoftware,KiCad,Pcbnew,(5.1.6)-1*
G04 #@! TF.CreationDate,2020-11-12T22:36:03-06:00*
G04 #@! TF.ProjectId,ddr-arrow-controller,6464722d-6172-4726-9f77-2d636f6e7472,rev?*
G04 #@! TF.SameCoordinates,Original*
G04 #@! TF.FileFunction,Copper,L2,Bot*
G04 #@! TF.FilePolarity,Positive*
%FSLAX46Y46*%
G04 Gerber Fmt 4.6, Leading zero omitted, Abs format (unit mm)*
G04 Created by KiCad (PCBNEW (5.1.6)-1) date 2020-11-12 22:36:03*
%MOMM*%
%LPD*%
G01*
G04 APERTURE LIST*
G04 #@! TA.AperFunction,ComponentPad*
%ADD10O,3.700000X2.700000*%
G04 #@! TD*
G04 #@! TA.AperFunction,ComponentPad*
%ADD11R,3.700000X2.700000*%
G04 #@! TD*
G04 #@! TA.AperFunction,ComponentPad*
%ADD12O,1.750000X1.200000*%
G04 #@! TD*
G04 #@! TA.AperFunction,ComponentPad*
%ADD13R,1.750000X1.200000*%
G04 #@! TD*
G04 #@! TA.AperFunction,ComponentPad*
%ADD14O,1.200000X1.750000*%
G04 #@! TD*
G04 #@! TA.AperFunction,ComponentPad*
%ADD15R,1.200000X1.750000*%
G04 #@! TD*
G04 #@! TA.AperFunction,SMDPad,CuDef*
%ADD16C,1.000000*%
G04 #@! TD*
G04 #@! TA.AperFunction,SMDPad,CuDef*
%ADD17R,1.000000X1.000000*%
G04 #@! TD*
G04 #@! TA.AperFunction,ComponentPad*
%ADD18C,2.600000*%
G04 #@! TD*
G04 #@! TA.AperFunction,ComponentPad*
%ADD19R,2.600000X2.600000*%
G04 #@! TD*
G04 #@! TA.AperFunction,ComponentPad*
%ADD20O,1.700000X1.700000*%
G04 #@! TD*
G04 #@! TA.AperFunction,ComponentPad*
%ADD21R,1.700000X1.700000*%
G04 #@! TD*
G04 #@! TA.AperFunction,ComponentPad*
%ADD22C,7.500000*%
G04 #@! TD*
G04 #@! TA.AperFunction,ViaPad*
%ADD23C,0.800000*%
G04 #@! TD*
G04 #@! TA.AperFunction,Conductor*
%ADD24C,0.500000*%
G04 #@! TD*
G04 #@! TA.AperFunction,Conductor*
%ADD25C,0.250000*%
G04 #@! TD*
G04 #@! TA.AperFunction,Conductor*
%ADD26C,0.400000*%
G04 #@! TD*
G04 #@! TA.AperFunction,Conductor*
%ADD27C,0.254000*%
G04 #@! TD*
G04 APERTURE END LIST*
D10*
X152361000Y-16002000D03*
D11*
X157861000Y-16002000D03*
D12*
X8636000Y-83788000D03*
D13*
X8636000Y-81788000D03*
D14*
X19844000Y-8128000D03*
D15*
X21844000Y-8128000D03*
D12*
X8636000Y-91027000D03*
D13*
X8636000Y-89027000D03*
D14*
X45688000Y-162125660D03*
D15*
X43688000Y-162125660D03*
D12*
X163068000Y-49308000D03*
D13*
X163068000Y-51308000D03*
D14*
X29242000Y-8128000D03*
D15*
X31242000Y-8128000D03*
D16*
X46101000Y-11938000D03*
D17*
X48641000Y-5207000D03*
X46736000Y-2794000D03*
D16*
X46101000Y-9398000D03*
X46024800Y-6959600D03*
D17*
X139395200Y-4419600D03*
X139446000Y-6451600D03*
X64218820Y-10911840D03*
D18*
X113872000Y-5461000D03*
D19*
X118872000Y-5461000D03*
D20*
X116078000Y-13970000D03*
D21*
X113538000Y-13970000D03*
D20*
X68326000Y-10414000D03*
X68326000Y-7874000D03*
X70866000Y-10414000D03*
X70866000Y-7874000D03*
X73406000Y-10414000D03*
D21*
X73406000Y-7874000D03*
D22*
X166000000Y-166000000D03*
X6000000Y-166000000D03*
X6000000Y-6000000D03*
X166000000Y-6000000D03*
D23*
X146067600Y-9011200D03*
X146067600Y-8171200D03*
X145237600Y-9011200D03*
X145237600Y-8171200D03*
X92125800Y-5588000D03*
X100431600Y-13970000D03*
X106172000Y-9906000D03*
X145821400Y-144703800D03*
X145821400Y-84709000D03*
X145796000Y-114579400D03*
X144223740Y-14932660D03*
X145188940Y-14932660D03*
X145186400Y-15849600D03*
X144221200Y-15849600D03*
X144221200Y-16764000D03*
X145186400Y-16764000D03*
X144221200Y-17678400D03*
X145186400Y-17678400D03*
X89662000Y-22860000D03*
X60350400Y-6146800D03*
X27178000Y-14782800D03*
X25857200Y-51612800D03*
X25908000Y-81788000D03*
X25908000Y-111810800D03*
X25908000Y-141986000D03*
X27533600Y-25908000D03*
X54305200Y-25908000D03*
X57505600Y-25908000D03*
X84226400Y-25908000D03*
X87477600Y-25908000D03*
X114198400Y-25908000D03*
X117449600Y-25908000D03*
X144272000Y-25857200D03*
X117449600Y-55880000D03*
X144170400Y-55880000D03*
X57505600Y-85852000D03*
X84277200Y-85852000D03*
X117449600Y-85852000D03*
X144170400Y-85852000D03*
X27533600Y-85852000D03*
X54254400Y-85852000D03*
X87477600Y-85852000D03*
X114198400Y-85852000D03*
X27533600Y-115722400D03*
X54254400Y-115722400D03*
X87477600Y-115773200D03*
X114198400Y-115773200D03*
X27525980Y-145798540D03*
X54269640Y-145801080D03*
X87462360Y-145793460D03*
X114223800Y-145793460D03*
X5791200Y-67767200D03*
X11074400Y-47802800D03*
X53692998Y-4013200D03*
X51054000Y-4699000D03*
X50927000Y-5969000D03*
X7747220Y-34036000D03*
X4267200Y-33477200D03*
X145382060Y-5774355D03*
X149733000Y-12827000D03*
X149733000Y-11976100D03*
X11328400Y-19608800D03*
X56591200Y-14020800D03*
X19734377Y-19268625D03*
X17560410Y-24799410D03*
X19151600Y-22758400D03*
X20773468Y-19789345D03*
X29718000Y-21336000D03*
X59436000Y-19354800D03*
X48133000Y-10414000D03*
X148285200Y-7823200D03*
X143205200Y-2997200D03*
X56743600Y-12750800D03*
X25654000Y-13614400D03*
X59524900Y-10911840D03*
X21945600Y-18999199D03*
X16764000Y-29591000D03*
X76250800Y-9499600D03*
X81762600Y-11938000D03*
X55118000Y-9652000D03*
X48463200Y-7583000D03*
X47752000Y-8534400D03*
X27533600Y-55880000D03*
X54254400Y-55880000D03*
X57505600Y-55880000D03*
X84226400Y-55880000D03*
X87477600Y-55880000D03*
X114198400Y-55880000D03*
X57505600Y-115722400D03*
X84226400Y-115722400D03*
X117449600Y-115773200D03*
X144221200Y-115773200D03*
X57485280Y-145783300D03*
X84251800Y-145785840D03*
X117431820Y-145798540D03*
X144170400Y-145796000D03*
X62973858Y-6839858D03*
X85877400Y-30149800D03*
X85852000Y-60071000D03*
X85877400Y-90068400D03*
X85877400Y-119964200D03*
X85877400Y-149910800D03*
X22098000Y-27533600D03*
X23418800Y-18999200D03*
X98806000Y-15290800D03*
X88747600Y-15290800D03*
D24*
X100431600Y-13970000D02*
X92125800Y-5664200D01*
X92125800Y-5664200D02*
X92125800Y-5588000D01*
X102108000Y-13970000D02*
X106172000Y-9906000D01*
X100431600Y-13970000D02*
X102108000Y-13970000D01*
D25*
X27533600Y-25908000D02*
X54305200Y-25908000D01*
X57505600Y-25908000D02*
X84226400Y-25908000D01*
X87477600Y-25908000D02*
X114198400Y-25908000D01*
X117449600Y-25908000D02*
X144221200Y-25908000D01*
X144221200Y-25908000D02*
X144272000Y-25857200D01*
X117449600Y-55880000D02*
X144170400Y-55880000D01*
X57505600Y-85852000D02*
X84277200Y-85852000D01*
X117449600Y-85852000D02*
X144170400Y-85852000D01*
X27533600Y-85852000D02*
X54254400Y-85852000D01*
X87477600Y-85852000D02*
X114198400Y-85852000D01*
X27533600Y-115722400D02*
X54254400Y-115722400D01*
X87477600Y-115773200D02*
X114198400Y-115773200D01*
D26*
X27525980Y-145798540D02*
X54267100Y-145798540D01*
X54267100Y-145798540D02*
X54269640Y-145801080D01*
X87462360Y-145793460D02*
X114223800Y-145793460D01*
X114223800Y-145793460D02*
X114223800Y-145793460D01*
D25*
X5791200Y-86182200D02*
X8636000Y-89027000D01*
X5791200Y-67767200D02*
X5791200Y-86182200D01*
D24*
X28229560Y-162125660D02*
X43688000Y-162125660D01*
D26*
X28229560Y-162125660D02*
X20393660Y-162125660D01*
X20393660Y-162125660D02*
X11074400Y-152806400D01*
X11074400Y-152806400D02*
X11074400Y-47802800D01*
X163068000Y-51308000D02*
X160020000Y-51308000D01*
X155702000Y-25501600D02*
X155702000Y-46990000D01*
X155702000Y-46990000D02*
X160020000Y-51308000D01*
X89290798Y-4013200D02*
X105597598Y-20320000D01*
X53692998Y-4013200D02*
X89290798Y-4013200D01*
X150520400Y-20320000D02*
X155702000Y-25501600D01*
X105597598Y-20320000D02*
X150520400Y-20320000D01*
D25*
X49149000Y-2794000D02*
X46736000Y-2794000D01*
X51054000Y-4699000D02*
X49149000Y-2794000D01*
X49403000Y-5969000D02*
X48641000Y-5207000D01*
X50927000Y-5969000D02*
X49403000Y-5969000D01*
X7747220Y-34036000D02*
X4826000Y-34036000D01*
X4826000Y-34036000D02*
X4267200Y-33477200D01*
D24*
X145382060Y-5774355D02*
X147887355Y-5774355D01*
X147887355Y-5774355D02*
X148395355Y-5774355D01*
X148395355Y-5774355D02*
X149733000Y-7112000D01*
X149733000Y-7112000D02*
X149733000Y-11976100D01*
X149733000Y-11976100D02*
X149733000Y-12827000D01*
D25*
X12663001Y-18274199D02*
X11328400Y-19608800D01*
X38035399Y-18274199D02*
X12663001Y-18274199D01*
X52337801Y-18274199D02*
X38035399Y-18274199D01*
X56591200Y-14020800D02*
X52337801Y-18274199D01*
X19734377Y-19268625D02*
X17780000Y-21223002D01*
X17780000Y-21223002D02*
X17780000Y-24579820D01*
X17780000Y-24579820D02*
X17560410Y-24799410D01*
X20828000Y-19812000D02*
X20828000Y-22199600D01*
X20828000Y-22199600D02*
X20269200Y-22758400D01*
X20269200Y-22758400D02*
X19151600Y-22758400D01*
D26*
X29718000Y-21336000D02*
X57454800Y-21336000D01*
X57454800Y-21336000D02*
X59436000Y-19354800D01*
D25*
X46609000Y-11938000D02*
X46101000Y-11938000D01*
X48133000Y-10414000D02*
X46609000Y-11938000D01*
X139493756Y-6499356D02*
X139446000Y-6451600D01*
X146961356Y-6499356D02*
X139493756Y-6499356D01*
X148285200Y-7823200D02*
X146961356Y-6499356D01*
X140817600Y-2997200D02*
X139395200Y-4419600D01*
X143205200Y-2997200D02*
X140817600Y-2997200D01*
X56743600Y-12750800D02*
X55880000Y-13614400D01*
X55880000Y-13614400D02*
X25654000Y-13614400D01*
X59524900Y-10911840D02*
X63037720Y-10911840D01*
X63037720Y-10911840D02*
X64218820Y-10911840D01*
X21442990Y-20067494D02*
X21442990Y-24835810D01*
X21945600Y-19564884D02*
X21442990Y-20067494D01*
X21945600Y-18999199D02*
X21945600Y-19564884D01*
X21442990Y-24835810D02*
X21442990Y-24912010D01*
X21442990Y-24912010D02*
X16764000Y-29591000D01*
X78689200Y-11938000D02*
X81762600Y-11938000D01*
X76250800Y-9499600D02*
X78689200Y-11938000D01*
X68326000Y-7874000D02*
X56896000Y-7874000D01*
X56896000Y-7874000D02*
X55118000Y-9652000D01*
X46648200Y-7583000D02*
X46024800Y-6959600D01*
X48463200Y-7583000D02*
X46648200Y-7583000D01*
X46964600Y-8534400D02*
X46101000Y-9398000D01*
X47752000Y-8534400D02*
X46964600Y-8534400D01*
D26*
X27533600Y-55880000D02*
X54254400Y-55880000D01*
D25*
X57505600Y-55880000D02*
X84226400Y-55880000D01*
X87477600Y-55880000D02*
X114198400Y-55880000D01*
X57505600Y-115722400D02*
X84226400Y-115722400D01*
X117449600Y-115773200D02*
X144221200Y-115773200D01*
D26*
X57485280Y-145783300D02*
X84249260Y-145783300D01*
X84249260Y-145783300D02*
X84251800Y-145785840D01*
D25*
X117431820Y-145798540D02*
X144167860Y-145798540D01*
X144167860Y-145798540D02*
X144170400Y-145796000D01*
X72041001Y-7309999D02*
X70827002Y-6096000D01*
X73406000Y-10414000D02*
X72041001Y-9049001D01*
X72041001Y-9049001D02*
X72041001Y-7309999D01*
X70827002Y-6096000D02*
X63717716Y-6096000D01*
X63717716Y-6096000D02*
X62973858Y-6839858D01*
D26*
X22098000Y-27533600D02*
X22098000Y-20320000D01*
X22098000Y-20320000D02*
X23418800Y-18999200D01*
D25*
X98806000Y-15290800D02*
X88747600Y-15290800D01*
D27*
G36*
X83736144Y-26825205D02*
G01*
X83924502Y-26903226D01*
X84124461Y-26943000D01*
X84328339Y-26943000D01*
X84528298Y-26903226D01*
X84716656Y-26825205D01*
X84758868Y-26797000D01*
X86945132Y-26797000D01*
X86987344Y-26825205D01*
X87175702Y-26903226D01*
X87375661Y-26943000D01*
X87579539Y-26943000D01*
X87779498Y-26903226D01*
X87967856Y-26825205D01*
X88010068Y-26797000D01*
X93052760Y-26797000D01*
X93021626Y-55120000D01*
X88181311Y-55120000D01*
X88137374Y-55076063D01*
X87967856Y-54962795D01*
X87779498Y-54884774D01*
X87579539Y-54845000D01*
X87375661Y-54845000D01*
X87175702Y-54884774D01*
X86987344Y-54962795D01*
X86817826Y-55076063D01*
X86673663Y-55220226D01*
X86560395Y-55389744D01*
X86482374Y-55578102D01*
X86442600Y-55778061D01*
X86442600Y-55981939D01*
X86482374Y-56181898D01*
X86560395Y-56370256D01*
X86673663Y-56539774D01*
X86817826Y-56683937D01*
X86987344Y-56797205D01*
X87175702Y-56875226D01*
X87375661Y-56915000D01*
X87579539Y-56915000D01*
X87779498Y-56875226D01*
X87967856Y-56797205D01*
X88137374Y-56683937D01*
X88181311Y-56640000D01*
X93019955Y-56640000D01*
X92988679Y-85092000D01*
X88181311Y-85092000D01*
X88137374Y-85048063D01*
X87967856Y-84934795D01*
X87779498Y-84856774D01*
X87579539Y-84817000D01*
X87375661Y-84817000D01*
X87175702Y-84856774D01*
X86987344Y-84934795D01*
X86817826Y-85048063D01*
X86673663Y-85192226D01*
X86560395Y-85361744D01*
X86482374Y-85550102D01*
X86442600Y-85750061D01*
X86442600Y-85953939D01*
X86482374Y-86153898D01*
X86560395Y-86342256D01*
X86673663Y-86511774D01*
X86817826Y-86655937D01*
X86987344Y-86769205D01*
X87175702Y-86847226D01*
X87375661Y-86887000D01*
X87579539Y-86887000D01*
X87779498Y-86847226D01*
X87967856Y-86769205D01*
X88137374Y-86655937D01*
X88181311Y-86612000D01*
X92987009Y-86612000D01*
X92955789Y-115013200D01*
X88181311Y-115013200D01*
X88137374Y-114969263D01*
X87967856Y-114855995D01*
X87779498Y-114777974D01*
X87579539Y-114738200D01*
X87375661Y-114738200D01*
X87175702Y-114777974D01*
X86987344Y-114855995D01*
X86817826Y-114969263D01*
X86673663Y-115113426D01*
X86560395Y-115282944D01*
X86482374Y-115471302D01*
X86442600Y-115671261D01*
X86442600Y-115875139D01*
X86482374Y-116075098D01*
X86560395Y-116263456D01*
X86673663Y-116432974D01*
X86817826Y-116577137D01*
X86987344Y-116690405D01*
X87175702Y-116768426D01*
X87375661Y-116808200D01*
X87579539Y-116808200D01*
X87779498Y-116768426D01*
X87967856Y-116690405D01*
X88137374Y-116577137D01*
X88181311Y-116533200D01*
X92954118Y-116533200D01*
X92922871Y-144958460D01*
X88075645Y-144958460D01*
X87952616Y-144876255D01*
X87764258Y-144798234D01*
X87564299Y-144758460D01*
X87360421Y-144758460D01*
X87160462Y-144798234D01*
X86972104Y-144876255D01*
X86802586Y-144989523D01*
X86658423Y-145133686D01*
X86545155Y-145303204D01*
X86467134Y-145491562D01*
X86427360Y-145691521D01*
X86427360Y-145895399D01*
X86467134Y-146095358D01*
X86545155Y-146283716D01*
X86658423Y-146453234D01*
X86802586Y-146597397D01*
X86972104Y-146710665D01*
X87160462Y-146788686D01*
X87360421Y-146828460D01*
X87564299Y-146828460D01*
X87764258Y-146788686D01*
X87952616Y-146710665D01*
X88075645Y-146628460D01*
X92921036Y-146628460D01*
X92913340Y-153629248D01*
X78829027Y-153616773D01*
X78836021Y-146618300D01*
X83634714Y-146618300D01*
X83761544Y-146703045D01*
X83949902Y-146781066D01*
X84149861Y-146820840D01*
X84353739Y-146820840D01*
X84553698Y-146781066D01*
X84742056Y-146703045D01*
X84911574Y-146589777D01*
X85055737Y-146445614D01*
X85169005Y-146276096D01*
X85247026Y-146087738D01*
X85286800Y-145887779D01*
X85286800Y-145683901D01*
X85247026Y-145483942D01*
X85169005Y-145295584D01*
X85055737Y-145126066D01*
X84911574Y-144981903D01*
X84742056Y-144868635D01*
X84553698Y-144790614D01*
X84353739Y-144750840D01*
X84149861Y-144750840D01*
X83949902Y-144790614D01*
X83761544Y-144868635D01*
X83642317Y-144948300D01*
X78837690Y-144948300D01*
X78866140Y-116482400D01*
X83522689Y-116482400D01*
X83566626Y-116526337D01*
X83736144Y-116639605D01*
X83924502Y-116717626D01*
X84124461Y-116757400D01*
X84328339Y-116757400D01*
X84528298Y-116717626D01*
X84716656Y-116639605D01*
X84886174Y-116526337D01*
X85030337Y-116382174D01*
X85143605Y-116212656D01*
X85221626Y-116024298D01*
X85261400Y-115824339D01*
X85261400Y-115620461D01*
X85221626Y-115420502D01*
X85143605Y-115232144D01*
X85030337Y-115062626D01*
X84886174Y-114918463D01*
X84716656Y-114805195D01*
X84528298Y-114727174D01*
X84328339Y-114687400D01*
X84124461Y-114687400D01*
X83924502Y-114727174D01*
X83736144Y-114805195D01*
X83566626Y-114918463D01*
X83522689Y-114962400D01*
X78867659Y-114962400D01*
X78895993Y-86612000D01*
X83573489Y-86612000D01*
X83617426Y-86655937D01*
X83786944Y-86769205D01*
X83975302Y-86847226D01*
X84175261Y-86887000D01*
X84379139Y-86887000D01*
X84579098Y-86847226D01*
X84767456Y-86769205D01*
X84936974Y-86655937D01*
X85081137Y-86511774D01*
X85194405Y-86342256D01*
X85272426Y-86153898D01*
X85312200Y-85953939D01*
X85312200Y-85750061D01*
X85272426Y-85550102D01*
X85194405Y-85361744D01*
X85081137Y-85192226D01*
X84936974Y-85048063D01*
X84767456Y-84934795D01*
X84579098Y-84856774D01*
X84379139Y-84817000D01*
X84175261Y-84817000D01*
X83975302Y-84856774D01*
X83786944Y-84934795D01*
X83617426Y-85048063D01*
X83573489Y-85092000D01*
X78897512Y-85092000D01*
X78925947Y-56640000D01*
X83522689Y-56640000D01*
X83566626Y-56683937D01*
X83736144Y-56797205D01*
X83924502Y-56875226D01*
X84124461Y-56915000D01*
X84328339Y-56915000D01*
X84528298Y-56875226D01*
X84716656Y-56797205D01*
X84886174Y-56683937D01*
X85030337Y-56539774D01*
X85143605Y-56370256D01*
X85221626Y-56181898D01*
X85261400Y-55981939D01*
X85261400Y-55778061D01*
X85221626Y-55578102D01*
X85143605Y-55389744D01*
X85030337Y-55220226D01*
X84886174Y-55076063D01*
X84716656Y-54962795D01*
X84528298Y-54884774D01*
X84328339Y-54845000D01*
X84124461Y-54845000D01*
X83924502Y-54884774D01*
X83736144Y-54962795D01*
X83566626Y-55076063D01*
X83522689Y-55120000D01*
X78927466Y-55120000D01*
X78955773Y-26797000D01*
X83693932Y-26797000D01*
X83736144Y-26825205D01*
G37*
X83736144Y-26825205D02*
X83924502Y-26903226D01*
X84124461Y-26943000D01*
X84328339Y-26943000D01*
X84528298Y-26903226D01*
X84716656Y-26825205D01*
X84758868Y-26797000D01*
X86945132Y-26797000D01*
X86987344Y-26825205D01*
X87175702Y-26903226D01*
X87375661Y-26943000D01*
X87579539Y-26943000D01*
X87779498Y-26903226D01*
X87967856Y-26825205D01*
X88010068Y-26797000D01*
X93052760Y-26797000D01*
X93021626Y-55120000D01*
X88181311Y-55120000D01*
X88137374Y-55076063D01*
X87967856Y-54962795D01*
X87779498Y-54884774D01*
X87579539Y-54845000D01*
X87375661Y-54845000D01*
X87175702Y-54884774D01*
X86987344Y-54962795D01*
X86817826Y-55076063D01*
X86673663Y-55220226D01*
X86560395Y-55389744D01*
X86482374Y-55578102D01*
X86442600Y-55778061D01*
X86442600Y-55981939D01*
X86482374Y-56181898D01*
X86560395Y-56370256D01*
X86673663Y-56539774D01*
X86817826Y-56683937D01*
X86987344Y-56797205D01*
X87175702Y-56875226D01*
X87375661Y-56915000D01*
X87579539Y-56915000D01*
X87779498Y-56875226D01*
X87967856Y-56797205D01*
X88137374Y-56683937D01*
X88181311Y-56640000D01*
X93019955Y-56640000D01*
X92988679Y-85092000D01*
X88181311Y-85092000D01*
X88137374Y-85048063D01*
X87967856Y-84934795D01*
X87779498Y-84856774D01*
X87579539Y-84817000D01*
X87375661Y-84817000D01*
X87175702Y-84856774D01*
X86987344Y-84934795D01*
X86817826Y-85048063D01*
X86673663Y-85192226D01*
X86560395Y-85361744D01*
X86482374Y-85550102D01*
X86442600Y-85750061D01*
X86442600Y-85953939D01*
X86482374Y-86153898D01*
X86560395Y-86342256D01*
X86673663Y-86511774D01*
X86817826Y-86655937D01*
X86987344Y-86769205D01*
X87175702Y-86847226D01*
X87375661Y-86887000D01*
X87579539Y-86887000D01*
X87779498Y-86847226D01*
X87967856Y-86769205D01*
X88137374Y-86655937D01*
X88181311Y-86612000D01*
X92987009Y-86612000D01*
X92955789Y-115013200D01*
X88181311Y-115013200D01*
X88137374Y-114969263D01*
X87967856Y-114855995D01*
X87779498Y-114777974D01*
X87579539Y-114738200D01*
X87375661Y-114738200D01*
X87175702Y-114777974D01*
X86987344Y-114855995D01*
X86817826Y-114969263D01*
X86673663Y-115113426D01*
X86560395Y-115282944D01*
X86482374Y-115471302D01*
X86442600Y-115671261D01*
X86442600Y-115875139D01*
X86482374Y-116075098D01*
X86560395Y-116263456D01*
X86673663Y-116432974D01*
X86817826Y-116577137D01*
X86987344Y-116690405D01*
X87175702Y-116768426D01*
X87375661Y-116808200D01*
X87579539Y-116808200D01*
X87779498Y-116768426D01*
X87967856Y-116690405D01*
X88137374Y-116577137D01*
X88181311Y-116533200D01*
X92954118Y-116533200D01*
X92922871Y-144958460D01*
X88075645Y-144958460D01*
X87952616Y-144876255D01*
X87764258Y-144798234D01*
X87564299Y-144758460D01*
X87360421Y-144758460D01*
X87160462Y-144798234D01*
X86972104Y-144876255D01*
X86802586Y-144989523D01*
X86658423Y-145133686D01*
X86545155Y-145303204D01*
X86467134Y-145491562D01*
X86427360Y-145691521D01*
X86427360Y-145895399D01*
X86467134Y-146095358D01*
X86545155Y-146283716D01*
X86658423Y-146453234D01*
X86802586Y-146597397D01*
X86972104Y-146710665D01*
X87160462Y-146788686D01*
X87360421Y-146828460D01*
X87564299Y-146828460D01*
X87764258Y-146788686D01*
X87952616Y-146710665D01*
X88075645Y-146628460D01*
X92921036Y-146628460D01*
X92913340Y-153629248D01*
X78829027Y-153616773D01*
X78836021Y-146618300D01*
X83634714Y-146618300D01*
X83761544Y-146703045D01*
X83949902Y-146781066D01*
X84149861Y-146820840D01*
X84353739Y-146820840D01*
X84553698Y-146781066D01*
X84742056Y-146703045D01*
X84911574Y-146589777D01*
X85055737Y-146445614D01*
X85169005Y-146276096D01*
X85247026Y-146087738D01*
X85286800Y-145887779D01*
X85286800Y-145683901D01*
X85247026Y-145483942D01*
X85169005Y-145295584D01*
X85055737Y-145126066D01*
X84911574Y-144981903D01*
X84742056Y-144868635D01*
X84553698Y-144790614D01*
X84353739Y-144750840D01*
X84149861Y-144750840D01*
X83949902Y-144790614D01*
X83761544Y-144868635D01*
X83642317Y-144948300D01*
X78837690Y-144948300D01*
X78866140Y-116482400D01*
X83522689Y-116482400D01*
X83566626Y-116526337D01*
X83736144Y-116639605D01*
X83924502Y-116717626D01*
X84124461Y-116757400D01*
X84328339Y-116757400D01*
X84528298Y-116717626D01*
X84716656Y-116639605D01*
X84886174Y-116526337D01*
X85030337Y-116382174D01*
X85143605Y-116212656D01*
X85221626Y-116024298D01*
X85261400Y-115824339D01*
X85261400Y-115620461D01*
X85221626Y-115420502D01*
X85143605Y-115232144D01*
X85030337Y-115062626D01*
X84886174Y-114918463D01*
X84716656Y-114805195D01*
X84528298Y-114727174D01*
X84328339Y-114687400D01*
X84124461Y-114687400D01*
X83924502Y-114727174D01*
X83736144Y-114805195D01*
X83566626Y-114918463D01*
X83522689Y-114962400D01*
X78867659Y-114962400D01*
X78895993Y-86612000D01*
X83573489Y-86612000D01*
X83617426Y-86655937D01*
X83786944Y-86769205D01*
X83975302Y-86847226D01*
X84175261Y-86887000D01*
X84379139Y-86887000D01*
X84579098Y-86847226D01*
X84767456Y-86769205D01*
X84936974Y-86655937D01*
X85081137Y-86511774D01*
X85194405Y-86342256D01*
X85272426Y-86153898D01*
X85312200Y-85953939D01*
X85312200Y-85750061D01*
X85272426Y-85550102D01*
X85194405Y-85361744D01*
X85081137Y-85192226D01*
X84936974Y-85048063D01*
X84767456Y-84934795D01*
X84579098Y-84856774D01*
X84379139Y-84817000D01*
X84175261Y-84817000D01*
X83975302Y-84856774D01*
X83786944Y-84934795D01*
X83617426Y-85048063D01*
X83573489Y-85092000D01*
X78897512Y-85092000D01*
X78925947Y-56640000D01*
X83522689Y-56640000D01*
X83566626Y-56683937D01*
X83736144Y-56797205D01*
X83924502Y-56875226D01*
X84124461Y-56915000D01*
X84328339Y-56915000D01*
X84528298Y-56875226D01*
X84716656Y-56797205D01*
X84886174Y-56683937D01*
X85030337Y-56539774D01*
X85143605Y-56370256D01*
X85221626Y-56181898D01*
X85261400Y-55981939D01*
X85261400Y-55778061D01*
X85221626Y-55578102D01*
X85143605Y-55389744D01*
X85030337Y-55220226D01*
X84886174Y-55076063D01*
X84716656Y-54962795D01*
X84528298Y-54884774D01*
X84328339Y-54845000D01*
X84124461Y-54845000D01*
X83924502Y-54884774D01*
X83736144Y-54962795D01*
X83566626Y-55076063D01*
X83522689Y-55120000D01*
X78927466Y-55120000D01*
X78955773Y-26797000D01*
X83693932Y-26797000D01*
X83736144Y-26825205D01*
G36*
X77597000Y-3178200D02*
G01*
X54306283Y-3178200D01*
X54183254Y-3095995D01*
X53994896Y-3017974D01*
X53794937Y-2978200D01*
X53591059Y-2978200D01*
X53391100Y-3017974D01*
X53202742Y-3095995D01*
X53033224Y-3209263D01*
X52889061Y-3353426D01*
X52775793Y-3522944D01*
X52697772Y-3711302D01*
X52657998Y-3911261D01*
X52657998Y-4115139D01*
X52697772Y-4315098D01*
X52775793Y-4503456D01*
X52889061Y-4672974D01*
X53033224Y-4817137D01*
X53202742Y-4930405D01*
X53391100Y-5008426D01*
X53591059Y-5048200D01*
X53794937Y-5048200D01*
X53994896Y-5008426D01*
X54183254Y-4930405D01*
X54306283Y-4848200D01*
X77597000Y-4848200D01*
X77597000Y-9770999D01*
X77285800Y-9459799D01*
X77285800Y-9397661D01*
X77246026Y-9197702D01*
X77168005Y-9009344D01*
X77054737Y-8839826D01*
X76910574Y-8695663D01*
X76741056Y-8582395D01*
X76552698Y-8504374D01*
X76352739Y-8464600D01*
X76148861Y-8464600D01*
X75948902Y-8504374D01*
X75760544Y-8582395D01*
X75591026Y-8695663D01*
X75446863Y-8839826D01*
X75333595Y-9009344D01*
X75255574Y-9197702D01*
X75215800Y-9397661D01*
X75215800Y-9601539D01*
X75255574Y-9801498D01*
X75333595Y-9989856D01*
X75446863Y-10159374D01*
X75591026Y-10303537D01*
X75760544Y-10416805D01*
X75948902Y-10494826D01*
X76148861Y-10534600D01*
X76210999Y-10534600D01*
X77597000Y-11920602D01*
X77597000Y-25148000D01*
X58209311Y-25148000D01*
X58165374Y-25104063D01*
X57995856Y-24990795D01*
X57807498Y-24912774D01*
X57607539Y-24873000D01*
X57403661Y-24873000D01*
X57203702Y-24912774D01*
X57015344Y-24990795D01*
X56845826Y-25104063D01*
X56701663Y-25248226D01*
X56588395Y-25417744D01*
X56510374Y-25606102D01*
X56470600Y-25806061D01*
X56470600Y-26009939D01*
X56510374Y-26209898D01*
X56588395Y-26398256D01*
X56701663Y-26567774D01*
X56845826Y-26711937D01*
X57015344Y-26825205D01*
X57203702Y-26903226D01*
X57403661Y-26943000D01*
X57607539Y-26943000D01*
X57807498Y-26903226D01*
X57995856Y-26825205D01*
X58165374Y-26711937D01*
X58209311Y-26668000D01*
X77597000Y-26668000D01*
X77597000Y-55120000D01*
X58209311Y-55120000D01*
X58165374Y-55076063D01*
X57995856Y-54962795D01*
X57807498Y-54884774D01*
X57607539Y-54845000D01*
X57403661Y-54845000D01*
X57203702Y-54884774D01*
X57015344Y-54962795D01*
X56845826Y-55076063D01*
X56701663Y-55220226D01*
X56588395Y-55389744D01*
X56510374Y-55578102D01*
X56470600Y-55778061D01*
X56470600Y-55981939D01*
X56510374Y-56181898D01*
X56588395Y-56370256D01*
X56701663Y-56539774D01*
X56845826Y-56683937D01*
X57015344Y-56797205D01*
X57203702Y-56875226D01*
X57403661Y-56915000D01*
X57607539Y-56915000D01*
X57807498Y-56875226D01*
X57995856Y-56797205D01*
X58165374Y-56683937D01*
X58209311Y-56640000D01*
X77597000Y-56640000D01*
X77597000Y-85092000D01*
X58209311Y-85092000D01*
X58165374Y-85048063D01*
X57995856Y-84934795D01*
X57807498Y-84856774D01*
X57607539Y-84817000D01*
X57403661Y-84817000D01*
X57203702Y-84856774D01*
X57015344Y-84934795D01*
X56845826Y-85048063D01*
X56701663Y-85192226D01*
X56588395Y-85361744D01*
X56510374Y-85550102D01*
X56470600Y-85750061D01*
X56470600Y-85953939D01*
X56510374Y-86153898D01*
X56588395Y-86342256D01*
X56701663Y-86511774D01*
X56845826Y-86655937D01*
X57015344Y-86769205D01*
X57203702Y-86847226D01*
X57403661Y-86887000D01*
X57607539Y-86887000D01*
X57807498Y-86847226D01*
X57995856Y-86769205D01*
X58165374Y-86655937D01*
X58209311Y-86612000D01*
X77597000Y-86612000D01*
X77597000Y-114962400D01*
X58209311Y-114962400D01*
X58165374Y-114918463D01*
X57995856Y-114805195D01*
X57807498Y-114727174D01*
X57607539Y-114687400D01*
X57403661Y-114687400D01*
X57203702Y-114727174D01*
X57015344Y-114805195D01*
X56845826Y-114918463D01*
X56701663Y-115062626D01*
X56588395Y-115232144D01*
X56510374Y-115420502D01*
X56470600Y-115620461D01*
X56470600Y-115824339D01*
X56510374Y-116024298D01*
X56588395Y-116212656D01*
X56701663Y-116382174D01*
X56845826Y-116526337D01*
X57015344Y-116639605D01*
X57203702Y-116717626D01*
X57403661Y-116757400D01*
X57607539Y-116757400D01*
X57807498Y-116717626D01*
X57995856Y-116639605D01*
X58165374Y-116526337D01*
X58209311Y-116482400D01*
X77597000Y-116482400D01*
X77597000Y-144948300D01*
X58098565Y-144948300D01*
X57975536Y-144866095D01*
X57787178Y-144788074D01*
X57587219Y-144748300D01*
X57383341Y-144748300D01*
X57183382Y-144788074D01*
X56995024Y-144866095D01*
X56825506Y-144979363D01*
X56681343Y-145123526D01*
X56568075Y-145293044D01*
X56490054Y-145481402D01*
X56450280Y-145681361D01*
X56450280Y-145885239D01*
X56490054Y-146085198D01*
X56568075Y-146273556D01*
X56681343Y-146443074D01*
X56825506Y-146587237D01*
X56995024Y-146700505D01*
X57183382Y-146778526D01*
X57383341Y-146818300D01*
X57587219Y-146818300D01*
X57787178Y-146778526D01*
X57975536Y-146700505D01*
X58098565Y-146618300D01*
X77597000Y-146618300D01*
X77597000Y-171290000D01*
X6029142Y-171290000D01*
X5136394Y-171216603D01*
X4295990Y-171005509D01*
X3501336Y-170659983D01*
X2773794Y-170189315D01*
X2132890Y-169606136D01*
X1595841Y-168926115D01*
X1177068Y-168167507D01*
X887819Y-167350692D01*
X733677Y-166485344D01*
X710000Y-165983265D01*
X710000Y-165568115D01*
X1615000Y-165568115D01*
X1615000Y-166431885D01*
X1783513Y-167279057D01*
X2114064Y-168077076D01*
X2593948Y-168795274D01*
X3204726Y-169406052D01*
X3922924Y-169885936D01*
X4720943Y-170216487D01*
X5568115Y-170385000D01*
X6431885Y-170385000D01*
X7279057Y-170216487D01*
X8077076Y-169885936D01*
X8795274Y-169406052D01*
X9406052Y-168795274D01*
X9885936Y-168077076D01*
X10216487Y-167279057D01*
X10385000Y-166431885D01*
X10385000Y-165568115D01*
X10216487Y-164720943D01*
X9885936Y-163922924D01*
X9406052Y-163204726D01*
X8795274Y-162593948D01*
X8077076Y-162114064D01*
X7279057Y-161783513D01*
X6431885Y-161615000D01*
X5568115Y-161615000D01*
X4720943Y-161783513D01*
X3922924Y-162114064D01*
X3204726Y-162593948D01*
X2593948Y-163204726D01*
X2114064Y-163922924D01*
X1783513Y-164720943D01*
X1615000Y-165568115D01*
X710000Y-165568115D01*
X710000Y-91344609D01*
X7167538Y-91344609D01*
X7171409Y-91382282D01*
X7263579Y-91607533D01*
X7397922Y-91810474D01*
X7569275Y-91983307D01*
X7771054Y-92119390D01*
X7995504Y-92213493D01*
X8234000Y-92262000D01*
X8509000Y-92262000D01*
X8509000Y-91154000D01*
X8763000Y-91154000D01*
X8763000Y-92262000D01*
X9038000Y-92262000D01*
X9276496Y-92213493D01*
X9500946Y-92119390D01*
X9702725Y-91983307D01*
X9874078Y-91810474D01*
X10008421Y-91607533D01*
X10100591Y-91382282D01*
X10104462Y-91344609D01*
X9979731Y-91154000D01*
X8763000Y-91154000D01*
X8509000Y-91154000D01*
X7292269Y-91154000D01*
X7167538Y-91344609D01*
X710000Y-91344609D01*
X710000Y-67665261D01*
X4756200Y-67665261D01*
X4756200Y-67869139D01*
X4795974Y-68069098D01*
X4873995Y-68257456D01*
X4987263Y-68426974D01*
X5031200Y-68470911D01*
X5031201Y-86144867D01*
X5027524Y-86182200D01*
X5042198Y-86331185D01*
X5085654Y-86474446D01*
X5156226Y-86606476D01*
X5227401Y-86693202D01*
X5251200Y-86722201D01*
X5280198Y-86745999D01*
X7122928Y-88588730D01*
X7122928Y-89627000D01*
X7135188Y-89751482D01*
X7171498Y-89871180D01*
X7230463Y-89981494D01*
X7309815Y-90078185D01*
X7406506Y-90157537D01*
X7456618Y-90184323D01*
X7397922Y-90243526D01*
X7263579Y-90446467D01*
X7171409Y-90671718D01*
X7167538Y-90709391D01*
X7292269Y-90900000D01*
X8509000Y-90900000D01*
X8509000Y-90880000D01*
X8763000Y-90880000D01*
X8763000Y-90900000D01*
X9979731Y-90900000D01*
X10104462Y-90709391D01*
X10100591Y-90671718D01*
X10008421Y-90446467D01*
X9874078Y-90243526D01*
X9815382Y-90184323D01*
X9865494Y-90157537D01*
X9962185Y-90078185D01*
X10041537Y-89981494D01*
X10100502Y-89871180D01*
X10136812Y-89751482D01*
X10149072Y-89627000D01*
X10149072Y-88427000D01*
X10136812Y-88302518D01*
X10100502Y-88182820D01*
X10041537Y-88072506D01*
X9962185Y-87975815D01*
X9865494Y-87896463D01*
X9755180Y-87837498D01*
X9635482Y-87801188D01*
X9511000Y-87788928D01*
X8472730Y-87788928D01*
X6551200Y-85867399D01*
X6551200Y-83788000D01*
X7120025Y-83788000D01*
X7143870Y-84030102D01*
X7214489Y-84262901D01*
X7329167Y-84477449D01*
X7483498Y-84665502D01*
X7671551Y-84819833D01*
X7886099Y-84934511D01*
X8118898Y-85005130D01*
X8300335Y-85023000D01*
X8971665Y-85023000D01*
X9153102Y-85005130D01*
X9385901Y-84934511D01*
X9600449Y-84819833D01*
X9788502Y-84665502D01*
X9942833Y-84477449D01*
X10057511Y-84262901D01*
X10128130Y-84030102D01*
X10151975Y-83788000D01*
X10128130Y-83545898D01*
X10057511Y-83313099D01*
X9942833Y-83098551D01*
X9816564Y-82944691D01*
X9865494Y-82918537D01*
X9962185Y-82839185D01*
X10041537Y-82742494D01*
X10100502Y-82632180D01*
X10136812Y-82512482D01*
X10149072Y-82388000D01*
X10149072Y-81188000D01*
X10136812Y-81063518D01*
X10100502Y-80943820D01*
X10041537Y-80833506D01*
X9962185Y-80736815D01*
X9865494Y-80657463D01*
X9755180Y-80598498D01*
X9635482Y-80562188D01*
X9511000Y-80549928D01*
X7761000Y-80549928D01*
X7636518Y-80562188D01*
X7516820Y-80598498D01*
X7406506Y-80657463D01*
X7309815Y-80736815D01*
X7230463Y-80833506D01*
X7171498Y-80943820D01*
X7135188Y-81063518D01*
X7122928Y-81188000D01*
X7122928Y-82388000D01*
X7135188Y-82512482D01*
X7171498Y-82632180D01*
X7230463Y-82742494D01*
X7309815Y-82839185D01*
X7406506Y-82918537D01*
X7455436Y-82944691D01*
X7329167Y-83098551D01*
X7214489Y-83313099D01*
X7143870Y-83545898D01*
X7120025Y-83788000D01*
X6551200Y-83788000D01*
X6551200Y-68470911D01*
X6595137Y-68426974D01*
X6708405Y-68257456D01*
X6786426Y-68069098D01*
X6826200Y-67869139D01*
X6826200Y-67665261D01*
X6786426Y-67465302D01*
X6708405Y-67276944D01*
X6595137Y-67107426D01*
X6450974Y-66963263D01*
X6281456Y-66849995D01*
X6093098Y-66771974D01*
X5893139Y-66732200D01*
X5689261Y-66732200D01*
X5489302Y-66771974D01*
X5300944Y-66849995D01*
X5131426Y-66963263D01*
X4987263Y-67107426D01*
X4873995Y-67276944D01*
X4795974Y-67465302D01*
X4756200Y-67665261D01*
X710000Y-67665261D01*
X710000Y-47700861D01*
X10039400Y-47700861D01*
X10039400Y-47904739D01*
X10079174Y-48104698D01*
X10157195Y-48293056D01*
X10239401Y-48416086D01*
X10239400Y-152765382D01*
X10235360Y-152806400D01*
X10239400Y-152847418D01*
X10251482Y-152970088D01*
X10299228Y-153127486D01*
X10376764Y-153272545D01*
X10481109Y-153399691D01*
X10512979Y-153425846D01*
X19774223Y-162687092D01*
X19800369Y-162718951D01*
X19832228Y-162745097D01*
X19832230Y-162745099D01*
X19927514Y-162823296D01*
X20072573Y-162900832D01*
X20229971Y-162948578D01*
X20393660Y-162964700D01*
X20434678Y-162960660D01*
X27933456Y-162960660D01*
X28056070Y-162997855D01*
X28186083Y-163010660D01*
X42450913Y-163010660D01*
X42462188Y-163125142D01*
X42498498Y-163244840D01*
X42557463Y-163355154D01*
X42636815Y-163451845D01*
X42733506Y-163531197D01*
X42843820Y-163590162D01*
X42963518Y-163626472D01*
X43088000Y-163638732D01*
X44288000Y-163638732D01*
X44412482Y-163626472D01*
X44532180Y-163590162D01*
X44642494Y-163531197D01*
X44739185Y-163451845D01*
X44818537Y-163355154D01*
X44845323Y-163305042D01*
X44904526Y-163363738D01*
X45107467Y-163498081D01*
X45332718Y-163590251D01*
X45370391Y-163594122D01*
X45561000Y-163469391D01*
X45561000Y-162252660D01*
X45815000Y-162252660D01*
X45815000Y-163469391D01*
X46005609Y-163594122D01*
X46043282Y-163590251D01*
X46268533Y-163498081D01*
X46471474Y-163363738D01*
X46644307Y-163192385D01*
X46780390Y-162990606D01*
X46874493Y-162766156D01*
X46923000Y-162527660D01*
X46923000Y-162252660D01*
X45815000Y-162252660D01*
X45561000Y-162252660D01*
X45541000Y-162252660D01*
X45541000Y-161998660D01*
X45561000Y-161998660D01*
X45561000Y-160781929D01*
X45815000Y-160781929D01*
X45815000Y-161998660D01*
X46923000Y-161998660D01*
X46923000Y-161723660D01*
X46874493Y-161485164D01*
X46780390Y-161260714D01*
X46644307Y-161058935D01*
X46471474Y-160887582D01*
X46268533Y-160753239D01*
X46043282Y-160661069D01*
X46005609Y-160657198D01*
X45815000Y-160781929D01*
X45561000Y-160781929D01*
X45370391Y-160657198D01*
X45332718Y-160661069D01*
X45107467Y-160753239D01*
X44904526Y-160887582D01*
X44845323Y-160946278D01*
X44818537Y-160896166D01*
X44739185Y-160799475D01*
X44642494Y-160720123D01*
X44532180Y-160661158D01*
X44412482Y-160624848D01*
X44288000Y-160612588D01*
X43088000Y-160612588D01*
X42963518Y-160624848D01*
X42843820Y-160661158D01*
X42733506Y-160720123D01*
X42636815Y-160799475D01*
X42557463Y-160896166D01*
X42498498Y-161006480D01*
X42462188Y-161126178D01*
X42450913Y-161240660D01*
X28186083Y-161240660D01*
X28056070Y-161253465D01*
X27933456Y-161290660D01*
X20739529Y-161290660D01*
X11909400Y-152460533D01*
X11909400Y-145696601D01*
X26490980Y-145696601D01*
X26490980Y-145900479D01*
X26530754Y-146100438D01*
X26608775Y-146288796D01*
X26722043Y-146458314D01*
X26866206Y-146602477D01*
X27035724Y-146715745D01*
X27224082Y-146793766D01*
X27424041Y-146833540D01*
X27627919Y-146833540D01*
X27827878Y-146793766D01*
X28016236Y-146715745D01*
X28139265Y-146633540D01*
X53652554Y-146633540D01*
X53779384Y-146718285D01*
X53967742Y-146796306D01*
X54167701Y-146836080D01*
X54371579Y-146836080D01*
X54571538Y-146796306D01*
X54759896Y-146718285D01*
X54929414Y-146605017D01*
X55073577Y-146460854D01*
X55186845Y-146291336D01*
X55264866Y-146102978D01*
X55304640Y-145903019D01*
X55304640Y-145699141D01*
X55264866Y-145499182D01*
X55186845Y-145310824D01*
X55073577Y-145141306D01*
X54929414Y-144997143D01*
X54759896Y-144883875D01*
X54571538Y-144805854D01*
X54371579Y-144766080D01*
X54167701Y-144766080D01*
X53967742Y-144805854D01*
X53779384Y-144883875D01*
X53660157Y-144963540D01*
X28139265Y-144963540D01*
X28016236Y-144881335D01*
X27827878Y-144803314D01*
X27627919Y-144763540D01*
X27424041Y-144763540D01*
X27224082Y-144803314D01*
X27035724Y-144881335D01*
X26866206Y-144994603D01*
X26722043Y-145138766D01*
X26608775Y-145308284D01*
X26530754Y-145496642D01*
X26490980Y-145696601D01*
X11909400Y-145696601D01*
X11909400Y-115620461D01*
X26498600Y-115620461D01*
X26498600Y-115824339D01*
X26538374Y-116024298D01*
X26616395Y-116212656D01*
X26729663Y-116382174D01*
X26873826Y-116526337D01*
X27043344Y-116639605D01*
X27231702Y-116717626D01*
X27431661Y-116757400D01*
X27635539Y-116757400D01*
X27835498Y-116717626D01*
X28023856Y-116639605D01*
X28193374Y-116526337D01*
X28237311Y-116482400D01*
X53550689Y-116482400D01*
X53594626Y-116526337D01*
X53764144Y-116639605D01*
X53952502Y-116717626D01*
X54152461Y-116757400D01*
X54356339Y-116757400D01*
X54556298Y-116717626D01*
X54744656Y-116639605D01*
X54914174Y-116526337D01*
X55058337Y-116382174D01*
X55171605Y-116212656D01*
X55249626Y-116024298D01*
X55289400Y-115824339D01*
X55289400Y-115620461D01*
X55249626Y-115420502D01*
X55171605Y-115232144D01*
X55058337Y-115062626D01*
X54914174Y-114918463D01*
X54744656Y-114805195D01*
X54556298Y-114727174D01*
X54356339Y-114687400D01*
X54152461Y-114687400D01*
X53952502Y-114727174D01*
X53764144Y-114805195D01*
X53594626Y-114918463D01*
X53550689Y-114962400D01*
X28237311Y-114962400D01*
X28193374Y-114918463D01*
X28023856Y-114805195D01*
X27835498Y-114727174D01*
X27635539Y-114687400D01*
X27431661Y-114687400D01*
X27231702Y-114727174D01*
X27043344Y-114805195D01*
X26873826Y-114918463D01*
X26729663Y-115062626D01*
X26616395Y-115232144D01*
X26538374Y-115420502D01*
X26498600Y-115620461D01*
X11909400Y-115620461D01*
X11909400Y-85750061D01*
X26498600Y-85750061D01*
X26498600Y-85953939D01*
X26538374Y-86153898D01*
X26616395Y-86342256D01*
X26729663Y-86511774D01*
X26873826Y-86655937D01*
X27043344Y-86769205D01*
X27231702Y-86847226D01*
X27431661Y-86887000D01*
X27635539Y-86887000D01*
X27835498Y-86847226D01*
X28023856Y-86769205D01*
X28193374Y-86655937D01*
X28237311Y-86612000D01*
X53550689Y-86612000D01*
X53594626Y-86655937D01*
X53764144Y-86769205D01*
X53952502Y-86847226D01*
X54152461Y-86887000D01*
X54356339Y-86887000D01*
X54556298Y-86847226D01*
X54744656Y-86769205D01*
X54914174Y-86655937D01*
X55058337Y-86511774D01*
X55171605Y-86342256D01*
X55249626Y-86153898D01*
X55289400Y-85953939D01*
X55289400Y-85750061D01*
X55249626Y-85550102D01*
X55171605Y-85361744D01*
X55058337Y-85192226D01*
X54914174Y-85048063D01*
X54744656Y-84934795D01*
X54556298Y-84856774D01*
X54356339Y-84817000D01*
X54152461Y-84817000D01*
X53952502Y-84856774D01*
X53764144Y-84934795D01*
X53594626Y-85048063D01*
X53550689Y-85092000D01*
X28237311Y-85092000D01*
X28193374Y-85048063D01*
X28023856Y-84934795D01*
X27835498Y-84856774D01*
X27635539Y-84817000D01*
X27431661Y-84817000D01*
X27231702Y-84856774D01*
X27043344Y-84934795D01*
X26873826Y-85048063D01*
X26729663Y-85192226D01*
X26616395Y-85361744D01*
X26538374Y-85550102D01*
X26498600Y-85750061D01*
X11909400Y-85750061D01*
X11909400Y-55778061D01*
X26498600Y-55778061D01*
X26498600Y-55981939D01*
X26538374Y-56181898D01*
X26616395Y-56370256D01*
X26729663Y-56539774D01*
X26873826Y-56683937D01*
X27043344Y-56797205D01*
X27231702Y-56875226D01*
X27431661Y-56915000D01*
X27635539Y-56915000D01*
X27835498Y-56875226D01*
X28023856Y-56797205D01*
X28146885Y-56715000D01*
X53641115Y-56715000D01*
X53764144Y-56797205D01*
X53952502Y-56875226D01*
X54152461Y-56915000D01*
X54356339Y-56915000D01*
X54556298Y-56875226D01*
X54744656Y-56797205D01*
X54914174Y-56683937D01*
X55058337Y-56539774D01*
X55171605Y-56370256D01*
X55249626Y-56181898D01*
X55289400Y-55981939D01*
X55289400Y-55778061D01*
X55249626Y-55578102D01*
X55171605Y-55389744D01*
X55058337Y-55220226D01*
X54914174Y-55076063D01*
X54744656Y-54962795D01*
X54556298Y-54884774D01*
X54356339Y-54845000D01*
X54152461Y-54845000D01*
X53952502Y-54884774D01*
X53764144Y-54962795D01*
X53641115Y-55045000D01*
X28146885Y-55045000D01*
X28023856Y-54962795D01*
X27835498Y-54884774D01*
X27635539Y-54845000D01*
X27431661Y-54845000D01*
X27231702Y-54884774D01*
X27043344Y-54962795D01*
X26873826Y-55076063D01*
X26729663Y-55220226D01*
X26616395Y-55389744D01*
X26538374Y-55578102D01*
X26498600Y-55778061D01*
X11909400Y-55778061D01*
X11909400Y-48416085D01*
X11991605Y-48293056D01*
X12069626Y-48104698D01*
X12109400Y-47904739D01*
X12109400Y-47700861D01*
X12069626Y-47500902D01*
X11991605Y-47312544D01*
X11878337Y-47143026D01*
X11734174Y-46998863D01*
X11564656Y-46885595D01*
X11376298Y-46807574D01*
X11176339Y-46767800D01*
X10972461Y-46767800D01*
X10772502Y-46807574D01*
X10584144Y-46885595D01*
X10414626Y-46998863D01*
X10270463Y-47143026D01*
X10157195Y-47312544D01*
X10079174Y-47500902D01*
X10039400Y-47700861D01*
X710000Y-47700861D01*
X710000Y-33375261D01*
X3232200Y-33375261D01*
X3232200Y-33579139D01*
X3271974Y-33779098D01*
X3349995Y-33967456D01*
X3463263Y-34136974D01*
X3607426Y-34281137D01*
X3776944Y-34394405D01*
X3965302Y-34472426D01*
X4165261Y-34512200D01*
X4227398Y-34512200D01*
X4262200Y-34547002D01*
X4285999Y-34576001D01*
X4314997Y-34599799D01*
X4401724Y-34670974D01*
X4533753Y-34741546D01*
X4677014Y-34785003D01*
X4826000Y-34799677D01*
X4863333Y-34796000D01*
X7043509Y-34796000D01*
X7087446Y-34839937D01*
X7256964Y-34953205D01*
X7445322Y-35031226D01*
X7645281Y-35071000D01*
X7849159Y-35071000D01*
X8049118Y-35031226D01*
X8237476Y-34953205D01*
X8406994Y-34839937D01*
X8551157Y-34695774D01*
X8664425Y-34526256D01*
X8742446Y-34337898D01*
X8782220Y-34137939D01*
X8782220Y-33934061D01*
X8742446Y-33734102D01*
X8664425Y-33545744D01*
X8551157Y-33376226D01*
X8406994Y-33232063D01*
X8237476Y-33118795D01*
X8049118Y-33040774D01*
X7849159Y-33001000D01*
X7645281Y-33001000D01*
X7445322Y-33040774D01*
X7256964Y-33118795D01*
X7087446Y-33232063D01*
X7043509Y-33276000D01*
X5282456Y-33276000D01*
X5262426Y-33175302D01*
X5184405Y-32986944D01*
X5071137Y-32817426D01*
X4926974Y-32673263D01*
X4757456Y-32559995D01*
X4569098Y-32481974D01*
X4369139Y-32442200D01*
X4165261Y-32442200D01*
X3965302Y-32481974D01*
X3776944Y-32559995D01*
X3607426Y-32673263D01*
X3463263Y-32817426D01*
X3349995Y-32986944D01*
X3271974Y-33175302D01*
X3232200Y-33375261D01*
X710000Y-33375261D01*
X710000Y-19506861D01*
X10293400Y-19506861D01*
X10293400Y-19710739D01*
X10333174Y-19910698D01*
X10411195Y-20099056D01*
X10524463Y-20268574D01*
X10668626Y-20412737D01*
X10838144Y-20526005D01*
X11026502Y-20604026D01*
X11226461Y-20643800D01*
X11430339Y-20643800D01*
X11630298Y-20604026D01*
X11818656Y-20526005D01*
X11988174Y-20412737D01*
X12132337Y-20268574D01*
X12245605Y-20099056D01*
X12323626Y-19910698D01*
X12363400Y-19710739D01*
X12363400Y-19648601D01*
X12977803Y-19034199D01*
X18725730Y-19034199D01*
X18699377Y-19166686D01*
X18699377Y-19228823D01*
X17269002Y-20659198D01*
X17239999Y-20683001D01*
X17190998Y-20742709D01*
X17145026Y-20798726D01*
X17083790Y-20913290D01*
X17074454Y-20930756D01*
X17030997Y-21074017D01*
X17020000Y-21185670D01*
X17020000Y-21185680D01*
X17016324Y-21223002D01*
X17020000Y-21260325D01*
X17020001Y-23915716D01*
X16900636Y-23995473D01*
X16756473Y-24139636D01*
X16643205Y-24309154D01*
X16565184Y-24497512D01*
X16525410Y-24697471D01*
X16525410Y-24901349D01*
X16565184Y-25101308D01*
X16643205Y-25289666D01*
X16756473Y-25459184D01*
X16900636Y-25603347D01*
X17070154Y-25716615D01*
X17258512Y-25794636D01*
X17458471Y-25834410D01*
X17662349Y-25834410D01*
X17862308Y-25794636D01*
X18050666Y-25716615D01*
X18220184Y-25603347D01*
X18364347Y-25459184D01*
X18477615Y-25289666D01*
X18555636Y-25101308D01*
X18595410Y-24901349D01*
X18595410Y-24697471D01*
X18555636Y-24497512D01*
X18540000Y-24459764D01*
X18540000Y-23594526D01*
X18661344Y-23675605D01*
X18849702Y-23753626D01*
X19049661Y-23793400D01*
X19253539Y-23793400D01*
X19453498Y-23753626D01*
X19641856Y-23675605D01*
X19811374Y-23562337D01*
X19855311Y-23518400D01*
X20231878Y-23518400D01*
X20269200Y-23522076D01*
X20306522Y-23518400D01*
X20306533Y-23518400D01*
X20418186Y-23507403D01*
X20561447Y-23463946D01*
X20682991Y-23398979D01*
X20682991Y-24597207D01*
X16724199Y-28556000D01*
X16662061Y-28556000D01*
X16462102Y-28595774D01*
X16273744Y-28673795D01*
X16104226Y-28787063D01*
X15960063Y-28931226D01*
X15846795Y-29100744D01*
X15768774Y-29289102D01*
X15729000Y-29489061D01*
X15729000Y-29692939D01*
X15768774Y-29892898D01*
X15846795Y-30081256D01*
X15960063Y-30250774D01*
X16104226Y-30394937D01*
X16273744Y-30508205D01*
X16462102Y-30586226D01*
X16662061Y-30626000D01*
X16865939Y-30626000D01*
X17065898Y-30586226D01*
X17254256Y-30508205D01*
X17423774Y-30394937D01*
X17567937Y-30250774D01*
X17681205Y-30081256D01*
X17759226Y-29892898D01*
X17799000Y-29692939D01*
X17799000Y-29630801D01*
X21263000Y-26166802D01*
X21263000Y-26920315D01*
X21180795Y-27043344D01*
X21102774Y-27231702D01*
X21063000Y-27431661D01*
X21063000Y-27635539D01*
X21102774Y-27835498D01*
X21180795Y-28023856D01*
X21294063Y-28193374D01*
X21438226Y-28337537D01*
X21607744Y-28450805D01*
X21796102Y-28528826D01*
X21996061Y-28568600D01*
X22199939Y-28568600D01*
X22399898Y-28528826D01*
X22588256Y-28450805D01*
X22757774Y-28337537D01*
X22901937Y-28193374D01*
X23015205Y-28023856D01*
X23093226Y-27835498D01*
X23133000Y-27635539D01*
X23133000Y-27431661D01*
X23093226Y-27231702D01*
X23015205Y-27043344D01*
X22933000Y-26920315D01*
X22933000Y-25806061D01*
X26498600Y-25806061D01*
X26498600Y-26009939D01*
X26538374Y-26209898D01*
X26616395Y-26398256D01*
X26729663Y-26567774D01*
X26873826Y-26711937D01*
X27043344Y-26825205D01*
X27231702Y-26903226D01*
X27431661Y-26943000D01*
X27635539Y-26943000D01*
X27835498Y-26903226D01*
X28023856Y-26825205D01*
X28193374Y-26711937D01*
X28237311Y-26668000D01*
X53601489Y-26668000D01*
X53645426Y-26711937D01*
X53814944Y-26825205D01*
X54003302Y-26903226D01*
X54203261Y-26943000D01*
X54407139Y-26943000D01*
X54607098Y-26903226D01*
X54795456Y-26825205D01*
X54964974Y-26711937D01*
X55109137Y-26567774D01*
X55222405Y-26398256D01*
X55300426Y-26209898D01*
X55340200Y-26009939D01*
X55340200Y-25806061D01*
X55300426Y-25606102D01*
X55222405Y-25417744D01*
X55109137Y-25248226D01*
X54964974Y-25104063D01*
X54795456Y-24990795D01*
X54607098Y-24912774D01*
X54407139Y-24873000D01*
X54203261Y-24873000D01*
X54003302Y-24912774D01*
X53814944Y-24990795D01*
X53645426Y-25104063D01*
X53601489Y-25148000D01*
X28237311Y-25148000D01*
X28193374Y-25104063D01*
X28023856Y-24990795D01*
X27835498Y-24912774D01*
X27635539Y-24873000D01*
X27431661Y-24873000D01*
X27231702Y-24912774D01*
X27043344Y-24990795D01*
X26873826Y-25104063D01*
X26729663Y-25248226D01*
X26616395Y-25417744D01*
X26538374Y-25606102D01*
X26498600Y-25806061D01*
X22933000Y-25806061D01*
X22933000Y-21234061D01*
X28683000Y-21234061D01*
X28683000Y-21437939D01*
X28722774Y-21637898D01*
X28800795Y-21826256D01*
X28914063Y-21995774D01*
X29058226Y-22139937D01*
X29227744Y-22253205D01*
X29416102Y-22331226D01*
X29616061Y-22371000D01*
X29819939Y-22371000D01*
X30019898Y-22331226D01*
X30208256Y-22253205D01*
X30331285Y-22171000D01*
X57413782Y-22171000D01*
X57454800Y-22175040D01*
X57495818Y-22171000D01*
X57495819Y-22171000D01*
X57618489Y-22158918D01*
X57775887Y-22111172D01*
X57920946Y-22033636D01*
X58048091Y-21929291D01*
X58074246Y-21897421D01*
X59592776Y-20378892D01*
X59737898Y-20350026D01*
X59926256Y-20272005D01*
X60095774Y-20158737D01*
X60239937Y-20014574D01*
X60353205Y-19845056D01*
X60431226Y-19656698D01*
X60471000Y-19456739D01*
X60471000Y-19252861D01*
X60431226Y-19052902D01*
X60353205Y-18864544D01*
X60239937Y-18695026D01*
X60095774Y-18550863D01*
X59926256Y-18437595D01*
X59737898Y-18359574D01*
X59537939Y-18319800D01*
X59334061Y-18319800D01*
X59134102Y-18359574D01*
X58945744Y-18437595D01*
X58776226Y-18550863D01*
X58632063Y-18695026D01*
X58518795Y-18864544D01*
X58440774Y-19052902D01*
X58411908Y-19198024D01*
X57108933Y-20501000D01*
X30331285Y-20501000D01*
X30208256Y-20418795D01*
X30019898Y-20340774D01*
X29819939Y-20301000D01*
X29616061Y-20301000D01*
X29416102Y-20340774D01*
X29227744Y-20418795D01*
X29058226Y-20532063D01*
X28914063Y-20676226D01*
X28800795Y-20845744D01*
X28722774Y-21034102D01*
X28683000Y-21234061D01*
X22933000Y-21234061D01*
X22933000Y-20665867D01*
X23575575Y-20023292D01*
X23720698Y-19994426D01*
X23909056Y-19916405D01*
X24078574Y-19803137D01*
X24222737Y-19658974D01*
X24336005Y-19489456D01*
X24414026Y-19301098D01*
X24453800Y-19101139D01*
X24453800Y-19034199D01*
X52300479Y-19034199D01*
X52337801Y-19037875D01*
X52375123Y-19034199D01*
X52375134Y-19034199D01*
X52486787Y-19023202D01*
X52630048Y-18979745D01*
X52762077Y-18909173D01*
X52877802Y-18814200D01*
X52901605Y-18785196D01*
X56631002Y-15055800D01*
X56693139Y-15055800D01*
X56893098Y-15016026D01*
X57081456Y-14938005D01*
X57250974Y-14824737D01*
X57395137Y-14680574D01*
X57508405Y-14511056D01*
X57586426Y-14322698D01*
X57626200Y-14122739D01*
X57626200Y-13918861D01*
X57586426Y-13718902D01*
X57508405Y-13530544D01*
X57476026Y-13482085D01*
X57547537Y-13410574D01*
X57660805Y-13241056D01*
X57738826Y-13052698D01*
X57778600Y-12852739D01*
X57778600Y-12648861D01*
X57738826Y-12448902D01*
X57660805Y-12260544D01*
X57547537Y-12091026D01*
X57403374Y-11946863D01*
X57233856Y-11833595D01*
X57045498Y-11755574D01*
X56845539Y-11715800D01*
X56641661Y-11715800D01*
X56441702Y-11755574D01*
X56253344Y-11833595D01*
X56083826Y-11946863D01*
X55939663Y-12091026D01*
X55826395Y-12260544D01*
X55748374Y-12448902D01*
X55708600Y-12648861D01*
X55708600Y-12710999D01*
X55565199Y-12854400D01*
X46772456Y-12854400D01*
X46824520Y-12819612D01*
X46982612Y-12661520D01*
X47052098Y-12557527D01*
X47149001Y-12478001D01*
X47172803Y-12448998D01*
X48172802Y-11449000D01*
X48234939Y-11449000D01*
X48434898Y-11409226D01*
X48623256Y-11331205D01*
X48792774Y-11217937D01*
X48936937Y-11073774D01*
X49050205Y-10904256D01*
X49089288Y-10809901D01*
X58489900Y-10809901D01*
X58489900Y-11013779D01*
X58529674Y-11213738D01*
X58607695Y-11402096D01*
X58720963Y-11571614D01*
X58865126Y-11715777D01*
X59034644Y-11829045D01*
X59223002Y-11907066D01*
X59422961Y-11946840D01*
X59626839Y-11946840D01*
X59826798Y-11907066D01*
X60015156Y-11829045D01*
X60184674Y-11715777D01*
X60228611Y-11671840D01*
X63137774Y-11671840D01*
X63188283Y-11766334D01*
X63267635Y-11863025D01*
X63364326Y-11942377D01*
X63474640Y-12001342D01*
X63594338Y-12037652D01*
X63718820Y-12049912D01*
X64718820Y-12049912D01*
X64843302Y-12037652D01*
X64963000Y-12001342D01*
X65073314Y-11942377D01*
X65170005Y-11863025D01*
X65249357Y-11766334D01*
X65308322Y-11656020D01*
X65344632Y-11536322D01*
X65356892Y-11411840D01*
X65356892Y-10770891D01*
X66884519Y-10770891D01*
X66981843Y-11045252D01*
X67130822Y-11295355D01*
X67325731Y-11511588D01*
X67559080Y-11685641D01*
X67821901Y-11810825D01*
X67969110Y-11855476D01*
X68199000Y-11734155D01*
X68199000Y-10541000D01*
X67005186Y-10541000D01*
X66884519Y-10770891D01*
X65356892Y-10770891D01*
X65356892Y-10411840D01*
X65344632Y-10287358D01*
X65308322Y-10167660D01*
X65249357Y-10057346D01*
X65170005Y-9960655D01*
X65073314Y-9881303D01*
X64963000Y-9822338D01*
X64843302Y-9786028D01*
X64718820Y-9773768D01*
X63718820Y-9773768D01*
X63594338Y-9786028D01*
X63474640Y-9822338D01*
X63364326Y-9881303D01*
X63267635Y-9960655D01*
X63188283Y-10057346D01*
X63137774Y-10151840D01*
X60228611Y-10151840D01*
X60184674Y-10107903D01*
X60015156Y-9994635D01*
X59826798Y-9916614D01*
X59626839Y-9876840D01*
X59422961Y-9876840D01*
X59223002Y-9916614D01*
X59034644Y-9994635D01*
X58865126Y-10107903D01*
X58720963Y-10252066D01*
X58607695Y-10421584D01*
X58529674Y-10609942D01*
X58489900Y-10809901D01*
X49089288Y-10809901D01*
X49128226Y-10715898D01*
X49168000Y-10515939D01*
X49168000Y-10312061D01*
X49128226Y-10112102D01*
X49050205Y-9923744D01*
X48936937Y-9754226D01*
X48792774Y-9610063D01*
X48702975Y-9550061D01*
X54083000Y-9550061D01*
X54083000Y-9753939D01*
X54122774Y-9953898D01*
X54200795Y-10142256D01*
X54314063Y-10311774D01*
X54458226Y-10455937D01*
X54627744Y-10569205D01*
X54816102Y-10647226D01*
X55016061Y-10687000D01*
X55219939Y-10687000D01*
X55419898Y-10647226D01*
X55608256Y-10569205D01*
X55777774Y-10455937D01*
X55921937Y-10311774D01*
X56035205Y-10142256D01*
X56113226Y-9953898D01*
X56153000Y-9753939D01*
X56153000Y-9691801D01*
X57210802Y-8634000D01*
X67047822Y-8634000D01*
X67172525Y-8820632D01*
X67379368Y-9027475D01*
X67555406Y-9145100D01*
X67325731Y-9316412D01*
X67130822Y-9532645D01*
X66981843Y-9782748D01*
X66884519Y-10057109D01*
X67005186Y-10287000D01*
X68199000Y-10287000D01*
X68199000Y-10267000D01*
X68453000Y-10267000D01*
X68453000Y-10287000D01*
X68473000Y-10287000D01*
X68473000Y-10541000D01*
X68453000Y-10541000D01*
X68453000Y-11734155D01*
X68682890Y-11855476D01*
X68830099Y-11810825D01*
X69092920Y-11685641D01*
X69326269Y-11511588D01*
X69521178Y-11295355D01*
X69590805Y-11178466D01*
X69712525Y-11360632D01*
X69919368Y-11567475D01*
X70162589Y-11729990D01*
X70432842Y-11841932D01*
X70719740Y-11899000D01*
X71012260Y-11899000D01*
X71299158Y-11841932D01*
X71569411Y-11729990D01*
X71812632Y-11567475D01*
X72019475Y-11360632D01*
X72136000Y-11186240D01*
X72252525Y-11360632D01*
X72459368Y-11567475D01*
X72702589Y-11729990D01*
X72972842Y-11841932D01*
X73259740Y-11899000D01*
X73552260Y-11899000D01*
X73839158Y-11841932D01*
X74109411Y-11729990D01*
X74352632Y-11567475D01*
X74559475Y-11360632D01*
X74721990Y-11117411D01*
X74833932Y-10847158D01*
X74891000Y-10560260D01*
X74891000Y-10267740D01*
X74833932Y-9980842D01*
X74721990Y-9710589D01*
X74559475Y-9467368D01*
X74427620Y-9335513D01*
X74500180Y-9313502D01*
X74610494Y-9254537D01*
X74707185Y-9175185D01*
X74786537Y-9078494D01*
X74845502Y-8968180D01*
X74881812Y-8848482D01*
X74894072Y-8724000D01*
X74894072Y-7024000D01*
X74881812Y-6899518D01*
X74845502Y-6779820D01*
X74786537Y-6669506D01*
X74707185Y-6572815D01*
X74610494Y-6493463D01*
X74500180Y-6434498D01*
X74380482Y-6398188D01*
X74256000Y-6385928D01*
X72556000Y-6385928D01*
X72431518Y-6398188D01*
X72311820Y-6434498D01*
X72265214Y-6459410D01*
X71390806Y-5585003D01*
X71367003Y-5555999D01*
X71251278Y-5461026D01*
X71119249Y-5390454D01*
X70975988Y-5346997D01*
X70864335Y-5336000D01*
X70864324Y-5336000D01*
X70827002Y-5332324D01*
X70789680Y-5336000D01*
X63755038Y-5336000D01*
X63717715Y-5332324D01*
X63680392Y-5336000D01*
X63680383Y-5336000D01*
X63568730Y-5346997D01*
X63425469Y-5390454D01*
X63293439Y-5461026D01*
X63242371Y-5502937D01*
X63177715Y-5555999D01*
X63153917Y-5584998D01*
X62934056Y-5804858D01*
X62871919Y-5804858D01*
X62671960Y-5844632D01*
X62483602Y-5922653D01*
X62314084Y-6035921D01*
X62169921Y-6180084D01*
X62056653Y-6349602D01*
X61978632Y-6537960D01*
X61938858Y-6737919D01*
X61938858Y-6941797D01*
X61973111Y-7114000D01*
X56933325Y-7114000D01*
X56896000Y-7110324D01*
X56858675Y-7114000D01*
X56858667Y-7114000D01*
X56747014Y-7124997D01*
X56603753Y-7168454D01*
X56471724Y-7239026D01*
X56355999Y-7333999D01*
X56332201Y-7362997D01*
X55078199Y-8617000D01*
X55016061Y-8617000D01*
X54816102Y-8656774D01*
X54627744Y-8734795D01*
X54458226Y-8848063D01*
X54314063Y-8992226D01*
X54200795Y-9161744D01*
X54122774Y-9350102D01*
X54083000Y-9550061D01*
X48702975Y-9550061D01*
X48623256Y-9496795D01*
X48434898Y-9418774D01*
X48324312Y-9396777D01*
X48411774Y-9338337D01*
X48555937Y-9194174D01*
X48669205Y-9024656D01*
X48747226Y-8836298D01*
X48787000Y-8636339D01*
X48787000Y-8569154D01*
X48953456Y-8500205D01*
X49122974Y-8386937D01*
X49267137Y-8242774D01*
X49380405Y-8073256D01*
X49458426Y-7884898D01*
X49498200Y-7684939D01*
X49498200Y-7481061D01*
X49458426Y-7281102D01*
X49380405Y-7092744D01*
X49267137Y-6923226D01*
X49122974Y-6779063D01*
X48953456Y-6665795D01*
X48765098Y-6587774D01*
X48565139Y-6548000D01*
X48361261Y-6548000D01*
X48161302Y-6587774D01*
X47972944Y-6665795D01*
X47803426Y-6779063D01*
X47759489Y-6823000D01*
X47154865Y-6823000D01*
X47116183Y-6628533D01*
X47030624Y-6421976D01*
X46906412Y-6236080D01*
X46748320Y-6077988D01*
X46562424Y-5953776D01*
X46355867Y-5868217D01*
X46136588Y-5824600D01*
X45913012Y-5824600D01*
X45693733Y-5868217D01*
X45487176Y-5953776D01*
X45301280Y-6077988D01*
X45143188Y-6236080D01*
X45018976Y-6421976D01*
X44933417Y-6628533D01*
X44889800Y-6847812D01*
X44889800Y-7071388D01*
X44933417Y-7290667D01*
X45018976Y-7497224D01*
X45143188Y-7683120D01*
X45301280Y-7841212D01*
X45487176Y-7965424D01*
X45693733Y-8050983D01*
X45913012Y-8094600D01*
X46084891Y-8094600D01*
X46108199Y-8123001D01*
X46214202Y-8209996D01*
X46161198Y-8263000D01*
X45989212Y-8263000D01*
X45769933Y-8306617D01*
X45563376Y-8392176D01*
X45377480Y-8516388D01*
X45219388Y-8674480D01*
X45095176Y-8860376D01*
X45009617Y-9066933D01*
X44966000Y-9286212D01*
X44966000Y-9509788D01*
X45009617Y-9729067D01*
X45095176Y-9935624D01*
X45219388Y-10121520D01*
X45377480Y-10279612D01*
X45563376Y-10403824D01*
X45769933Y-10489383D01*
X45989212Y-10533000D01*
X46212788Y-10533000D01*
X46432067Y-10489383D01*
X46638624Y-10403824D01*
X46824520Y-10279612D01*
X46982612Y-10121520D01*
X47106824Y-9935624D01*
X47192383Y-9729067D01*
X47236000Y-9509788D01*
X47236000Y-9434403D01*
X47261744Y-9451605D01*
X47450102Y-9529626D01*
X47560688Y-9551623D01*
X47473226Y-9610063D01*
X47329063Y-9754226D01*
X47215795Y-9923744D01*
X47137774Y-10112102D01*
X47098000Y-10312061D01*
X47098000Y-10374198D01*
X46568902Y-10903296D01*
X46432067Y-10846617D01*
X46212788Y-10803000D01*
X45989212Y-10803000D01*
X45769933Y-10846617D01*
X45563376Y-10932176D01*
X45377480Y-11056388D01*
X45219388Y-11214480D01*
X45095176Y-11400376D01*
X45009617Y-11606933D01*
X44966000Y-11826212D01*
X44966000Y-12049788D01*
X45009617Y-12269067D01*
X45095176Y-12475624D01*
X45219388Y-12661520D01*
X45377480Y-12819612D01*
X45429544Y-12854400D01*
X26357711Y-12854400D01*
X26313774Y-12810463D01*
X26144256Y-12697195D01*
X25955898Y-12619174D01*
X25755939Y-12579400D01*
X25552061Y-12579400D01*
X25352102Y-12619174D01*
X25163744Y-12697195D01*
X24994226Y-12810463D01*
X24850063Y-12954626D01*
X24736795Y-13124144D01*
X24658774Y-13312502D01*
X24619000Y-13512461D01*
X24619000Y-13716339D01*
X24658774Y-13916298D01*
X24736795Y-14104656D01*
X24850063Y-14274174D01*
X24994226Y-14418337D01*
X25163744Y-14531605D01*
X25352102Y-14609626D01*
X25552061Y-14649400D01*
X25755939Y-14649400D01*
X25955898Y-14609626D01*
X26144256Y-14531605D01*
X26313774Y-14418337D01*
X26357711Y-14374400D01*
X55162798Y-14374400D01*
X52023000Y-17514199D01*
X12700324Y-17514199D01*
X12663001Y-17510523D01*
X12625678Y-17514199D01*
X12625668Y-17514199D01*
X12514015Y-17525196D01*
X12370754Y-17568653D01*
X12238725Y-17639225D01*
X12123000Y-17734198D01*
X12099202Y-17763196D01*
X11288599Y-18573800D01*
X11226461Y-18573800D01*
X11026502Y-18613574D01*
X10838144Y-18691595D01*
X10668626Y-18804863D01*
X10524463Y-18949026D01*
X10411195Y-19118544D01*
X10333174Y-19306902D01*
X10293400Y-19506861D01*
X710000Y-19506861D01*
X710000Y-6029142D01*
X747903Y-5568115D01*
X1615000Y-5568115D01*
X1615000Y-6431885D01*
X1783513Y-7279057D01*
X2114064Y-8077076D01*
X2593948Y-8795274D01*
X3204726Y-9406052D01*
X3922924Y-9885936D01*
X4720943Y-10216487D01*
X5568115Y-10385000D01*
X6431885Y-10385000D01*
X7279057Y-10216487D01*
X8077076Y-9885936D01*
X8795274Y-9406052D01*
X9406052Y-8795274D01*
X9885936Y-8077076D01*
X10003879Y-7792335D01*
X18609000Y-7792335D01*
X18609000Y-8463664D01*
X18626870Y-8645101D01*
X18697489Y-8877900D01*
X18812167Y-9092448D01*
X18966498Y-9280502D01*
X19154551Y-9434833D01*
X19369099Y-9549511D01*
X19601898Y-9620130D01*
X19844000Y-9643975D01*
X20086101Y-9620130D01*
X20318900Y-9549511D01*
X20533448Y-9434833D01*
X20687309Y-9308564D01*
X20713463Y-9357494D01*
X20792815Y-9454185D01*
X20889506Y-9533537D01*
X20999820Y-9592502D01*
X21119518Y-9628812D01*
X21244000Y-9641072D01*
X22444000Y-9641072D01*
X22568482Y-9628812D01*
X22688180Y-9592502D01*
X22798494Y-9533537D01*
X22895185Y-9454185D01*
X22974537Y-9357494D01*
X23033502Y-9247180D01*
X23069812Y-9127482D01*
X23082072Y-9003000D01*
X23082072Y-8255000D01*
X28007000Y-8255000D01*
X28007000Y-8530000D01*
X28055507Y-8768496D01*
X28149610Y-8992946D01*
X28285693Y-9194725D01*
X28458526Y-9366078D01*
X28661467Y-9500421D01*
X28886718Y-9592591D01*
X28924391Y-9596462D01*
X29115000Y-9471731D01*
X29115000Y-8255000D01*
X28007000Y-8255000D01*
X23082072Y-8255000D01*
X23082072Y-7726000D01*
X28007000Y-7726000D01*
X28007000Y-8001000D01*
X29115000Y-8001000D01*
X29115000Y-6784269D01*
X29369000Y-6784269D01*
X29369000Y-8001000D01*
X29389000Y-8001000D01*
X29389000Y-8255000D01*
X29369000Y-8255000D01*
X29369000Y-9471731D01*
X29559609Y-9596462D01*
X29597282Y-9592591D01*
X29822533Y-9500421D01*
X30025474Y-9366078D01*
X30084677Y-9307382D01*
X30111463Y-9357494D01*
X30190815Y-9454185D01*
X30287506Y-9533537D01*
X30397820Y-9592502D01*
X30517518Y-9628812D01*
X30642000Y-9641072D01*
X31842000Y-9641072D01*
X31966482Y-9628812D01*
X32086180Y-9592502D01*
X32196494Y-9533537D01*
X32293185Y-9454185D01*
X32372537Y-9357494D01*
X32431502Y-9247180D01*
X32467812Y-9127482D01*
X32480072Y-9003000D01*
X32480072Y-7253000D01*
X32467812Y-7128518D01*
X32431502Y-7008820D01*
X32372537Y-6898506D01*
X32293185Y-6801815D01*
X32196494Y-6722463D01*
X32086180Y-6663498D01*
X31966482Y-6627188D01*
X31842000Y-6614928D01*
X30642000Y-6614928D01*
X30517518Y-6627188D01*
X30397820Y-6663498D01*
X30287506Y-6722463D01*
X30190815Y-6801815D01*
X30111463Y-6898506D01*
X30084677Y-6948618D01*
X30025474Y-6889922D01*
X29822533Y-6755579D01*
X29597282Y-6663409D01*
X29559609Y-6659538D01*
X29369000Y-6784269D01*
X29115000Y-6784269D01*
X28924391Y-6659538D01*
X28886718Y-6663409D01*
X28661467Y-6755579D01*
X28458526Y-6889922D01*
X28285693Y-7061275D01*
X28149610Y-7263054D01*
X28055507Y-7487504D01*
X28007000Y-7726000D01*
X23082072Y-7726000D01*
X23082072Y-7253000D01*
X23069812Y-7128518D01*
X23033502Y-7008820D01*
X22974537Y-6898506D01*
X22895185Y-6801815D01*
X22798494Y-6722463D01*
X22688180Y-6663498D01*
X22568482Y-6627188D01*
X22444000Y-6614928D01*
X21244000Y-6614928D01*
X21119518Y-6627188D01*
X20999820Y-6663498D01*
X20889506Y-6722463D01*
X20792815Y-6801815D01*
X20713463Y-6898506D01*
X20687309Y-6947436D01*
X20533449Y-6821167D01*
X20318901Y-6706489D01*
X20086102Y-6635870D01*
X19844000Y-6612025D01*
X19601899Y-6635870D01*
X19369100Y-6706489D01*
X19154552Y-6821167D01*
X18966499Y-6975498D01*
X18812168Y-7163551D01*
X18697489Y-7378099D01*
X18626870Y-7610898D01*
X18609000Y-7792335D01*
X10003879Y-7792335D01*
X10216487Y-7279057D01*
X10385000Y-6431885D01*
X10385000Y-5568115D01*
X10216487Y-4720943D01*
X9885936Y-3922924D01*
X9406052Y-3204726D01*
X8795274Y-2593948D01*
X8346370Y-2294000D01*
X45597928Y-2294000D01*
X45597928Y-3294000D01*
X45610188Y-3418482D01*
X45646498Y-3538180D01*
X45705463Y-3648494D01*
X45784815Y-3745185D01*
X45881506Y-3824537D01*
X45991820Y-3883502D01*
X46111518Y-3919812D01*
X46236000Y-3932072D01*
X47236000Y-3932072D01*
X47360482Y-3919812D01*
X47480180Y-3883502D01*
X47590494Y-3824537D01*
X47687185Y-3745185D01*
X47766537Y-3648494D01*
X47817046Y-3554000D01*
X48834199Y-3554000D01*
X49412070Y-4131871D01*
X49385180Y-4117498D01*
X49265482Y-4081188D01*
X49141000Y-4068928D01*
X48141000Y-4068928D01*
X48016518Y-4081188D01*
X47896820Y-4117498D01*
X47786506Y-4176463D01*
X47689815Y-4255815D01*
X47610463Y-4352506D01*
X47551498Y-4462820D01*
X47515188Y-4582518D01*
X47502928Y-4707000D01*
X47502928Y-5707000D01*
X47515188Y-5831482D01*
X47551498Y-5951180D01*
X47610463Y-6061494D01*
X47689815Y-6158185D01*
X47786506Y-6237537D01*
X47896820Y-6296502D01*
X48016518Y-6332812D01*
X48141000Y-6345072D01*
X48704270Y-6345072D01*
X48839201Y-6480002D01*
X48862999Y-6509001D01*
X48978724Y-6603974D01*
X49110753Y-6674546D01*
X49254014Y-6718003D01*
X49365667Y-6729000D01*
X49365675Y-6729000D01*
X49403000Y-6732676D01*
X49440325Y-6729000D01*
X50223289Y-6729000D01*
X50267226Y-6772937D01*
X50436744Y-6886205D01*
X50625102Y-6964226D01*
X50825061Y-7004000D01*
X51028939Y-7004000D01*
X51228898Y-6964226D01*
X51417256Y-6886205D01*
X51586774Y-6772937D01*
X51730937Y-6628774D01*
X51844205Y-6459256D01*
X51922226Y-6270898D01*
X51962000Y-6070939D01*
X51962000Y-5867061D01*
X51922226Y-5667102D01*
X51844205Y-5478744D01*
X51801652Y-5415059D01*
X51857937Y-5358774D01*
X51971205Y-5189256D01*
X52049226Y-5000898D01*
X52089000Y-4800939D01*
X52089000Y-4597061D01*
X52049226Y-4397102D01*
X51971205Y-4208744D01*
X51857937Y-4039226D01*
X51713774Y-3895063D01*
X51544256Y-3781795D01*
X51355898Y-3703774D01*
X51155939Y-3664000D01*
X51093802Y-3664000D01*
X49712804Y-2283003D01*
X49689001Y-2253999D01*
X49573276Y-2159026D01*
X49441247Y-2088454D01*
X49297986Y-2044997D01*
X49186333Y-2034000D01*
X49186322Y-2034000D01*
X49149000Y-2030324D01*
X49111678Y-2034000D01*
X47817046Y-2034000D01*
X47766537Y-1939506D01*
X47687185Y-1842815D01*
X47590494Y-1763463D01*
X47480180Y-1704498D01*
X47360482Y-1668188D01*
X47236000Y-1655928D01*
X46236000Y-1655928D01*
X46111518Y-1668188D01*
X45991820Y-1704498D01*
X45881506Y-1763463D01*
X45784815Y-1842815D01*
X45705463Y-1939506D01*
X45646498Y-2049820D01*
X45610188Y-2169518D01*
X45597928Y-2294000D01*
X8346370Y-2294000D01*
X8077076Y-2114064D01*
X7279057Y-1783513D01*
X6431885Y-1615000D01*
X5568115Y-1615000D01*
X4720943Y-1783513D01*
X3922924Y-2114064D01*
X3204726Y-2593948D01*
X2593948Y-3204726D01*
X2114064Y-3922924D01*
X1783513Y-4720943D01*
X1615000Y-5568115D01*
X747903Y-5568115D01*
X783397Y-5136392D01*
X994491Y-4295990D01*
X1340017Y-3501336D01*
X1810685Y-2773794D01*
X2393864Y-2132890D01*
X3073881Y-1595845D01*
X3832489Y-1177070D01*
X4649306Y-887820D01*
X5514656Y-733677D01*
X6016736Y-710000D01*
X77597000Y-710000D01*
X77597000Y-3178200D01*
G37*
X77597000Y-3178200D02*
X54306283Y-3178200D01*
X54183254Y-3095995D01*
X53994896Y-3017974D01*
X53794937Y-2978200D01*
X53591059Y-2978200D01*
X53391100Y-3017974D01*
X53202742Y-3095995D01*
X53033224Y-3209263D01*
X52889061Y-3353426D01*
X52775793Y-3522944D01*
X52697772Y-3711302D01*
X52657998Y-3911261D01*
X52657998Y-4115139D01*
X52697772Y-4315098D01*
X52775793Y-4503456D01*
X52889061Y-4672974D01*
X53033224Y-4817137D01*
X53202742Y-4930405D01*
X53391100Y-5008426D01*
X53591059Y-5048200D01*
X53794937Y-5048200D01*
X53994896Y-5008426D01*
X54183254Y-4930405D01*
X54306283Y-4848200D01*
X77597000Y-4848200D01*
X77597000Y-9770999D01*
X77285800Y-9459799D01*
X77285800Y-9397661D01*
X77246026Y-9197702D01*
X77168005Y-9009344D01*
X77054737Y-8839826D01*
X76910574Y-8695663D01*
X76741056Y-8582395D01*
X76552698Y-8504374D01*
X76352739Y-8464600D01*
X76148861Y-8464600D01*
X75948902Y-8504374D01*
X75760544Y-8582395D01*
X75591026Y-8695663D01*
X75446863Y-8839826D01*
X75333595Y-9009344D01*
X75255574Y-9197702D01*
X75215800Y-9397661D01*
X75215800Y-9601539D01*
X75255574Y-9801498D01*
X75333595Y-9989856D01*
X75446863Y-10159374D01*
X75591026Y-10303537D01*
X75760544Y-10416805D01*
X75948902Y-10494826D01*
X76148861Y-10534600D01*
X76210999Y-10534600D01*
X77597000Y-11920602D01*
X77597000Y-25148000D01*
X58209311Y-25148000D01*
X58165374Y-25104063D01*
X57995856Y-24990795D01*
X57807498Y-24912774D01*
X57607539Y-24873000D01*
X57403661Y-24873000D01*
X57203702Y-24912774D01*
X57015344Y-24990795D01*
X56845826Y-25104063D01*
X56701663Y-25248226D01*
X56588395Y-25417744D01*
X56510374Y-25606102D01*
X56470600Y-25806061D01*
X56470600Y-26009939D01*
X56510374Y-26209898D01*
X56588395Y-26398256D01*
X56701663Y-26567774D01*
X56845826Y-26711937D01*
X57015344Y-26825205D01*
X57203702Y-26903226D01*
X57403661Y-26943000D01*
X57607539Y-26943000D01*
X57807498Y-26903226D01*
X57995856Y-26825205D01*
X58165374Y-26711937D01*
X58209311Y-26668000D01*
X77597000Y-26668000D01*
X77597000Y-55120000D01*
X58209311Y-55120000D01*
X58165374Y-55076063D01*
X57995856Y-54962795D01*
X57807498Y-54884774D01*
X57607539Y-54845000D01*
X57403661Y-54845000D01*
X57203702Y-54884774D01*
X57015344Y-54962795D01*
X56845826Y-55076063D01*
X56701663Y-55220226D01*
X56588395Y-55389744D01*
X56510374Y-55578102D01*
X56470600Y-55778061D01*
X56470600Y-55981939D01*
X56510374Y-56181898D01*
X56588395Y-56370256D01*
X56701663Y-56539774D01*
X56845826Y-56683937D01*
X57015344Y-56797205D01*
X57203702Y-56875226D01*
X57403661Y-56915000D01*
X57607539Y-56915000D01*
X57807498Y-56875226D01*
X57995856Y-56797205D01*
X58165374Y-56683937D01*
X58209311Y-56640000D01*
X77597000Y-56640000D01*
X77597000Y-85092000D01*
X58209311Y-85092000D01*
X58165374Y-85048063D01*
X57995856Y-84934795D01*
X57807498Y-84856774D01*
X57607539Y-84817000D01*
X57403661Y-84817000D01*
X57203702Y-84856774D01*
X57015344Y-84934795D01*
X56845826Y-85048063D01*
X56701663Y-85192226D01*
X56588395Y-85361744D01*
X56510374Y-85550102D01*
X56470600Y-85750061D01*
X56470600Y-85953939D01*
X56510374Y-86153898D01*
X56588395Y-86342256D01*
X56701663Y-86511774D01*
X56845826Y-86655937D01*
X57015344Y-86769205D01*
X57203702Y-86847226D01*
X57403661Y-86887000D01*
X57607539Y-86887000D01*
X57807498Y-86847226D01*
X57995856Y-86769205D01*
X58165374Y-86655937D01*
X58209311Y-86612000D01*
X77597000Y-86612000D01*
X77597000Y-114962400D01*
X58209311Y-114962400D01*
X58165374Y-114918463D01*
X57995856Y-114805195D01*
X57807498Y-114727174D01*
X57607539Y-114687400D01*
X57403661Y-114687400D01*
X57203702Y-114727174D01*
X57015344Y-114805195D01*
X56845826Y-114918463D01*
X56701663Y-115062626D01*
X56588395Y-115232144D01*
X56510374Y-115420502D01*
X56470600Y-115620461D01*
X56470600Y-115824339D01*
X56510374Y-116024298D01*
X56588395Y-116212656D01*
X56701663Y-116382174D01*
X56845826Y-116526337D01*
X57015344Y-116639605D01*
X57203702Y-116717626D01*
X57403661Y-116757400D01*
X57607539Y-116757400D01*
X57807498Y-116717626D01*
X57995856Y-116639605D01*
X58165374Y-116526337D01*
X58209311Y-116482400D01*
X77597000Y-116482400D01*
X77597000Y-144948300D01*
X58098565Y-144948300D01*
X57975536Y-144866095D01*
X57787178Y-144788074D01*
X57587219Y-144748300D01*
X57383341Y-144748300D01*
X57183382Y-144788074D01*
X56995024Y-144866095D01*
X56825506Y-144979363D01*
X56681343Y-145123526D01*
X56568075Y-145293044D01*
X56490054Y-145481402D01*
X56450280Y-145681361D01*
X56450280Y-145885239D01*
X56490054Y-146085198D01*
X56568075Y-146273556D01*
X56681343Y-146443074D01*
X56825506Y-146587237D01*
X56995024Y-146700505D01*
X57183382Y-146778526D01*
X57383341Y-146818300D01*
X57587219Y-146818300D01*
X57787178Y-146778526D01*
X57975536Y-146700505D01*
X58098565Y-146618300D01*
X77597000Y-146618300D01*
X77597000Y-171290000D01*
X6029142Y-171290000D01*
X5136394Y-171216603D01*
X4295990Y-171005509D01*
X3501336Y-170659983D01*
X2773794Y-170189315D01*
X2132890Y-169606136D01*
X1595841Y-168926115D01*
X1177068Y-168167507D01*
X887819Y-167350692D01*
X733677Y-166485344D01*
X710000Y-165983265D01*
X710000Y-165568115D01*
X1615000Y-165568115D01*
X1615000Y-166431885D01*
X1783513Y-167279057D01*
X2114064Y-168077076D01*
X2593948Y-168795274D01*
X3204726Y-169406052D01*
X3922924Y-169885936D01*
X4720943Y-170216487D01*
X5568115Y-170385000D01*
X6431885Y-170385000D01*
X7279057Y-170216487D01*
X8077076Y-169885936D01*
X8795274Y-169406052D01*
X9406052Y-168795274D01*
X9885936Y-168077076D01*
X10216487Y-167279057D01*
X10385000Y-166431885D01*
X10385000Y-165568115D01*
X10216487Y-164720943D01*
X9885936Y-163922924D01*
X9406052Y-163204726D01*
X8795274Y-162593948D01*
X8077076Y-162114064D01*
X7279057Y-161783513D01*
X6431885Y-161615000D01*
X5568115Y-161615000D01*
X4720943Y-161783513D01*
X3922924Y-162114064D01*
X3204726Y-162593948D01*
X2593948Y-163204726D01*
X2114064Y-163922924D01*
X1783513Y-164720943D01*
X1615000Y-165568115D01*
X710000Y-165568115D01*
X710000Y-91344609D01*
X7167538Y-91344609D01*
X7171409Y-91382282D01*
X7263579Y-91607533D01*
X7397922Y-91810474D01*
X7569275Y-91983307D01*
X7771054Y-92119390D01*
X7995504Y-92213493D01*
X8234000Y-92262000D01*
X8509000Y-92262000D01*
X8509000Y-91154000D01*
X8763000Y-91154000D01*
X8763000Y-92262000D01*
X9038000Y-92262000D01*
X9276496Y-92213493D01*
X9500946Y-92119390D01*
X9702725Y-91983307D01*
X9874078Y-91810474D01*
X10008421Y-91607533D01*
X10100591Y-91382282D01*
X10104462Y-91344609D01*
X9979731Y-91154000D01*
X8763000Y-91154000D01*
X8509000Y-91154000D01*
X7292269Y-91154000D01*
X7167538Y-91344609D01*
X710000Y-91344609D01*
X710000Y-67665261D01*
X4756200Y-67665261D01*
X4756200Y-67869139D01*
X4795974Y-68069098D01*
X4873995Y-68257456D01*
X4987263Y-68426974D01*
X5031200Y-68470911D01*
X5031201Y-86144867D01*
X5027524Y-86182200D01*
X5042198Y-86331185D01*
X5085654Y-86474446D01*
X5156226Y-86606476D01*
X5227401Y-86693202D01*
X5251200Y-86722201D01*
X5280198Y-86745999D01*
X7122928Y-88588730D01*
X7122928Y-89627000D01*
X7135188Y-89751482D01*
X7171498Y-89871180D01*
X7230463Y-89981494D01*
X7309815Y-90078185D01*
X7406506Y-90157537D01*
X7456618Y-90184323D01*
X7397922Y-90243526D01*
X7263579Y-90446467D01*
X7171409Y-90671718D01*
X7167538Y-90709391D01*
X7292269Y-90900000D01*
X8509000Y-90900000D01*
X8509000Y-90880000D01*
X8763000Y-90880000D01*
X8763000Y-90900000D01*
X9979731Y-90900000D01*
X10104462Y-90709391D01*
X10100591Y-90671718D01*
X10008421Y-90446467D01*
X9874078Y-90243526D01*
X9815382Y-90184323D01*
X9865494Y-90157537D01*
X9962185Y-90078185D01*
X10041537Y-89981494D01*
X10100502Y-89871180D01*
X10136812Y-89751482D01*
X10149072Y-89627000D01*
X10149072Y-88427000D01*
X10136812Y-88302518D01*
X10100502Y-88182820D01*
X10041537Y-88072506D01*
X9962185Y-87975815D01*
X9865494Y-87896463D01*
X9755180Y-87837498D01*
X9635482Y-87801188D01*
X9511000Y-87788928D01*
X8472730Y-87788928D01*
X6551200Y-85867399D01*
X6551200Y-83788000D01*
X7120025Y-83788000D01*
X7143870Y-84030102D01*
X7214489Y-84262901D01*
X7329167Y-84477449D01*
X7483498Y-84665502D01*
X7671551Y-84819833D01*
X7886099Y-84934511D01*
X8118898Y-85005130D01*
X8300335Y-85023000D01*
X8971665Y-85023000D01*
X9153102Y-85005130D01*
X9385901Y-84934511D01*
X9600449Y-84819833D01*
X9788502Y-84665502D01*
X9942833Y-84477449D01*
X10057511Y-84262901D01*
X10128130Y-84030102D01*
X10151975Y-83788000D01*
X10128130Y-83545898D01*
X10057511Y-83313099D01*
X9942833Y-83098551D01*
X9816564Y-82944691D01*
X9865494Y-82918537D01*
X9962185Y-82839185D01*
X10041537Y-82742494D01*
X10100502Y-82632180D01*
X10136812Y-82512482D01*
X10149072Y-82388000D01*
X10149072Y-81188000D01*
X10136812Y-81063518D01*
X10100502Y-80943820D01*
X10041537Y-80833506D01*
X9962185Y-80736815D01*
X9865494Y-80657463D01*
X9755180Y-80598498D01*
X9635482Y-80562188D01*
X9511000Y-80549928D01*
X7761000Y-80549928D01*
X7636518Y-80562188D01*
X7516820Y-80598498D01*
X7406506Y-80657463D01*
X7309815Y-80736815D01*
X7230463Y-80833506D01*
X7171498Y-80943820D01*
X7135188Y-81063518D01*
X7122928Y-81188000D01*
X7122928Y-82388000D01*
X7135188Y-82512482D01*
X7171498Y-82632180D01*
X7230463Y-82742494D01*
X7309815Y-82839185D01*
X7406506Y-82918537D01*
X7455436Y-82944691D01*
X7329167Y-83098551D01*
X7214489Y-83313099D01*
X7143870Y-83545898D01*
X7120025Y-83788000D01*
X6551200Y-83788000D01*
X6551200Y-68470911D01*
X6595137Y-68426974D01*
X6708405Y-68257456D01*
X6786426Y-68069098D01*
X6826200Y-67869139D01*
X6826200Y-67665261D01*
X6786426Y-67465302D01*
X6708405Y-67276944D01*
X6595137Y-67107426D01*
X6450974Y-66963263D01*
X6281456Y-66849995D01*
X6093098Y-66771974D01*
X5893139Y-66732200D01*
X5689261Y-66732200D01*
X5489302Y-66771974D01*
X5300944Y-66849995D01*
X5131426Y-66963263D01*
X4987263Y-67107426D01*
X4873995Y-67276944D01*
X4795974Y-67465302D01*
X4756200Y-67665261D01*
X710000Y-67665261D01*
X710000Y-47700861D01*
X10039400Y-47700861D01*
X10039400Y-47904739D01*
X10079174Y-48104698D01*
X10157195Y-48293056D01*
X10239401Y-48416086D01*
X10239400Y-152765382D01*
X10235360Y-152806400D01*
X10239400Y-152847418D01*
X10251482Y-152970088D01*
X10299228Y-153127486D01*
X10376764Y-153272545D01*
X10481109Y-153399691D01*
X10512979Y-153425846D01*
X19774223Y-162687092D01*
X19800369Y-162718951D01*
X19832228Y-162745097D01*
X19832230Y-162745099D01*
X19927514Y-162823296D01*
X20072573Y-162900832D01*
X20229971Y-162948578D01*
X20393660Y-162964700D01*
X20434678Y-162960660D01*
X27933456Y-162960660D01*
X28056070Y-162997855D01*
X28186083Y-163010660D01*
X42450913Y-163010660D01*
X42462188Y-163125142D01*
X42498498Y-163244840D01*
X42557463Y-163355154D01*
X42636815Y-163451845D01*
X42733506Y-163531197D01*
X42843820Y-163590162D01*
X42963518Y-163626472D01*
X43088000Y-163638732D01*
X44288000Y-163638732D01*
X44412482Y-163626472D01*
X44532180Y-163590162D01*
X44642494Y-163531197D01*
X44739185Y-163451845D01*
X44818537Y-163355154D01*
X44845323Y-163305042D01*
X44904526Y-163363738D01*
X45107467Y-163498081D01*
X45332718Y-163590251D01*
X45370391Y-163594122D01*
X45561000Y-163469391D01*
X45561000Y-162252660D01*
X45815000Y-162252660D01*
X45815000Y-163469391D01*
X46005609Y-163594122D01*
X46043282Y-163590251D01*
X46268533Y-163498081D01*
X46471474Y-163363738D01*
X46644307Y-163192385D01*
X46780390Y-162990606D01*
X46874493Y-162766156D01*
X46923000Y-162527660D01*
X46923000Y-162252660D01*
X45815000Y-162252660D01*
X45561000Y-162252660D01*
X45541000Y-162252660D01*
X45541000Y-161998660D01*
X45561000Y-161998660D01*
X45561000Y-160781929D01*
X45815000Y-160781929D01*
X45815000Y-161998660D01*
X46923000Y-161998660D01*
X46923000Y-161723660D01*
X46874493Y-161485164D01*
X46780390Y-161260714D01*
X46644307Y-161058935D01*
X46471474Y-160887582D01*
X46268533Y-160753239D01*
X46043282Y-160661069D01*
X46005609Y-160657198D01*
X45815000Y-160781929D01*
X45561000Y-160781929D01*
X45370391Y-160657198D01*
X45332718Y-160661069D01*
X45107467Y-160753239D01*
X44904526Y-160887582D01*
X44845323Y-160946278D01*
X44818537Y-160896166D01*
X44739185Y-160799475D01*
X44642494Y-160720123D01*
X44532180Y-160661158D01*
X44412482Y-160624848D01*
X44288000Y-160612588D01*
X43088000Y-160612588D01*
X42963518Y-160624848D01*
X42843820Y-160661158D01*
X42733506Y-160720123D01*
X42636815Y-160799475D01*
X42557463Y-160896166D01*
X42498498Y-161006480D01*
X42462188Y-161126178D01*
X42450913Y-161240660D01*
X28186083Y-161240660D01*
X28056070Y-161253465D01*
X27933456Y-161290660D01*
X20739529Y-161290660D01*
X11909400Y-152460533D01*
X11909400Y-145696601D01*
X26490980Y-145696601D01*
X26490980Y-145900479D01*
X26530754Y-146100438D01*
X26608775Y-146288796D01*
X26722043Y-146458314D01*
X26866206Y-146602477D01*
X27035724Y-146715745D01*
X27224082Y-146793766D01*
X27424041Y-146833540D01*
X27627919Y-146833540D01*
X27827878Y-146793766D01*
X28016236Y-146715745D01*
X28139265Y-146633540D01*
X53652554Y-146633540D01*
X53779384Y-146718285D01*
X53967742Y-146796306D01*
X54167701Y-146836080D01*
X54371579Y-146836080D01*
X54571538Y-146796306D01*
X54759896Y-146718285D01*
X54929414Y-146605017D01*
X55073577Y-146460854D01*
X55186845Y-146291336D01*
X55264866Y-146102978D01*
X55304640Y-145903019D01*
X55304640Y-145699141D01*
X55264866Y-145499182D01*
X55186845Y-145310824D01*
X55073577Y-145141306D01*
X54929414Y-144997143D01*
X54759896Y-144883875D01*
X54571538Y-144805854D01*
X54371579Y-144766080D01*
X54167701Y-144766080D01*
X53967742Y-144805854D01*
X53779384Y-144883875D01*
X53660157Y-144963540D01*
X28139265Y-144963540D01*
X28016236Y-144881335D01*
X27827878Y-144803314D01*
X27627919Y-144763540D01*
X27424041Y-144763540D01*
X27224082Y-144803314D01*
X27035724Y-144881335D01*
X26866206Y-144994603D01*
X26722043Y-145138766D01*
X26608775Y-145308284D01*
X26530754Y-145496642D01*
X26490980Y-145696601D01*
X11909400Y-145696601D01*
X11909400Y-115620461D01*
X26498600Y-115620461D01*
X26498600Y-115824339D01*
X26538374Y-116024298D01*
X26616395Y-116212656D01*
X26729663Y-116382174D01*
X26873826Y-116526337D01*
X27043344Y-116639605D01*
X27231702Y-116717626D01*
X27431661Y-116757400D01*
X27635539Y-116757400D01*
X27835498Y-116717626D01*
X28023856Y-116639605D01*
X28193374Y-116526337D01*
X28237311Y-116482400D01*
X53550689Y-116482400D01*
X53594626Y-116526337D01*
X53764144Y-116639605D01*
X53952502Y-116717626D01*
X54152461Y-116757400D01*
X54356339Y-116757400D01*
X54556298Y-116717626D01*
X54744656Y-116639605D01*
X54914174Y-116526337D01*
X55058337Y-116382174D01*
X55171605Y-116212656D01*
X55249626Y-116024298D01*
X55289400Y-115824339D01*
X55289400Y-115620461D01*
X55249626Y-115420502D01*
X55171605Y-115232144D01*
X55058337Y-115062626D01*
X54914174Y-114918463D01*
X54744656Y-114805195D01*
X54556298Y-114727174D01*
X54356339Y-114687400D01*
X54152461Y-114687400D01*
X53952502Y-114727174D01*
X53764144Y-114805195D01*
X53594626Y-114918463D01*
X53550689Y-114962400D01*
X28237311Y-114962400D01*
X28193374Y-114918463D01*
X28023856Y-114805195D01*
X27835498Y-114727174D01*
X27635539Y-114687400D01*
X27431661Y-114687400D01*
X27231702Y-114727174D01*
X27043344Y-114805195D01*
X26873826Y-114918463D01*
X26729663Y-115062626D01*
X26616395Y-115232144D01*
X26538374Y-115420502D01*
X26498600Y-115620461D01*
X11909400Y-115620461D01*
X11909400Y-85750061D01*
X26498600Y-85750061D01*
X26498600Y-85953939D01*
X26538374Y-86153898D01*
X26616395Y-86342256D01*
X26729663Y-86511774D01*
X26873826Y-86655937D01*
X27043344Y-86769205D01*
X27231702Y-86847226D01*
X27431661Y-86887000D01*
X27635539Y-86887000D01*
X27835498Y-86847226D01*
X28023856Y-86769205D01*
X28193374Y-86655937D01*
X28237311Y-86612000D01*
X53550689Y-86612000D01*
X53594626Y-86655937D01*
X53764144Y-86769205D01*
X53952502Y-86847226D01*
X54152461Y-86887000D01*
X54356339Y-86887000D01*
X54556298Y-86847226D01*
X54744656Y-86769205D01*
X54914174Y-86655937D01*
X55058337Y-86511774D01*
X55171605Y-86342256D01*
X55249626Y-86153898D01*
X55289400Y-85953939D01*
X55289400Y-85750061D01*
X55249626Y-85550102D01*
X55171605Y-85361744D01*
X55058337Y-85192226D01*
X54914174Y-85048063D01*
X54744656Y-84934795D01*
X54556298Y-84856774D01*
X54356339Y-84817000D01*
X54152461Y-84817000D01*
X53952502Y-84856774D01*
X53764144Y-84934795D01*
X53594626Y-85048063D01*
X53550689Y-85092000D01*
X28237311Y-85092000D01*
X28193374Y-85048063D01*
X28023856Y-84934795D01*
X27835498Y-84856774D01*
X27635539Y-84817000D01*
X27431661Y-84817000D01*
X27231702Y-84856774D01*
X27043344Y-84934795D01*
X26873826Y-85048063D01*
X26729663Y-85192226D01*
X26616395Y-85361744D01*
X26538374Y-85550102D01*
X26498600Y-85750061D01*
X11909400Y-85750061D01*
X11909400Y-55778061D01*
X26498600Y-55778061D01*
X26498600Y-55981939D01*
X26538374Y-56181898D01*
X26616395Y-56370256D01*
X26729663Y-56539774D01*
X26873826Y-56683937D01*
X27043344Y-56797205D01*
X27231702Y-56875226D01*
X27431661Y-56915000D01*
X27635539Y-56915000D01*
X27835498Y-56875226D01*
X28023856Y-56797205D01*
X28146885Y-56715000D01*
X53641115Y-56715000D01*
X53764144Y-56797205D01*
X53952502Y-56875226D01*
X54152461Y-56915000D01*
X54356339Y-56915000D01*
X54556298Y-56875226D01*
X54744656Y-56797205D01*
X54914174Y-56683937D01*
X55058337Y-56539774D01*
X55171605Y-56370256D01*
X55249626Y-56181898D01*
X55289400Y-55981939D01*
X55289400Y-55778061D01*
X55249626Y-55578102D01*
X55171605Y-55389744D01*
X55058337Y-55220226D01*
X54914174Y-55076063D01*
X54744656Y-54962795D01*
X54556298Y-54884774D01*
X54356339Y-54845000D01*
X54152461Y-54845000D01*
X53952502Y-54884774D01*
X53764144Y-54962795D01*
X53641115Y-55045000D01*
X28146885Y-55045000D01*
X28023856Y-54962795D01*
X27835498Y-54884774D01*
X27635539Y-54845000D01*
X27431661Y-54845000D01*
X27231702Y-54884774D01*
X27043344Y-54962795D01*
X26873826Y-55076063D01*
X26729663Y-55220226D01*
X26616395Y-55389744D01*
X26538374Y-55578102D01*
X26498600Y-55778061D01*
X11909400Y-55778061D01*
X11909400Y-48416085D01*
X11991605Y-48293056D01*
X12069626Y-48104698D01*
X12109400Y-47904739D01*
X12109400Y-47700861D01*
X12069626Y-47500902D01*
X11991605Y-47312544D01*
X11878337Y-47143026D01*
X11734174Y-46998863D01*
X11564656Y-46885595D01*
X11376298Y-46807574D01*
X11176339Y-46767800D01*
X10972461Y-46767800D01*
X10772502Y-46807574D01*
X10584144Y-46885595D01*
X10414626Y-46998863D01*
X10270463Y-47143026D01*
X10157195Y-47312544D01*
X10079174Y-47500902D01*
X10039400Y-47700861D01*
X710000Y-47700861D01*
X710000Y-33375261D01*
X3232200Y-33375261D01*
X3232200Y-33579139D01*
X3271974Y-33779098D01*
X3349995Y-33967456D01*
X3463263Y-34136974D01*
X3607426Y-34281137D01*
X3776944Y-34394405D01*
X3965302Y-34472426D01*
X4165261Y-34512200D01*
X4227398Y-34512200D01*
X4262200Y-34547002D01*
X4285999Y-34576001D01*
X4314997Y-34599799D01*
X4401724Y-34670974D01*
X4533753Y-34741546D01*
X4677014Y-34785003D01*
X4826000Y-34799677D01*
X4863333Y-34796000D01*
X7043509Y-34796000D01*
X7087446Y-34839937D01*
X7256964Y-34953205D01*
X7445322Y-35031226D01*
X7645281Y-35071000D01*
X7849159Y-35071000D01*
X8049118Y-35031226D01*
X8237476Y-34953205D01*
X8406994Y-34839937D01*
X8551157Y-34695774D01*
X8664425Y-34526256D01*
X8742446Y-34337898D01*
X8782220Y-34137939D01*
X8782220Y-33934061D01*
X8742446Y-33734102D01*
X8664425Y-33545744D01*
X8551157Y-33376226D01*
X8406994Y-33232063D01*
X8237476Y-33118795D01*
X8049118Y-33040774D01*
X7849159Y-33001000D01*
X7645281Y-33001000D01*
X7445322Y-33040774D01*
X7256964Y-33118795D01*
X7087446Y-33232063D01*
X7043509Y-33276000D01*
X5282456Y-33276000D01*
X5262426Y-33175302D01*
X5184405Y-32986944D01*
X5071137Y-32817426D01*
X4926974Y-32673263D01*
X4757456Y-32559995D01*
X4569098Y-32481974D01*
X4369139Y-32442200D01*
X4165261Y-32442200D01*
X3965302Y-32481974D01*
X3776944Y-32559995D01*
X3607426Y-32673263D01*
X3463263Y-32817426D01*
X3349995Y-32986944D01*
X3271974Y-33175302D01*
X3232200Y-33375261D01*
X710000Y-33375261D01*
X710000Y-19506861D01*
X10293400Y-19506861D01*
X10293400Y-19710739D01*
X10333174Y-19910698D01*
X10411195Y-20099056D01*
X10524463Y-20268574D01*
X10668626Y-20412737D01*
X10838144Y-20526005D01*
X11026502Y-20604026D01*
X11226461Y-20643800D01*
X11430339Y-20643800D01*
X11630298Y-20604026D01*
X11818656Y-20526005D01*
X11988174Y-20412737D01*
X12132337Y-20268574D01*
X12245605Y-20099056D01*
X12323626Y-19910698D01*
X12363400Y-19710739D01*
X12363400Y-19648601D01*
X12977803Y-19034199D01*
X18725730Y-19034199D01*
X18699377Y-19166686D01*
X18699377Y-19228823D01*
X17269002Y-20659198D01*
X17239999Y-20683001D01*
X17190998Y-20742709D01*
X17145026Y-20798726D01*
X17083790Y-20913290D01*
X17074454Y-20930756D01*
X17030997Y-21074017D01*
X17020000Y-21185670D01*
X17020000Y-21185680D01*
X17016324Y-21223002D01*
X17020000Y-21260325D01*
X17020001Y-23915716D01*
X16900636Y-23995473D01*
X16756473Y-24139636D01*
X16643205Y-24309154D01*
X16565184Y-24497512D01*
X16525410Y-24697471D01*
X16525410Y-24901349D01*
X16565184Y-25101308D01*
X16643205Y-25289666D01*
X16756473Y-25459184D01*
X16900636Y-25603347D01*
X17070154Y-25716615D01*
X17258512Y-25794636D01*
X17458471Y-25834410D01*
X17662349Y-25834410D01*
X17862308Y-25794636D01*
X18050666Y-25716615D01*
X18220184Y-25603347D01*
X18364347Y-25459184D01*
X18477615Y-25289666D01*
X18555636Y-25101308D01*
X18595410Y-24901349D01*
X18595410Y-24697471D01*
X18555636Y-24497512D01*
X18540000Y-24459764D01*
X18540000Y-23594526D01*
X18661344Y-23675605D01*
X18849702Y-23753626D01*
X19049661Y-23793400D01*
X19253539Y-23793400D01*
X19453498Y-23753626D01*
X19641856Y-23675605D01*
X19811374Y-23562337D01*
X19855311Y-23518400D01*
X20231878Y-23518400D01*
X20269200Y-23522076D01*
X20306522Y-23518400D01*
X20306533Y-23518400D01*
X20418186Y-23507403D01*
X20561447Y-23463946D01*
X20682991Y-23398979D01*
X20682991Y-24597207D01*
X16724199Y-28556000D01*
X16662061Y-28556000D01*
X16462102Y-28595774D01*
X16273744Y-28673795D01*
X16104226Y-28787063D01*
X15960063Y-28931226D01*
X15846795Y-29100744D01*
X15768774Y-29289102D01*
X15729000Y-29489061D01*
X15729000Y-29692939D01*
X15768774Y-29892898D01*
X15846795Y-30081256D01*
X15960063Y-30250774D01*
X16104226Y-30394937D01*
X16273744Y-30508205D01*
X16462102Y-30586226D01*
X16662061Y-30626000D01*
X16865939Y-30626000D01*
X17065898Y-30586226D01*
X17254256Y-30508205D01*
X17423774Y-30394937D01*
X17567937Y-30250774D01*
X17681205Y-30081256D01*
X17759226Y-29892898D01*
X17799000Y-29692939D01*
X17799000Y-29630801D01*
X21263000Y-26166802D01*
X21263000Y-26920315D01*
X21180795Y-27043344D01*
X21102774Y-27231702D01*
X21063000Y-27431661D01*
X21063000Y-27635539D01*
X21102774Y-27835498D01*
X21180795Y-28023856D01*
X21294063Y-28193374D01*
X21438226Y-28337537D01*
X21607744Y-28450805D01*
X21796102Y-28528826D01*
X21996061Y-28568600D01*
X22199939Y-28568600D01*
X22399898Y-28528826D01*
X22588256Y-28450805D01*
X22757774Y-28337537D01*
X22901937Y-28193374D01*
X23015205Y-28023856D01*
X23093226Y-27835498D01*
X23133000Y-27635539D01*
X23133000Y-27431661D01*
X23093226Y-27231702D01*
X23015205Y-27043344D01*
X22933000Y-26920315D01*
X22933000Y-25806061D01*
X26498600Y-25806061D01*
X26498600Y-26009939D01*
X26538374Y-26209898D01*
X26616395Y-26398256D01*
X26729663Y-26567774D01*
X26873826Y-26711937D01*
X27043344Y-26825205D01*
X27231702Y-26903226D01*
X27431661Y-26943000D01*
X27635539Y-26943000D01*
X27835498Y-26903226D01*
X28023856Y-26825205D01*
X28193374Y-26711937D01*
X28237311Y-26668000D01*
X53601489Y-26668000D01*
X53645426Y-26711937D01*
X53814944Y-26825205D01*
X54003302Y-26903226D01*
X54203261Y-26943000D01*
X54407139Y-26943000D01*
X54607098Y-26903226D01*
X54795456Y-26825205D01*
X54964974Y-26711937D01*
X55109137Y-26567774D01*
X55222405Y-26398256D01*
X55300426Y-26209898D01*
X55340200Y-26009939D01*
X55340200Y-25806061D01*
X55300426Y-25606102D01*
X55222405Y-25417744D01*
X55109137Y-25248226D01*
X54964974Y-25104063D01*
X54795456Y-24990795D01*
X54607098Y-24912774D01*
X54407139Y-24873000D01*
X54203261Y-24873000D01*
X54003302Y-24912774D01*
X53814944Y-24990795D01*
X53645426Y-25104063D01*
X53601489Y-25148000D01*
X28237311Y-25148000D01*
X28193374Y-25104063D01*
X28023856Y-24990795D01*
X27835498Y-24912774D01*
X27635539Y-24873000D01*
X27431661Y-24873000D01*
X27231702Y-24912774D01*
X27043344Y-24990795D01*
X26873826Y-25104063D01*
X26729663Y-25248226D01*
X26616395Y-25417744D01*
X26538374Y-25606102D01*
X26498600Y-25806061D01*
X22933000Y-25806061D01*
X22933000Y-21234061D01*
X28683000Y-21234061D01*
X28683000Y-21437939D01*
X28722774Y-21637898D01*
X28800795Y-21826256D01*
X28914063Y-21995774D01*
X29058226Y-22139937D01*
X29227744Y-22253205D01*
X29416102Y-22331226D01*
X29616061Y-22371000D01*
X29819939Y-22371000D01*
X30019898Y-22331226D01*
X30208256Y-22253205D01*
X30331285Y-22171000D01*
X57413782Y-22171000D01*
X57454800Y-22175040D01*
X57495818Y-22171000D01*
X57495819Y-22171000D01*
X57618489Y-22158918D01*
X57775887Y-22111172D01*
X57920946Y-22033636D01*
X58048091Y-21929291D01*
X58074246Y-21897421D01*
X59592776Y-20378892D01*
X59737898Y-20350026D01*
X59926256Y-20272005D01*
X60095774Y-20158737D01*
X60239937Y-20014574D01*
X60353205Y-19845056D01*
X60431226Y-19656698D01*
X60471000Y-19456739D01*
X60471000Y-19252861D01*
X60431226Y-19052902D01*
X60353205Y-18864544D01*
X60239937Y-18695026D01*
X60095774Y-18550863D01*
X59926256Y-18437595D01*
X59737898Y-18359574D01*
X59537939Y-18319800D01*
X59334061Y-18319800D01*
X59134102Y-18359574D01*
X58945744Y-18437595D01*
X58776226Y-18550863D01*
X58632063Y-18695026D01*
X58518795Y-18864544D01*
X58440774Y-19052902D01*
X58411908Y-19198024D01*
X57108933Y-20501000D01*
X30331285Y-20501000D01*
X30208256Y-20418795D01*
X30019898Y-20340774D01*
X29819939Y-20301000D01*
X29616061Y-20301000D01*
X29416102Y-20340774D01*
X29227744Y-20418795D01*
X29058226Y-20532063D01*
X28914063Y-20676226D01*
X28800795Y-20845744D01*
X28722774Y-21034102D01*
X28683000Y-21234061D01*
X22933000Y-21234061D01*
X22933000Y-20665867D01*
X23575575Y-20023292D01*
X23720698Y-19994426D01*
X23909056Y-19916405D01*
X24078574Y-19803137D01*
X24222737Y-19658974D01*
X24336005Y-19489456D01*
X24414026Y-19301098D01*
X24453800Y-19101139D01*
X24453800Y-19034199D01*
X52300479Y-19034199D01*
X52337801Y-19037875D01*
X52375123Y-19034199D01*
X52375134Y-19034199D01*
X52486787Y-19023202D01*
X52630048Y-18979745D01*
X52762077Y-18909173D01*
X52877802Y-18814200D01*
X52901605Y-18785196D01*
X56631002Y-15055800D01*
X56693139Y-15055800D01*
X56893098Y-15016026D01*
X57081456Y-14938005D01*
X57250974Y-14824737D01*
X57395137Y-14680574D01*
X57508405Y-14511056D01*
X57586426Y-14322698D01*
X57626200Y-14122739D01*
X57626200Y-13918861D01*
X57586426Y-13718902D01*
X57508405Y-13530544D01*
X57476026Y-13482085D01*
X57547537Y-13410574D01*
X57660805Y-13241056D01*
X57738826Y-13052698D01*
X57778600Y-12852739D01*
X57778600Y-12648861D01*
X57738826Y-12448902D01*
X57660805Y-12260544D01*
X57547537Y-12091026D01*
X57403374Y-11946863D01*
X57233856Y-11833595D01*
X57045498Y-11755574D01*
X56845539Y-11715800D01*
X56641661Y-11715800D01*
X56441702Y-11755574D01*
X56253344Y-11833595D01*
X56083826Y-11946863D01*
X55939663Y-12091026D01*
X55826395Y-12260544D01*
X55748374Y-12448902D01*
X55708600Y-12648861D01*
X55708600Y-12710999D01*
X55565199Y-12854400D01*
X46772456Y-12854400D01*
X46824520Y-12819612D01*
X46982612Y-12661520D01*
X47052098Y-12557527D01*
X47149001Y-12478001D01*
X47172803Y-12448998D01*
X48172802Y-11449000D01*
X48234939Y-11449000D01*
X48434898Y-11409226D01*
X48623256Y-11331205D01*
X48792774Y-11217937D01*
X48936937Y-11073774D01*
X49050205Y-10904256D01*
X49089288Y-10809901D01*
X58489900Y-10809901D01*
X58489900Y-11013779D01*
X58529674Y-11213738D01*
X58607695Y-11402096D01*
X58720963Y-11571614D01*
X58865126Y-11715777D01*
X59034644Y-11829045D01*
X59223002Y-11907066D01*
X59422961Y-11946840D01*
X59626839Y-11946840D01*
X59826798Y-11907066D01*
X60015156Y-11829045D01*
X60184674Y-11715777D01*
X60228611Y-11671840D01*
X63137774Y-11671840D01*
X63188283Y-11766334D01*
X63267635Y-11863025D01*
X63364326Y-11942377D01*
X63474640Y-12001342D01*
X63594338Y-12037652D01*
X63718820Y-12049912D01*
X64718820Y-12049912D01*
X64843302Y-12037652D01*
X64963000Y-12001342D01*
X65073314Y-11942377D01*
X65170005Y-11863025D01*
X65249357Y-11766334D01*
X65308322Y-11656020D01*
X65344632Y-11536322D01*
X65356892Y-11411840D01*
X65356892Y-10770891D01*
X66884519Y-10770891D01*
X66981843Y-11045252D01*
X67130822Y-11295355D01*
X67325731Y-11511588D01*
X67559080Y-11685641D01*
X67821901Y-11810825D01*
X67969110Y-11855476D01*
X68199000Y-11734155D01*
X68199000Y-10541000D01*
X67005186Y-10541000D01*
X66884519Y-10770891D01*
X65356892Y-10770891D01*
X65356892Y-10411840D01*
X65344632Y-10287358D01*
X65308322Y-10167660D01*
X65249357Y-10057346D01*
X65170005Y-9960655D01*
X65073314Y-9881303D01*
X64963000Y-9822338D01*
X64843302Y-9786028D01*
X64718820Y-9773768D01*
X63718820Y-9773768D01*
X63594338Y-9786028D01*
X63474640Y-9822338D01*
X63364326Y-9881303D01*
X63267635Y-9960655D01*
X63188283Y-10057346D01*
X63137774Y-10151840D01*
X60228611Y-10151840D01*
X60184674Y-10107903D01*
X60015156Y-9994635D01*
X59826798Y-9916614D01*
X59626839Y-9876840D01*
X59422961Y-9876840D01*
X59223002Y-9916614D01*
X59034644Y-9994635D01*
X58865126Y-10107903D01*
X58720963Y-10252066D01*
X58607695Y-10421584D01*
X58529674Y-10609942D01*
X58489900Y-10809901D01*
X49089288Y-10809901D01*
X49128226Y-10715898D01*
X49168000Y-10515939D01*
X49168000Y-10312061D01*
X49128226Y-10112102D01*
X49050205Y-9923744D01*
X48936937Y-9754226D01*
X48792774Y-9610063D01*
X48702975Y-9550061D01*
X54083000Y-9550061D01*
X54083000Y-9753939D01*
X54122774Y-9953898D01*
X54200795Y-10142256D01*
X54314063Y-10311774D01*
X54458226Y-10455937D01*
X54627744Y-10569205D01*
X54816102Y-10647226D01*
X55016061Y-10687000D01*
X55219939Y-10687000D01*
X55419898Y-10647226D01*
X55608256Y-10569205D01*
X55777774Y-10455937D01*
X55921937Y-10311774D01*
X56035205Y-10142256D01*
X56113226Y-9953898D01*
X56153000Y-9753939D01*
X56153000Y-9691801D01*
X57210802Y-8634000D01*
X67047822Y-8634000D01*
X67172525Y-8820632D01*
X67379368Y-9027475D01*
X67555406Y-9145100D01*
X67325731Y-9316412D01*
X67130822Y-9532645D01*
X66981843Y-9782748D01*
X66884519Y-10057109D01*
X67005186Y-10287000D01*
X68199000Y-10287000D01*
X68199000Y-10267000D01*
X68453000Y-10267000D01*
X68453000Y-10287000D01*
X68473000Y-10287000D01*
X68473000Y-10541000D01*
X68453000Y-10541000D01*
X68453000Y-11734155D01*
X68682890Y-11855476D01*
X68830099Y-11810825D01*
X69092920Y-11685641D01*
X69326269Y-11511588D01*
X69521178Y-11295355D01*
X69590805Y-11178466D01*
X69712525Y-11360632D01*
X69919368Y-11567475D01*
X70162589Y-11729990D01*
X70432842Y-11841932D01*
X70719740Y-11899000D01*
X71012260Y-11899000D01*
X71299158Y-11841932D01*
X71569411Y-11729990D01*
X71812632Y-11567475D01*
X72019475Y-11360632D01*
X72136000Y-11186240D01*
X72252525Y-11360632D01*
X72459368Y-11567475D01*
X72702589Y-11729990D01*
X72972842Y-11841932D01*
X73259740Y-11899000D01*
X73552260Y-11899000D01*
X73839158Y-11841932D01*
X74109411Y-11729990D01*
X74352632Y-11567475D01*
X74559475Y-11360632D01*
X74721990Y-11117411D01*
X74833932Y-10847158D01*
X74891000Y-10560260D01*
X74891000Y-10267740D01*
X74833932Y-9980842D01*
X74721990Y-9710589D01*
X74559475Y-9467368D01*
X74427620Y-9335513D01*
X74500180Y-9313502D01*
X74610494Y-9254537D01*
X74707185Y-9175185D01*
X74786537Y-9078494D01*
X74845502Y-8968180D01*
X74881812Y-8848482D01*
X74894072Y-8724000D01*
X74894072Y-7024000D01*
X74881812Y-6899518D01*
X74845502Y-6779820D01*
X74786537Y-6669506D01*
X74707185Y-6572815D01*
X74610494Y-6493463D01*
X74500180Y-6434498D01*
X74380482Y-6398188D01*
X74256000Y-6385928D01*
X72556000Y-6385928D01*
X72431518Y-6398188D01*
X72311820Y-6434498D01*
X72265214Y-6459410D01*
X71390806Y-5585003D01*
X71367003Y-5555999D01*
X71251278Y-5461026D01*
X71119249Y-5390454D01*
X70975988Y-5346997D01*
X70864335Y-5336000D01*
X70864324Y-5336000D01*
X70827002Y-5332324D01*
X70789680Y-5336000D01*
X63755038Y-5336000D01*
X63717715Y-5332324D01*
X63680392Y-5336000D01*
X63680383Y-5336000D01*
X63568730Y-5346997D01*
X63425469Y-5390454D01*
X63293439Y-5461026D01*
X63242371Y-5502937D01*
X63177715Y-5555999D01*
X63153917Y-5584998D01*
X62934056Y-5804858D01*
X62871919Y-5804858D01*
X62671960Y-5844632D01*
X62483602Y-5922653D01*
X62314084Y-6035921D01*
X62169921Y-6180084D01*
X62056653Y-6349602D01*
X61978632Y-6537960D01*
X61938858Y-6737919D01*
X61938858Y-6941797D01*
X61973111Y-7114000D01*
X56933325Y-7114000D01*
X56896000Y-7110324D01*
X56858675Y-7114000D01*
X56858667Y-7114000D01*
X56747014Y-7124997D01*
X56603753Y-7168454D01*
X56471724Y-7239026D01*
X56355999Y-7333999D01*
X56332201Y-7362997D01*
X55078199Y-8617000D01*
X55016061Y-8617000D01*
X54816102Y-8656774D01*
X54627744Y-8734795D01*
X54458226Y-8848063D01*
X54314063Y-8992226D01*
X54200795Y-9161744D01*
X54122774Y-9350102D01*
X54083000Y-9550061D01*
X48702975Y-9550061D01*
X48623256Y-9496795D01*
X48434898Y-9418774D01*
X48324312Y-9396777D01*
X48411774Y-9338337D01*
X48555937Y-9194174D01*
X48669205Y-9024656D01*
X48747226Y-8836298D01*
X48787000Y-8636339D01*
X48787000Y-8569154D01*
X48953456Y-8500205D01*
X49122974Y-8386937D01*
X49267137Y-8242774D01*
X49380405Y-8073256D01*
X49458426Y-7884898D01*
X49498200Y-7684939D01*
X49498200Y-7481061D01*
X49458426Y-7281102D01*
X49380405Y-7092744D01*
X49267137Y-6923226D01*
X49122974Y-6779063D01*
X48953456Y-6665795D01*
X48765098Y-6587774D01*
X48565139Y-6548000D01*
X48361261Y-6548000D01*
X48161302Y-6587774D01*
X47972944Y-6665795D01*
X47803426Y-6779063D01*
X47759489Y-6823000D01*
X47154865Y-6823000D01*
X47116183Y-6628533D01*
X47030624Y-6421976D01*
X46906412Y-6236080D01*
X46748320Y-6077988D01*
X46562424Y-5953776D01*
X46355867Y-5868217D01*
X46136588Y-5824600D01*
X45913012Y-5824600D01*
X45693733Y-5868217D01*
X45487176Y-5953776D01*
X45301280Y-6077988D01*
X45143188Y-6236080D01*
X45018976Y-6421976D01*
X44933417Y-6628533D01*
X44889800Y-6847812D01*
X44889800Y-7071388D01*
X44933417Y-7290667D01*
X45018976Y-7497224D01*
X45143188Y-7683120D01*
X45301280Y-7841212D01*
X45487176Y-7965424D01*
X45693733Y-8050983D01*
X45913012Y-8094600D01*
X46084891Y-8094600D01*
X46108199Y-8123001D01*
X46214202Y-8209996D01*
X46161198Y-8263000D01*
X45989212Y-8263000D01*
X45769933Y-8306617D01*
X45563376Y-8392176D01*
X45377480Y-8516388D01*
X45219388Y-8674480D01*
X45095176Y-8860376D01*
X45009617Y-9066933D01*
X44966000Y-9286212D01*
X44966000Y-9509788D01*
X45009617Y-9729067D01*
X45095176Y-9935624D01*
X45219388Y-10121520D01*
X45377480Y-10279612D01*
X45563376Y-10403824D01*
X45769933Y-10489383D01*
X45989212Y-10533000D01*
X46212788Y-10533000D01*
X46432067Y-10489383D01*
X46638624Y-10403824D01*
X46824520Y-10279612D01*
X46982612Y-10121520D01*
X47106824Y-9935624D01*
X47192383Y-9729067D01*
X47236000Y-9509788D01*
X47236000Y-9434403D01*
X47261744Y-9451605D01*
X47450102Y-9529626D01*
X47560688Y-9551623D01*
X47473226Y-9610063D01*
X47329063Y-9754226D01*
X47215795Y-9923744D01*
X47137774Y-10112102D01*
X47098000Y-10312061D01*
X47098000Y-10374198D01*
X46568902Y-10903296D01*
X46432067Y-10846617D01*
X46212788Y-10803000D01*
X45989212Y-10803000D01*
X45769933Y-10846617D01*
X45563376Y-10932176D01*
X45377480Y-11056388D01*
X45219388Y-11214480D01*
X45095176Y-11400376D01*
X45009617Y-11606933D01*
X44966000Y-11826212D01*
X44966000Y-12049788D01*
X45009617Y-12269067D01*
X45095176Y-12475624D01*
X45219388Y-12661520D01*
X45377480Y-12819612D01*
X45429544Y-12854400D01*
X26357711Y-12854400D01*
X26313774Y-12810463D01*
X26144256Y-12697195D01*
X25955898Y-12619174D01*
X25755939Y-12579400D01*
X25552061Y-12579400D01*
X25352102Y-12619174D01*
X25163744Y-12697195D01*
X24994226Y-12810463D01*
X24850063Y-12954626D01*
X24736795Y-13124144D01*
X24658774Y-13312502D01*
X24619000Y-13512461D01*
X24619000Y-13716339D01*
X24658774Y-13916298D01*
X24736795Y-14104656D01*
X24850063Y-14274174D01*
X24994226Y-14418337D01*
X25163744Y-14531605D01*
X25352102Y-14609626D01*
X25552061Y-14649400D01*
X25755939Y-14649400D01*
X25955898Y-14609626D01*
X26144256Y-14531605D01*
X26313774Y-14418337D01*
X26357711Y-14374400D01*
X55162798Y-14374400D01*
X52023000Y-17514199D01*
X12700324Y-17514199D01*
X12663001Y-17510523D01*
X12625678Y-17514199D01*
X12625668Y-17514199D01*
X12514015Y-17525196D01*
X12370754Y-17568653D01*
X12238725Y-17639225D01*
X12123000Y-17734198D01*
X12099202Y-17763196D01*
X11288599Y-18573800D01*
X11226461Y-18573800D01*
X11026502Y-18613574D01*
X10838144Y-18691595D01*
X10668626Y-18804863D01*
X10524463Y-18949026D01*
X10411195Y-19118544D01*
X10333174Y-19306902D01*
X10293400Y-19506861D01*
X710000Y-19506861D01*
X710000Y-6029142D01*
X747903Y-5568115D01*
X1615000Y-5568115D01*
X1615000Y-6431885D01*
X1783513Y-7279057D01*
X2114064Y-8077076D01*
X2593948Y-8795274D01*
X3204726Y-9406052D01*
X3922924Y-9885936D01*
X4720943Y-10216487D01*
X5568115Y-10385000D01*
X6431885Y-10385000D01*
X7279057Y-10216487D01*
X8077076Y-9885936D01*
X8795274Y-9406052D01*
X9406052Y-8795274D01*
X9885936Y-8077076D01*
X10003879Y-7792335D01*
X18609000Y-7792335D01*
X18609000Y-8463664D01*
X18626870Y-8645101D01*
X18697489Y-8877900D01*
X18812167Y-9092448D01*
X18966498Y-9280502D01*
X19154551Y-9434833D01*
X19369099Y-9549511D01*
X19601898Y-9620130D01*
X19844000Y-9643975D01*
X20086101Y-9620130D01*
X20318900Y-9549511D01*
X20533448Y-9434833D01*
X20687309Y-9308564D01*
X20713463Y-9357494D01*
X20792815Y-9454185D01*
X20889506Y-9533537D01*
X20999820Y-9592502D01*
X21119518Y-9628812D01*
X21244000Y-9641072D01*
X22444000Y-9641072D01*
X22568482Y-9628812D01*
X22688180Y-9592502D01*
X22798494Y-9533537D01*
X22895185Y-9454185D01*
X22974537Y-9357494D01*
X23033502Y-9247180D01*
X23069812Y-9127482D01*
X23082072Y-9003000D01*
X23082072Y-8255000D01*
X28007000Y-8255000D01*
X28007000Y-8530000D01*
X28055507Y-8768496D01*
X28149610Y-8992946D01*
X28285693Y-9194725D01*
X28458526Y-9366078D01*
X28661467Y-9500421D01*
X28886718Y-9592591D01*
X28924391Y-9596462D01*
X29115000Y-9471731D01*
X29115000Y-8255000D01*
X28007000Y-8255000D01*
X23082072Y-8255000D01*
X23082072Y-7726000D01*
X28007000Y-7726000D01*
X28007000Y-8001000D01*
X29115000Y-8001000D01*
X29115000Y-6784269D01*
X29369000Y-6784269D01*
X29369000Y-8001000D01*
X29389000Y-8001000D01*
X29389000Y-8255000D01*
X29369000Y-8255000D01*
X29369000Y-9471731D01*
X29559609Y-9596462D01*
X29597282Y-9592591D01*
X29822533Y-9500421D01*
X30025474Y-9366078D01*
X30084677Y-9307382D01*
X30111463Y-9357494D01*
X30190815Y-9454185D01*
X30287506Y-9533537D01*
X30397820Y-9592502D01*
X30517518Y-9628812D01*
X30642000Y-9641072D01*
X31842000Y-9641072D01*
X31966482Y-9628812D01*
X32086180Y-9592502D01*
X32196494Y-9533537D01*
X32293185Y-9454185D01*
X32372537Y-9357494D01*
X32431502Y-9247180D01*
X32467812Y-9127482D01*
X32480072Y-9003000D01*
X32480072Y-7253000D01*
X32467812Y-7128518D01*
X32431502Y-7008820D01*
X32372537Y-6898506D01*
X32293185Y-6801815D01*
X32196494Y-6722463D01*
X32086180Y-6663498D01*
X31966482Y-6627188D01*
X31842000Y-6614928D01*
X30642000Y-6614928D01*
X30517518Y-6627188D01*
X30397820Y-6663498D01*
X30287506Y-6722463D01*
X30190815Y-6801815D01*
X30111463Y-6898506D01*
X30084677Y-6948618D01*
X30025474Y-6889922D01*
X29822533Y-6755579D01*
X29597282Y-6663409D01*
X29559609Y-6659538D01*
X29369000Y-6784269D01*
X29115000Y-6784269D01*
X28924391Y-6659538D01*
X28886718Y-6663409D01*
X28661467Y-6755579D01*
X28458526Y-6889922D01*
X28285693Y-7061275D01*
X28149610Y-7263054D01*
X28055507Y-7487504D01*
X28007000Y-7726000D01*
X23082072Y-7726000D01*
X23082072Y-7253000D01*
X23069812Y-7128518D01*
X23033502Y-7008820D01*
X22974537Y-6898506D01*
X22895185Y-6801815D01*
X22798494Y-6722463D01*
X22688180Y-6663498D01*
X22568482Y-6627188D01*
X22444000Y-6614928D01*
X21244000Y-6614928D01*
X21119518Y-6627188D01*
X20999820Y-6663498D01*
X20889506Y-6722463D01*
X20792815Y-6801815D01*
X20713463Y-6898506D01*
X20687309Y-6947436D01*
X20533449Y-6821167D01*
X20318901Y-6706489D01*
X20086102Y-6635870D01*
X19844000Y-6612025D01*
X19601899Y-6635870D01*
X19369100Y-6706489D01*
X19154552Y-6821167D01*
X18966499Y-6975498D01*
X18812168Y-7163551D01*
X18697489Y-7378099D01*
X18626870Y-7610898D01*
X18609000Y-7792335D01*
X10003879Y-7792335D01*
X10216487Y-7279057D01*
X10385000Y-6431885D01*
X10385000Y-5568115D01*
X10216487Y-4720943D01*
X9885936Y-3922924D01*
X9406052Y-3204726D01*
X8795274Y-2593948D01*
X8346370Y-2294000D01*
X45597928Y-2294000D01*
X45597928Y-3294000D01*
X45610188Y-3418482D01*
X45646498Y-3538180D01*
X45705463Y-3648494D01*
X45784815Y-3745185D01*
X45881506Y-3824537D01*
X45991820Y-3883502D01*
X46111518Y-3919812D01*
X46236000Y-3932072D01*
X47236000Y-3932072D01*
X47360482Y-3919812D01*
X47480180Y-3883502D01*
X47590494Y-3824537D01*
X47687185Y-3745185D01*
X47766537Y-3648494D01*
X47817046Y-3554000D01*
X48834199Y-3554000D01*
X49412070Y-4131871D01*
X49385180Y-4117498D01*
X49265482Y-4081188D01*
X49141000Y-4068928D01*
X48141000Y-4068928D01*
X48016518Y-4081188D01*
X47896820Y-4117498D01*
X47786506Y-4176463D01*
X47689815Y-4255815D01*
X47610463Y-4352506D01*
X47551498Y-4462820D01*
X47515188Y-4582518D01*
X47502928Y-4707000D01*
X47502928Y-5707000D01*
X47515188Y-5831482D01*
X47551498Y-5951180D01*
X47610463Y-6061494D01*
X47689815Y-6158185D01*
X47786506Y-6237537D01*
X47896820Y-6296502D01*
X48016518Y-6332812D01*
X48141000Y-6345072D01*
X48704270Y-6345072D01*
X48839201Y-6480002D01*
X48862999Y-6509001D01*
X48978724Y-6603974D01*
X49110753Y-6674546D01*
X49254014Y-6718003D01*
X49365667Y-6729000D01*
X49365675Y-6729000D01*
X49403000Y-6732676D01*
X49440325Y-6729000D01*
X50223289Y-6729000D01*
X50267226Y-6772937D01*
X50436744Y-6886205D01*
X50625102Y-6964226D01*
X50825061Y-7004000D01*
X51028939Y-7004000D01*
X51228898Y-6964226D01*
X51417256Y-6886205D01*
X51586774Y-6772937D01*
X51730937Y-6628774D01*
X51844205Y-6459256D01*
X51922226Y-6270898D01*
X51962000Y-6070939D01*
X51962000Y-5867061D01*
X51922226Y-5667102D01*
X51844205Y-5478744D01*
X51801652Y-5415059D01*
X51857937Y-5358774D01*
X51971205Y-5189256D01*
X52049226Y-5000898D01*
X52089000Y-4800939D01*
X52089000Y-4597061D01*
X52049226Y-4397102D01*
X51971205Y-4208744D01*
X51857937Y-4039226D01*
X51713774Y-3895063D01*
X51544256Y-3781795D01*
X51355898Y-3703774D01*
X51155939Y-3664000D01*
X51093802Y-3664000D01*
X49712804Y-2283003D01*
X49689001Y-2253999D01*
X49573276Y-2159026D01*
X49441247Y-2088454D01*
X49297986Y-2044997D01*
X49186333Y-2034000D01*
X49186322Y-2034000D01*
X49149000Y-2030324D01*
X49111678Y-2034000D01*
X47817046Y-2034000D01*
X47766537Y-1939506D01*
X47687185Y-1842815D01*
X47590494Y-1763463D01*
X47480180Y-1704498D01*
X47360482Y-1668188D01*
X47236000Y-1655928D01*
X46236000Y-1655928D01*
X46111518Y-1668188D01*
X45991820Y-1704498D01*
X45881506Y-1763463D01*
X45784815Y-1842815D01*
X45705463Y-1939506D01*
X45646498Y-2049820D01*
X45610188Y-2169518D01*
X45597928Y-2294000D01*
X8346370Y-2294000D01*
X8077076Y-2114064D01*
X7279057Y-1783513D01*
X6431885Y-1615000D01*
X5568115Y-1615000D01*
X4720943Y-1783513D01*
X3922924Y-2114064D01*
X3204726Y-2593948D01*
X2593948Y-3204726D01*
X2114064Y-3922924D01*
X1783513Y-4720943D01*
X1615000Y-5568115D01*
X747903Y-5568115D01*
X783397Y-5136392D01*
X994491Y-4295990D01*
X1340017Y-3501336D01*
X1810685Y-2773794D01*
X2393864Y-2132890D01*
X3073881Y-1595845D01*
X3832489Y-1177070D01*
X4649306Y-887820D01*
X5514656Y-733677D01*
X6016736Y-710000D01*
X77597000Y-710000D01*
X77597000Y-3178200D01*
G36*
X166863608Y-783397D02*
G01*
X167704010Y-994491D01*
X168498664Y-1340017D01*
X169226206Y-1810685D01*
X169867110Y-2393864D01*
X170404155Y-3073881D01*
X170822930Y-3832489D01*
X171112180Y-4649306D01*
X171266323Y-5514656D01*
X171290000Y-6016736D01*
X171290001Y-165970846D01*
X171216603Y-166863606D01*
X171005509Y-167704010D01*
X170659983Y-168498664D01*
X170189315Y-169226206D01*
X169606136Y-169867110D01*
X168926115Y-170404159D01*
X168167507Y-170822932D01*
X167350692Y-171112181D01*
X166485344Y-171266323D01*
X165983265Y-171290000D01*
X94107000Y-171290000D01*
X94107000Y-165568115D01*
X161615000Y-165568115D01*
X161615000Y-166431885D01*
X161783513Y-167279057D01*
X162114064Y-168077076D01*
X162593948Y-168795274D01*
X163204726Y-169406052D01*
X163922924Y-169885936D01*
X164720943Y-170216487D01*
X165568115Y-170385000D01*
X166431885Y-170385000D01*
X167279057Y-170216487D01*
X168077076Y-169885936D01*
X168795274Y-169406052D01*
X169406052Y-168795274D01*
X169885936Y-168077076D01*
X170216487Y-167279057D01*
X170385000Y-166431885D01*
X170385000Y-165568115D01*
X170216487Y-164720943D01*
X169885936Y-163922924D01*
X169406052Y-163204726D01*
X168795274Y-162593948D01*
X168077076Y-162114064D01*
X167279057Y-161783513D01*
X166431885Y-161615000D01*
X165568115Y-161615000D01*
X164720943Y-161783513D01*
X163922924Y-162114064D01*
X163204726Y-162593948D01*
X162593948Y-163204726D01*
X162114064Y-163922924D01*
X161783513Y-164720943D01*
X161615000Y-165568115D01*
X94107000Y-165568115D01*
X94107000Y-146628460D01*
X113610515Y-146628460D01*
X113733544Y-146710665D01*
X113921902Y-146788686D01*
X114121861Y-146828460D01*
X114325739Y-146828460D01*
X114525698Y-146788686D01*
X114714056Y-146710665D01*
X114883574Y-146597397D01*
X115027737Y-146453234D01*
X115141005Y-146283716D01*
X115219026Y-146095358D01*
X115258800Y-145895399D01*
X115258800Y-145696601D01*
X116396820Y-145696601D01*
X116396820Y-145900479D01*
X116436594Y-146100438D01*
X116514615Y-146288796D01*
X116627883Y-146458314D01*
X116772046Y-146602477D01*
X116941564Y-146715745D01*
X117129922Y-146793766D01*
X117329881Y-146833540D01*
X117533759Y-146833540D01*
X117733718Y-146793766D01*
X117922076Y-146715745D01*
X118091594Y-146602477D01*
X118135531Y-146558540D01*
X143469229Y-146558540D01*
X143510626Y-146599937D01*
X143680144Y-146713205D01*
X143868502Y-146791226D01*
X144068461Y-146831000D01*
X144272339Y-146831000D01*
X144472298Y-146791226D01*
X144660656Y-146713205D01*
X144830174Y-146599937D01*
X144974337Y-146455774D01*
X145087605Y-146286256D01*
X145165626Y-146097898D01*
X145205400Y-145897939D01*
X145205400Y-145694061D01*
X145165626Y-145494102D01*
X145087605Y-145305744D01*
X144974337Y-145136226D01*
X144830174Y-144992063D01*
X144660656Y-144878795D01*
X144472298Y-144800774D01*
X144272339Y-144761000D01*
X144068461Y-144761000D01*
X143868502Y-144800774D01*
X143680144Y-144878795D01*
X143510626Y-144992063D01*
X143464149Y-145038540D01*
X118135531Y-145038540D01*
X118091594Y-144994603D01*
X117922076Y-144881335D01*
X117733718Y-144803314D01*
X117533759Y-144763540D01*
X117329881Y-144763540D01*
X117129922Y-144803314D01*
X116941564Y-144881335D01*
X116772046Y-144994603D01*
X116627883Y-145138766D01*
X116514615Y-145308284D01*
X116436594Y-145496642D01*
X116396820Y-145696601D01*
X115258800Y-145696601D01*
X115258800Y-145691521D01*
X115219026Y-145491562D01*
X115141005Y-145303204D01*
X115027737Y-145133686D01*
X114883574Y-144989523D01*
X114714056Y-144876255D01*
X114525698Y-144798234D01*
X114325739Y-144758460D01*
X114121861Y-144758460D01*
X113921902Y-144798234D01*
X113733544Y-144876255D01*
X113610515Y-144958460D01*
X94107000Y-144958460D01*
X94107000Y-116533200D01*
X113494689Y-116533200D01*
X113538626Y-116577137D01*
X113708144Y-116690405D01*
X113896502Y-116768426D01*
X114096461Y-116808200D01*
X114300339Y-116808200D01*
X114500298Y-116768426D01*
X114688656Y-116690405D01*
X114858174Y-116577137D01*
X115002337Y-116432974D01*
X115115605Y-116263456D01*
X115193626Y-116075098D01*
X115233400Y-115875139D01*
X115233400Y-115671261D01*
X116414600Y-115671261D01*
X116414600Y-115875139D01*
X116454374Y-116075098D01*
X116532395Y-116263456D01*
X116645663Y-116432974D01*
X116789826Y-116577137D01*
X116959344Y-116690405D01*
X117147702Y-116768426D01*
X117347661Y-116808200D01*
X117551539Y-116808200D01*
X117751498Y-116768426D01*
X117939856Y-116690405D01*
X118109374Y-116577137D01*
X118153311Y-116533200D01*
X143517489Y-116533200D01*
X143561426Y-116577137D01*
X143730944Y-116690405D01*
X143919302Y-116768426D01*
X144119261Y-116808200D01*
X144323139Y-116808200D01*
X144523098Y-116768426D01*
X144711456Y-116690405D01*
X144880974Y-116577137D01*
X145025137Y-116432974D01*
X145138405Y-116263456D01*
X145216426Y-116075098D01*
X145256200Y-115875139D01*
X145256200Y-115671261D01*
X145216426Y-115471302D01*
X145138405Y-115282944D01*
X145025137Y-115113426D01*
X144880974Y-114969263D01*
X144711456Y-114855995D01*
X144523098Y-114777974D01*
X144323139Y-114738200D01*
X144119261Y-114738200D01*
X143919302Y-114777974D01*
X143730944Y-114855995D01*
X143561426Y-114969263D01*
X143517489Y-115013200D01*
X118153311Y-115013200D01*
X118109374Y-114969263D01*
X117939856Y-114855995D01*
X117751498Y-114777974D01*
X117551539Y-114738200D01*
X117347661Y-114738200D01*
X117147702Y-114777974D01*
X116959344Y-114855995D01*
X116789826Y-114969263D01*
X116645663Y-115113426D01*
X116532395Y-115282944D01*
X116454374Y-115471302D01*
X116414600Y-115671261D01*
X115233400Y-115671261D01*
X115193626Y-115471302D01*
X115115605Y-115282944D01*
X115002337Y-115113426D01*
X114858174Y-114969263D01*
X114688656Y-114855995D01*
X114500298Y-114777974D01*
X114300339Y-114738200D01*
X114096461Y-114738200D01*
X113896502Y-114777974D01*
X113708144Y-114855995D01*
X113538626Y-114969263D01*
X113494689Y-115013200D01*
X94107000Y-115013200D01*
X94107000Y-86612000D01*
X113494689Y-86612000D01*
X113538626Y-86655937D01*
X113708144Y-86769205D01*
X113896502Y-86847226D01*
X114096461Y-86887000D01*
X114300339Y-86887000D01*
X114500298Y-86847226D01*
X114688656Y-86769205D01*
X114858174Y-86655937D01*
X115002337Y-86511774D01*
X115115605Y-86342256D01*
X115193626Y-86153898D01*
X115233400Y-85953939D01*
X115233400Y-85750061D01*
X116414600Y-85750061D01*
X116414600Y-85953939D01*
X116454374Y-86153898D01*
X116532395Y-86342256D01*
X116645663Y-86511774D01*
X116789826Y-86655937D01*
X116959344Y-86769205D01*
X117147702Y-86847226D01*
X117347661Y-86887000D01*
X117551539Y-86887000D01*
X117751498Y-86847226D01*
X117939856Y-86769205D01*
X118109374Y-86655937D01*
X118153311Y-86612000D01*
X143466689Y-86612000D01*
X143510626Y-86655937D01*
X143680144Y-86769205D01*
X143868502Y-86847226D01*
X144068461Y-86887000D01*
X144272339Y-86887000D01*
X144472298Y-86847226D01*
X144660656Y-86769205D01*
X144830174Y-86655937D01*
X144974337Y-86511774D01*
X145087605Y-86342256D01*
X145165626Y-86153898D01*
X145205400Y-85953939D01*
X145205400Y-85750061D01*
X145165626Y-85550102D01*
X145087605Y-85361744D01*
X144974337Y-85192226D01*
X144830174Y-85048063D01*
X144660656Y-84934795D01*
X144472298Y-84856774D01*
X144272339Y-84817000D01*
X144068461Y-84817000D01*
X143868502Y-84856774D01*
X143680144Y-84934795D01*
X143510626Y-85048063D01*
X143466689Y-85092000D01*
X118153311Y-85092000D01*
X118109374Y-85048063D01*
X117939856Y-84934795D01*
X117751498Y-84856774D01*
X117551539Y-84817000D01*
X117347661Y-84817000D01*
X117147702Y-84856774D01*
X116959344Y-84934795D01*
X116789826Y-85048063D01*
X116645663Y-85192226D01*
X116532395Y-85361744D01*
X116454374Y-85550102D01*
X116414600Y-85750061D01*
X115233400Y-85750061D01*
X115193626Y-85550102D01*
X115115605Y-85361744D01*
X115002337Y-85192226D01*
X114858174Y-85048063D01*
X114688656Y-84934795D01*
X114500298Y-84856774D01*
X114300339Y-84817000D01*
X114096461Y-84817000D01*
X113896502Y-84856774D01*
X113708144Y-84934795D01*
X113538626Y-85048063D01*
X113494689Y-85092000D01*
X94107000Y-85092000D01*
X94107000Y-56640000D01*
X113494689Y-56640000D01*
X113538626Y-56683937D01*
X113708144Y-56797205D01*
X113896502Y-56875226D01*
X114096461Y-56915000D01*
X114300339Y-56915000D01*
X114500298Y-56875226D01*
X114688656Y-56797205D01*
X114858174Y-56683937D01*
X115002337Y-56539774D01*
X115115605Y-56370256D01*
X115193626Y-56181898D01*
X115233400Y-55981939D01*
X115233400Y-55778061D01*
X116414600Y-55778061D01*
X116414600Y-55981939D01*
X116454374Y-56181898D01*
X116532395Y-56370256D01*
X116645663Y-56539774D01*
X116789826Y-56683937D01*
X116959344Y-56797205D01*
X117147702Y-56875226D01*
X117347661Y-56915000D01*
X117551539Y-56915000D01*
X117751498Y-56875226D01*
X117939856Y-56797205D01*
X118109374Y-56683937D01*
X118153311Y-56640000D01*
X143466689Y-56640000D01*
X143510626Y-56683937D01*
X143680144Y-56797205D01*
X143868502Y-56875226D01*
X144068461Y-56915000D01*
X144272339Y-56915000D01*
X144472298Y-56875226D01*
X144660656Y-56797205D01*
X144830174Y-56683937D01*
X144974337Y-56539774D01*
X145087605Y-56370256D01*
X145165626Y-56181898D01*
X145205400Y-55981939D01*
X145205400Y-55778061D01*
X145165626Y-55578102D01*
X145087605Y-55389744D01*
X144974337Y-55220226D01*
X144830174Y-55076063D01*
X144660656Y-54962795D01*
X144472298Y-54884774D01*
X144272339Y-54845000D01*
X144068461Y-54845000D01*
X143868502Y-54884774D01*
X143680144Y-54962795D01*
X143510626Y-55076063D01*
X143466689Y-55120000D01*
X118153311Y-55120000D01*
X118109374Y-55076063D01*
X117939856Y-54962795D01*
X117751498Y-54884774D01*
X117551539Y-54845000D01*
X117347661Y-54845000D01*
X117147702Y-54884774D01*
X116959344Y-54962795D01*
X116789826Y-55076063D01*
X116645663Y-55220226D01*
X116532395Y-55389744D01*
X116454374Y-55578102D01*
X116414600Y-55778061D01*
X115233400Y-55778061D01*
X115193626Y-55578102D01*
X115115605Y-55389744D01*
X115002337Y-55220226D01*
X114858174Y-55076063D01*
X114688656Y-54962795D01*
X114500298Y-54884774D01*
X114300339Y-54845000D01*
X114096461Y-54845000D01*
X113896502Y-54884774D01*
X113708144Y-54962795D01*
X113538626Y-55076063D01*
X113494689Y-55120000D01*
X94107000Y-55120000D01*
X94107000Y-26668000D01*
X113494689Y-26668000D01*
X113538626Y-26711937D01*
X113708144Y-26825205D01*
X113896502Y-26903226D01*
X114096461Y-26943000D01*
X114300339Y-26943000D01*
X114500298Y-26903226D01*
X114688656Y-26825205D01*
X114858174Y-26711937D01*
X115002337Y-26567774D01*
X115115605Y-26398256D01*
X115193626Y-26209898D01*
X115233400Y-26009939D01*
X115233400Y-25806061D01*
X116414600Y-25806061D01*
X116414600Y-26009939D01*
X116454374Y-26209898D01*
X116532395Y-26398256D01*
X116645663Y-26567774D01*
X116789826Y-26711937D01*
X116959344Y-26825205D01*
X117147702Y-26903226D01*
X117347661Y-26943000D01*
X117551539Y-26943000D01*
X117751498Y-26903226D01*
X117939856Y-26825205D01*
X118109374Y-26711937D01*
X118153311Y-26668000D01*
X143622497Y-26668000D01*
X143781744Y-26774405D01*
X143970102Y-26852426D01*
X144170061Y-26892200D01*
X144373939Y-26892200D01*
X144573898Y-26852426D01*
X144762256Y-26774405D01*
X144931774Y-26661137D01*
X145075937Y-26516974D01*
X145189205Y-26347456D01*
X145267226Y-26159098D01*
X145307000Y-25959139D01*
X145307000Y-25755261D01*
X145267226Y-25555302D01*
X145189205Y-25366944D01*
X145075937Y-25197426D01*
X144931774Y-25053263D01*
X144762256Y-24939995D01*
X144573898Y-24861974D01*
X144373939Y-24822200D01*
X144170061Y-24822200D01*
X143970102Y-24861974D01*
X143781744Y-24939995D01*
X143612226Y-25053263D01*
X143517489Y-25148000D01*
X118153311Y-25148000D01*
X118109374Y-25104063D01*
X117939856Y-24990795D01*
X117751498Y-24912774D01*
X117551539Y-24873000D01*
X117347661Y-24873000D01*
X117147702Y-24912774D01*
X116959344Y-24990795D01*
X116789826Y-25104063D01*
X116645663Y-25248226D01*
X116532395Y-25417744D01*
X116454374Y-25606102D01*
X116414600Y-25806061D01*
X115233400Y-25806061D01*
X115193626Y-25606102D01*
X115115605Y-25417744D01*
X115002337Y-25248226D01*
X114858174Y-25104063D01*
X114688656Y-24990795D01*
X114500298Y-24912774D01*
X114300339Y-24873000D01*
X114096461Y-24873000D01*
X113896502Y-24912774D01*
X113708144Y-24990795D01*
X113538626Y-25104063D01*
X113494689Y-25148000D01*
X94107000Y-25148000D01*
X94107000Y-16050800D01*
X98102289Y-16050800D01*
X98146226Y-16094737D01*
X98315744Y-16208005D01*
X98504102Y-16286026D01*
X98704061Y-16325800D01*
X98907939Y-16325800D01*
X99107898Y-16286026D01*
X99296256Y-16208005D01*
X99465774Y-16094737D01*
X99609937Y-15950574D01*
X99723205Y-15781056D01*
X99768481Y-15671751D01*
X104978161Y-20881432D01*
X105004307Y-20913291D01*
X105131452Y-21017636D01*
X105276511Y-21095172D01*
X105433909Y-21142918D01*
X105556579Y-21155000D01*
X105556580Y-21155000D01*
X105597598Y-21159040D01*
X105638616Y-21155000D01*
X150174533Y-21155000D01*
X154867000Y-25847468D01*
X154867001Y-46948971D01*
X154862960Y-46990000D01*
X154879082Y-47153688D01*
X154926828Y-47311086D01*
X154926829Y-47311087D01*
X155004365Y-47456146D01*
X155108710Y-47583291D01*
X155140574Y-47609441D01*
X159400559Y-51869427D01*
X159426709Y-51901291D01*
X159553854Y-52005636D01*
X159698913Y-52083172D01*
X159856311Y-52130918D01*
X160019999Y-52147040D01*
X160061018Y-52143000D01*
X161600713Y-52143000D01*
X161603498Y-52152180D01*
X161662463Y-52262494D01*
X161741815Y-52359185D01*
X161838506Y-52438537D01*
X161948820Y-52497502D01*
X162068518Y-52533812D01*
X162193000Y-52546072D01*
X163943000Y-52546072D01*
X164067482Y-52533812D01*
X164187180Y-52497502D01*
X164297494Y-52438537D01*
X164394185Y-52359185D01*
X164473537Y-52262494D01*
X164532502Y-52152180D01*
X164568812Y-52032482D01*
X164581072Y-51908000D01*
X164581072Y-50708000D01*
X164568812Y-50583518D01*
X164532502Y-50463820D01*
X164473537Y-50353506D01*
X164394185Y-50256815D01*
X164297494Y-50177463D01*
X164247382Y-50150677D01*
X164306078Y-50091474D01*
X164440421Y-49888533D01*
X164532591Y-49663282D01*
X164536462Y-49625609D01*
X164411731Y-49435000D01*
X163195000Y-49435000D01*
X163195000Y-49455000D01*
X162941000Y-49455000D01*
X162941000Y-49435000D01*
X161724269Y-49435000D01*
X161599538Y-49625609D01*
X161603409Y-49663282D01*
X161695579Y-49888533D01*
X161829922Y-50091474D01*
X161888618Y-50150677D01*
X161838506Y-50177463D01*
X161741815Y-50256815D01*
X161662463Y-50353506D01*
X161603498Y-50463820D01*
X161600713Y-50473000D01*
X160365868Y-50473000D01*
X158883259Y-48990391D01*
X161599538Y-48990391D01*
X161724269Y-49181000D01*
X162941000Y-49181000D01*
X162941000Y-48073000D01*
X163195000Y-48073000D01*
X163195000Y-49181000D01*
X164411731Y-49181000D01*
X164536462Y-48990391D01*
X164532591Y-48952718D01*
X164440421Y-48727467D01*
X164306078Y-48524526D01*
X164134725Y-48351693D01*
X163932946Y-48215610D01*
X163708496Y-48121507D01*
X163470000Y-48073000D01*
X163195000Y-48073000D01*
X162941000Y-48073000D01*
X162666000Y-48073000D01*
X162427504Y-48121507D01*
X162203054Y-48215610D01*
X162001275Y-48351693D01*
X161829922Y-48524526D01*
X161695579Y-48727467D01*
X161603409Y-48952718D01*
X161599538Y-48990391D01*
X158883259Y-48990391D01*
X156537000Y-46644133D01*
X156537000Y-25542618D01*
X156541040Y-25501600D01*
X156524918Y-25337911D01*
X156477172Y-25180513D01*
X156399636Y-25035454D01*
X156362985Y-24990795D01*
X156295291Y-24908309D01*
X156263428Y-24882160D01*
X151139846Y-19758579D01*
X151113691Y-19726709D01*
X150986546Y-19622364D01*
X150841487Y-19544828D01*
X150684089Y-19497082D01*
X150561419Y-19485000D01*
X150561418Y-19485000D01*
X150520400Y-19480960D01*
X150479382Y-19485000D01*
X105943467Y-19485000D01*
X102460467Y-16002000D01*
X149866396Y-16002000D01*
X149904722Y-16391128D01*
X150018226Y-16765302D01*
X150202547Y-17110143D01*
X150450602Y-17412398D01*
X150752857Y-17660453D01*
X151097698Y-17844774D01*
X151471872Y-17958278D01*
X151763490Y-17987000D01*
X152958510Y-17987000D01*
X153250128Y-17958278D01*
X153624302Y-17844774D01*
X153969143Y-17660453D01*
X154271398Y-17412398D01*
X154320965Y-17352000D01*
X155372928Y-17352000D01*
X155385188Y-17476482D01*
X155421498Y-17596180D01*
X155480463Y-17706494D01*
X155559815Y-17803185D01*
X155656506Y-17882537D01*
X155766820Y-17941502D01*
X155886518Y-17977812D01*
X156011000Y-17990072D01*
X157575250Y-17987000D01*
X157734000Y-17828250D01*
X157734000Y-16129000D01*
X157988000Y-16129000D01*
X157988000Y-17828250D01*
X158146750Y-17987000D01*
X159711000Y-17990072D01*
X159835482Y-17977812D01*
X159955180Y-17941502D01*
X160065494Y-17882537D01*
X160162185Y-17803185D01*
X160241537Y-17706494D01*
X160300502Y-17596180D01*
X160336812Y-17476482D01*
X160349072Y-17352000D01*
X160346000Y-16287750D01*
X160187250Y-16129000D01*
X157988000Y-16129000D01*
X157734000Y-16129000D01*
X155534750Y-16129000D01*
X155376000Y-16287750D01*
X155372928Y-17352000D01*
X154320965Y-17352000D01*
X154519453Y-17110143D01*
X154703774Y-16765302D01*
X154817278Y-16391128D01*
X154855604Y-16002000D01*
X154817278Y-15612872D01*
X154703774Y-15238698D01*
X154519453Y-14893857D01*
X154320966Y-14652000D01*
X155372928Y-14652000D01*
X155376000Y-15716250D01*
X155534750Y-15875000D01*
X157734000Y-15875000D01*
X157734000Y-14175750D01*
X157988000Y-14175750D01*
X157988000Y-15875000D01*
X160187250Y-15875000D01*
X160270529Y-15791721D01*
X163026000Y-15791721D01*
X163026000Y-16212279D01*
X163108047Y-16624756D01*
X163268988Y-17013302D01*
X163502637Y-17362983D01*
X163800017Y-17660363D01*
X164149698Y-17894012D01*
X164538244Y-18054953D01*
X164950721Y-18137000D01*
X165371279Y-18137000D01*
X165783756Y-18054953D01*
X166172302Y-17894012D01*
X166521983Y-17660363D01*
X166819363Y-17362983D01*
X167053012Y-17013302D01*
X167213953Y-16624756D01*
X167296000Y-16212279D01*
X167296000Y-15791721D01*
X167213953Y-15379244D01*
X167053012Y-14990698D01*
X166819363Y-14641017D01*
X166521983Y-14343637D01*
X166172302Y-14109988D01*
X165783756Y-13949047D01*
X165371279Y-13867000D01*
X164950721Y-13867000D01*
X164538244Y-13949047D01*
X164149698Y-14109988D01*
X163800017Y-14343637D01*
X163502637Y-14641017D01*
X163268988Y-14990698D01*
X163108047Y-15379244D01*
X163026000Y-15791721D01*
X160270529Y-15791721D01*
X160346000Y-15716250D01*
X160349072Y-14652000D01*
X160336812Y-14527518D01*
X160300502Y-14407820D01*
X160241537Y-14297506D01*
X160162185Y-14200815D01*
X160065494Y-14121463D01*
X159955180Y-14062498D01*
X159835482Y-14026188D01*
X159711000Y-14013928D01*
X158146750Y-14017000D01*
X157988000Y-14175750D01*
X157734000Y-14175750D01*
X157575250Y-14017000D01*
X156011000Y-14013928D01*
X155886518Y-14026188D01*
X155766820Y-14062498D01*
X155656506Y-14121463D01*
X155559815Y-14200815D01*
X155480463Y-14297506D01*
X155421498Y-14407820D01*
X155385188Y-14527518D01*
X155372928Y-14652000D01*
X154320966Y-14652000D01*
X154271398Y-14591602D01*
X153969143Y-14343547D01*
X153624302Y-14159226D01*
X153250128Y-14045722D01*
X152958510Y-14017000D01*
X151763490Y-14017000D01*
X151471872Y-14045722D01*
X151097698Y-14159226D01*
X150752857Y-14343547D01*
X150450602Y-14591602D01*
X150202547Y-14893857D01*
X150018226Y-15238698D01*
X149904722Y-15612872D01*
X149866396Y-16002000D01*
X102460467Y-16002000D01*
X99578467Y-13120000D01*
X112049928Y-13120000D01*
X112049928Y-14820000D01*
X112062188Y-14944482D01*
X112098498Y-15064180D01*
X112157463Y-15174494D01*
X112236815Y-15271185D01*
X112333506Y-15350537D01*
X112443820Y-15409502D01*
X112563518Y-15445812D01*
X112688000Y-15458072D01*
X114388000Y-15458072D01*
X114512482Y-15445812D01*
X114632180Y-15409502D01*
X114742494Y-15350537D01*
X114839185Y-15271185D01*
X114918537Y-15174494D01*
X114977502Y-15064180D01*
X114999513Y-14991620D01*
X115131368Y-15123475D01*
X115374589Y-15285990D01*
X115644842Y-15397932D01*
X115931740Y-15455000D01*
X116224260Y-15455000D01*
X116511158Y-15397932D01*
X116781411Y-15285990D01*
X117024632Y-15123475D01*
X117231475Y-14916632D01*
X117393990Y-14673411D01*
X117505932Y-14403158D01*
X117563000Y-14116260D01*
X117563000Y-13823740D01*
X117505932Y-13536842D01*
X117393990Y-13266589D01*
X117231475Y-13023368D01*
X117024632Y-12816525D01*
X116781411Y-12654010D01*
X116511158Y-12542068D01*
X116224260Y-12485000D01*
X115931740Y-12485000D01*
X115644842Y-12542068D01*
X115374589Y-12654010D01*
X115131368Y-12816525D01*
X114999513Y-12948380D01*
X114977502Y-12875820D01*
X114918537Y-12765506D01*
X114839185Y-12668815D01*
X114742494Y-12589463D01*
X114632180Y-12530498D01*
X114512482Y-12494188D01*
X114388000Y-12481928D01*
X112688000Y-12481928D01*
X112563518Y-12494188D01*
X112443820Y-12530498D01*
X112333506Y-12589463D01*
X112236815Y-12668815D01*
X112157463Y-12765506D01*
X112098498Y-12875820D01*
X112062188Y-12995518D01*
X112049928Y-13120000D01*
X99578467Y-13120000D01*
X94107000Y-7648534D01*
X94107000Y-5270419D01*
X111937000Y-5270419D01*
X111937000Y-5651581D01*
X112011361Y-6025419D01*
X112157225Y-6377566D01*
X112368987Y-6694491D01*
X112638509Y-6964013D01*
X112955434Y-7175775D01*
X113307581Y-7321639D01*
X113681419Y-7396000D01*
X114062581Y-7396000D01*
X114436419Y-7321639D01*
X114788566Y-7175775D01*
X115105491Y-6964013D01*
X115375013Y-6694491D01*
X115586775Y-6377566D01*
X115732639Y-6025419D01*
X115807000Y-5651581D01*
X115807000Y-5270419D01*
X115732639Y-4896581D01*
X115586775Y-4544434D01*
X115375013Y-4227509D01*
X115308504Y-4161000D01*
X116933928Y-4161000D01*
X116933928Y-6761000D01*
X116946188Y-6885482D01*
X116982498Y-7005180D01*
X117041463Y-7115494D01*
X117120815Y-7212185D01*
X117217506Y-7291537D01*
X117327820Y-7350502D01*
X117447518Y-7386812D01*
X117572000Y-7399072D01*
X120172000Y-7399072D01*
X120296482Y-7386812D01*
X120416180Y-7350502D01*
X120526494Y-7291537D01*
X120623185Y-7212185D01*
X120702537Y-7115494D01*
X120761502Y-7005180D01*
X120797812Y-6885482D01*
X120810072Y-6761000D01*
X120810072Y-4161000D01*
X120797812Y-4036518D01*
X120762346Y-3919600D01*
X138257128Y-3919600D01*
X138257128Y-4919600D01*
X138269388Y-5044082D01*
X138305698Y-5163780D01*
X138364663Y-5274094D01*
X138444015Y-5370785D01*
X138540706Y-5450137D01*
X138550016Y-5455113D01*
X138494815Y-5500415D01*
X138415463Y-5597106D01*
X138356498Y-5707420D01*
X138320188Y-5827118D01*
X138307928Y-5951600D01*
X138307928Y-6951600D01*
X138320188Y-7076082D01*
X138356498Y-7195780D01*
X138415463Y-7306094D01*
X138494815Y-7402785D01*
X138591506Y-7482137D01*
X138701820Y-7541102D01*
X138821518Y-7577412D01*
X138946000Y-7589672D01*
X139946000Y-7589672D01*
X140070482Y-7577412D01*
X140190180Y-7541102D01*
X140300494Y-7482137D01*
X140397185Y-7402785D01*
X140476537Y-7306094D01*
X140501519Y-7259356D01*
X146646555Y-7259356D01*
X147250200Y-7863002D01*
X147250200Y-7925139D01*
X147289974Y-8125098D01*
X147367995Y-8313456D01*
X147481263Y-8482974D01*
X147625426Y-8627137D01*
X147794944Y-8740405D01*
X147983302Y-8818426D01*
X148183261Y-8858200D01*
X148387139Y-8858200D01*
X148587098Y-8818426D01*
X148775456Y-8740405D01*
X148848000Y-8691933D01*
X148848001Y-11437644D01*
X148815795Y-11485844D01*
X148737774Y-11674202D01*
X148698000Y-11874161D01*
X148698000Y-12078039D01*
X148737774Y-12277998D01*
X148788951Y-12401550D01*
X148737774Y-12525102D01*
X148698000Y-12725061D01*
X148698000Y-12928939D01*
X148737774Y-13128898D01*
X148815795Y-13317256D01*
X148929063Y-13486774D01*
X149073226Y-13630937D01*
X149242744Y-13744205D01*
X149431102Y-13822226D01*
X149631061Y-13862000D01*
X149834939Y-13862000D01*
X150034898Y-13822226D01*
X150223256Y-13744205D01*
X150392774Y-13630937D01*
X150536937Y-13486774D01*
X150650205Y-13317256D01*
X150728226Y-13128898D01*
X150768000Y-12928939D01*
X150768000Y-12725061D01*
X150728226Y-12525102D01*
X150677049Y-12401550D01*
X150728226Y-12277998D01*
X150768000Y-12078039D01*
X150768000Y-11874161D01*
X150728226Y-11674202D01*
X150650205Y-11485844D01*
X150618000Y-11437646D01*
X150618000Y-7155469D01*
X150622281Y-7112000D01*
X150618000Y-7068531D01*
X150618000Y-7068523D01*
X150605195Y-6938510D01*
X150554589Y-6771687D01*
X150472411Y-6617941D01*
X150454358Y-6595944D01*
X150389532Y-6516953D01*
X150389530Y-6516951D01*
X150361817Y-6483183D01*
X150328050Y-6455471D01*
X149440694Y-5568115D01*
X161615000Y-5568115D01*
X161615000Y-6431885D01*
X161783513Y-7279057D01*
X162114064Y-8077076D01*
X162593948Y-8795274D01*
X163204726Y-9406052D01*
X163922924Y-9885936D01*
X164720943Y-10216487D01*
X165568115Y-10385000D01*
X166431885Y-10385000D01*
X167279057Y-10216487D01*
X168077076Y-9885936D01*
X168795274Y-9406052D01*
X169406052Y-8795274D01*
X169885936Y-8077076D01*
X170216487Y-7279057D01*
X170385000Y-6431885D01*
X170385000Y-5568115D01*
X170216487Y-4720943D01*
X169885936Y-3922924D01*
X169406052Y-3204726D01*
X168795274Y-2593948D01*
X168077076Y-2114064D01*
X167279057Y-1783513D01*
X166431885Y-1615000D01*
X165568115Y-1615000D01*
X164720943Y-1783513D01*
X163922924Y-2114064D01*
X163204726Y-2593948D01*
X162593948Y-3204726D01*
X162114064Y-3922924D01*
X161783513Y-4720943D01*
X161615000Y-5568115D01*
X149440694Y-5568115D01*
X149051889Y-5179311D01*
X149024172Y-5145538D01*
X148889414Y-5034944D01*
X148735668Y-4952766D01*
X148568845Y-4902160D01*
X148438832Y-4889355D01*
X148438824Y-4889355D01*
X148395355Y-4885074D01*
X148351886Y-4889355D01*
X145920514Y-4889355D01*
X145872316Y-4857150D01*
X145683958Y-4779129D01*
X145483999Y-4739355D01*
X145280121Y-4739355D01*
X145080162Y-4779129D01*
X144891804Y-4857150D01*
X144722286Y-4970418D01*
X144578123Y-5114581D01*
X144464855Y-5284099D01*
X144386834Y-5472457D01*
X144347060Y-5672416D01*
X144347060Y-5739356D01*
X140545190Y-5739356D01*
X140535502Y-5707420D01*
X140476537Y-5597106D01*
X140397185Y-5500415D01*
X140300494Y-5421063D01*
X140291184Y-5416087D01*
X140346385Y-5370785D01*
X140425737Y-5274094D01*
X140484702Y-5163780D01*
X140521012Y-5044082D01*
X140533272Y-4919600D01*
X140533272Y-4356329D01*
X141132402Y-3757200D01*
X142501489Y-3757200D01*
X142545426Y-3801137D01*
X142714944Y-3914405D01*
X142903302Y-3992426D01*
X143103261Y-4032200D01*
X143307139Y-4032200D01*
X143507098Y-3992426D01*
X143695456Y-3914405D01*
X143864974Y-3801137D01*
X144009137Y-3656974D01*
X144122405Y-3487456D01*
X144200426Y-3299098D01*
X144240200Y-3099139D01*
X144240200Y-2895261D01*
X144200426Y-2695302D01*
X144122405Y-2506944D01*
X144009137Y-2337426D01*
X143864974Y-2193263D01*
X143695456Y-2079995D01*
X143507098Y-2001974D01*
X143307139Y-1962200D01*
X143103261Y-1962200D01*
X142903302Y-2001974D01*
X142714944Y-2079995D01*
X142545426Y-2193263D01*
X142501489Y-2237200D01*
X140854922Y-2237200D01*
X140817599Y-2233524D01*
X140780276Y-2237200D01*
X140780267Y-2237200D01*
X140668614Y-2248197D01*
X140525353Y-2291654D01*
X140393324Y-2362226D01*
X140277599Y-2457199D01*
X140253801Y-2486197D01*
X139458471Y-3281528D01*
X138895200Y-3281528D01*
X138770718Y-3293788D01*
X138651020Y-3330098D01*
X138540706Y-3389063D01*
X138444015Y-3468415D01*
X138364663Y-3565106D01*
X138305698Y-3675420D01*
X138269388Y-3795118D01*
X138257128Y-3919600D01*
X120762346Y-3919600D01*
X120761502Y-3916820D01*
X120702537Y-3806506D01*
X120623185Y-3709815D01*
X120526494Y-3630463D01*
X120416180Y-3571498D01*
X120296482Y-3535188D01*
X120172000Y-3522928D01*
X117572000Y-3522928D01*
X117447518Y-3535188D01*
X117327820Y-3571498D01*
X117217506Y-3630463D01*
X117120815Y-3709815D01*
X117041463Y-3806506D01*
X116982498Y-3916820D01*
X116946188Y-4036518D01*
X116933928Y-4161000D01*
X115308504Y-4161000D01*
X115105491Y-3957987D01*
X114788566Y-3746225D01*
X114436419Y-3600361D01*
X114062581Y-3526000D01*
X113681419Y-3526000D01*
X113307581Y-3600361D01*
X112955434Y-3746225D01*
X112638509Y-3957987D01*
X112368987Y-4227509D01*
X112157225Y-4544434D01*
X112011361Y-4896581D01*
X111937000Y-5270419D01*
X94107000Y-5270419D01*
X94107000Y-710000D01*
X165970858Y-710000D01*
X166863608Y-783397D01*
G37*
X166863608Y-783397D02*
X167704010Y-994491D01*
X168498664Y-1340017D01*
X169226206Y-1810685D01*
X169867110Y-2393864D01*
X170404155Y-3073881D01*
X170822930Y-3832489D01*
X171112180Y-4649306D01*
X171266323Y-5514656D01*
X171290000Y-6016736D01*
X171290001Y-165970846D01*
X171216603Y-166863606D01*
X171005509Y-167704010D01*
X170659983Y-168498664D01*
X170189315Y-169226206D01*
X169606136Y-169867110D01*
X168926115Y-170404159D01*
X168167507Y-170822932D01*
X167350692Y-171112181D01*
X166485344Y-171266323D01*
X165983265Y-171290000D01*
X94107000Y-171290000D01*
X94107000Y-165568115D01*
X161615000Y-165568115D01*
X161615000Y-166431885D01*
X161783513Y-167279057D01*
X162114064Y-168077076D01*
X162593948Y-168795274D01*
X163204726Y-169406052D01*
X163922924Y-169885936D01*
X164720943Y-170216487D01*
X165568115Y-170385000D01*
X166431885Y-170385000D01*
X167279057Y-170216487D01*
X168077076Y-169885936D01*
X168795274Y-169406052D01*
X169406052Y-168795274D01*
X169885936Y-168077076D01*
X170216487Y-167279057D01*
X170385000Y-166431885D01*
X170385000Y-165568115D01*
X170216487Y-164720943D01*
X169885936Y-163922924D01*
X169406052Y-163204726D01*
X168795274Y-162593948D01*
X168077076Y-162114064D01*
X167279057Y-161783513D01*
X166431885Y-161615000D01*
X165568115Y-161615000D01*
X164720943Y-161783513D01*
X163922924Y-162114064D01*
X163204726Y-162593948D01*
X162593948Y-163204726D01*
X162114064Y-163922924D01*
X161783513Y-164720943D01*
X161615000Y-165568115D01*
X94107000Y-165568115D01*
X94107000Y-146628460D01*
X113610515Y-146628460D01*
X113733544Y-146710665D01*
X113921902Y-146788686D01*
X114121861Y-146828460D01*
X114325739Y-146828460D01*
X114525698Y-146788686D01*
X114714056Y-146710665D01*
X114883574Y-146597397D01*
X115027737Y-146453234D01*
X115141005Y-146283716D01*
X115219026Y-146095358D01*
X115258800Y-145895399D01*
X115258800Y-145696601D01*
X116396820Y-145696601D01*
X116396820Y-145900479D01*
X116436594Y-146100438D01*
X116514615Y-146288796D01*
X116627883Y-146458314D01*
X116772046Y-146602477D01*
X116941564Y-146715745D01*
X117129922Y-146793766D01*
X117329881Y-146833540D01*
X117533759Y-146833540D01*
X117733718Y-146793766D01*
X117922076Y-146715745D01*
X118091594Y-146602477D01*
X118135531Y-146558540D01*
X143469229Y-146558540D01*
X143510626Y-146599937D01*
X143680144Y-146713205D01*
X143868502Y-146791226D01*
X144068461Y-146831000D01*
X144272339Y-146831000D01*
X144472298Y-146791226D01*
X144660656Y-146713205D01*
X144830174Y-146599937D01*
X144974337Y-146455774D01*
X145087605Y-146286256D01*
X145165626Y-146097898D01*
X145205400Y-145897939D01*
X145205400Y-145694061D01*
X145165626Y-145494102D01*
X145087605Y-145305744D01*
X144974337Y-145136226D01*
X144830174Y-144992063D01*
X144660656Y-144878795D01*
X144472298Y-144800774D01*
X144272339Y-144761000D01*
X144068461Y-144761000D01*
X143868502Y-144800774D01*
X143680144Y-144878795D01*
X143510626Y-144992063D01*
X143464149Y-145038540D01*
X118135531Y-145038540D01*
X118091594Y-144994603D01*
X117922076Y-144881335D01*
X117733718Y-144803314D01*
X117533759Y-144763540D01*
X117329881Y-144763540D01*
X117129922Y-144803314D01*
X116941564Y-144881335D01*
X116772046Y-144994603D01*
X116627883Y-145138766D01*
X116514615Y-145308284D01*
X116436594Y-145496642D01*
X116396820Y-145696601D01*
X115258800Y-145696601D01*
X115258800Y-145691521D01*
X115219026Y-145491562D01*
X115141005Y-145303204D01*
X115027737Y-145133686D01*
X114883574Y-144989523D01*
X114714056Y-144876255D01*
X114525698Y-144798234D01*
X114325739Y-144758460D01*
X114121861Y-144758460D01*
X113921902Y-144798234D01*
X113733544Y-144876255D01*
X113610515Y-144958460D01*
X94107000Y-144958460D01*
X94107000Y-116533200D01*
X113494689Y-116533200D01*
X113538626Y-116577137D01*
X113708144Y-116690405D01*
X113896502Y-116768426D01*
X114096461Y-116808200D01*
X114300339Y-116808200D01*
X114500298Y-116768426D01*
X114688656Y-116690405D01*
X114858174Y-116577137D01*
X115002337Y-116432974D01*
X115115605Y-116263456D01*
X115193626Y-116075098D01*
X115233400Y-115875139D01*
X115233400Y-115671261D01*
X116414600Y-115671261D01*
X116414600Y-115875139D01*
X116454374Y-116075098D01*
X116532395Y-116263456D01*
X116645663Y-116432974D01*
X116789826Y-116577137D01*
X116959344Y-116690405D01*
X117147702Y-116768426D01*
X117347661Y-116808200D01*
X117551539Y-116808200D01*
X117751498Y-116768426D01*
X117939856Y-116690405D01*
X118109374Y-116577137D01*
X118153311Y-116533200D01*
X143517489Y-116533200D01*
X143561426Y-116577137D01*
X143730944Y-116690405D01*
X143919302Y-116768426D01*
X144119261Y-116808200D01*
X144323139Y-116808200D01*
X144523098Y-116768426D01*
X144711456Y-116690405D01*
X144880974Y-116577137D01*
X145025137Y-116432974D01*
X145138405Y-116263456D01*
X145216426Y-116075098D01*
X145256200Y-115875139D01*
X145256200Y-115671261D01*
X145216426Y-115471302D01*
X145138405Y-115282944D01*
X145025137Y-115113426D01*
X144880974Y-114969263D01*
X144711456Y-114855995D01*
X144523098Y-114777974D01*
X144323139Y-114738200D01*
X144119261Y-114738200D01*
X143919302Y-114777974D01*
X143730944Y-114855995D01*
X143561426Y-114969263D01*
X143517489Y-115013200D01*
X118153311Y-115013200D01*
X118109374Y-114969263D01*
X117939856Y-114855995D01*
X117751498Y-114777974D01*
X117551539Y-114738200D01*
X117347661Y-114738200D01*
X117147702Y-114777974D01*
X116959344Y-114855995D01*
X116789826Y-114969263D01*
X116645663Y-115113426D01*
X116532395Y-115282944D01*
X116454374Y-115471302D01*
X116414600Y-115671261D01*
X115233400Y-115671261D01*
X115193626Y-115471302D01*
X115115605Y-115282944D01*
X115002337Y-115113426D01*
X114858174Y-114969263D01*
X114688656Y-114855995D01*
X114500298Y-114777974D01*
X114300339Y-114738200D01*
X114096461Y-114738200D01*
X113896502Y-114777974D01*
X113708144Y-114855995D01*
X113538626Y-114969263D01*
X113494689Y-115013200D01*
X94107000Y-115013200D01*
X94107000Y-86612000D01*
X113494689Y-86612000D01*
X113538626Y-86655937D01*
X113708144Y-86769205D01*
X113896502Y-86847226D01*
X114096461Y-86887000D01*
X114300339Y-86887000D01*
X114500298Y-86847226D01*
X114688656Y-86769205D01*
X114858174Y-86655937D01*
X115002337Y-86511774D01*
X115115605Y-86342256D01*
X115193626Y-86153898D01*
X115233400Y-85953939D01*
X115233400Y-85750061D01*
X116414600Y-85750061D01*
X116414600Y-85953939D01*
X116454374Y-86153898D01*
X116532395Y-86342256D01*
X116645663Y-86511774D01*
X116789826Y-86655937D01*
X116959344Y-86769205D01*
X117147702Y-86847226D01*
X117347661Y-86887000D01*
X117551539Y-86887000D01*
X117751498Y-86847226D01*
X117939856Y-86769205D01*
X118109374Y-86655937D01*
X118153311Y-86612000D01*
X143466689Y-86612000D01*
X143510626Y-86655937D01*
X143680144Y-86769205D01*
X143868502Y-86847226D01*
X144068461Y-86887000D01*
X144272339Y-86887000D01*
X144472298Y-86847226D01*
X144660656Y-86769205D01*
X144830174Y-86655937D01*
X144974337Y-86511774D01*
X145087605Y-86342256D01*
X145165626Y-86153898D01*
X145205400Y-85953939D01*
X145205400Y-85750061D01*
X145165626Y-85550102D01*
X145087605Y-85361744D01*
X144974337Y-85192226D01*
X144830174Y-85048063D01*
X144660656Y-84934795D01*
X144472298Y-84856774D01*
X144272339Y-84817000D01*
X144068461Y-84817000D01*
X143868502Y-84856774D01*
X143680144Y-84934795D01*
X143510626Y-85048063D01*
X143466689Y-85092000D01*
X118153311Y-85092000D01*
X118109374Y-85048063D01*
X117939856Y-84934795D01*
X117751498Y-84856774D01*
X117551539Y-84817000D01*
X117347661Y-84817000D01*
X117147702Y-84856774D01*
X116959344Y-84934795D01*
X116789826Y-85048063D01*
X116645663Y-85192226D01*
X116532395Y-85361744D01*
X116454374Y-85550102D01*
X116414600Y-85750061D01*
X115233400Y-85750061D01*
X115193626Y-85550102D01*
X115115605Y-85361744D01*
X115002337Y-85192226D01*
X114858174Y-85048063D01*
X114688656Y-84934795D01*
X114500298Y-84856774D01*
X114300339Y-84817000D01*
X114096461Y-84817000D01*
X113896502Y-84856774D01*
X113708144Y-84934795D01*
X113538626Y-85048063D01*
X113494689Y-85092000D01*
X94107000Y-85092000D01*
X94107000Y-56640000D01*
X113494689Y-56640000D01*
X113538626Y-56683937D01*
X113708144Y-56797205D01*
X113896502Y-56875226D01*
X114096461Y-56915000D01*
X114300339Y-56915000D01*
X114500298Y-56875226D01*
X114688656Y-56797205D01*
X114858174Y-56683937D01*
X115002337Y-56539774D01*
X115115605Y-56370256D01*
X115193626Y-56181898D01*
X115233400Y-55981939D01*
X115233400Y-55778061D01*
X116414600Y-55778061D01*
X116414600Y-55981939D01*
X116454374Y-56181898D01*
X116532395Y-56370256D01*
X116645663Y-56539774D01*
X116789826Y-56683937D01*
X116959344Y-56797205D01*
X117147702Y-56875226D01*
X117347661Y-56915000D01*
X117551539Y-56915000D01*
X117751498Y-56875226D01*
X117939856Y-56797205D01*
X118109374Y-56683937D01*
X118153311Y-56640000D01*
X143466689Y-56640000D01*
X143510626Y-56683937D01*
X143680144Y-56797205D01*
X143868502Y-56875226D01*
X144068461Y-56915000D01*
X144272339Y-56915000D01*
X144472298Y-56875226D01*
X144660656Y-56797205D01*
X144830174Y-56683937D01*
X144974337Y-56539774D01*
X145087605Y-56370256D01*
X145165626Y-56181898D01*
X145205400Y-55981939D01*
X145205400Y-55778061D01*
X145165626Y-55578102D01*
X145087605Y-55389744D01*
X144974337Y-55220226D01*
X144830174Y-55076063D01*
X144660656Y-54962795D01*
X144472298Y-54884774D01*
X144272339Y-54845000D01*
X144068461Y-54845000D01*
X143868502Y-54884774D01*
X143680144Y-54962795D01*
X143510626Y-55076063D01*
X143466689Y-55120000D01*
X118153311Y-55120000D01*
X118109374Y-55076063D01*
X117939856Y-54962795D01*
X117751498Y-54884774D01*
X117551539Y-54845000D01*
X117347661Y-54845000D01*
X117147702Y-54884774D01*
X116959344Y-54962795D01*
X116789826Y-55076063D01*
X116645663Y-55220226D01*
X116532395Y-55389744D01*
X116454374Y-55578102D01*
X116414600Y-55778061D01*
X115233400Y-55778061D01*
X115193626Y-55578102D01*
X115115605Y-55389744D01*
X115002337Y-55220226D01*
X114858174Y-55076063D01*
X114688656Y-54962795D01*
X114500298Y-54884774D01*
X114300339Y-54845000D01*
X114096461Y-54845000D01*
X113896502Y-54884774D01*
X113708144Y-54962795D01*
X113538626Y-55076063D01*
X113494689Y-55120000D01*
X94107000Y-55120000D01*
X94107000Y-26668000D01*
X113494689Y-26668000D01*
X113538626Y-26711937D01*
X113708144Y-26825205D01*
X113896502Y-26903226D01*
X114096461Y-26943000D01*
X114300339Y-26943000D01*
X114500298Y-26903226D01*
X114688656Y-26825205D01*
X114858174Y-26711937D01*
X115002337Y-26567774D01*
X115115605Y-26398256D01*
X115193626Y-26209898D01*
X115233400Y-26009939D01*
X115233400Y-25806061D01*
X116414600Y-25806061D01*
X116414600Y-26009939D01*
X116454374Y-26209898D01*
X116532395Y-26398256D01*
X116645663Y-26567774D01*
X116789826Y-26711937D01*
X116959344Y-26825205D01*
X117147702Y-26903226D01*
X117347661Y-26943000D01*
X117551539Y-26943000D01*
X117751498Y-26903226D01*
X117939856Y-26825205D01*
X118109374Y-26711937D01*
X118153311Y-26668000D01*
X143622497Y-26668000D01*
X143781744Y-26774405D01*
X143970102Y-26852426D01*
X144170061Y-26892200D01*
X144373939Y-26892200D01*
X144573898Y-26852426D01*
X144762256Y-26774405D01*
X144931774Y-26661137D01*
X145075937Y-26516974D01*
X145189205Y-26347456D01*
X145267226Y-26159098D01*
X145307000Y-25959139D01*
X145307000Y-25755261D01*
X145267226Y-25555302D01*
X145189205Y-25366944D01*
X145075937Y-25197426D01*
X144931774Y-25053263D01*
X144762256Y-24939995D01*
X144573898Y-24861974D01*
X144373939Y-24822200D01*
X144170061Y-24822200D01*
X143970102Y-24861974D01*
X143781744Y-24939995D01*
X143612226Y-25053263D01*
X143517489Y-25148000D01*
X118153311Y-25148000D01*
X118109374Y-25104063D01*
X117939856Y-24990795D01*
X117751498Y-24912774D01*
X117551539Y-24873000D01*
X117347661Y-24873000D01*
X117147702Y-24912774D01*
X116959344Y-24990795D01*
X116789826Y-25104063D01*
X116645663Y-25248226D01*
X116532395Y-25417744D01*
X116454374Y-25606102D01*
X116414600Y-25806061D01*
X115233400Y-25806061D01*
X115193626Y-25606102D01*
X115115605Y-25417744D01*
X115002337Y-25248226D01*
X114858174Y-25104063D01*
X114688656Y-24990795D01*
X114500298Y-24912774D01*
X114300339Y-24873000D01*
X114096461Y-24873000D01*
X113896502Y-24912774D01*
X113708144Y-24990795D01*
X113538626Y-25104063D01*
X113494689Y-25148000D01*
X94107000Y-25148000D01*
X94107000Y-16050800D01*
X98102289Y-16050800D01*
X98146226Y-16094737D01*
X98315744Y-16208005D01*
X98504102Y-16286026D01*
X98704061Y-16325800D01*
X98907939Y-16325800D01*
X99107898Y-16286026D01*
X99296256Y-16208005D01*
X99465774Y-16094737D01*
X99609937Y-15950574D01*
X99723205Y-15781056D01*
X99768481Y-15671751D01*
X104978161Y-20881432D01*
X105004307Y-20913291D01*
X105131452Y-21017636D01*
X105276511Y-21095172D01*
X105433909Y-21142918D01*
X105556579Y-21155000D01*
X105556580Y-21155000D01*
X105597598Y-21159040D01*
X105638616Y-21155000D01*
X150174533Y-21155000D01*
X154867000Y-25847468D01*
X154867001Y-46948971D01*
X154862960Y-46990000D01*
X154879082Y-47153688D01*
X154926828Y-47311086D01*
X154926829Y-47311087D01*
X155004365Y-47456146D01*
X155108710Y-47583291D01*
X155140574Y-47609441D01*
X159400559Y-51869427D01*
X159426709Y-51901291D01*
X159553854Y-52005636D01*
X159698913Y-52083172D01*
X159856311Y-52130918D01*
X160019999Y-52147040D01*
X160061018Y-52143000D01*
X161600713Y-52143000D01*
X161603498Y-52152180D01*
X161662463Y-52262494D01*
X161741815Y-52359185D01*
X161838506Y-52438537D01*
X161948820Y-52497502D01*
X162068518Y-52533812D01*
X162193000Y-52546072D01*
X163943000Y-52546072D01*
X164067482Y-52533812D01*
X164187180Y-52497502D01*
X164297494Y-52438537D01*
X164394185Y-52359185D01*
X164473537Y-52262494D01*
X164532502Y-52152180D01*
X164568812Y-52032482D01*
X164581072Y-51908000D01*
X164581072Y-50708000D01*
X164568812Y-50583518D01*
X164532502Y-50463820D01*
X164473537Y-50353506D01*
X164394185Y-50256815D01*
X164297494Y-50177463D01*
X164247382Y-50150677D01*
X164306078Y-50091474D01*
X164440421Y-49888533D01*
X164532591Y-49663282D01*
X164536462Y-49625609D01*
X164411731Y-49435000D01*
X163195000Y-49435000D01*
X163195000Y-49455000D01*
X162941000Y-49455000D01*
X162941000Y-49435000D01*
X161724269Y-49435000D01*
X161599538Y-49625609D01*
X161603409Y-49663282D01*
X161695579Y-49888533D01*
X161829922Y-50091474D01*
X161888618Y-50150677D01*
X161838506Y-50177463D01*
X161741815Y-50256815D01*
X161662463Y-50353506D01*
X161603498Y-50463820D01*
X161600713Y-50473000D01*
X160365868Y-50473000D01*
X158883259Y-48990391D01*
X161599538Y-48990391D01*
X161724269Y-49181000D01*
X162941000Y-49181000D01*
X162941000Y-48073000D01*
X163195000Y-48073000D01*
X163195000Y-49181000D01*
X164411731Y-49181000D01*
X164536462Y-48990391D01*
X164532591Y-48952718D01*
X164440421Y-48727467D01*
X164306078Y-48524526D01*
X164134725Y-48351693D01*
X163932946Y-48215610D01*
X163708496Y-48121507D01*
X163470000Y-48073000D01*
X163195000Y-48073000D01*
X162941000Y-48073000D01*
X162666000Y-48073000D01*
X162427504Y-48121507D01*
X162203054Y-48215610D01*
X162001275Y-48351693D01*
X161829922Y-48524526D01*
X161695579Y-48727467D01*
X161603409Y-48952718D01*
X161599538Y-48990391D01*
X158883259Y-48990391D01*
X156537000Y-46644133D01*
X156537000Y-25542618D01*
X156541040Y-25501600D01*
X156524918Y-25337911D01*
X156477172Y-25180513D01*
X156399636Y-25035454D01*
X156362985Y-24990795D01*
X156295291Y-24908309D01*
X156263428Y-24882160D01*
X151139846Y-19758579D01*
X151113691Y-19726709D01*
X150986546Y-19622364D01*
X150841487Y-19544828D01*
X150684089Y-19497082D01*
X150561419Y-19485000D01*
X150561418Y-19485000D01*
X150520400Y-19480960D01*
X150479382Y-19485000D01*
X105943467Y-19485000D01*
X102460467Y-16002000D01*
X149866396Y-16002000D01*
X149904722Y-16391128D01*
X150018226Y-16765302D01*
X150202547Y-17110143D01*
X150450602Y-17412398D01*
X150752857Y-17660453D01*
X151097698Y-17844774D01*
X151471872Y-17958278D01*
X151763490Y-17987000D01*
X152958510Y-17987000D01*
X153250128Y-17958278D01*
X153624302Y-17844774D01*
X153969143Y-17660453D01*
X154271398Y-17412398D01*
X154320965Y-17352000D01*
X155372928Y-17352000D01*
X155385188Y-17476482D01*
X155421498Y-17596180D01*
X155480463Y-17706494D01*
X155559815Y-17803185D01*
X155656506Y-17882537D01*
X155766820Y-17941502D01*
X155886518Y-17977812D01*
X156011000Y-17990072D01*
X157575250Y-17987000D01*
X157734000Y-17828250D01*
X157734000Y-16129000D01*
X157988000Y-16129000D01*
X157988000Y-17828250D01*
X158146750Y-17987000D01*
X159711000Y-17990072D01*
X159835482Y-17977812D01*
X159955180Y-17941502D01*
X160065494Y-17882537D01*
X160162185Y-17803185D01*
X160241537Y-17706494D01*
X160300502Y-17596180D01*
X160336812Y-17476482D01*
X160349072Y-17352000D01*
X160346000Y-16287750D01*
X160187250Y-16129000D01*
X157988000Y-16129000D01*
X157734000Y-16129000D01*
X155534750Y-16129000D01*
X155376000Y-16287750D01*
X155372928Y-17352000D01*
X154320965Y-17352000D01*
X154519453Y-17110143D01*
X154703774Y-16765302D01*
X154817278Y-16391128D01*
X154855604Y-16002000D01*
X154817278Y-15612872D01*
X154703774Y-15238698D01*
X154519453Y-14893857D01*
X154320966Y-14652000D01*
X155372928Y-14652000D01*
X155376000Y-15716250D01*
X155534750Y-15875000D01*
X157734000Y-15875000D01*
X157734000Y-14175750D01*
X157988000Y-14175750D01*
X157988000Y-15875000D01*
X160187250Y-15875000D01*
X160270529Y-15791721D01*
X163026000Y-15791721D01*
X163026000Y-16212279D01*
X163108047Y-16624756D01*
X163268988Y-17013302D01*
X163502637Y-17362983D01*
X163800017Y-17660363D01*
X164149698Y-17894012D01*
X164538244Y-18054953D01*
X164950721Y-18137000D01*
X165371279Y-18137000D01*
X165783756Y-18054953D01*
X166172302Y-17894012D01*
X166521983Y-17660363D01*
X166819363Y-17362983D01*
X167053012Y-17013302D01*
X167213953Y-16624756D01*
X167296000Y-16212279D01*
X167296000Y-15791721D01*
X167213953Y-15379244D01*
X167053012Y-14990698D01*
X166819363Y-14641017D01*
X166521983Y-14343637D01*
X166172302Y-14109988D01*
X165783756Y-13949047D01*
X165371279Y-13867000D01*
X164950721Y-13867000D01*
X164538244Y-13949047D01*
X164149698Y-14109988D01*
X163800017Y-14343637D01*
X163502637Y-14641017D01*
X163268988Y-14990698D01*
X163108047Y-15379244D01*
X163026000Y-15791721D01*
X160270529Y-15791721D01*
X160346000Y-15716250D01*
X160349072Y-14652000D01*
X160336812Y-14527518D01*
X160300502Y-14407820D01*
X160241537Y-14297506D01*
X160162185Y-14200815D01*
X160065494Y-14121463D01*
X159955180Y-14062498D01*
X159835482Y-14026188D01*
X159711000Y-14013928D01*
X158146750Y-14017000D01*
X157988000Y-14175750D01*
X157734000Y-14175750D01*
X157575250Y-14017000D01*
X156011000Y-14013928D01*
X155886518Y-14026188D01*
X155766820Y-14062498D01*
X155656506Y-14121463D01*
X155559815Y-14200815D01*
X155480463Y-14297506D01*
X155421498Y-14407820D01*
X155385188Y-14527518D01*
X155372928Y-14652000D01*
X154320966Y-14652000D01*
X154271398Y-14591602D01*
X153969143Y-14343547D01*
X153624302Y-14159226D01*
X153250128Y-14045722D01*
X152958510Y-14017000D01*
X151763490Y-14017000D01*
X151471872Y-14045722D01*
X151097698Y-14159226D01*
X150752857Y-14343547D01*
X150450602Y-14591602D01*
X150202547Y-14893857D01*
X150018226Y-15238698D01*
X149904722Y-15612872D01*
X149866396Y-16002000D01*
X102460467Y-16002000D01*
X99578467Y-13120000D01*
X112049928Y-13120000D01*
X112049928Y-14820000D01*
X112062188Y-14944482D01*
X112098498Y-15064180D01*
X112157463Y-15174494D01*
X112236815Y-15271185D01*
X112333506Y-15350537D01*
X112443820Y-15409502D01*
X112563518Y-15445812D01*
X112688000Y-15458072D01*
X114388000Y-15458072D01*
X114512482Y-15445812D01*
X114632180Y-15409502D01*
X114742494Y-15350537D01*
X114839185Y-15271185D01*
X114918537Y-15174494D01*
X114977502Y-15064180D01*
X114999513Y-14991620D01*
X115131368Y-15123475D01*
X115374589Y-15285990D01*
X115644842Y-15397932D01*
X115931740Y-15455000D01*
X116224260Y-15455000D01*
X116511158Y-15397932D01*
X116781411Y-15285990D01*
X117024632Y-15123475D01*
X117231475Y-14916632D01*
X117393990Y-14673411D01*
X117505932Y-14403158D01*
X117563000Y-14116260D01*
X117563000Y-13823740D01*
X117505932Y-13536842D01*
X117393990Y-13266589D01*
X117231475Y-13023368D01*
X117024632Y-12816525D01*
X116781411Y-12654010D01*
X116511158Y-12542068D01*
X116224260Y-12485000D01*
X115931740Y-12485000D01*
X115644842Y-12542068D01*
X115374589Y-12654010D01*
X115131368Y-12816525D01*
X114999513Y-12948380D01*
X114977502Y-12875820D01*
X114918537Y-12765506D01*
X114839185Y-12668815D01*
X114742494Y-12589463D01*
X114632180Y-12530498D01*
X114512482Y-12494188D01*
X114388000Y-12481928D01*
X112688000Y-12481928D01*
X112563518Y-12494188D01*
X112443820Y-12530498D01*
X112333506Y-12589463D01*
X112236815Y-12668815D01*
X112157463Y-12765506D01*
X112098498Y-12875820D01*
X112062188Y-12995518D01*
X112049928Y-13120000D01*
X99578467Y-13120000D01*
X94107000Y-7648534D01*
X94107000Y-5270419D01*
X111937000Y-5270419D01*
X111937000Y-5651581D01*
X112011361Y-6025419D01*
X112157225Y-6377566D01*
X112368987Y-6694491D01*
X112638509Y-6964013D01*
X112955434Y-7175775D01*
X113307581Y-7321639D01*
X113681419Y-7396000D01*
X114062581Y-7396000D01*
X114436419Y-7321639D01*
X114788566Y-7175775D01*
X115105491Y-6964013D01*
X115375013Y-6694491D01*
X115586775Y-6377566D01*
X115732639Y-6025419D01*
X115807000Y-5651581D01*
X115807000Y-5270419D01*
X115732639Y-4896581D01*
X115586775Y-4544434D01*
X115375013Y-4227509D01*
X115308504Y-4161000D01*
X116933928Y-4161000D01*
X116933928Y-6761000D01*
X116946188Y-6885482D01*
X116982498Y-7005180D01*
X117041463Y-7115494D01*
X117120815Y-7212185D01*
X117217506Y-7291537D01*
X117327820Y-7350502D01*
X117447518Y-7386812D01*
X117572000Y-7399072D01*
X120172000Y-7399072D01*
X120296482Y-7386812D01*
X120416180Y-7350502D01*
X120526494Y-7291537D01*
X120623185Y-7212185D01*
X120702537Y-7115494D01*
X120761502Y-7005180D01*
X120797812Y-6885482D01*
X120810072Y-6761000D01*
X120810072Y-4161000D01*
X120797812Y-4036518D01*
X120762346Y-3919600D01*
X138257128Y-3919600D01*
X138257128Y-4919600D01*
X138269388Y-5044082D01*
X138305698Y-5163780D01*
X138364663Y-5274094D01*
X138444015Y-5370785D01*
X138540706Y-5450137D01*
X138550016Y-5455113D01*
X138494815Y-5500415D01*
X138415463Y-5597106D01*
X138356498Y-5707420D01*
X138320188Y-5827118D01*
X138307928Y-5951600D01*
X138307928Y-6951600D01*
X138320188Y-7076082D01*
X138356498Y-7195780D01*
X138415463Y-7306094D01*
X138494815Y-7402785D01*
X138591506Y-7482137D01*
X138701820Y-7541102D01*
X138821518Y-7577412D01*
X138946000Y-7589672D01*
X139946000Y-7589672D01*
X140070482Y-7577412D01*
X140190180Y-7541102D01*
X140300494Y-7482137D01*
X140397185Y-7402785D01*
X140476537Y-7306094D01*
X140501519Y-7259356D01*
X146646555Y-7259356D01*
X147250200Y-7863002D01*
X147250200Y-7925139D01*
X147289974Y-8125098D01*
X147367995Y-8313456D01*
X147481263Y-8482974D01*
X147625426Y-8627137D01*
X147794944Y-8740405D01*
X147983302Y-8818426D01*
X148183261Y-8858200D01*
X148387139Y-8858200D01*
X148587098Y-8818426D01*
X148775456Y-8740405D01*
X148848000Y-8691933D01*
X148848001Y-11437644D01*
X148815795Y-11485844D01*
X148737774Y-11674202D01*
X148698000Y-11874161D01*
X148698000Y-12078039D01*
X148737774Y-12277998D01*
X148788951Y-12401550D01*
X148737774Y-12525102D01*
X148698000Y-12725061D01*
X148698000Y-12928939D01*
X148737774Y-13128898D01*
X148815795Y-13317256D01*
X148929063Y-13486774D01*
X149073226Y-13630937D01*
X149242744Y-13744205D01*
X149431102Y-13822226D01*
X149631061Y-13862000D01*
X149834939Y-13862000D01*
X150034898Y-13822226D01*
X150223256Y-13744205D01*
X150392774Y-13630937D01*
X150536937Y-13486774D01*
X150650205Y-13317256D01*
X150728226Y-13128898D01*
X150768000Y-12928939D01*
X150768000Y-12725061D01*
X150728226Y-12525102D01*
X150677049Y-12401550D01*
X150728226Y-12277998D01*
X150768000Y-12078039D01*
X150768000Y-11874161D01*
X150728226Y-11674202D01*
X150650205Y-11485844D01*
X150618000Y-11437646D01*
X150618000Y-7155469D01*
X150622281Y-7112000D01*
X150618000Y-7068531D01*
X150618000Y-7068523D01*
X150605195Y-6938510D01*
X150554589Y-6771687D01*
X150472411Y-6617941D01*
X150454358Y-6595944D01*
X150389532Y-6516953D01*
X150389530Y-6516951D01*
X150361817Y-6483183D01*
X150328050Y-6455471D01*
X149440694Y-5568115D01*
X161615000Y-5568115D01*
X161615000Y-6431885D01*
X161783513Y-7279057D01*
X162114064Y-8077076D01*
X162593948Y-8795274D01*
X163204726Y-9406052D01*
X163922924Y-9885936D01*
X164720943Y-10216487D01*
X165568115Y-10385000D01*
X166431885Y-10385000D01*
X167279057Y-10216487D01*
X168077076Y-9885936D01*
X168795274Y-9406052D01*
X169406052Y-8795274D01*
X169885936Y-8077076D01*
X170216487Y-7279057D01*
X170385000Y-6431885D01*
X170385000Y-5568115D01*
X170216487Y-4720943D01*
X169885936Y-3922924D01*
X169406052Y-3204726D01*
X168795274Y-2593948D01*
X168077076Y-2114064D01*
X167279057Y-1783513D01*
X166431885Y-1615000D01*
X165568115Y-1615000D01*
X164720943Y-1783513D01*
X163922924Y-2114064D01*
X163204726Y-2593948D01*
X162593948Y-3204726D01*
X162114064Y-3922924D01*
X161783513Y-4720943D01*
X161615000Y-5568115D01*
X149440694Y-5568115D01*
X149051889Y-5179311D01*
X149024172Y-5145538D01*
X148889414Y-5034944D01*
X148735668Y-4952766D01*
X148568845Y-4902160D01*
X148438832Y-4889355D01*
X148438824Y-4889355D01*
X148395355Y-4885074D01*
X148351886Y-4889355D01*
X145920514Y-4889355D01*
X145872316Y-4857150D01*
X145683958Y-4779129D01*
X145483999Y-4739355D01*
X145280121Y-4739355D01*
X145080162Y-4779129D01*
X144891804Y-4857150D01*
X144722286Y-4970418D01*
X144578123Y-5114581D01*
X144464855Y-5284099D01*
X144386834Y-5472457D01*
X144347060Y-5672416D01*
X144347060Y-5739356D01*
X140545190Y-5739356D01*
X140535502Y-5707420D01*
X140476537Y-5597106D01*
X140397185Y-5500415D01*
X140300494Y-5421063D01*
X140291184Y-5416087D01*
X140346385Y-5370785D01*
X140425737Y-5274094D01*
X140484702Y-5163780D01*
X140521012Y-5044082D01*
X140533272Y-4919600D01*
X140533272Y-4356329D01*
X141132402Y-3757200D01*
X142501489Y-3757200D01*
X142545426Y-3801137D01*
X142714944Y-3914405D01*
X142903302Y-3992426D01*
X143103261Y-4032200D01*
X143307139Y-4032200D01*
X143507098Y-3992426D01*
X143695456Y-3914405D01*
X143864974Y-3801137D01*
X144009137Y-3656974D01*
X144122405Y-3487456D01*
X144200426Y-3299098D01*
X144240200Y-3099139D01*
X144240200Y-2895261D01*
X144200426Y-2695302D01*
X144122405Y-2506944D01*
X144009137Y-2337426D01*
X143864974Y-2193263D01*
X143695456Y-2079995D01*
X143507098Y-2001974D01*
X143307139Y-1962200D01*
X143103261Y-1962200D01*
X142903302Y-2001974D01*
X142714944Y-2079995D01*
X142545426Y-2193263D01*
X142501489Y-2237200D01*
X140854922Y-2237200D01*
X140817599Y-2233524D01*
X140780276Y-2237200D01*
X140780267Y-2237200D01*
X140668614Y-2248197D01*
X140525353Y-2291654D01*
X140393324Y-2362226D01*
X140277599Y-2457199D01*
X140253801Y-2486197D01*
X139458471Y-3281528D01*
X138895200Y-3281528D01*
X138770718Y-3293788D01*
X138651020Y-3330098D01*
X138540706Y-3389063D01*
X138444015Y-3468415D01*
X138364663Y-3565106D01*
X138305698Y-3675420D01*
X138269388Y-3795118D01*
X138257128Y-3919600D01*
X120762346Y-3919600D01*
X120761502Y-3916820D01*
X120702537Y-3806506D01*
X120623185Y-3709815D01*
X120526494Y-3630463D01*
X120416180Y-3571498D01*
X120296482Y-3535188D01*
X120172000Y-3522928D01*
X117572000Y-3522928D01*
X117447518Y-3535188D01*
X117327820Y-3571498D01*
X117217506Y-3630463D01*
X117120815Y-3709815D01*
X117041463Y-3806506D01*
X116982498Y-3916820D01*
X116946188Y-4036518D01*
X116933928Y-4161000D01*
X115308504Y-4161000D01*
X115105491Y-3957987D01*
X114788566Y-3746225D01*
X114436419Y-3600361D01*
X114062581Y-3526000D01*
X113681419Y-3526000D01*
X113307581Y-3600361D01*
X112955434Y-3746225D01*
X112638509Y-3957987D01*
X112368987Y-4227509D01*
X112157225Y-4544434D01*
X112011361Y-4896581D01*
X111937000Y-5270419D01*
X94107000Y-5270419D01*
X94107000Y-710000D01*
X165970858Y-710000D01*
X166863608Y-783397D01*
G36*
X98425049Y-14328319D02*
G01*
X98315744Y-14373595D01*
X98146226Y-14486863D01*
X98102289Y-14530800D01*
X94107000Y-14530800D01*
X94107000Y-10010270D01*
X98425049Y-14328319D01*
G37*
X98425049Y-14328319D02*
X98315744Y-14373595D01*
X98146226Y-14486863D01*
X98102289Y-14530800D01*
X94107000Y-14530800D01*
X94107000Y-10010270D01*
X98425049Y-14328319D01*
G36*
X94361000Y-171290000D02*
G01*
X77343000Y-171290000D01*
X77343000Y-154559000D01*
X94361000Y-154559000D01*
X94361000Y-171290000D01*
G37*
X94361000Y-171290000D02*
X77343000Y-171290000D01*
X77343000Y-154559000D01*
X94361000Y-154559000D01*
X94361000Y-171290000D01*
G36*
X94361000Y-10264270D02*
G01*
X94361000Y-14530800D01*
X89451311Y-14530800D01*
X89407374Y-14486863D01*
X89237856Y-14373595D01*
X89049498Y-14295574D01*
X88849539Y-14255800D01*
X88645661Y-14255800D01*
X88445702Y-14295574D01*
X88257344Y-14373595D01*
X88087826Y-14486863D01*
X87943663Y-14631026D01*
X87830395Y-14800544D01*
X87752374Y-14988902D01*
X87712600Y-15188861D01*
X87712600Y-15392739D01*
X87752374Y-15592698D01*
X87830395Y-15781056D01*
X87943663Y-15950574D01*
X88087826Y-16094737D01*
X88257344Y-16208005D01*
X88445702Y-16286026D01*
X88645661Y-16325800D01*
X88849539Y-16325800D01*
X89049498Y-16286026D01*
X89237856Y-16208005D01*
X89407374Y-16094737D01*
X89451311Y-16050800D01*
X94361000Y-16050800D01*
X94361000Y-25069800D01*
X88086096Y-25069800D01*
X87967856Y-24990795D01*
X87779498Y-24912774D01*
X87579539Y-24873000D01*
X87375661Y-24873000D01*
X87175702Y-24912774D01*
X86987344Y-24990795D01*
X86869104Y-25069800D01*
X84834896Y-25069800D01*
X84716656Y-24990795D01*
X84528298Y-24912774D01*
X84328339Y-24873000D01*
X84124461Y-24873000D01*
X83924502Y-24912774D01*
X83736144Y-24990795D01*
X83617904Y-25069800D01*
X77343000Y-25069800D01*
X77343000Y-11666602D01*
X78125401Y-12449003D01*
X78149199Y-12478001D01*
X78264924Y-12572974D01*
X78396953Y-12643546D01*
X78540214Y-12687003D01*
X78651867Y-12698000D01*
X78651876Y-12698000D01*
X78689199Y-12701676D01*
X78726522Y-12698000D01*
X81058889Y-12698000D01*
X81102826Y-12741937D01*
X81272344Y-12855205D01*
X81460702Y-12933226D01*
X81660661Y-12973000D01*
X81864539Y-12973000D01*
X82064498Y-12933226D01*
X82252856Y-12855205D01*
X82422374Y-12741937D01*
X82566537Y-12597774D01*
X82679805Y-12428256D01*
X82757826Y-12239898D01*
X82797600Y-12039939D01*
X82797600Y-11836061D01*
X82757826Y-11636102D01*
X82679805Y-11447744D01*
X82566537Y-11278226D01*
X82422374Y-11134063D01*
X82252856Y-11020795D01*
X82064498Y-10942774D01*
X81864539Y-10903000D01*
X81660661Y-10903000D01*
X81460702Y-10942774D01*
X81272344Y-11020795D01*
X81102826Y-11134063D01*
X81058889Y-11178000D01*
X79004002Y-11178000D01*
X77343000Y-9516999D01*
X77343000Y-4848200D01*
X88944931Y-4848200D01*
X94361000Y-10264270D01*
G37*
X94361000Y-10264270D02*
X94361000Y-14530800D01*
X89451311Y-14530800D01*
X89407374Y-14486863D01*
X89237856Y-14373595D01*
X89049498Y-14295574D01*
X88849539Y-14255800D01*
X88645661Y-14255800D01*
X88445702Y-14295574D01*
X88257344Y-14373595D01*
X88087826Y-14486863D01*
X87943663Y-14631026D01*
X87830395Y-14800544D01*
X87752374Y-14988902D01*
X87712600Y-15188861D01*
X87712600Y-15392739D01*
X87752374Y-15592698D01*
X87830395Y-15781056D01*
X87943663Y-15950574D01*
X88087826Y-16094737D01*
X88257344Y-16208005D01*
X88445702Y-16286026D01*
X88645661Y-16325800D01*
X88849539Y-16325800D01*
X89049498Y-16286026D01*
X89237856Y-16208005D01*
X89407374Y-16094737D01*
X89451311Y-16050800D01*
X94361000Y-16050800D01*
X94361000Y-25069800D01*
X88086096Y-25069800D01*
X87967856Y-24990795D01*
X87779498Y-24912774D01*
X87579539Y-24873000D01*
X87375661Y-24873000D01*
X87175702Y-24912774D01*
X86987344Y-24990795D01*
X86869104Y-25069800D01*
X84834896Y-25069800D01*
X84716656Y-24990795D01*
X84528298Y-24912774D01*
X84328339Y-24873000D01*
X84124461Y-24873000D01*
X83924502Y-24912774D01*
X83736144Y-24990795D01*
X83617904Y-25069800D01*
X77343000Y-25069800D01*
X77343000Y-11666602D01*
X78125401Y-12449003D01*
X78149199Y-12478001D01*
X78264924Y-12572974D01*
X78396953Y-12643546D01*
X78540214Y-12687003D01*
X78651867Y-12698000D01*
X78651876Y-12698000D01*
X78689199Y-12701676D01*
X78726522Y-12698000D01*
X81058889Y-12698000D01*
X81102826Y-12741937D01*
X81272344Y-12855205D01*
X81460702Y-12933226D01*
X81660661Y-12973000D01*
X81864539Y-12973000D01*
X82064498Y-12933226D01*
X82252856Y-12855205D01*
X82422374Y-12741937D01*
X82566537Y-12597774D01*
X82679805Y-12428256D01*
X82757826Y-12239898D01*
X82797600Y-12039939D01*
X82797600Y-11836061D01*
X82757826Y-11636102D01*
X82679805Y-11447744D01*
X82566537Y-11278226D01*
X82422374Y-11134063D01*
X82252856Y-11020795D01*
X82064498Y-10942774D01*
X81864539Y-10903000D01*
X81660661Y-10903000D01*
X81460702Y-10942774D01*
X81272344Y-11020795D01*
X81102826Y-11134063D01*
X81058889Y-11178000D01*
X79004002Y-11178000D01*
X77343000Y-9516999D01*
X77343000Y-4848200D01*
X88944931Y-4848200D01*
X94361000Y-10264270D01*
G36*
X94361000Y-7902534D02*
G01*
X89910244Y-3451779D01*
X89884089Y-3419909D01*
X89756944Y-3315564D01*
X89611885Y-3238028D01*
X89454487Y-3190282D01*
X89331817Y-3178200D01*
X89331816Y-3178200D01*
X89290798Y-3174160D01*
X89249780Y-3178200D01*
X77343000Y-3178200D01*
X77343000Y-710000D01*
X94361000Y-710000D01*
X94361000Y-7902534D01*
G37*
X94361000Y-7902534D02*
X89910244Y-3451779D01*
X89884089Y-3419909D01*
X89756944Y-3315564D01*
X89611885Y-3238028D01*
X89454487Y-3190282D01*
X89331817Y-3178200D01*
X89331816Y-3178200D01*
X89290798Y-3174160D01*
X89249780Y-3178200D01*
X77343000Y-3178200D01*
X77343000Y-710000D01*
X94361000Y-710000D01*
X94361000Y-7902534D01*
M02*
