G04 #@! TF.GenerationSoftware,KiCad,Pcbnew,(5.1.6)-1*
G04 #@! TF.CreationDate,2020-11-12T22:36:03-06:00*
G04 #@! TF.ProjectId,ddr-arrow-controller,6464722d-6172-4726-9f77-2d636f6e7472,rev?*
G04 #@! TF.SameCoordinates,Original*
G04 #@! TF.FileFunction,Legend,Bot*
G04 #@! TF.FilePolarity,Positive*
%FSLAX46Y46*%
G04 Gerber Fmt 4.6, Leading zero omitted, Abs format (unit mm)*
G04 Created by KiCad (PCBNEW (5.1.6)-1) date 2020-11-12 22:36:03*
%MOMM*%
%LPD*%
G01*
G04 APERTURE LIST*
%ADD10C,0.150000*%
%ADD11C,0.120000*%
G04 APERTURE END LIST*
D10*
X45140476Y-8443980D02*
X44569047Y-8443980D01*
X44854761Y-9443980D02*
X44854761Y-8443980D01*
X44330952Y-9443980D02*
X43807142Y-8777314D01*
X44330952Y-8777314D02*
X43807142Y-9443980D01*
X44342038Y-7411980D02*
X44675371Y-6935790D01*
X44913466Y-7411980D02*
X44913466Y-6411980D01*
X44532514Y-6411980D01*
X44437276Y-6459600D01*
X44389657Y-6507219D01*
X44342038Y-6602457D01*
X44342038Y-6745314D01*
X44389657Y-6840552D01*
X44437276Y-6888171D01*
X44532514Y-6935790D01*
X44913466Y-6935790D01*
X44008704Y-7411980D02*
X43484895Y-6745314D01*
X44008704Y-6745314D02*
X43484895Y-7411980D01*
D11*
X46801000Y-11938000D02*
G75*
G03*
X46801000Y-11938000I-700000J0D01*
G01*
X47941000Y-4507000D02*
X47941000Y-5907000D01*
X49341000Y-4507000D02*
X47941000Y-4507000D01*
X49341000Y-5907000D02*
X49341000Y-4507000D01*
X47941000Y-5907000D02*
X49341000Y-5907000D01*
X46036000Y-2094000D02*
X46036000Y-3494000D01*
X47436000Y-2094000D02*
X46036000Y-2094000D01*
X47436000Y-3494000D02*
X47436000Y-2094000D01*
X46036000Y-3494000D02*
X47436000Y-3494000D01*
X46801000Y-9398000D02*
G75*
G03*
X46801000Y-9398000I-700000J0D01*
G01*
X46724800Y-6959600D02*
G75*
G03*
X46724800Y-6959600I-700000J0D01*
G01*
X140095200Y-3719600D02*
X138695200Y-3719600D01*
X138695200Y-3719600D02*
X138695200Y-5119600D01*
X138695200Y-5119600D02*
X140095200Y-5119600D01*
X140095200Y-5119600D02*
X140095200Y-3719600D01*
X138746000Y-5751600D02*
X138746000Y-7151600D01*
X140146000Y-5751600D02*
X138746000Y-5751600D01*
X140146000Y-7151600D02*
X140146000Y-5751600D01*
X138746000Y-7151600D02*
X140146000Y-7151600D01*
X63518820Y-11611840D02*
X64918820Y-11611840D01*
X64918820Y-11611840D02*
X64918820Y-10211840D01*
X64918820Y-10211840D02*
X63518820Y-10211840D01*
X63518820Y-10211840D02*
X63518820Y-11611840D01*
D10*
X45076904Y-11390380D02*
X44505476Y-11390380D01*
X44791190Y-12390380D02*
X44791190Y-11390380D01*
X44172142Y-12390380D02*
X44172142Y-11390380D01*
X43791190Y-11390380D01*
X43695952Y-11438000D01*
X43648333Y-11485619D01*
X43600714Y-11580857D01*
X43600714Y-11723714D01*
X43648333Y-11818952D01*
X43695952Y-11866571D01*
X43791190Y-11914190D01*
X44172142Y-11914190D01*
X43124523Y-12390380D02*
X42934047Y-12390380D01*
X42838809Y-12342761D01*
X42791190Y-12295142D01*
X42695952Y-12152285D01*
X42648333Y-11961809D01*
X42648333Y-11580857D01*
X42695952Y-11485619D01*
X42743571Y-11438000D01*
X42838809Y-11390380D01*
X43029285Y-11390380D01*
X43124523Y-11438000D01*
X43172142Y-11485619D01*
X43219761Y-11580857D01*
X43219761Y-11818952D01*
X43172142Y-11914190D01*
X43124523Y-11961809D01*
X43029285Y-12009428D01*
X42838809Y-12009428D01*
X42743571Y-11961809D01*
X42695952Y-11914190D01*
X42648333Y-11818952D01*
X44949904Y-4659380D02*
X44378476Y-4659380D01*
X44664190Y-5659380D02*
X44664190Y-4659380D01*
X44045142Y-5659380D02*
X44045142Y-4659380D01*
X43664190Y-4659380D01*
X43568952Y-4707000D01*
X43521333Y-4754619D01*
X43473714Y-4849857D01*
X43473714Y-4992714D01*
X43521333Y-5087952D01*
X43568952Y-5135571D01*
X43664190Y-5183190D01*
X44045142Y-5183190D01*
X42902285Y-5087952D02*
X42997523Y-5040333D01*
X43045142Y-4992714D01*
X43092761Y-4897476D01*
X43092761Y-4849857D01*
X43045142Y-4754619D01*
X42997523Y-4707000D01*
X42902285Y-4659380D01*
X42711809Y-4659380D01*
X42616571Y-4707000D01*
X42568952Y-4754619D01*
X42521333Y-4849857D01*
X42521333Y-4897476D01*
X42568952Y-4992714D01*
X42616571Y-5040333D01*
X42711809Y-5087952D01*
X42902285Y-5087952D01*
X42997523Y-5135571D01*
X43045142Y-5183190D01*
X43092761Y-5278428D01*
X43092761Y-5468904D01*
X43045142Y-5564142D01*
X42997523Y-5611761D01*
X42902285Y-5659380D01*
X42711809Y-5659380D01*
X42616571Y-5611761D01*
X42568952Y-5564142D01*
X42521333Y-5468904D01*
X42521333Y-5278428D01*
X42568952Y-5183190D01*
X42616571Y-5135571D01*
X42711809Y-5087952D01*
X45076904Y-2246380D02*
X44505476Y-2246380D01*
X44791190Y-3246380D02*
X44791190Y-2246380D01*
X44172142Y-3246380D02*
X44172142Y-2246380D01*
X43791190Y-2246380D01*
X43695952Y-2294000D01*
X43648333Y-2341619D01*
X43600714Y-2436857D01*
X43600714Y-2579714D01*
X43648333Y-2674952D01*
X43695952Y-2722571D01*
X43791190Y-2770190D01*
X44172142Y-2770190D01*
X42743571Y-2579714D02*
X42743571Y-3246380D01*
X42981666Y-2198761D02*
X43219761Y-2913047D01*
X42600714Y-2913047D01*
X138320304Y-3871980D02*
X137748876Y-3871980D01*
X138034590Y-4871980D02*
X138034590Y-3871980D01*
X137415542Y-4871980D02*
X137415542Y-3871980D01*
X137034590Y-3871980D01*
X136939352Y-3919600D01*
X136891733Y-3967219D01*
X136844114Y-4062457D01*
X136844114Y-4205314D01*
X136891733Y-4300552D01*
X136939352Y-4348171D01*
X137034590Y-4395790D01*
X137415542Y-4395790D01*
X136463161Y-3967219D02*
X136415542Y-3919600D01*
X136320304Y-3871980D01*
X136082209Y-3871980D01*
X135986971Y-3919600D01*
X135939352Y-3967219D01*
X135891733Y-4062457D01*
X135891733Y-4157695D01*
X135939352Y-4300552D01*
X136510780Y-4871980D01*
X135891733Y-4871980D01*
X138320304Y-6157980D02*
X137748876Y-6157980D01*
X138034590Y-7157980D02*
X138034590Y-6157980D01*
X137415542Y-7157980D02*
X137415542Y-6157980D01*
X137034590Y-6157980D01*
X136939352Y-6205600D01*
X136891733Y-6253219D01*
X136844114Y-6348457D01*
X136844114Y-6491314D01*
X136891733Y-6586552D01*
X136939352Y-6634171D01*
X137034590Y-6681790D01*
X137415542Y-6681790D01*
X135891733Y-7157980D02*
X136463161Y-7157980D01*
X136177447Y-7157980D02*
X136177447Y-6157980D01*
X136272685Y-6300838D01*
X136367923Y-6396076D01*
X136463161Y-6443695D01*
X65480724Y-11812220D02*
X64909296Y-11812220D01*
X65195010Y-12812220D02*
X65195010Y-11812220D01*
X64575962Y-12812220D02*
X64575962Y-11812220D01*
X64195010Y-11812220D01*
X64099772Y-11859840D01*
X64052153Y-11907459D01*
X64004534Y-12002697D01*
X64004534Y-12145554D01*
X64052153Y-12240792D01*
X64099772Y-12288411D01*
X64195010Y-12336030D01*
X64575962Y-12336030D01*
X63671200Y-11812220D02*
X63004534Y-11812220D01*
X63433105Y-12812220D01*
M02*
