M48
; DRILL file {KiCad (5.1.6)-1} date 11/12/20 22:36:09
; FORMAT={-:-/ absolute / inch / decimal}
; #@! TF.CreationDate,2020-11-12T22:36:09-06:00
; #@! TF.GenerationSoftware,Kicad,Pcbnew,(5.1.6)-1
; #@! TF.FileFunction,Plated,1,2,PTH
FMAT,2
INCH
T1C0.0157
T2C0.0295
T3C0.0394
T4C0.0512
T5C0.0709
T6C0.1693
%
G90
G05
T1
X0.168Y-1.318
X0.228Y-2.668
X0.305Y-1.34
X0.436Y-1.882
X0.446Y-0.772
X0.66Y-1.165
X0.6914Y-0.9764
X0.754Y-0.896
X0.7769Y-0.7586
X0.8179Y-0.7791
X0.864Y-0.748
X0.87Y-1.084
X0.922Y-0.748
X1.01Y-0.536
X1.018Y-2.032
X1.02Y-3.22
X1.02Y-4.402
X1.02Y-5.59
X1.07Y-0.582
X1.0837Y-5.7401
X1.084Y-1.02
X1.084Y-2.2
X1.084Y-3.38
X1.084Y-4.556
X1.17Y-0.84
X1.88Y-0.336
X1.895Y-0.41
X1.908Y-0.2985
X2.005Y-0.235
X2.01Y-0.185
X2.1139Y-0.158
X2.136Y-2.2
X2.136Y-3.38
X2.136Y-4.556
X2.1366Y-5.7402
X2.138Y-1.02
X2.17Y-0.38
X2.228Y-0.552
X2.234Y-0.502
X2.2632Y-5.7395
X2.264Y-1.02
X2.264Y-2.2
X2.264Y-3.38
X2.264Y-4.556
X2.34Y-0.762
X2.3435Y-0.4296
X2.376Y-0.242
X2.4793Y-0.2693
X3.002Y-0.374
X3.219Y-0.47
X3.316Y-1.02
X3.316Y-2.2
X3.316Y-4.556
X3.317Y-5.7396
X3.318Y-3.38
X3.38Y-2.365
X3.381Y-1.187
X3.381Y-3.546
X3.381Y-4.723
X3.381Y-5.902
X3.4434Y-5.7399
X3.444Y-1.02
X3.444Y-2.2
X3.444Y-3.38
X3.444Y-4.558
X3.494Y-0.602
X3.53Y-0.9
X3.627Y-0.22
X3.89Y-0.602
X3.954Y-0.55
X4.18Y-0.39
X4.496Y-1.02
X4.496Y-2.2
X4.496Y-3.38
X4.496Y-4.558
X4.497Y-5.7399
X4.6233Y-5.7401
X4.624Y-1.02
X4.624Y-2.2
X4.624Y-3.38
X4.624Y-4.558
X5.638Y-0.118
X5.676Y-2.2
X5.676Y-3.38
X5.676Y-5.74
X5.678Y-0.624
X5.678Y-0.66
X5.678Y-0.696
X5.678Y-4.558
X5.6781Y-0.5879
X5.68Y-1.018
X5.716Y-0.624
X5.716Y-0.66
X5.716Y-0.696
X5.7161Y-0.5879
X5.718Y-0.3217
X5.718Y-0.3548
X5.7237Y-0.2273
X5.74Y-4.511
X5.741Y-3.335
X5.741Y-5.697
X5.7507Y-0.3217
X5.7507Y-0.3548
X5.838Y-0.308
X5.895Y-0.4715
X5.895Y-0.505
T2
X1.72Y-6.3829
X1.7987Y-6.3829
X0.34Y-3.22
X0.34Y-3.2987
X6.42Y-1.9413
X6.42Y-2.02
X1.1513Y-0.32
X1.23Y-0.32
X0.34Y-3.505
X0.34Y-3.5837
X0.7813Y-0.32
X0.86Y-0.32
T3
X4.47Y-0.55
X4.57Y-0.55
X2.69Y-0.31
X2.69Y-0.41
X2.79Y-0.31
X2.79Y-0.41
X2.89Y-0.31
X2.89Y-0.41
T4
X4.4831Y-0.215
X4.68Y-0.215
T5
X5.9985Y-0.63
X6.215Y-0.63
T6
X6.5354Y-0.2362
X0.2362Y-6.5354
X0.2362Y-0.2362
X6.5354Y-6.5354
T0
M30
